<?xml version="1.0" encoding="UTF-8"?>
<svg id="Layer_1" xmlns="http://www.w3.org/2000/svg" version="1.1" viewBox="0 0 1287.36 894.72">
  <!-- Generator: Adobe Illustrator 29.6.1, SVG Export Plug-In . SVG Version: 2.1.1 Build 9)  -->
  <defs>
    <style>
      .st0 {
        fill: #034e68;
      }

      .st1 {
        fill: #02506b;
      }

      .st2 {
        fill: #047198;
      }

      .st3 {
        fill: #047da7;
      }

      .st4 {
        fill: #b4b5b5;
      }

      .st5 {
        fill: #2b2b2b;
      }

      .st6 {
        fill: #c8cdcd;
      }

      .st7 {
        fill: #848a8a;
      }

      .st8 {
        fill: #030202;
      }

      .st9 {
        fill: #4b4343;
      }

      .st10 {
        fill: #0493c6;
      }

      .st11 {
        fill: #03769f;
      }

      .st12 {
        fill: #6a6b6b;
      }

      .st13 {
        fill: #010101;
      }

      .st14 {
        fill: #035471;
      }

      .st15 {
        fill: #6f6464;
      }

      .st16 {
        fill: #686666;
      }

      .st17 {
        fill: #9a9f9f;
      }

      .st18 {
        fill: #737272;
      }

      .st19 {
        fill: #201e1e;
      }

      .st20 {
        fill: #036183;
      }

      .st21 {
        fill: #4b2828;
      }

      .st22 {
        fill: #484e4e;
      }

      .st23 {
        fill: #047ca6;
      }

      .st24 {
        fill: #7c6060;
      }

      .st25 {
        fill: #6f5050;
      }

      .st26 {
        fill: #919797;
      }

      .st27 {
        fill: #8f8f8f;
      }

      .st28 {
        fill: #06bbfa;
      }

      .st29 {
        fill: #036688;
      }

      .st30 {
        fill: #0477a0;
      }

      .st31 {
        fill: #5f5f5f;
      }

      .st32 {
        fill: #a1a3a3;
      }

      .st33 {
        fill: #666363;
      }

      .st34 {
        fill: #1d1f1f;
      }

      .st35 {
        fill: #5c5252;
      }

      .st36 {
        fill: #b5b5b5;
      }

      .st37 {
        fill: #8e7373;
      }

      .st38 {
        fill: #555454;
      }

      .st39 {
        fill: #545050;
      }

      .st40 {
        fill: #524343;
      }

      .st41 {
        fill: #4b3f3f;
      }

      .st42 {
        fill: #959c9c;
      }

      .st43 {
        fill: #06b8f6;
      }

      .st44 {
        fill: #024c67;
      }

      .st45 {
        fill: #030303;
      }

      .st46 {
        fill: #635e5e;
      }

      .st47 {
        fill: #858080;
      }

      .st48 {
        fill: #151212;
      }

      .st49 {
        fill: #716767;
      }

      .st50 {
        fill: #7b8484;
      }

      .st51 {
        fill: #a1a1a1;
      }

      .st52 {
        fill: #04698e;
      }

      .st53 {
        fill: #534e4e;
      }

      .st54 {
        fill: #050404;
      }

      .st55 {
        fill: #9fa0a0;
      }

      .st56 {
        fill: #5a5959;
      }

      .st57 {
        fill: #a5a5a5;
      }

      .st58 {
        fill: #848383;
      }

      .st59 {
        fill: #989e9e;
      }

      .st60 {
        fill: #02374a;
      }

      .st61 {
        fill: #036081;
      }

      .st62 {
        fill: #0483b1;
      }

      .st63 {
        fill: #bfc0c0;
      }

      .st64 {
        fill: #06b9fa;
      }

      .st65 {
        fill: #6c6767;
      }

      .st66 {
        fill: #034760;
      }

      .st67 {
        fill: #4e4343;
      }

      .st68 {
        fill: #a7aaaa;
      }

      .st69 {
        fill: #565050;
      }

      .st70 {
        fill: #b4b4b4;
      }

      .st71 {
        fill: #908888;
      }

      .st72 {
        fill: #b2b4b4;
      }

      .st73 {
        fill: #0592c4;
      }

      .st74 {
        fill: #525252;
      }

      .st75 {
        fill: #979e9e;
      }

      .st76 {
        fill: #4a2424;
      }

      .st77 {
        fill: #706e6e;
      }

      .st78 {
        fill: #4f4b4b;
      }

      .st79 {
        fill: #5c5757;
      }

      .st80 {
        fill: #a8a9a9;
      }

      .st81 {
        fill: #7e7272;
      }

      .st82 {
        fill: #848181;
      }

      .st83 {
        fill: #7d8484;
      }

      .st84 {
        fill: #b5b6b6;
      }

      .st85 {
        fill: #046e94;
      }

      .st86 {
        fill: #959999;
      }

      .st87 {
        fill: #836969;
      }

      .st88 {
        fill: #626565;
      }

      .st89 {
        fill: #727e7e;
      }

      .st90 {
        fill: #303030;
      }

      .st91 {
        fill: #0c0b0b;
      }

      .st92 {
        fill: #331b1b;
      }

      .st93 {
        fill: #181b1b;
      }

      .st94 {
        fill: #544444;
      }

      .st95 {
        fill: #614d4d;
      }

      .st96 {
        fill: #0a0707;
      }

      .st97 {
        fill: #023e53;
      }

      .st98 {
        fill: #047fab;
      }

      .st99 {
        fill: #736e6e;
      }

      .st100 {
        fill: #05a6de;
      }

      .st101 {
        fill: #505050;
      }

      .st102 {
        fill: #06baf9;
      }

      .st103 {
        fill: #747272;
      }

      .st104 {
        fill: #717171;
      }

      .st105 {
        fill: #023649;
      }

      .st106 {
        fill: #b7b8b8;
      }

      .st107 {
        fill: #03688d;
      }

      .st108 {
        fill: #605858;
      }

      .st109 {
        fill: #b7b7b7;
      }

      .st110 {
        fill: #6b6767;
      }

      .st111 {
        fill: #343939;
      }

      .st112 {
        fill: #060e11;
      }

      .st113 {
        fill: #0488b6;
      }

      .st114 {
        fill: #0b0b0b;
      }

      .st115 {
        fill: #726969;
      }

      .st116 {
        fill: #9a9494;
      }

      .st117 {
        fill: #9fafaf;
      }

      .st118 {
        fill: #06bbfb;
      }

      .st119 {
        fill: #acadad;
      }

      .st120 {
        fill: #646464;
      }

      .st121 {
        fill: #06bcfb;
      }

      .st122 {
        fill: #868585;
      }

      .st123 {
        fill: #06b6f5;
      }

      .st124 {
        fill: #06b8f8;
      }

      .st125 {
        fill: #047aa4;
      }

      .st126 {
        fill: #a0a6a6;
      }

      .st127 {
        fill: #040404;
      }

      .st128 {
        fill: #0d0b0b;
      }

      .st129 {
        fill: #a6a7a7;
      }

      .st130 {
        fill: #06bcfd;
      }

      .st131 {
        fill: #644747;
      }

      .st132 {
        fill: #360404;
      }

      .st133 {
        fill: #bababa;
      }

      .st134 {
        fill: #5a4d4d;
      }

      .st135 {
        fill: #03678b;
      }

      .st136 {
        fill: #898282;
      }

      .st137 {
        fill: #818d8d;
      }

      .st138 {
        fill: #9fa1a1;
      }

      .st139 {
        fill: #040505;
      }

      .st140 {
        fill: #684040;
      }

      .st141 {
        fill: #776f6f;
      }

      .st142 {
        fill: #545656;
      }

      .st143 {
        fill: #555b5b;
      }

      .st144 {
        fill: #b8b8b8;
      }

      .st145 {
        fill: #453d3d;
      }

      .st146 {
        fill: #928d8d;
      }

      .st147 {
        fill: #7e7171;
      }

      .st148 {
        fill: #858585;
      }

      .st149 {
        fill: #514b4b;
      }

      .st150 {
        fill: #035b7b;
      }

      .st151 {
        fill: #06b7f5;
      }

      .st152 {
        fill: #595555;
      }

      .st153 {
        fill: #766c6c;
      }

      .st154 {
        fill: #06bcfc;
      }

      .st155 {
        fill: #a2adad;
      }

      .st156 {
        fill: #8f8585;
      }

      .st157 {
        fill: #0490c2;
      }

      .st158 {
        fill: #b8b9b9;
      }

      .st159 {
        fill: #6b6b6b;
      }

      .st160 {
        fill: #a1a2a2;
      }

      .st161 {
        fill: #887b7b;
      }

      .st162 {
        fill: #a0a2a2;
      }

      .st163 {
        fill: #06b8f7;
      }

      .st164 {
        fill: #04729a;
      }

      .st165 {
        fill: #02435a;
      }

      .st166 {
        fill: #b9baba;
      }

      .st167 {
        fill: #6a6565;
      }

      .st168 {
        fill: #0491c4;
      }

      .st169 {
        fill: #687070;
      }

      .st170 {
        fill: #048ab8;
      }

      .st171 {
        fill: #4d4949;
      }

      .st172 {
        fill: #7f6969;
      }

      .st173 {
        fill: #595757;
      }

      .st174 {
        fill: #504646;
      }

      .st175 {
        fill: #024359;
      }

      .st176 {
        fill: #4c4747;
      }

      .st177 {
        fill: #6d6e6e;
      }

      .st178 {
        fill: #707272;
      }

      .st179 {
        fill: #0482af;
      }

      .st180 {
        fill: #b9b9b9;
      }

      .st181 {
        fill: #636464;
      }

      .st182 {
        fill: #047da9;
      }

      .st183 {
        fill: #848888;
      }

      .st184 {
        fill: #666464;
      }

      .st185 {
        fill: #047aa5;
      }

      .st186 {
        fill: #025673;
      }

      .st187 {
        fill: #817c7c;
      }

      .st188 {
        fill: #8a8181;
      }

      .st189 {
        fill: #9da0a0;
      }

      .st190 {
        fill: #989898;
      }

      .st191 {
        fill: #8b8d8d;
      }

      .st192 {
        fill: #94a0a0;
      }

      .st193 {
        fill: #0d0a0a;
      }

      .st194 {
        fill: #959a9a;
      }

      .st195 {
        fill: #a3aeae;
      }

      .st196 {
        fill: #adadad;
      }

      .st197 {
        fill: #5d5353;
      }

      .st198 {
        fill: #716868;
      }

      .st199 {
        fill: #4a4e4e;
      }

      .st200 {
        fill: #0478a2;
      }

      .st201 {
        fill: #03688b;
      }

      .st202 {
        fill: #06bdfe;
      }

      .st203 {
        fill: #03668a;
      }

      .st204 {
        fill: #605c5c;
      }

      .st205 {
        fill: #9f9c9c;
      }

      .st206 {
        fill: #5b5959;
      }

      .st207 {
        fill: #5c7a7a;
      }

      .st208 {
        fill: #757f7f;
      }

      .st209 {
        fill: #413c3c;
      }

      .st210 {
        fill: #646161;
      }

      .st211 {
        fill: #4e4a4a;
      }

      .st212 {
        fill: #4b4848;
      }

      .st213 {
        fill: #786767;
      }

      .st214 {
        fill: #574242;
      }
    </style>
  </defs>
  <path d="M663.82,152.48l.67,1.28-6.42,6.4c-.19.29-.14,1.19-.52,1.88-.72,1.31-2.82,2.19-3.2,3.6-1.18,4.46,9.27,10.85,11.9,13.67,4.03,4.33,11.34,14.9,11.96,20.65,1.79,16.57-4.9,34.83-8.69,50.77-.56,2.36-2.35,4.8-2.65,7.02-.41,3.06,2.43,7.89-1.62,7.89h-13.91l-.96,19.18,27.32.98c5.39,3.82,2.75-.24,5.27-4.36,11.87-19.41,49.82-22.08,63.18-2.69,7.45,10.81,8.66,35.82.66,46.38-1.2,1.59-6.17,5.05-6.28,5.45-.91,3.35,1.49,10.93-1.39,13.73-1.3,1.26-13.76,2.06-13.99,3.4-.61,9.97-.57,19.56.17,29.54.82,10.92.03,10.14-1.07,20.26-.8,7.3-1.75,19.79-.97,26.85.45,4.08,3.06,6.92,2.89,11.03,13.76-3.81,4.79,6.25,2.41,12.48-3.43,8.97-1.73,9.41,2.55,17.55,2.13,4.04,13.52,20.41,13.33,23.17-.27,3.89-3.59,1.55-5.38,1.64-5.36.25-2.64,3.9-3.32,4.61-.2.21-3.77.31-5.75.97-4.37,2.49-5.96.89-4.8-4.79-2.9-1.06-3.54-3.3-1.92-6.71-1.34.66-1.51-.65-.96-1.92-1-.54-1.59-2.74-.96-3.84-1.71-5.89-2.03-5.58-.96.96,1.05.67,1.33,1.68.96,2.88,1.12.63,1.44,2.46,0,2.88,3.02,5.35-3.35,3.68-4.08-.75l.25-3.08c-.27.83-.59.82-.96,0-1.88-1.22-2.63-5.33-2.88-7.67-.68-.59-1.32-.59-1.92,0,.74.25,1.06.57.96.96,2.14,1.62,3.21,6.63,2.88,9.59,1.99-.61,3.42,2.62,1.92,3.84,1.05,1.95,3,5.67,1.92,7.67,3.32-.6,4.28.36,2.88,2.88,8.09,12.85.53,8.49-9.62,11-2.81.69-8.94,4.12-10.21,4.24-2.65.25-4.19-9.05-5.11-11.4-1.25-.11-1.89,2.12-1.92,6.71-.27.84-.59.83-.96,0l-2.06-1.47-1.63-12.82c-.07-4.77-2-7.94-5.8-9.51-1.95-7.37-5.12-14.33-8.84-20.94-1.94.43-3.54-.3-4.54-2.02l-4.85-12.51-2.01,1.74c.53,7.84.76,16.51-.96,23.97l-1.42-.57c-.76-13.41-1.56-26.97-2.41-40.66-1.12.62-1.76-.02-1.92-1.92-.86-.1-.81-.43,0-.96l-.96-1.92c-2.86,0-3.4-2.46-.96-3.84-.29-.6-.5-1.07-.45-1.08,5.08-1.23,14.38-.96,18.67,1.08h-5.76l-1.03,1.87c-9.32-1.08-7.09,1.59-1.7,6.72,3.19,5.55,8.23,14.39,7.53,20.18,1.82,2.9,3.46,4.07,4.92,3.51l.84,1.28c1.96-2.69,10.92-5.51,13.43-2.88.27-1.24,1.75-1.4,4.44-.47l1.32-.49c-2.32-.3-2.13-1.11-.96-2.88-1.6,1.12-1.98,1.1-1.92-.96-2.32,1.33-3.04.54-1.92-1.92-1.82.8-1.6-.29-.96-1.92-2.96.71-4.08-3.88-1.92-5.75-.8-2.35-.48-3.31.96-2.88.42-.21.84-.37,1.26-.38,1.18-.03,13.45,16.4,11.63,19.67-2.36,1.17,2.5,7.4,2.85,7.16,1.1-.78.67-17.46-1.02-19.91-3.73-7.55-3.96-10.09,4.43-11.67l-2.81-83.12c-2.43-3.17-18.65,15.23-18.67,18.8-.3,18.8-.65,37.66-1.05,56.6l-2.38,2.32c2.26,4.59-.61,4.26-1.92,0-1.72.61-4.27.21-4.8-1.92,0-1.11,1.6-1.75,4.8-1.92l-1.73-1.27c-.72-12.25-.89-27.13-.67-39.49.3-16.2,1.44-21.71,13.61-31.83l3.04-5.05c-1.13-11.69-1.65-23.65.26-35.14l-.84-3.5c-8.58-4.75-15.96-10.77-22.15-18.07-18.56-.63-37.05-.81-55.48-.54-3.38,1-6.36,1.21-8.95.64-1.71,1.17-2.35.21-1.92-2.88-2.92.58-6.9-2.77-6.71-5.75-1.05-1.3-.41-1.62,1.92-.96,2.89,1.75,5.41,2.55,7.32,5.66,3.52-1.29,22.76-1.04,23.92-2.72l1.38-18.28c-2.31-.26-16.35-3.11-16.86-3.81-.77-1.05.63-2.94.49-4.27-.93-8.85-13.07-19.07-11.41-27.83,1.27-6.72.59-7.77.89-14.48.48-10.79,6.66-25.91,14.38-33.57,3.68-3.65,8.7-5.46,12.54-8.56,5.02-4.05,8.61-9.48,11.98-14.88l2.86,3.82c3.29-4.71,5.81-8.41,12-9.58l-.02-.05Z"/>
  <path d="M599.55,369.2c3.03.11,2.72,3.84,0,4.79-.73,2.77-.73,5.64,0,8.63l1.51,1.74c2.55,11.7,1.6,24.35.53,36.09-.43,4.51,3.37,5.8,11.4,3.88,20.51-2.06,41.07-3.59,61.74-1.85.6.05,1.18.42,1.79.84s1.16.94,1.69,1.5c.52,1.57-2.36,1.26-3.84.96-4.22-1.54-10.48-1.23-14.98-1.03-1.7.08-3.05,1.02-3.24,1.03-.8,2.77-1.48,2.35-2.88,0-3.12-.74-6.48-.95-9.59,0,.18,1.93-.49,2.5-2.28,2.74l-12.26.35c-2.62,20.09-3.54,40.37-2.75,60.84l-1.81,8.83c5.94,9.33,13.1,18.02,20.53,26.24,6.22-4.66,11.41-10.62,15.58-17.87,1.4-1.45,2.44-2.29,4.09-.57,1.33-1.27,1.81-.69.96.96.92,1.22.19,2.8-2.19,4.74-1.92,3.61,1.67,29.97,3.1,30.58,9.52-.05,19.05.9,28.45,2.36-2.03-10.22-2.63-21.93-2.26-32.53l1.69-3.23h.96c.39.31.71.95.96,1.92.1,9.6,1.11,27.65,3.09,36.71.93,4.26,7.29,11.24,7.36,14.58.06,2.86-6.44,13.25-5.65,13.92,14.84-1.21,3.31,11.96,2.14,18.93-.49,2.91.37,7.06-.36,9.23-.89,2.65-4.64.97-5.52,1.67-.77.62-5.97,18.06-4.91,19.08.34.33,3.51-.34,3.85,0,1.62,1.55-4.4,15.19-.73,18.95.72.73,2.81,1.01,4.08,2.14,7.07,6.27,13.61,13.32,21.08,19.21,1.01,2.41.72,16.16-.65,18-.53.72-4.7,1.26-6.24,1.93-1.64.72-2.96,2.5-4.83,2.9-9.26,1.97-15.36-13.02-20.87-17.11-9.02-6.69-17,.18-13.69-19.42.62-3.69,4.39-8.1,4.56-10.85s-3.49-8.03-3.8-11.55c-.24-2.75,1.15-4.94.77-7.31-1.02-6.38-13.63-25.07-16.97-32.98-1.14-2.7-5.36-11-2.37-12.89,2.88-1.82,9.8.69,9.87-3.2.05-2.81-3.04-10.59-3.67-14.6-.78-4.94-.45-10.58-1.1-15.21-1.14-8.2-3.04-16.23-3.84-24.46-2.2,2.51-10.42,13.44-13.78,12.41-1.65-.5-12.01-15.39-14.98-17.2.12,5.59-.18,11.22-.05,16.82.2,8.56,1.36,19.3,1.03,27.72-.21,5.45-4.28,10.84-4.82,16.32.58,2.84,7.98-2.4,7.65,3.77-.35,6.56-7.63,18.7-7.79,26.38-.57.36-1.22.03-1.79.1-.75,2.7-1.04,2.68-2.72.65l-3.03.31c-2.18,3.47-10.76,4.06-13.43.96-2.39,1.46-3.98,1.46-4.8,0-5.98-7.89-11.04-16.85-14.34-26.3.62-2.52,7.18-.58,7.63-2.97.54-2.9-8.52-13.01-8.7-17.25s3.41-11.31,3.9-16.3c1.11-11.41-.13-25.6,0-37.41.02-1.62-.61-4.26.98-5.26l1.13-.08c.16,14.16.33,28.39.51,42.69l1.23.54c2.56-2.86,10.63-3.48,14.99-3.75,6.22-.38,12.52-.5,18.71.49-1.01-10.29-1.35-20.7-1.04-31.25-4.77-5.58-6.95-9.75-5.54-17.27,1.97-14.66,2.28-29.87,1.77-44.88-.03-.99-3.93,7.15-4.73,8.93-1.91,3.46-5.56,9.1-9.78,8.13-1.35,1.27-1.84.74-.96-.96-.81-.46-1.24-1.3-1.31-2.53l-13.06-4.98-.98-2.08c-.52,1.67-1.35,1.75-1.92,0,1-10.5,8.18-17.88,9.54-26.43,1.95-12.28.68-41.59.06-55.08.48-.83.48-1.47,0-1.92-.06-.63.12-1.37,0-1.92l-1.55-2.6c-10.23-9.15,1.28-5.34,3.47,2.6h0Z"/>
  <path d="M663.82,152.48c5.67-8.22,5.87-20.81,13.13-31.41,2.36-3.46,13.74-14.53,17.21-16.41,5.71-3.1,4.74,1.04,6.51.87,2.7-.26,11.37-4.97,15.16-6.07,12.53-3.62,17.12-1,28.06-1.6,2.95-.16,10.81-4.93,10.14,1.35-.35,3.34-4.79,2.88-3.87,4.82l8.65,5.74,25.87,27.82c-1.64,2.5-3.89,2.69-6.71,2.42,2.18,6.18,2.89,13.26-2.93,17.67-1.31.99-5.29,2.28-5.52,2.64-1.98,3.07-1.31,25.61-4.09,27.55-3.86,2.69-7.78-6.27-9.51-7.12-6.97-3.43-21.16,6.78-28.54,7.93-3.88.6-7.87.06-11.76.23-2.66-6.56,12.42-12.5,13.32-16.01s-10.69-16.36,2.98-10.84c.2-.92-.28-3.55,0-3.85.53-.57,11.56-.13,15.35-.95,2.47-.33,3.75-.97,3.84-1.92-2.04-.42-5.34,1.08-6.64-1.53-1.3-3.91,2.75-3.97,2.88-4.78.26-1.66-1.9-3.43-2.09-5.67-.39-4.63,2.86-6.89-1.42-11.93s-11.42-9.05-18.18-8.74c-3.35.15-13.39,3.33-15.35,5.77-1.81,2.26,1.32,1.79,1.5,2.51,1.47,5.98-10.06,5.32-14.15,6.9-9.27,3.6-14.98,13.94-28.09,17.08-1.94.46-3.52-.59-5.51.06-1.63.54-3.48,5.4-6.01,5.12,2-3.13,3.78-4.8,5.76-7.67v.02Z"/>
  <path class="st13" d="M581.33,334.68c1.57-1.72,2.16-4.57,1.74-8.56l1.13-.07,2.14,2.01c1.62,9.11,2.56,18.28,2.8,27.5l-2.06,2.14c1.49,1.43.89,2.03-.96.96-1.5-1.94-1.83-4.52-2.02-4.69-.72-.65-6.82.23-8.54-.11-1.86,26.81-2.39,53.78-4.76,80.53,11.82.14-2.58,10.31-2.56,14.9.01,2.29,6.3,12.96,5.89,15.88-.17,1.23-4.99,12.7-5.76,13.37-2.08,1.83-5.85.55-6.26.94s.43,8.23.01,8.64c-.37.37-10.2.39-10.56,0-.28-.29.19-2.92,0-3.85-20.84,5.62-6.31-9.88-7.68-11.5-3.13,1.09-4.87,4.75-8.59,3.81-4.77-12.95-2.95-8.8,4.77-15.78,5.13-4.64,8.53-10.81,14.41-14.48-.75-2.58-5.02-15.86-1.52-16.45,2.85-.49,5.96,3.37,7.18-4.62.71-4.66,1.45-19.26,1.05-23.95-.24-2.86-1.89-5.85-1.86-7.65.03-2.11,2.32-4.23,2.73-6.75,1.65-10.22-1.81-23.12,1.04-33.48-4.5-2.45-8.67-.2-13.32-.64-2.85-3.82.94-9.3-.24-12.68-.53-1.51-7-2.94-9.49-5.88-2.71-3.19-3.11-6.32-3.82-10.08-.34-1.46-.64-3.95.96-3.84l2.23,1.28c2.37,18.81,26.23,14.84,39.6,11.7l2.3,1.4h.02Z"/>
  <path class="st8" d="M623.54,605.11c2.95,6.07-2.64,11.96-2.56,17.93.03,2.38,1.62,4.57,1.69,7.49s-1.49,5.96-1.06,8.57c.2,1.23,4.55,7.29,5.64,9.78,2.79,6.39,4.93,12.92,2.74,19.73-3.21,9.97-10.02,6.65-17.96,9.85-2.69,1.08-7.4,4.37-9.8,6.23-1.94,1.5-1.23,3.76-5.07,3.95-.71.03-11.47-4.05-12-4.41-.79-.54-.89-.92-.91-1.84-.05-1.94,4.05-14.94,5.29-16.82,2.1-3.18,7.48-5.98,10.53-8.65,2.04-1.78,3.16-4.4,4.76-5.79,1.41-1.23,6.23-2.83,6.32-3.44.51-3.15-6.3-13.54-6.67-16.45-.28-2.2,1.86-2.96,1.66-5.26-.25-2.81-4.01-9.63-5.05-13.38s1.03-2.19-1.53-5.57h4.8c1.11,4.85,2.71,9.58,4.81,14.2,5.34.91,6.76.89,7.13-4.75,2.44-4.23,2.94-7.7,1.48-10.41,1.91-.29,3.48-.69,5.76-.96h0Z"/>
  <path class="st54" d="M589.96,454.55c3.39,3.7-4.05,14.43-7.14,17.96l-2.46.26c1.55,1.16.68,1.54-.96,1.92.02.97-.62,1.93-1.92,2.88,2.64-.35,4.23-.03,4.8.96h.96l4.32.66c1.12-1.73,4.18-1.52,5.27.3.47-3.34,1.58-5.57,3.3-8.35,1.32-2.12,6.82-8.29,9.17-7l.96.96.02,3.24c-3.78,6.33-7.92,12.39-12.43,18.17-1.12,18.7-1.98,37.8-.8,56.28l-1.18,1.91c-.64,0-1.28.04-1.92,0-.66-13.08.85-26.93.07-39.92-.11-1.79-.97-2.77-1.03-3.24-.13-1.01.91-6.89-1.43-5.75-3.59,1.77-2.86,11.52-5.92,12.35-3.19-1.73-15.83.54-16.54-2.37,2.38-8.83,6.33-17.29,11.4-24.86.26-.93-5,.46-3.42-4.35,1.97-6.01,14.49-17.33,14.94-22.02.63.04,1.29-.06,1.92,0h.02Z"/>
  <path class="st96" d="M598.59,278.1c1.26,1.26.73,1.65-.96.96l-2.24,1.23c-25.18-9.1-51.15.78-55.87,29.27l-2.33,2.11c-1.56.23-1.28-3.27-.96-4.79,4.76-32.03,34.83-41.32,62.35-28.77h.01Z"/>
  <path class="st93" d="M717.54,481.4c1.47,2.49,2.66,9.7,3.84,3.84.87-1.25,1.64.28,1.48,1.35-.02.14-1.2-2.49.44-2.31.6,2.21,1.28,4.51,1.92,6.71q-.89,1.61,0,0c1.21,4.17.15,5.5,4.8,4.79-.26.09-.87,1.16-1.82,1.49-1.92.66-4.55-.23-5.85,1.39-.77-1.22-2.33-2.05-2.88-2.88.22-2.41-.42-4.97-1.92-7.67-.13-.17-1.72-3.35-1.92-3.84.27-.84.59-.83.96,0,0-1.29.31-2.25.96-2.88h-.01Z"/>
  <path class="st114" d="M537.2,311.67c3.08.35,3.03,7.79,0,8.63-.03.2-1.83,2.29-.96,3.84-1.35-7.18-1.04-10.27,0-17.26-.9,1.81.87,3.98.96,4.79Z"/>
  <path class="st48" d="M599.55,369.2c-.51-2.23-4.69-6.95-7.19-7.68,1.02,3.46,4.43,3.84,5.27,7.68-2.47-4.78-8.65-6.85-11.51-10.55.45-.1.92-.52.96-.96,3.98-3.6,17.28,7.88,12.47,11.51h0Z"/>
  <path class="st22" d="M697.4,502.5c-1.7,1.87-.99,5.96-.96,8.63-.92-.26-.91-1.11-.96-1.92-.18-3.17.12-6.41,0-9.58.5-1.1,1.64,2.19,1.91,2.87h.01Z"/>
  <path class="st92" d="M604.35,280.98l-1.92.96c-2.04,1.92-5.54-.14-4.8-2.88l.96-.96c2.41,1.1,3.34,1.41,5.76,2.88h0Z"/>
  <path class="st6" d="M747.28,157.27l3.84-1.92c.4.08.78-.11.94.47-1.18,2.03-3.2,1.1-4.78,1.44h0Z"/>
  <path class="st48" d="M597.63,373.04c-.03-.63.06-1.29,0-1.92l.95.49-.95,1.43h0Z"/>
  <path class="st133" d="M683.97,424.82c-1.68.46-5.06,1.38-5.76,0-10.89-1.45-22.97-1.29-34.09-1-12.71.33-28,2.83-40.29,2.75-6.66-.05-3.32-11.54-3.27-15.61.11-9.49.27-18.97-1-28.34-.75-2.99-.75-5.87,0-8.63-.08-1.47.28-3.56,0-4.79-.64-5.41-7.61-10.03-12.47-11.51.93-9.81-1.95-21.75-2.88-31.65-1.63-2.19-3.33-13.5-1.52-16.08,8.45-5.23,16.75-10.67,24.9-16.32,1.1-2.05,2.26-3.08,3.48-3.08,1.94-2.04,9.69-2.71,12.91-2.92,17.25-1.12,34.58,1.92,51.85.99,1.68.32,7.92,8.53,10.54,10.56,3.35,2.58,11.76,5.55,13.19,8.87,2.02,4.7-.19,8.34-.28,12.66-.18,8.88-.1,17.81.82,26.63-3.77,10.96-14.64,11.65-16.01,24.36-1.24,11.55-.18,23.88-.08,35.32.03,3.24.6,15.99-.04,17.78h0Z"/>
  <path class="st202" d="M653.27,425.78c.95-.05,1.92.05,2.88,0,.38,1.25.54,2.6.96,3.84l.96,1.92c.03.31.01.65,0,.96,0,5.96.17,12.1.48,18.42l-.48,9.39,1.01.63c.07,9.09.05,18.15-.05,27.18.26,3.5.58,1.26.96-6.71-.94-9.83-1.1-19.61-.49-29.34l-.47-2.3c-.88-3.68-1.9-11.52-.24-15.09.1-.22.6-.26,1.2-.25,5.4,10.64,1.21,29.44,3.84,41.24.45.51.81,1.03.89,1.59.72,4.99,3.13,26.09.98,28.74-.18.22-.52.31-.91.35-4.94,2.38-6.5,8.15-10.06,12.48-2.38,2.89-6.25,6.56-9.47,8.55-1.79-.3-22.01-25.57-22.53-28.44s1.56-6.29,1.76-9.37c1.29-20.44-2.12-41.64,3.11-61.62,2.01-2.03,9.64-.94,12.77-1.18,1.41-.11,2.67-.92,3.31-.96,3.11-.95,6.46-.76,9.59,0v-.03Z"/>
  <path class="st133" d="M702.19,332.77c.15-8.75-.6-17.55,1.01-26.18-12.92-8.65-31.5-14.89-11.5-29.86,18.99-14.22,50.55-9.94,56.27,15.55,2.4,10.69,2,28.79-8.66,34.93-4.53,2.61-19,6.62-24.18,6.61-4.18-.01-8.52-1.84-12.95-1.04h0Z"/>
  <path class="st133" d="M597.63,279.06c.77.32,3.7,2.21,4.8,2.88,2.52,1.53,4.84,3.43,6.71,5.75,1.51,3.22-1.13,5.77-3.44,7.71-8.02,4.69-15.83,9.71-23.41,15.05.46,7.92.55,15.82.25,23.72l-1.22.51c-8.81,2.2-14.01,3.53-23.49,2.87-13.15-.92-18.02-3.77-20.63-17.25.29-2.12.23-6.44,0-8.63,3.83-23.94,19.44-38.55,44.48-36.32,3.75.34,12.53,2.3,15.95,3.71h0Z"/>
  <path class="st31" d="M664.78,451.68c.06-1.91-.05-3.84,0-5.75,1.41-.32,1.55.15,2.34,1,2.76,2.95,4.41,12.81,6.76,15.37.9.98,2.44-.19,3.34.38,1.37.86,6.79,13.56,7.88,16.15.72,1.71.95,4.79,1.65,5.81s2.61.3,3.78,2.18c2.2,3.55,3.55,17.59,3.99,22.4.78,8.7.33,18.55.97,27.31.27,3.62,2.09,7.39,1.41,11.06-10.49-2.49-21.24-3.07-31.99-3.03-.61-8.54-6.68-26.36-2.89-33.79.95-1.86,2.87-2.45,3.72-3.48.49-2.16.84-4.43,1.05-6.82-1.86-16.12-2.53-32.38-2.01-48.8h0Z"/>
  <path class="st133" d="M614.9,208.58c1.1-8.16,9.63-22.91,16.37-27.75,2.26-1.62,5.42-2.32,7.56-3.95,4.4-3.36,6.02-11.28,12.42-5.59,3.4,3.01,15.08,14.18,17.21,17.31,4.5,6.62,5.46,13.1,5,20.98-1.73,29.7-16.34,6.43-27.25-2.37-1.74,1.14-2.84,2.96-4.53,4.16-4.35,3.1-16.68,12.07-20.69,13.83-2.14.94-3.67,1.46-6.09,1.11.53-5.58-.73-12.33,0-17.74h0Z"/>
  <path class="st133" d="M647.52,212.89q-.89.91,0,0c1.97,1.18,3.98,4.74,6.27,6.68,3.86,3.28,7.72,5.2,11.96,7.7.81.07,1.13.39.96.96.84.27.83.59,0,.96-1.28,1.41-1.92,3.01-1.92,4.79,1.33-.42,3.36-.45,3.84.96-1.72,8.21-4.74,15.94-5.93,24.28-.27,1.3-1.09,1.41-2.21,1.62-4.97.94-23.13.51-28.82.03-10.11-.84-6.47-4.8-9.36-11.74-1.43-3.44-3.76-6.96-5.47-10.35l-.95-2.68c3.24.34,5.37-.14,3.82-4.03l-1.92-.96c-.47.92-1.11,1.56-1.92,1.92.78,1,.25,1.49-.96.96-.56-.13-.96-.32-.96-.96-.07-.24,0-.63,0-.96-.4-.69.23-1.33,1.92-1.92,6.86-2.52,12.99-4.98,19.1-9.19,4.29-2.95,7.04-6.53,11.16-9.06,1.02-.05,1.14.84,1.39.99h0Z"/>
  <path class="st133" d="M668.62,425.78l9.98-.05.57,1.01c1.04.08,2.08-.18,3.18.18,1.3.44,1.22,1.36,1.62,1.73,2.78,3.57,6.27,8.44,6.71,13.43.77,1.47,1.15,4.3,1.92,5.75-.98,2.39-1.3,4.63-.96,6.71,2.56-.22,2.73-.09.96,1.92-4.13.75-9.29,2.84-13.43,2.88l-.94-.92c1.7-1.85,1.27-6.95-1.93-7.71.61,1.31,1.05,3.49-.96,3.84,1.16,2.91-.86,2.36-1.92,0-2.91-5.82-6.17-13.96-9.15-19.16-1.49-2.6-4.4-1.89-5.23-8.2-.25-1.94.06-1.23,1.4-1.41,2.22-.3,5.82-.12,8.18,0Z"/>
  <path class="st180" d="M718.5,497.71c.54.84.54,1.48,0,1.92-1.26,1.99-2.54,3.91-3.84,5.75v.96c-1.08.19-2.46.69-3.84.96-5.43,1.61-7.45.65-6.07-2.89l-1.61-1.9-.96.96c.27.91-.05,1.23-.96.96-1.14-3.07-9.26-20.13-8.62-21.07,4.08-.59,11.63-3.27,15.34-1.47,3.15,5.56,6.97,10.58,10.54,15.82h.02Z"/>
  <path class="st180" d="M704.11,468.94c.48.88.48,1.52,0,1.92-.87,1.7-1.51,2.34-1.92,1.92,1.01,2.74,1.01,4.34,0,4.79-1.6,1.32-3.84,1.96-6.71,1.92-1.01.28-1.91.65-2.88.96l-1.04-.26c.43-4.28-1.09-4.66-4.71-4.53-2.3-4.21-5.36-8.37-5.76-13.42,5.89.55,10.8-3.7,16.66-3.77,2.03,3.57,4.21,7,6.37,10.48h0Z"/>
  <path class="st144" d="M723.3,348.11v27.33c0,5.56-5.98,2.11-9.58,4.32-1.18-1.24-1.57-29.3-.55-30.75,1.27-1.82,7.72-.55,10.13-.9Z"/>
  <path class="st109" d="M714.67,395.58c-.05-.4-1.33-1.29-.96-2.39,13.17.06,7.89,7.09,7.63,15.78-.17,5.91.21,11.88.04,17.79-1.35.17-6.72.24-6.72-1.44,0-9.03,1-21.17,0-29.73h.01Z"/>
  <path class="st163" d="M648.48,284.81h-10.55c-.37-1.04.96-2.1.96-2.4v-16.3c0-2.22,9.59-.38,9.59.96v17.74h0Z"/>
  <path class="st84" d="M721.38,344.27c-1.47.56-3.33.83-2.88-.96-2.07-1.17-2.07-4.58,0-5.75-.46-.27-.14-.59.96-.96,4.66-.56,12.52-4.43,17.01-4.63,3.35-.15,1.1,9.37.3,9.95-2.03,1.45-12.45,1.94-15.39,2.35h0Z"/>
  <path class="st4" d="M727.14,467.97c-2.54-.4-9.73,1-11.07-.91-.77-1.1-2.91-12.99-1.45-14.01,6.18-4.3,13.63,13.78,12.53,14.92h-.01Z"/>
  <path class="st193" d="M611.06,290.57c-.58.61-.94,2.34-1.91,3.33-6.76,6.89-13.75,8.36-21.58,14.9-1.05.88-3.27,1-3.88,1.87-1.35,1.95.21,12.17.52,15.38-2.2,1.23-.22,7.65-.97,8.63-.15.2-1.37-.14-1.91,0,4.11-6.45-2.91-20.5-.05-25.23,3.55-1.54,6.59-5.22,9.47-7.05,6.39-4.04,16.77-6.32,18.4-14.71.71.88,1.12,2.04,1.92,2.88h-.01Z"/>
  <path class="st36" d="M727.14,440.17c.73.69-2.58,9.97-4.4,10.39-.64.15-7.8-1.09-8.63-1.68-1.43-1.01-3.82-6.66-4.24-8.71h17.27Z"/>
  <path class="st72" d="M719.46,336.6c-.16.42-.53.86-.96.96l-.7,2.12c-3.15.71-2.92,1.92.7,3.63.25.01,1.82,1.44,2.88.96-.23.03-1.06.85-2.32,1-5.37.63-11.45.81-16.87.92v-11.51c5.54,1.61,11.46,2.62,17.27,1.91h0Z"/>
  <path class="st112" d="M665.74,507.3c-.15-.38-.96-.87-.96-.96.05-.93,1.12-2.29,1-4.25-.55-8.98-2.02-17.27-1.95-26.44.06-7.44.71-16.16.96-23.97,1.59,1,.96,3.64.98,5.26.09,8.6-.41,17.31,0,25.89.32,6.89,4.74,18.69-.01,24.47h-.02Z"/>
  <path class="st32" d="M726.16,472.78c.61.61,4.53,14.56,5,16.62.28,1.21,1.56,2.62-.68,3.51-1.62.65-2.37-3.61-2.81-4.84-1.24-3.44-3.43-10.41-3.44-13.84,0-1.53.87-2.52,1.94-1.45h-.01Z"/>
  <path class="st51" d="M739.6,487.15c-7.39,2.04-7.36-9.29-9.59-14.37,1.86-1.87,5.33,6.99,5.91,7.99,1.32,2.25,4.32,3.21,3.68,6.38h0Z"/>
  <path class="st57" d="M714.66,435.36c-1.86-2.64,6.26-10.97,8.48-3.15,1.76,6.18-7.87,4.02-8.48,3.15Z"/>
  <path class="st55" d="M721.37,381.68c1.09,2.49,2.27,9.92-2.3,8.54-3.66-1.11-3.3-9.84,2.3-8.54Z"/>
  <path class="st2" d="M659.99,434.41c-1.83,4.32-.87,10.43-.96,15.34.54,3.02.92,8.66-.96,10.55.88-7.23-.77-14.67-1.04-21.58-.08-2.05.96-4.12,1.04-6.23,1,.35,1.46,1.01,1.92,1.92h0Z"/>
  <path class="st19" d="M683.97,428.66c.63.59.84,1.95,1.44,1.93.92,0,.35-1.29.48-1.93,2.62,2.93,3.82,7.26,5.76,10.55l-.96,2.88c-2.3-4.41-5.49-8.46-6.71-13.43h0Z"/>
  <path class="st195" d="M707.95,475.65c.35.64,2.84,1.29,1.91,3.83h-14.38c2.2-.6,4.51-1.34,6.71-1.91.09-1.76,2.12-.97,2.88,0l.96-.96c-.83-.3-.83-.62,0-.96.32-.61.64-.61.96,0,.28-.63.6-.62.96,0h0Z"/>
  <path class="st145" d="M679.17,459.35c-5.75.04-3.95-1.19-5.76-4.79.81.95,1.84-.06,1.92,0,1.26.25,1.58-1.03.96-3.84,3.8-.64,4.47,6.13,2.88,8.63Z"/>
  <path class="st40" d="M703.16,502.5c5.8-1.05,2.6,4.55,2.88,4.79h4.79c-1.53.31-7.46,2.92-8.6,1.89-.25-1.56-.45-3.28-1-4.76.36-.27.61-.69.96-.96l.96-.96h0Z"/>
  <path class="st63" d="M717.54,488.12c.12.17,1.49,0,1.9.5,1.35,1.67,3.44,8.45.01,7.17-1.51-2.29-3.93-5.23-1.92-7.67h0Z"/>
  <path class="st41" d="M718.5,499.62c1.29,1.97,2.57,3.88,3.84,5.75-.66,1.86-4.84.69-6.71.96-.56-.13-.96-.31-.96-.96-.29-3.38-.33-6.26,3.84-5.75h-.01Z"/>
  <path class="st211" d="M707.95,475.65h-.96c-.38-.45-.7-.45-.96,0-.15.13.15.89,0,.96l-.96.96c-.66.25-2.07-.21-2.88,0,.18-1.51-.26-3.38,0-4.79l1.92-1.92c.15-.51-.1-1.31,0-1.92,1.38,2.22,2.57,4.44,3.84,6.71h0Z"/>
  <path class="st88" d="M619.7,232.07c4.04,4.94-3.48,3.58-2.88,6.71-.77-1.53-2.3-3.32-2.88-4.79h.96c.45-.18.65-.69.96-.96.3-.42.62-.4.96,0q1.23,1.09,0,0c-.29-.79.16-1.11.96-.96.09-.95,1.13-.51,1.92,0h0Z"/>
  <path class="st183" d="M721.38,478.53c.03.88-.01,1.24-.96.96-.44-1.37-3.35-7.23-2.87-7.67s2.71-.04,3.37.93c1.06,1.55.14,4.15.46,5.78h0Z"/>
  <path class="st9" d="M692.6,480.44c-.39.12-.75,1.17-2.38,1.04-1.06.29-1.12-.67-1.46-1.04.98-1.31.87-2.72-.96-2.88-.42-.7-.63-1.32-.96-1.92,3.96-2.66,5.73,1.11,5.76,4.79h0Z"/>
  <path class="st110" d="M716.59,481.4c.47.54.47,1.5,0,2.88h-.96c-.87-2.1-2.13-7.06-2.88-9.59-.53-.44-.21-.76.96-.96,1.39,1.38,2.56,5.65,2.88,7.67h0Z"/>
  <path class="st132" d="M683.97,424.82c-.66,1.83-3.95.17-4.8,1.92-3.41-.25-7.68-.81-10.55-.96,1.9-.1,3.86.15,5.76,0,1.99-.15,3.1-.87,3.84-.96,1.81-.22,3.89.15,5.76,0h-.01Z"/>
  <path class="st17" d="M722.34,505.38c-3.58,1.02-3.02-2.23-3.84-5.75-.13-.55.09-1.3,0-1.92,1.27,1.87,4.75,5.09,3.84,7.67Z"/>
  <path class="st46" d="M697.4,452.63c.04,1.05.36,2.01.96,2.88-.24,1.83-4,.64-5.76.96-.17-.6-.93-1.44-.96-1.92v-.96c1.17-1.24,2.45-1.88,3.84-1.92.13.15,1.31.14,1.92.96h0Z"/>
  <path class="st42" d="M695.48,451.68c-.92,1.67-2,3.55-3.84,1.92-1.03-1.42.03-4.06,1.92-3.84.21.3,1.29,1.17,1.92,1.92h0Z"/>
  <path class="st26" d="M687.81,477.57l.48-.95h2.39c-.09,2.5.96,4.4-1.91,3.83-.66-.72-.58-2.24-.96-2.88h0Z"/>
  <path class="st101" d="M693.56,449.76c-.94,1.21-1.7,2.25-1.92,3.84-.04.29-.02.66,0,.96-2.28-1.82-.56-5,.96-6.71.3.57.76,1.64.96,1.92h0Z"/>
  <path class="st192" d="M669.58,230.15c.75.24.73.56,0,.96-.02.63.08,1.31,0,1.92-1.03,1.33-2.93,1.31-3.84,0-1.69-.47-.55-2.68.96-2.88.27-.88,2.18-.67,2.88,0Z"/>
  <path class="st149" d="M665.74,227.28h5.75c.23,1.88,0,3.23-1.91,3.84,0-.3.06-.67,0-.96-.84-.32-.84-.64,0-.96l-2.88-.96c-.38-.22-.64-.77-.96-.96h0Z"/>
  <path class="st156" d="M698.36,455.51h-3.84l2.88-2.88c.57.77.97,1.9.96,2.88Z"/>
  <path class="st76" d="M669.58,233.03c-.07.55-.83,1.31-.96,1.92-1.27-.06-2.79-.18-3.84-.96-.73-1.2-.37-1.62.96-.96,1.18-.19,2.6.13,3.84,0h0Z"/>
  <path class="st90" d="M723.3,484.28c-.12,1.47.62,3.22-.95,2.87.23-.88-.84-1.48-.97-1.91-.23-.77.23-2.14,0-2.88.27-.84.59-.83.96,0,.09.35.72,1.04.96,1.92h0Z"/>
  <path class="st34" d="M713.7,485.23c-1.47,1.48-3.06-2.71-2.87-2.86,1.18-.96,3.78,1.95,2.87,2.86Z"/>
  <path class="st152" d="M722.34,482.36h-.96c-.3-.96-.65-1.91-.96-2.88l.96-.96c.17.86.69,2.84.96,3.84Z"/>
  <path class="st83" d="M716.59,484.28c-.1-.93.14-1.98,0-2.88h.96l-.96,2.88Z"/>
  <path class="st191" d="M615.86,230.15l-1.92,1.92c0-.14-1.54-.25-.52-.98.6-1.03,1.75-.69,2.44-.94Z"/>
  <path class="st2" d="M658.07,431.54l-.96-1.92c.04.12.8.33.96,1.92Z"/>
  <path class="st117" d="M713.71,473.73c-.68.44-1.33.7-1.92,0,.93-2.33,1.34-.57,1.92,0Z"/>
  <path class="st68" d="M713.71,473.73l-.96.96c-.03-.09-1.2-.15-.96-.96h1.92Z"/>
  <path class="st148" d="M715.63,506.34c-.31.05-.65-.06-.96,0v-.96l.96.96Z"/>
  <path class="st191" d="M614.9,233.99h-.96c-.1-.26.09-.65,0-.96l.96.96Z"/>
  <path class="st31" d="M606.27,465.1c1.26-1.66,4.55-3.49,6.17-5.81,3.83-5.5,5.87-14.18,11.08-19.12-1.92,12.18-.5,24.65-.91,36.96-.19,5.69-3.15,21.09-1.44,25.34.83,2.06,4.7,4.56,5.21,7.25,1.17,6.09-.29,17.09-.02,23.99.13,3.29,1.62,6.55.99,10.03-5.85-1.31-12.67-1.28-18.74-1-5.14.24-11.72,2.03-16.75,1.96-1.09-1.6-.94-3.4-1-5.23-.61-17.59-.21-36.1,1.22-53.57,5.45-6.41,9.11-14.14,14.17-20.79h.02Z"/>
  <path class="st133" d="M625.46,545.65c-.6,4.8,1.3,9.01.86,13.8-.54,5.79-4.44,11.24-5.43,16.64-.45,2.48.34,7.53-.65,8.94-.6.86-13.83,3.9-14.92,3.35-3.22-1.62-12.68-22.6-17.06-26.14-.77-2.67.08-11.86,1.62-14.05,1.77-2.49,30.73-2.5,35.58-2.54Z"/>
  <path class="st133" d="M698.12,551.65c.38.36,4.45,8.64,4.63,9.35,1.45,5.88-8.52,17.65-11.46,23.13-.73,1.36-2.28,6.37-2.56,6.59-.18.13-2.65-1.12-4.27-1.05-2.44.1-7.61,1.82-9.2.65-3.37-14.17-9.49-27.98-9.53-42.75,7.1,1.24,27.59-.51,32.38,4.08h.01Z"/>
  <path class="st133" d="M681.18,644.51c.17-.13,1.44.74,2.14.55,3.34-.9,4.35-2.19,8.25-.07,6.68,6.4,13.52,12.79,20.69,18.63,2.59,2.11,4.84,1.12,5.34,5.21.22,1.81.23,10.06-.49,11.12-.26.38-7.72,4.22-8.16,4.35-6.06,1.71-14.98-13.9-20.22-17.29-2.63-1.7-8.04-2.35-9.57-3.85-2.38-2.34-.55-16.76,2.03-18.64h-.01Z"/>
  <path class="st166" d="M604.35,456.47c-1.83-.49-12.35-4.46-12.55-5.4,1.08-7.84,7-14.39,6.8-22.4l25.89-.96c2.13,2.02-10.79,22.73-12.47,25.89-.66,2.69-3.16,4.27-1.92.96-.36-4.5-1.9-5.41-4.8-1.92l.96,2.88c.72,1.54-.49,1.38-1.92.96h0Z"/>
  <path class="st180" d="M628.34,579.22c1.5,1.49-5.56,20.8-6.35,24.03-5.2-1.59-16.55,2.37-20.53.42-1.69-.83-10.58-17.45-10.56-19.23.03-2.14,4.38-3.73,5.76-2.88,2.68,1.64,4.45,11.04,8.14,11.07,1.29.01,5.54-2.19,7.95-2.61,9.6-1.7,12,2.96,10.78-10.8h4.81,0Z"/>
  <path class="st180" d="M668.52,579.32c.84.72,3.4,14.69,4.06,15.11,1.82,1.17,8.08-1.02,10.86-.88,3.96.2,5.5,3.6,8.05-.57,3.47-5.64,3.31-15.4,12.61-12.8,1.45,1.47-7.81,18.07-5.76,22.06-9.29-.97-18.5-1.29-27.81-.44-2.36-1.15-7.21-16.92-9.61-20.23-.5-2.96,6.87-2.86,7.58-2.25h.02Z"/>
  <path class="st180" d="M589.96,454.55c5.84.54,11.36,5.12,17.27,5.76-.67,1.1-1.23,2.94-1.92,3.83-1.86,2.39-5.51,5.54-7.65,8.17-1.69,2.07-3.1,5.78-4.82,7.17-2.21.63-2.86-.71-1.95-4-1.76,4.09-2.09,4.42-7.64,3.04-.32,0-.64.02-.96,0l-.75-1.12c2.24-1.73,1.84-3.27-1.17-4.63,3.61-5.68,8.61-11.58,9.59-18.22h0Z"/>
  <path class="st158" d="M693.56,606.08l-5.35,16.35c-2.31-.38-6.17.66-8.09-.52-1-.61-7.65-12.72-7.71-14.42-.07-1.98.26-1.11,1.38-1.55,5.19-2.02,14.26-.72,19.78.13h-.01Z"/>
  <path class="st158" d="M617.78,606.07c1.22.34,4.25-1.14,3.73,1.32-1.07,5.09-5,10.1-3.73,15.95-2.58-.42-8.45,1.03-10.09-.95-.43-.51-4.35-10.89-4.86-12.47-.75-2.31-.1-1.73,1.52-2.89,4.78.02,8.73-.24,13.43-.96Z"/>
  <path class="st84" d="M690.68,640.59c-8.89-.54-9.64-4.79-11.5-12.46,2.7.45,11.63-1.04,13.02.89,1.28,3.89-2.37,7.38-1.52,11.57Z"/>
  <path class="st162" d="M612.02,453.59c-1.6,3.01.69,4.59-5.34,3.88-1.4-.17-1.9-.89-2.34-1,.77.03,1.45-.82,1.92-.96.87-.38,1.83-.69,2.88-.96.24-.84.56-.81.96,0,.08,0,.33,1,.93.96l.99-1.92h0Z"/>
  <path d="M653.27,425.78c-3.17.18-6.44-.25-9.59,0,1.94-1.59,7.47-1.64,9.59,0Z"/>
  <path class="st48" d="M599.55,382.63c-.29-2.15-2.62-6.2,0-8.63.16,2.85-.11,5.77,0,8.63Z"/>
  <path class="st130" d="M734.81,111.24c.32-.55.64-.55.96,0l1.92.96c.57-.93,1.28-.91,1.92,0,.28-.63.6-.62.96,0,8.36,1.31,16.15,8.21,18.23,16.3,3.09,1.96,3.39,5.46,1.92,8.63.78.92.3,1.67-.96,1.92-.05,3.55-3.44,8.29-5.91,11.14.83,1.66-1.16,1.76-2.72,1.32-1.07-.91-1.06.06-.21-1.62,1.69-3.36,5.93-6.08,5-10.84l-6.7,1.91c.89-6.72-2.43-13.44-6.72-18.22-3.79-2.01-7.31-4.89-10.55-8.63-2.2-.59-5.09-1.7-5.76-3.84,2.68-1.83,6-1.41,8.63.96h-.01Z"/>
  <path class="st154" d="M693.56,117.95c12.93-14.64,32.13-17.67,50.84-16.29l-1.92,3.83c-.7.79-1.96.52-2.88,0-.32.84-1.53.84-1.92,0l-2.88.96c-2.15,2.21-4.07,2.85-5.76,1.92h-1.92c-.29,1.22-1.75,1.18-2.88.96-.22,1.39-2.29,1.21-2.88,0l-1.92.96c-.03.95-1.03,1.35-1.92.96-3.74,2.5-8.05,4.95-12.47,5.75-1.77,1.55-4,2.83-6.71,3.84l-5.76,2.88c-.53,1.23-1.7,2.55-2.88,1.92h-.96c-.87-.81-.08-1.34.96-1.92.54-2.04,1.65-5.78,3.84-5.75l.02-.02Z"/>
  <path class="st118" d="M742.49,106.45c13.37,2.48,25.03,18.92,33.57,28.3.04.2-3.35,1.32-3.83,1.43-.78,2.65-7.8-1.24-8.63-3.84-2.41,1.5-3.93-2.78-3.84-4.79-4.97-7.6-10.33-13.06-19.19-16.3-.32.62-.64.62-.96,0-1.52.54-3.5-.15-4.8-.96-4.95.38-5.16-3.11,0-2.88,1.01-.78,3.5-1.83,4.8-.96.75-.81,2.25-.79,2.88,0h0Z"/>
  <path class="st121" d="M772.22,139.05c3.05,2.6,3.73,9.13,2.67,12.75-1.11,3.81-8.64,3.95-10.35,8.35-1.57,1.01-3.58-1.06-3.84-2.88-.5-2.68.14-5.56,1.92-8.63-.08-3.46-.68-6.83-1.78-10.12.85-.43,1.12-1.22.82-2.35-.91-1.11-.9-3.85.96-2.88,2.65,1.54,5.56,2.83,8.75,3.87l.85,1.88h0Z"/>
  <path class="st102" d="M725.22,111.24c1.71.37,3.63,1.32,5.76,2.88,3.43,1.83,5.67,4.07,6.71,6.71-.29.56-.61.55-.96,0-4.93-1.37-13.6-5.12-18.56-3.88-1.23.31-.74,2.74-2.26,3.95-.77.61-11.03,5.08-12.76,5.69-3.49.38-7.01.7-10.55.96-5,2.61-2.56-2.41.96-3.84l5.76-2.88c1.8-1.62,4.29-2.97,6.71-2.88,2.92-2.57,7.71-4.63,11.51-5.75.43-1.01,1.99-1.55,2.88-.96.55-1.53,4.21-1.6,4.8,0h0Z"/>
  <path class="st43" d="M686.85,130.42c2.14-2.87,3.68-3.61,4.62-2.22l8.44.04c.16.73-.04,1.45-.59,2.18-3.34,5.27-6.06,3.98-10.49,7.26-5.99,4.43-9.41,7-16.37,10.96-4.55,1.39.79-6.41,3.84-7.67,1.4-2.99,4.4-6.69,7.02-9,.24-.21.87,0,1.61.37-1.33-.96-.69-1.6,1.92-1.92h0Z"/>
  <path class="st64" d="M673.42,140.97c.87.52-.62,2.01-1.1,1.86-.78-.26-.17-3.56,1.1-1.86Z"/>
  <path class="st64" d="M674.38,137.13c.45-7.42,3.11-10.5,8.14-16.32,1.54-1.78,9.1-10.06,11.05-8.61-1.12,1.44-1.28,3.23-1.92,4.79,1.28,1.54-1.54,5.1-2.88,6.71-.48,1.33-1.44,2.61-2.88,3.84-.89,2.79-1.85,3.75-2.88,2.88.3,2.84-5.05,8.03-7.67,9.59-.27.92-1.11,1.53-1.92.96-1.62-.5-.01-2.73.96-3.84h0Z"/>
  <path class="st124" d="M736.73,167.82c2.6.07,5.6.97,7.67,2.88.15-.77,1.41-.67,1.92,0,.41,4.02-9.09,9.86-13.43,10.55-2.62,1.36-5.59,2.99-8.53,3.47-.97.16-2.9.99-2.01-1.05,1.09-2.51,12.81-7.29,12.44-11.53-.04-.42-4.98-2.71-3.81-5.26,1.98-.15,3.9.37,5.75.95h0Z"/>
  <path class="st28" d="M754.96,159.19c.56.74.56,1.69,0,2.88,1.1.89.39,3.29-.96,3.84l-3.84,3.84c-1.11,1.82-2.57,1.71-3.84,0l-2.88-.96c-1.93,1.17-4.75-.43-4.8-2.88-4.11-5.58.61-2.53,3.21-2.9,4.56-.66,8.57-3.14,13.1-3.81h.01Z"/>
  <path class="st123" d="M757.83,170.7l3.53,4.62c1.02-.55,1.45.14,1.27,2.09-.2.78.14,1.97,0,2.87-2.6.08-3.23-2.55-5.53-3.58-6.79-3.05-10.16.73-16.53,1.66,1.54-2.06,5.35-6.27,7.67-5.75-1.14-1.3-.18-2.26,2.88-2.88.52-1.37,1.48-2.64,2.88-3.84.3-.85.62-.84.96,0l2.88,4.79v.02Z"/>
  <path class="st64" d="M760.71,158.23c1.09,1.2,2.36,2.15,3.84,2.88.33,2.38-.44,7.1-.96,9.59.05,6.42-1.87,6.42-5.76,0-1.57-1.61-2.21-3.21-1.92-4.79-1.56-1.85.56-6.8,2.88-7.67.82-1.67,1.44-1.93,1.92,0h0Z"/>
  <path class="st151" d="M761.67,148.64c.1,2.73-1.05,7.91-2.88,9.59-1.41,1.29-2.69,2.57-3.84,3.84.2-.78-.16-2,0-2.88.48-2.72,2.63-3.17.96-6.71-1.46-.1-2.47-.56-3.05-1.38,2.96-3.56,5.57-7.26,7.84-11.08,1.91,1.75,2.07,6.24.96,8.63h0Z"/>
  <path class="st135" d="M748.24,172.61c-2.21,1.91-5.24,4.15-7.67,5.75-2.23,1.47-5.2,4.88-7.67,2.88,4.26-2.21,11.24-6.22,13.43-10.55,1.73-.85,3.25.14,1.92,1.92h-.01Z"/>
  <path class="st30" d="M693.56,123.71l-2.87,3.36c-.04.87,1.26.42,1.91.47,2.8-.62,5.93-.73,8.63,0-.22,1.26-1.36,2-1.92,2.88.89-2.71-2.81-2.17-5.32-1.97-2.18.18-5.27.99-7.15,1.97-1.66-1.19,1.12-4.02,2.88-4.79.71-.67,1.99-1.3,2.88-1.92h.96Z"/>
  <path class="st179" d="M760.71,140.01c-.51,3.71-5.77,8.77-6.71,11.03-.27.66,1.56.69,1.92,1.43-2.03.13-3.19.39-4.8-.96,4.78-2.63,6.17-8.04,8.63-12.47,1.15-1.1,1.67-.58.96.96h0Z"/>
  <path class="st125" d="M676.3,140.97c-1.77,2.2-3.76,4.57-4.8,7.17l.97.5c-.49.28-2.56,2.34-2.87,1.92-.8-2,.71-3.62.95-4.79.44-.38.44-.7,0-.96.34-1.37.52-1.71.96-2.88,1.25.03,2.53-.29,3.84-.96h.96-.01Z"/>
  <path class="st150" d="M742.49,122.75c-2.06.83-2.2.84-3.84,0-.06-.44-.38-1.08-.96-1.92-2.32-2.58-4.57-4.18-6.71-6.71h.96c3.72,2.51,7.49,5.22,10.55,8.63h0Z"/>
  <path class="st61" d="M772.22,136.17v2.88c-2.22-1.89-7.4-3.17-9.59-5.75-1.36-1.33-.76-1.88.96-.96,2.48,2.11,5.58,4.57,8.63,3.84h0Z"/>
  <path class="st200" d="M757.83,170.7c.75,1.24,4.04,2.53,4.32,4.8.07-1.62,1.15-3.45,1.44-4.8.53,2.58-.38,4.45-.96,6.71-2.62-1.37-3.52-4.76-4.8-6.71Z"/>
  <path class="st107" d="M743.45,168.78c.77.19,1.09.51.96.96.84.27.83.59,0,.96-2.81-.83-5.32-2.14-7.67-2.88,2.04.23,2.15.12,1.92-1.92,1.93,2.62,1.8,2.37,4.8,2.88h-.01Z"/>
  <path class="st201" d="M693.56,117.95c-1.25,1.41-2.8,4.05-3.84,5.75-.29.54-.61.53-.96,0,.94-1.81,2.05-4.72,2.88-6.71l1.92.96h0Z"/>
  <path class="st43" d="M703.16,126.58c-.46.16-.84.8-1.92.96-2.17.32-6.32.18-8.63,0,2.6-2.08,7.23-.51,10.55-.96Z"/>
  <path class="st43" d="M673.42,140.97c-.22-.22-.98.15-.96.48.07,1.05,1.41-.03.96-.48.11.14,1.64-.72,1.92-.96v.96c-1.22.87-2.41,1.68-3.36,2.87l-.47-1.91c.68-1.8.56-3.94,2.88-4.79-.07,1.17-1.22,2.46-.96,3.84h-.01Z"/>
  <path class="st168" d="M760.71,157.27c.29,1.65,3.65,2.59,3.84,2.88.11.16-.05.61,0,.96-3.46.52-3.61-2.73-3.84-2.88-.84-.27-.83-.59,0-.96Z"/>
  <path class="st10" d="M738.65,122.75c-.87-.45-1.52-1.01-1.92-1.92h.96c.39.43,1.56.66,1.9,1.44l-.94.48h0Z"/>
  <path class="st97" d="M742.49,105.49v.96c-.74-.14-2.04-.06-2.88,0-.84-.27-.83-.59,0-.96.95-.07,1.92.05,2.88,0Z"/>
  <path class="st43" d="M670.54,145.76c.06-.31-.07-.66,0-.96l.94.48-.94.48h0Z"/>
  <path class="st106" d="M583.24,336.6l.96,14.39-22.51-1.97-9.14,1.01-.97-10.56c1.18-1.19,14.76,1.2,17.73,1,4.92-.34,9.02-4.03,13.93-3.87h0Z"/>
  <path class="st109" d="M573.65,353.87c-2.28,11.33-3.14,22.97-2.87,34.52-9.59.56-5.48-1.62-5.75-6.24-.52-8.84-2.05-17.46.41-26.46,1.1-4.02,5.36-1.81,8.21-1.82Z"/>
  <path class="st36" d="M569.82,402.76c-.52,2.46-.7,26.43-2.39,25.89-7.91-3.18-4.47-4.99-4.29-10.98.15-4.95-.19-9.96-.05-14.91h6.73Z"/>
  <path class="st36" d="M564.85,449.93c1.04,1.78-3.22,12.21-4.14,12.27-1.76-1.91-7.71-3.81-8.71-5.74-1.24-2.38,4.18-6.31,3.48-9.54,1.05-.93,8.81,2.03,9.37,3h0Z"/>
  <path class="st80" d="M563.11,475.65l1.03-7.12,3.27-9.17c5.44,2.24-1.79,19.2-4.3,16.29h0Z"/>
  <path class="st119" d="M558.53,441.86c-1.31-1.31-1.2-4.68-1.18-6.48.38-.43,10.47,3.41,10.52,4.3.23,3.51-6.98,4.54-9.34,2.18h0Z"/>
  <path class="st32" d="M548.51,481.17c-1.99,1.58-4.2,1-3.45-1.97.34-1.34,2.35-3.04,3.07-4.62,1.57-3.43,2.39-8.23,5.37-10.44,1.73,6.22-4.4,10.89-4.99,17.03Z"/>
  <path class="st162" d="M550.63,462.21c-2.71-.04-11.08,11-13.42,8.64-1.78-1.79,11.23-14.88,13.42-8.64Z"/>
  <path class="st194" d="M567.89,433.45c-1.46,1.46-9.06-2.41-6.71-4.78,1.46-1.46,9.06,2.41,6.71,4.78Z"/>
  <path class="st189" d="M568.85,397.97c-2.6,2.37-4.61-4.15-3.83-5.74,2.99-.71,4.81,4.85,3.83,5.74Z"/>
  <path class="st12" d="M557.34,477.57c-.27.84-.59.83-.96,0,.2-3.16-.73-6.88,1.44-9.6,1.84.05-.39,8.63-.48,9.6Z"/>
  <path class="st116" d="M557.34,478.53c.81,1.83.75,3.92,0,5.75-.1.11.16.79-.47.94-2.75-1.88-.67-4.79-.48-7.65h.96c-.03.32.03.64,0,.96h-.01Z"/>
  <path class="st12" d="M557.34,484.28c.14-1.88-.2-3.9,0-5.75,1.74,1.39,1.38,4.18,0,5.75Z"/>
  <path class="st133" d="M618.34,644.47c4.08-.91,15.22,26.31,2.56,28.58-3.59.64-4.07-1.02-9.24,1.23-3.53,1.54-12.51,8.99-13.76,9.33-1.67.46-5.91-1.07-6.99-2.26-2.25-2.48,2.33-12.43,4.38-14.81,3.76-4.39,13.76-10.19,18.24-15.33,1.37-1.58,2.61-6.25,4.81-6.74Z"/>
  <path class="st109" d="M618.61,627.3c-.64,4.43,3.64,18.07-4.22,16.9-3.07-.46-11.21-26.02,4.22-16.9Z"/>
  <path class="st106" d="M582.29,498.66c-1.03,1.51-2.53,2.38-4.52,2.6.17,1.38.3,2.43-1.24,3.15-3.8-.94-2.88-1.75-3.37-1.94-4.28-1.6.31,3.39-3.36,1.45-.81-2.27,4.58-4.81,3.84-5.25-.51,0-1.49.15-1.74-.14-1.78-2.03,6.99-14.34,5.6-18.09,3.95,1.39,9.3.51,12.42,3.46.69,2.24-6.07,12.15-7.63,14.76Z"/>
  <path class="st115" d="M592.84,479.49c-1.66,1.35-7.32.17-9.59-.96,1.07-.02,4.5.23,4.76-.04.36-.37-.68-5.99,3.39-4.74,2.75.84.16,4.63,1.45,5.74h-.01Z"/>
  <path class="st134" d="M582.29,498.66c-.7,1.17-1.38,3.42-1.92,4.79-.64.28-.32.6.96.96-.12,2.27-3.73.26-4.8,0-2.21-5.59,1.34-5.4,5.76-5.75h0Z"/>
  <path class="st206" d="M580.37,472.77c4.86.66,4.87,2.02,1.92,5.75-2.11-.11-3.07.54-4.8-.96.32-1.19,2.04-2.07,2.88-.96.37-.63.41-1.24,0-1.92-.27.84-.59.83-.96,0,.27-.41.51-1.21.96-1.92h0Z"/>
  <path class="st208" d="M580.37,474.69c1.53,0,.91.89,0,1.92-.9.51-1.85.82-2.88.96-1.81-1.57,1.09-1.63,1.92-2.88h.96Z"/>
  <path class="st207" d="M580.37,503.46c.74-.09,1,.23.96.96-3.13.53-4.34-1.16-.96-.96Z"/>
  <path class="st181" d="M725.22,490.99l-.47,3.83c-1.48-1.03-1.67-2.06-1.44-3.83h1.91Z"/>
  <path class="st5" d="M638.88,311.67c.74,9.15,1.32,18.8.16,27.91l-1.11-.1c-.78-8.53-2.01-18.22-.29-26.67.28-1.36-.38-3.14,1.24-1.14h0Z"/>
  <path class="st53" d="M642.72,395.1c.1-.88.43-.83.96,0,1.84-.18,4.02.27,5.76,0,1.37-.4,1.69-.08.96.96-2.04.31-4.59-.23-6.72,0,.86,6.48-3.36,13.21,5.76,12.47.84.27.83.59,0,.96-1.87.2-3.88-.15-5.76,0v5.76c-1.69.56-1.9-2.51-.95-3.84.04-.64-.03-1.28,0-1.92-1.57-.65-1.72-1.21,0-1.92.08-1.68.38-11.08,0-11.51-.18-.21-2.17.13-2.88,0-.99-1.52,1.61-1.66,2.88-.96h-.01Z"/>
  <path class="st111" d="M638.88,311.67c1.47.94.94,2.81,1,4.26.28,6.62.64,16.73,0,23.1-.14,1.4-.2,2.45-1.48,3.32-.84-.15-.56-2.17-.47-2.87.02-.13.89-.3,1-2.33.43-8.44-.4-17.04-.04-25.48h-.01Z"/>
  <path class="st38" d="M643.68,376.88c.65.2.62.53,0,.96.84.27.83.59,0,.96v11.51c-.27.84-.59.83-.96,0v-12.47c-1.84-.54-1.84-1.38,0-1.92.03-4.71-.3-9.74,0-14.38.27-.84.59-.83.96,0,.32,4.93-.03,10.33,0,15.34h0Z"/>
  <path class="st213" d="M642.72,407.56c-.03.64.03,1.28,0,1.92-3.7-1.24-7.79-.88-11.51-1.92-1.27-1.25-.75-1.44.96-.96,3.43.61,7.04,1.11,10.55.96Z"/>
  <path class="st161" d="M648.48,377.83c4.58-.2,6.47-.97,10.55-2.87-2.01,4.33-6.65,3.8-10.55,3.83-.84-.27-.83-.59,0-.96Z"/>
  <path class="st47" d="M638.88,375.92c.78.57.46.89-.96.96-3-.5-4.77-.87-7.67-1.92-.54-.46-.22-.78.96-.96,2.46.2,5.48,1.51,7.67,1.92Z"/>
  <path class="st178" d="M643.68,415.23c.26,1.62.85,5.77-1.91,4.79.07-2.39-.19-4.81.02-7.2.13-1.54.93-1.34.93-1.42-.74,1.57.85,3.14.96,3.84h0Z"/>
  <path class="st177" d="M635.05,394.14c2.53-.19,5.14.13,7.67,0,.63.28.62.6,0,.96-2.08.13-2.73.96-2.88.96-1.47-.03-5.29-.6-6.71-.96-1.89-1.35.23-1.82,1.92-.96h0Z"/>
  <path class="st153" d="M652.31,407.56c2.75-.5,5.01-1.26,7.67-1.91-.91,2.15-5.57,3.52-7.67,3.83-2.09-.11-1.76-.98,0-1.92h0Z"/>
  <path class="st15" d="M649.44,395.1c1.38-.22,3.78-2.39,5.76-1.91-.61,1.91-2.99,2.59-4.8,2.87l-.96-.96Z"/>
  <path class="st81" d="M642.72,375.92v1.92c-1.55-.58-3.18-.69-4.8-.96l.96-.96c1.13.21,2.62-.14,3.84,0h0Z"/>
  <path class="st37" d="M635.05,394.14c-.81.06-1.66.03-1.92.96-.75-.19-3.9-1.44-2.87-1.91,1.54.07,4.01-.62,4.79.95Z"/>
  <path class="st58" d="M652.31,407.56v1.92c-.91.13-1.95-.1-2.88,0v-.96c.54-.04,1.85-.77,2.88-.96h0Z"/>
  <path class="st71" d="M632.17,406.6l-.96.96c-.75-.21-3.91-1.42-2.87-1.91,1.66-.77,3.11.82,3.83.95Z"/>
  <path class="st120" d="M643.68,395.1c-.32.03-.64-.02-.96,0v-4.79h.96v4.79Z"/>
  <path class="st65" d="M646.56,377.83c.64,0,1.28.03,1.92,0v.96c-1.6.01-3.2,0-4.8,0v-.96c.86-.36,1.82-.36,2.88,0Z"/>
  <path class="st172" d="M631.21,374l-.96.96c-.45-.16-1.31.11-1.91,0v-.94c.94.02,1.92-.09,2.87,0v-.02Z"/>
  <path class="st24" d="M646.56,377.83h-2.88v-.96l2.88.96Z"/>
  <path class="st187" d="M643.68,361.53h-.96c.05-.75-.38-1.93.48-1.93s.44,1.26.48,1.93h0Z"/>
  <path class="st113" d="M659.99,481.4c-.38,2.3-.7,4.54-.96,6.71-2.64-6.95-.2-15.65,0-22.54.05-1.68-1.01-3.4-.96-5.27.07-2.69.89-6.87.96-10.55,1.59,1,.96,3.64.98,5.26.11,8.78.04,17.61-.02,26.39h0Z"/>
  <path class="st62" d="M628.33,472.77c-.45,7.63-1.25,15.37-1.44,23.02-.94,0-.59-16.88-.52-18.78s.96-3.44,1-4.25c.27-.84.59-.83.96,0h0Z"/>
  <path class="st200" d="M634.09,506.34c3.49,3.75,6.72,7.74,9.6,11.98-1.65.03-3.81-2.65-4.79-3.85-1.8-2.22-3.14-4.87-4.82-7.17v-.96h.01Z"/>
  <path class="st170" d="M629.29,446.88c-.38-.77-.7-1.72-.96-2.88.07-2.04-.13-4.05.12-6.1.12-1.02.37-4.51,1.79-4.44l-.95,13.42h0Z"/>
  <path class="st20" d="M657.11,506.34c-1.63,3.69-3.87,7.01-5.76,10.55-1.23,1.26-1.43.73-.96-.96,1.27-3.29,3.75-7.65,5.76-10.55,1.25-1.26,1.61-.73.96.96Z"/>
  <path class="st125" d="M629.29,461.27c-.18,3.91-.73,7.63-.96,11.51h-.96c.22-4.47.73-9.28.96-13.43.56-.23.88.41.96,1.92h0Z"/>
  <path class="st164" d="M629.29,446.88c.19,4.57.21,9.81,0,14.38l-.96-1.92c.28-5.07-.18-10.26,0-15.34,1.25.46.91,1.82.96,2.88Z"/>
  <path class="st52" d="M659.99,481.4c-.03,4.14.03,8.32,0,12.46-1.77-.19-.93-4.38-.95-5.75-.03-2.08-.67-5.43.96-6.71h-.01Z"/>
  <path class="st73" d="M634.09,506.34v.96l-3.85-4.31.48-.48c1.46.98,2.29,2.68,3.36,3.83h.01Z"/>
  <path class="st10" d="M651.35,516.89c-.18.34.15,1.34,0,1.92-3.42.34-1.65-1.08-.96-2.87l.96.96h0Z"/>
  <path class="st23" d="M657.11,506.34l-.96-.96c.49-.71.77-1.92,1.91-1.92.58,1.61-.6,2.09-.95,2.88h0Z"/>
  <path class="st69" d="M729.06,289.61c.61.28.6.6,0,.96l-12.47-12.46c4.73.9,9.87,7.61,12.47,11.5Z"/>
  <path class="st210" d="M736.73,304.95c-1.25,2.69-3.84,6.84-5.58,9.28-.86,1.2-1,2.67-3.05,2.22,2.57-4.07,4.95-8.5,7.67-12.46,1.25-1.26,1.6-.73.96.96Z"/>
  <path class="st82" d="M736.73,304.95l-.96-.96c.49-.71.78-1.91,1.91-1.92.56,1.61-.57,2.06-.95,2.88h0Z"/>
  <path class="st67" d="M729.06,290.57v-.96s.9-.13.94.48l-.94.48h0Z"/>
  <path class="st77" d="M552.55,313.58c2.23,3.36,4.33,8.61,5.75,12.47-3.97-2.39-4.91-7.62-6.71-11.51-1.27-1.35-.73-1.84.96-.96Z"/>
  <path class="st171" d="M557.34,296.32c-1.35,1.63-1.76,2.65-3.84,3.84-1.28.78-1.73.42-.96-.96,1.26-1.24,2.67-2.52,3.84-3.84,1.35-1.27,1.84-.74.96.96Z"/>
  <path class="st79" d="M557.34,296.32l-.96-.96c1.01-1.14,1.86-2.71,2.88-3.84h.96c-.93,1.3-1.26,2.84-2.88,4.79h0Z"/>
  <path class="st147" d="M559.26,291.53c.93-1.03,1.45-3.03,3.35-2.89l.48.48c-.52,1.09-2.45,1.81-2.87,2.4h-.96,0Z"/>
  <path class="st146" d="M552.55,313.58l-.96.96c-.51-1.1-2.54-1.93-1.91-3.84,1.39.33,2.14,1.78,2.87,2.88Z"/>
  <path class="st103" d="M553.51,300.16c-.89.51-1.25,1.47-2.88.95-.06-1.17,1.4-1.4,1.92-1.91l.96.96Z"/>
  <path class="st91" d="M620.89,210.74c-5.36-4.9,14.11-7.31,15.11-4.07,1.43,4.65-12.58,6.38-15.11,4.07Z"/>
  <path class="st128" d="M655.19,210c-3.78-5.61,14.32-6.19,15.34-1.41s-14.27,3.01-15.34,1.41Z"/>
  <rect class="st173" x="645.6" y="173.57" width=".96" height="17.26"/>
  <path class="st127" d="M649.44,251.73c-.61,2.03-7.68,3.61-9.17,1.5-.5-.71-1.48-15.76-.94-17.36,1.45-4.37,10.12-2.75,10.12-1.39,0,3.71.76,14.75,0,17.26h-.01Z"/>
  <path class="st45" d="M654.23,254.13v-14.86c0-4.54,9.91-7.02,10.56-.94.19,1.76-3,13.73-4.31,14.86-1.8,1.55-4.05.89-6.25.95h0Z"/>
  <path class="st139" d="M625.63,252.98c-.6-.67-4.21-16.59-4.08-17.48.19-1.29,8.63-2.54,9.55,1.03.3,1.15-.8,2.82-.6,4.38.39,3.05,3.72,12.19-.85,12.98-.59.1-3.77-.64-4.02-.92h0Z"/>
  <path class="st18" d="M647.52,212.89l-1.91,14.38c.35-4.12-.52-8.95-.01-12.96.18-1.41.74-2.97,1.92-1.42Z"/>
  <path class="st108" d="M666.7,230.15c-.22.87-.97,1.83-.96,2.88-.45.07-.85.5-.96.96-2.08-1.55-.24-4.2,1.92-4.79.85.18.81.5,0,.96h0Z"/>
  <path class="st75" d="M669.58,229.19c-.7.82-2.05.62-2.88,0v-.96c.51.29,2.53-.56,2.88.96Z"/>
  <path class="st140" d="M619.7,232.07c-.59.11-1.46-.17-1.92,0-.66-.28-.65-.6,0-.96,1.28-.24,1.31.22,1.92.96Z"/>
  <path class="st191" d="M617.78,232.07c-.3.11-.63.72-.96.96h-.96c.55-.48.55-1.66,1.92-1.92v.96h0Z"/>
  <path class="st86" d="M676.3,450.72l1.91,1.91v5.76c-2.03-.47-1.35-2.75-2.87-3.84.14-1.3-.7-3.56.96-3.84h0Z"/>
  <path class="st7" d="M702.2,503.46l.96-.96c-.07.01-.61.69-.96.96Z"/>
  <path class="st138" d="M704.11,470.85c-.14.5-.91,1.11-.92,1.47,0,.3,4.32.96.44,4.28l-1.43-3.83c.18-1,1.02-1.58,1.92-1.92h-.01Z"/>
  <path class="st184" d="M718.5,337.56c.8,1.96.8,3.8,0,5.75-.72-.04-3.94,2.01-4.65-1.57-.65-3.3,2.67-3.73,4.65-4.18Z"/>
  <path class="st176" d="M732.89,336.6q-.97,1.07,0,0c3.29,3.29-2.9,4.76-3.83,3.83s.54-7.12,3.83-3.83Z"/>
  <path class="st78" d="M704.12,343.31c-1.59-6.33,6.11-5.81,4.78-1.44-.49,1.59-3.37,1.61-4.78,1.44Z"/>
  <path class="st138" d="M706.99,475.65c-.32.08-.82-.13-.96,0l.48-.94.48.94h0Z"/>
  <path class="st138" d="M705.07,477.57c.24-.09.55-.76.96-.96l-.96.96Z"/>
  <path class="st7" d="M705.07,507.29h-1.91c-.23-1.77-.04-2.79,1.44-3.83l.47,3.83Z"/>
  <path class="st148" d="M718.5,501.55c1.27,1.26-1.67,5.69-2.86,2.38-1.02-2.83,2.14-3.1,2.86-2.38Z"/>
  <path class="st129" d="M616.82,233.03c1.66-1.66,4.91,1.54,1.42,2.87-2.05.78-1.69-2.6-1.42-2.87Z"/>
  <path class="st21" d="M669.58,229.19c.04.31-.06.65,0,.96h-2.88c.07-.3-.06-.65,0-.96.76-.21,1.99.14,2.88,0Z"/>
  <path class="st204" d="M602.43,577.3c-.28.59-.61.57-.96,0-2.81-3.34-3.13-5.01-4.8-8.63-.58-1.58-.56-1.81.96-.96,1.7,3.36,3.38,6.01,4.8,9.59Z"/>
  <path class="st16" d="M615.86,568.67c-.27.84-.59.83-.96,0,.22-1.38,1.72-9.61,2.4-9.6,1.95,3.27-.89,6.75-1.44,9.6Z"/>
  <path class="st142" d="M615.86,571.55c-.24,1.15-.61,5.77-1.44,5.76-1.87-1.66.36-4.78.48-5.76.27-.84.59-.83.96,0Z"/>
  <path class="st99" d="M595.72,564.83c-.27.82-.59.8-.96,0-.29-.84-1.98-4.76-.48-4.8,1.44.92.96,3.75,1.44,4.8Z"/>
  <path class="st25" d="M610.11,554.29c.84.27.83.59,0,.96-1.65.11-4.38.36-5.77-.48,0-.81,4.7-.55,5.77-.48h0Z"/>
  <path class="st141" d="M597.63,567.71l-.96.96c-.59-1.27-1.39-2.3-1.92-3.84h.96c.28.62,1.34,1.73,1.92,2.88Z"/>
  <path class="st74" d="M615.86,571.55h-.96c.11-.92-.14-1.99,0-2.88h.96c-.17.87.18,2.03,0,2.88Z"/>
  <path class="st137" d="M602.43,577.3c.09.22,1.49.16.95,1.92-1.15.03-1.39-1.31-1.91-1.92h.96,0Z"/>
  <path class="st169" d="M610.11,554.29c.75.05,1.93-.38,1.93.48s-1.27.43-1.93.48v-.96h0Z"/>
  <path class="st159" d="M679.16,577.3c-1.73-.75-2.29-4.44-2.89-6.21-1.18-3.44-2.59-7.42-2.84-11.05l5.07,12.65.66,4.6h0Z"/>
  <path class="st122" d="M691.64,574.42c-.86,2.66-.8,4.81-2.39,7.72-.32.59-.95,3.61-2.4,1.87-.36-.43,3.22-8.77,3.83-10.54.98-1.4,1.3-1.08.96.96h0Z"/>
  <path class="st190" d="M691.64,574.42l-.96-.96,3.83-9.58c.51,3.91-1.83,7.34-2.87,10.54h0Z"/>
  <path class="st87" d="M691.64,558.13c-1.5,2.62-7.53,1.8-8.63-.96l8.63.96Z"/>
  <path class="st104" d="M698.36,661.69c.6.31.6.63,0,.96-3.18-3.01-7.15-5.6-8.64-10.06.85-.85,2.88,1.8,3.38,2.37,1.82,2.09,3.5,4.55,5.26,6.73Z"/>
  <path class="st33" d="M704.11,666.48l-.96.96c-1.73-.2-3.61-3.67-4.8-4.79l.96-.96c1.3.82,4.65,3.48,4.8,4.79Z"/>
  <path class="st212" d="M712.75,667.45c-.58,2.18-3.01,2-4.8,1.9.58-2.18,3.01-2,4.8-1.9Z"/>
  <path class="st214" d="M698.36,662.65c-.16-.09.15-.77,0-.96h.96c.15.65-.52,1.21-.96.96Z"/>
  <path class="st174" d="M703.16,667.44l.96-.96c.08.72-.24,1.04-.96.96Z"/>
  <path class="st152" d="M598.59,445.93c2.04,2.01-2.71,6.84-4.79,4.78s2.71-6.84,4.79-4.78Z"/>
  <path class="st56" d="M610.11,454.55c-.32-.03-.64.04-.96,0l-2.88-1.92c-.27.84-.59.83-.96,0,.22-4.3,6.54-5.11,4.8,1.92h0Z"/>
  <path class="st143" d="M606.27,454.55c.84.31.84.63,0,.96-.39.16-.83-.11-.95-.49-.02-.79-.05-1.59,0-2.38h.96c1.84.54,1.85,1.38,0,1.92h-.01Z"/>
  <path class="st131" d="M609.15,454.55c-.48,1.48-2.03.7-2.88.96.07-.03-.03-.64,0-.96.37-1.98,2.21-1.94,2.88,0Z"/>
  <path class="st14" d="M759.75,127.54c.68,1.56.57,1.85-.96.96-3.59-8.34-9.62-13.49-18.23-16.3-.63-.28-.62-.6,0-.96,12.54,4.48,12.63,5.83,19.19,16.3Z"/>
  <path class="st186" d="M734.81,106.45c.84.27.83.59,0,.96-.56.15-2.33.99-2.89,1.44,0,.29,2.37,1.29,2.89,1.44.84.27.83.59,0,.96-2.89-.56-5.59-1.43-8.63-.96-.27.82-.59.81-.96,0-1.18.55-1.64.18-.96-.96.48-1.28,1.83-.88,2.88-.96,2.94.88,3.58.88,1.92,0-.06-.46.03-.76.49-.94,1.8-.07,3.56-.45,5.26-.98h0Z"/>
  <path class="st66" d="M763.59,132.34c-.25.36-.74.63-.96.96-.74,1.15-1.11,1.11-.96,2.88.58,2.79-1.32,4.16-.96.96.33-2.98-.76-5.94-1.92-8.63l.96-.96c1.57,2.51,1.39,2.71,3.84,4.79h0Z"/>
  <path class="st29" d="M762.63,148.64c-.27.84-.59.83-.96,0,.42-2.68.35-6.41-.96-8.63-.19-.32-.72-.59-.96-.96.24-.44-.49-1.84.96-1.92l.94.97.02-1.93c.33,3.9,1.37,7.95.96,12.47Z"/>
  <path class="st107" d="M731.93,114.12h-.96c-2.15.38-4.81-2.62-5.76-2.88-.84-.27-.83-.59,0-.96h.96c1.76,1.5,3.84,2.54,5.76,3.84Z"/>
  <path class="st66" d="M739.61,111.24c.63.28.62.6,0,.96-.51-.13-1.29.06-1.92,0l-1.92-.96c-.31-.06-.65.06-.96,0v-.96c1.32.39,2.85.31,4.8.96Z"/>
  <path class="st118" d="M737.69,112.2c-.81-.08-1.64-.02-1.92-.96.77.15,1.61-.03,1.92.96Z"/>
  <path class="st175" d="M740.57,112.2c-.28-.09-.65.08-.96,0v-.96c.29.1.68-.1.96,0v.96Z"/>
  <path class="st135" d="M717.54,112.2c-3.17,1.38-7.71,4-11.51,5.75-1.27.34-1.56.29-.96-.96,4.18-1.91,8.36-3.64,12.47-5.75.84.27.83.59,0,.96h0Z"/>
  <path class="st11" d="M706.03,117.95c-2.23,1.03-4.53,1.87-6.71,2.88h-.96c1.79-1.76,4.45-2.8,6.71-3.84l.96.96Z"/>
  <path class="st60" d="M724.26,109.32c.55.15.94.31.96.96v.96c-.73-.2-3.89-.14-4.8,0-1.03.13-1.36.09-.96-.96l1.92-.96c.51-.12,2.39-.13,2.88,0Z"/>
  <path class="st157" d="M698.36,120.83h.96c-1.59.73-3.28,3.04-5.76,2.88h-.96c1.84-1.28,3.24-2.74,5.76-2.88Z"/>
  <path class="st100" d="M689.73,125.63c-1.31,1.24-2.66,4.62-2.88,4.79-2.91,2.35-3.19-.64-.96-2.88.88-1.59,1.83-2.23,2.88-1.92h.96Z"/>
  <path class="st182" d="M689.73,123.71c-.37.61-.62,1.3-.96,1.92-.95.64-1.97,1.22-2.88,1.92,1.12-3.1,2.51-3.13,2.88-3.84h.96Z"/>
  <path class="st44" d="M739.61,105.49v.96c-.24.02-4.41.85-4.8.96v-.96l2.88-.96c.56-.11,1.29.05,1.92,0Z"/>
  <path class="st165" d="M720.42,111.24c-.15.02-2.65.86-2.88.96v-.96c.64-.33,1.29-.62,1.92-.96l.96.96Z"/>
  <path class="st118" d="M737.69,105.49c-.49.09-1.68,1.44-2.88.96.64-.2,1.56-1.45,2.88-.96Z"/>
  <path class="st105" d="M729.06,108.36c.02.14.91.43.97.94l-2.89-.94c.63-.05,1.28.03,1.92,0h0Z"/>
  <path class="st102" d="M721.38,109.32c-.27.06-.96,1.29-1.92.96.55-.3,1.03-1.04,1.92-.96Z"/>
  <path class="st3" d="M762.63,148.64c-.25,2.77-1.96,5.7-1.92,8.63v.96c-.21-.14-1.34.03-1.92,0,.7-2.39,2.6-7.83,2.88-9.59h.96,0Z"/>
  <path class="st203" d="M684.93,132.34c-3.3,2.42-6.09,5.46-8.63,8.63-.56-.13-.96-.31-.96-.96,2.77-2.35,5.2-6.87,7.67-9.59,1.38-1.98,1.93.18,1.92,1.92h0Z"/>
  <path class="st98" d="M685.89,127.54c-.54,1.49-1.51,4.82.96,2.88-.12.06-1.12,1.33-1.92,1.92l-1.92-1.92c1.14-1.25,1.36-1.7,2.88-2.88h0Z"/>
  <path class="st1" d="M746.32,169.74c1.27.06,2.56-.04,3.84,0,.29-.46.61-.45.96,0-1.17,1.41-1.53,1.72-2.88,2.88-.56-.48-1.34-1.74-1.92-1.92-.52-.16-1.39.16-1.92,0v-.96c.44-.72,1.3-.51,1.92,0h0Z"/>
  <path class="st85" d="M758.79,158.23c-.72,2.45-3.24,4.65-2.88,7.67-.27.84-.59.83-.96,0-.3.08-.72-.12-.96,0,.44-1.14.64-2.6.96-3.84,2.1-3.07-.73-4.09,3.84-3.84h0Z"/>
  <path class="st185" d="M751.12,169.74h-.96c.9-1.62,2.15-3.01,3.84-3.84-.89,2.31-1.69,2.4-2.88,3.84Z"/>
  <path class="st124" d="M746.32,169.74c-.63-.03-1.37.11-1.92,0-.45-.09-.83-.51-.96-.96.97.17,2.44-.39,2.88.96Z"/>
  <path class="st185" d="M757.83,170.7c-.71-1.09-3.22-2.14-2.88-4.79h.96c.03.26,1.77,4.55,1.92,4.79Z"/>
  <path class="st0" d="M676.3,140.97c-.09.16-.75-.15-.96,0v-.96l.96.96Z"/>
  <path class="st39" d="M566.94,346.19c-.76.78-.74,1.36-2.38.96-4.88-4.55,6.88-5.56,2.38-.96q-.85-.8,0,0Z"/>
  <path class="st49" d="M558.3,344.27c-.27.84-.59.83-.96,0-.5-.23-1.14.09-1.92.96l-.96.96c-1.72-1.75-1.16-2.44.49-3.83,2.03-.29,2.49.48,3.34,1.91h.01Z"/>
  <path class="st199" d="M578.45,342.35c.71.28.7.6,0,.96-.52.96-1.16,1.92-1.92,2.88.84.27.83.59,0,.96-2.57-.74-2.65-5.81,1.92-4.79h0Z"/>
  <path class="st197" d="M554.47,346.19l.96-.96c.62-.82,1.26-1.14,1.92-.96h.96c.08.13.98.13.94.47-1.69,1.9-2.81,3.46-4.78,1.45h0Z"/>
  <path class="st198" d="M579.41,346.19h-.96c-1.53.11-1.43-2.56,0-2.88v-.96c2.3.51,2.4,2.29.96,3.84Z"/>
  <path class="st209" d="M578.45,346.19h.96c-.88.95-1.61,1.32-2.88.96v-.96c.03-2.04,1.51-2,1.92,0Z"/>
  <path class="st35" d="M610.11,662.65c-1.75,2.53-4.15,5.01-6.71,6.71-.29.52-.61.51-.96,0,2.34-3.02,4.64-5.35,7.67-7.67.63.28.62.6,0,.96h0Z"/>
  <path class="st188" d="M612.98,659.77c1.4-.82,2.37-2.56,4.8-1.91-.43,1.82-2.58,2.05-3.84,2.87-1.5.76-1.87.56-.96-.96h0Z"/>
  <path class="st136" d="M599.55,672.23c-1.79.26-3.32,0-3.84-1.9,1.79-.26,3.32,0,3.84,1.9Z"/>
  <path class="st167" d="M613.94,660.73c-.97.63-1.89,1.32-2.88,1.92-.63-.28-.62-.6,0-.96.46-.33.79-1.26,1.92-1.92l.96.96Z"/>
  <path class="st89" d="M603.39,669.36c-.31.2-.25,1.51-1.43.97l-.49-.49c.35-.67.92-.44.95-.48h.97Z"/>
  <path class="st94" d="M611.06,662.65h-.96v-.96c.2-.15.75.15.96,0v.96Z"/>
  <path class="st155" d="M590.91,478.53c-2.33-.87-2.56-2.35-.47-3.83l.47,3.83Z"/>
  <path class="st196" d="M579.4,502.5h-1.91c-.31-1.41.42-1.99,1.44-2.87l.47,2.87Z"/>
  <path class="st180" d="M580.37,474.69h1.92c.51.55-1.4,1.63-1.92,1.92v-1.92Z"/>
  <rect class="st126" x="715.63" y="339.48" width="1.91" height="2.87"/>
  <path class="st50" d="M732.89,336.6c1.44,1.44-2.86,4.11-2.86,1.44,0-.64,2.32-1.98,2.86-1.44Z"/>
  <path class="st70" d="M706.99,340.43c.15.49.31,1.97-.48,1.93-.79.05-.63-1.44-.48-1.93.28-.61.6-.59.96,0h0Z"/>
  <path class="st72" d="M706.99,340.43h-.96c.1-.33-.14-.77.48-.94.6,0,.38.63.48.94h0Z"/>
  <path class="st59" d="M597.63,446.89v1.91h-2.87c.32-1.39,1.55-2.2,2.87-1.9h0Z"/>
  <path class="st160" d="M606.27,452.63c2.2-2.27,3.75-.81,2.88,1.92-.93-.11-1.93.08-2.88,0,.07-.63-.04-1.29,0-1.92Z"/>
  <path class="st27" d="M566.94,346.19c-1.02,1.02-2.98-.84-1.91-1.91s2.93.89,1.91,1.91Z"/>
  <path class="st205" d="M557.34,344.27c-.47.66-1.41.65-1.92.96.44-.57.64-1.5,1.44-1.9l.48.94Z"/>
  <path class="st95" d="M554.47,346.19c-.16-1.07.92-.91.96-.96-.06.04.12,1.12-.96.96Z"/>
  <path class="st205" d="M578.45,343.31v2.88h-1.92c-.04-2.27-.65-3.32,1.92-2.88Z"/>
</svg>