<?xml version="1.0" encoding="UTF-8"?>
<svg id="Layer_1" xmlns="http://www.w3.org/2000/svg" version="1.1" viewBox="0 0 612 792">
  <!-- Generator: Adobe Illustrator 29.6.1, SVG Export Plug-In . SVG Version: 2.1.1 Build 9)  -->
  <defs>
    <style>
      .st0 {
        fill: #070808;
      }

      .st1 {
        fill: #464545;
      }

      .st2 {
        fill: #d9d8d8;
      }

      .st3 {
        fill: #597937;
      }

      .st4 {
        fill: #080a0a;
      }

      .st5 {
        fill: #060503;
      }

      .st6 {
        fill: #ecebea;
      }

      .st7 {
        fill: #ffd495;
      }

      .st8 {
        fill: #edecec;
      }

      .st9 {
        fill: #090b0b;
      }

      .st10 {
        fill: #fcfcfb;
      }

      .st11 {
        fill: #0c0f0f;
      }

      .st12 {
        fill: #080909;
      }

      .st13 {
        fill: #faf9f9;
      }

      .st14 {
        fill: #a0be54;
      }

      .st15 {
        fill: #0b0c0c;
      }

      .st16 {
        fill: #080503;
      }

      .st17 {
        fill: #060403;
      }

      .st18 {
        fill: #fff;
      }

      .st19 {
        fill: #515151;
      }

      .st20 {
        fill: #040403;
      }

      .st21 {
        fill: #040503;
      }

      .st22 {
        fill: #343434;
      }

      .st23 {
        fill: #f9f9f9;
      }

      .st24 {
        fill: #ffd395;
      }

      .st25 {
        fill: #f29f20;
      }

      .st26 {
        fill: #eeeded;
      }

      .st27 {
        fill: #080808;
      }

      .st28 {
        fill: #fefefe;
      }

      .st29 {
        fill: #0b0e0e;
      }

      .st30 {
        fill: #070909;
      }

      .st31 {
        fill: #0a0c0c;
      }

      .st32 {
        fill: #e25b25;
      }

      .st33 {
        fill: #f6ce92;
      }

      .st34 {
        fill: #0a0a0a;
      }

      .st35 {
        fill: #eae9e8;
      }

      .st36 {
        fill: #928b7f;
      }

      .st37 {
        fill: #060804;
      }

      .st38 {
        fill: #cfecf5;
      }

      .st39 {
        fill: #fecd42;
      }

      .st40 {
        fill: #555;
      }

      .st41 {
        fill: #dcdcdc;
      }

      .st42 {
        fill: #0e0e0e;
      }

      .st43 {
        fill: #e2e1e1;
      }

      .st44 {
        fill: #110f0b;
      }
    </style>
  </defs>
  <path class="st32" d="M210.04,515.99c-.02-.93.09-1.84.31-2.74,8.97-25.21,17.39-51.43,19.49-77.95l1.09.12c11.15,5.94,19.64-6.57,14.46-16.73v-1.19c25.43-1.6,51.22-1.45,76.58-.28,3.74.22,7.45.68,11.12,1.37.08,4.13.49,7.62,3.07,11.01,2.99,3.91,7.74,5.8,12.53,4.23l1.08.07c1.2,17.83,5.55,35.86,11.98,52.74,3.88,10.2,8.68,19.45,14.25,28.57v.79h-165.96Z"/>
  <path class="st3" d="M377.98,515.99l-1.2-.96c-15.54-24.23-23.99-53.24-26.35-81.86,8.14-5.66,6.68-17.26-1.14-22.35l-.4-.89c.98-16.15-.45-33.28-3.55-48.98-.08-1.18.61-1.41,2.08-.67,1.39-.71,6.61.55,7.58,1.46.21.19.37.4.47.67.66,3.07,2.43,7.42,3.97,1.63.16-.34.36-.69.71-.87.92-.5,8.63,1.4,9.11,3.22l6.44,6.88c1.78,1.76,2.38,1.7,1.79-.16-.94-2.16-1.45-4.27-1.52-6.35.4-.5,6.03.54,6.42,1.39-.33,7.22.68,8.72,3.05,4.49.64-1.47,1.44-2.76,2.4-3.87,3.37.4,6.74.91,10.1,1.52,2.56,3.67,4.78,7.62,6.66,11.85.39.72,1.52,2.38,2.19,1.3l-1.09-10.33c.09-.65.3-1.06,1.02-.98l3.7.51c12.8,3.18,26.07,4.75,39.31,5.33-.31,15.62,1.14,30.5,4.72,45.66,1.47,6.23,2.99,12.34,5.98,17.82.26.63.15,1.28-.03,1.9,1.99,1.64,2.64,2.19.91,4.33-1.01,1.25-4.08,3.34-5.53,4.27-6.4,4.1-11.48,7.06-19.26,7.82-12.66,1.24-25.74,2.47-38.26,2.8-2.69.3-3.41.57-4.65,2.98-1.54,3.72-3.09,7.43-5.15,11.02l-.02,39.1-.56.34h-9.88l-.02-.02Z"/>
  <path class="st20" d="M302.05,130.49c1.4-.25,2.84-.26,4.23,0,20.34.75,43.64,6.78,54.14,25.88,2.15,3.9,3.2,8.39,4.93,12.29.94,2.12,3.17,4.58,4.39,6.62,3.25,5.45,6.31,11.15,7.96,17.3,1.41-.01,1.84-1.57,3.47-1.08,1.99.6-.37,4.38-.08,4.74,5.19-2.28,7.85-7.51,11.43-11.57,2.74-3.12,7.92-6.79,9.51-10.25,2.1-4.57,1.65-5.62,1.64-10.35-.27-.55-.15-1.12,0-1.69.11-.29-.28-.65.41-.57.46.06,1,.34,1.25.74,2.19,6.34,4.41,13.35-.26,19.16-.84,1.05-2.1,1.93-2.96,2.97-2.35,2.81-4.21,5.56-5.78,8.9,1.14-.17,3.19-.03,2.77,1.62s-6.42,6-8,7.54c-1.13,1.1-4.22,5.46-4.94,5.79-2.27,1.04-2.69-1.36-1.69-2.95-.46-.35-2.84,1.21-3.26,1.69.21,2.81.14,5.64.15,8.46.24,1.78.24,3.58,0,5.36l.16.26c5.31-.15,8.33.73,10.14,5.95,2.2,6.34-.32,10.64-3.3,15.89-.6,1.05-1.85,1.71-.81,2.9.92,1.04,4.82-.56,3.77,1.73-.52,1.14-5.25,2.45-6.59,1.91l-6.43,8.24,1.37,8.55c.75-.17,1.5-.2,2.26-.28.66-.09,1.32-.14,1.98,0,5.82,1.69,9.08,7.94,9.88,13.55l.28,1.41c.23,4.18-.81,7.91-3.27,11.27-.47.64-2.85,3.04-2.94,3.41l.28,1.69c.23,20.82,15.17,50.04,27.95,66.17.56.7,4.17,4.15,3.38,4.94-.59.07-1.06,0-1.61-.22-2.03-.79-7.36-5.16-9.7-6.67-1.7-1.1-3.81-2.57-5.54-3.49-.31-.17-.5-.44-.93-.34,2.42,3.78,3.93,7.89,4.25,12.4,7.91,1.13,15.64,3.19,23.59,4.21,4.93.64,9.83.83,14.78,1.16.54.04,1.04.25,1.55.28,1.7.11,5.26-.69,5.73,1.33.65,2.81-.25,7.88-.23,10.96.09,15.36,3.72,37.83,9.95,51.85.15.33.23.68.23,1.05,1.11-.68,2.26-1.18,3.45-1.72.29-.13.11-.7.9-.55,1.68.32,5.37,6.85,6.14,8.56,3.07,6.79,4.94,14.25,4.18,21.78-.12,1.19-.42,1.88-1.13,2.82-1.48,1.95-11,7.23-13.63,8.39-.33.15-.68.24-1.05.23.23.83.5,2.13.51,2.96.06,7.33-2.2,16.47-2.49,24.26-.1,2.67.1,5.38.01,8.05h-1.98c-.16-.39-.3-.78-.4-1.19s-.2-.8-.2-1.19c-.2-10.82,1.32-21.15,2.92-31.33-4.64,1.3-9.4,2.57-14.31,2.63-8.8.08-17.54.78-26.23,2.09-9.47.75-21.2-.43-27.94-7.7l.12,36.34-.56.35h-1.98l.02-39.63c.97-1.91,2.09-3.8,2.99-5.75s2.18-6.25,3.75-7.54c1.93-1.59,7.45-1.07,10.03-1.26,9.59-.72,19.23-1.28,28.79-2.26,9.31-.95,12.94-2.23,20.73-7.22,1.35-.87,7.35-4.95,7.6-6.23.22-1.13-1.8-2.21-1.9-2.55-.14-.45.25-.96.13-1.51-.29-1.4-1.94-3.82-2.5-5.42-2.42-6.96-4.36-15.75-5.76-23.03-2.27-11.83-2.7-23.28-2.35-35.33-10.26-.03-20.48-1.31-30.54-3.19-4.22-.79-8.34-2.17-12.65-2.45l1.11,10.89c-.33,1.23-1.66.96-2.38.11-1.5-1.79-3.33-6.37-4.61-8.65-.38-.68-2.21-4-2.59-4.18l-9.87-1.55c-.75,1.34-2.47,5.04-3.54,5.92-.6.49-1.64.49-2.09-.16-.84-1.19.1-5.31-.42-6.91l-5.52-1.11c.27,2.83,2.13,5.32,1.97,8.18-.31.02-.62.02-.93-.06-2.15-.51-8.17-8.93-10.72-10.16-.53-.25-5.93-1.42-6.23-1.33-1.01.94-.92,4.15-2.73,3.81-2.28-.43-2.22-4.69-2.99-5.27-.21-.16-4.4-1.55-4.83-1.6-1.64-.18-2.12.94-3.87-.35-.46,0,1.41,8.18,1.51,8.93,1.62,11.1,2.56,26.03,2.3,37.23-.03,1.16-.54,2.38-.29,3.65.16.78,2.45,2.11,3.24,2.96,5.29,5.69,5.15,16.13-1.81,20.35.48,5.99,1.18,11.91,2.31,17.81,3.49,18.18,8.96,36.08,17.46,52.53,2.2,4.27,4.97,8.13,7.3,12.32h-1.98c-2.22-4.01-4.89-7.67-7.02-11.75-8.05-15.46-13.31-32.09-16.89-49.15-1.44-6.88-2.81-13.88-2.63-20.94-9.61,3.64-18.05-5.84-16.67-15.23-10.07-1.26-20.17-2.05-30.34-1.7-16.08-.46-32.37-.43-48.54.27-2.77.12-5.55.21-8.32.29,1.6,3.54,2.36,6.57,1.57,10.45-1.66,8.08-10,11.9-17.09,7.32.19,3.82-.36,7.58-.93,11.35-1.5,9.84-3.85,19.89-6.32,29.52-3.47,13.54-8.45,26.32-12.79,39.56h-2.26l-.47-.37c5.71-15.35,10.72-30.83,14.82-47.32,2.66-10.71,5.63-22.99,5.67-33.77-6.64-6.46-6.32-19.11,3.01-22.84-.31-.81-.53-2.02-.58-2.94-.88-15.42-.06-30.94,2.02-46.25l-.76-.98c-.25-1.18-.94-2.37-1.39-.75l-.53,4.6c-.89,5.96-5.11-1.11-5.96-3.37-.53.12-2.06.51-2.27.96s-.04,4.83.11,5.51c.56,2.55,1.74,4.22,3.36,6.19.87,3.51-2.02,1.8-3.66.71-3.43-2.28-7.43-5.64-8.46-9.73-.74-1.38-1.25,4.01-1.22,4.36l.02,2.36c-.48,4.35-3.52.55-3.86-1.76l-.96-3.53c-16.08,3.48-32.22,6.7-48.41,9.64-3.59.76-7.11,1.02-10.56.78.12,4.54-1.56,9.75-3.17,14.1-4.39,11.84-8.93,23.62-15.47,34.49-.43,2.6.47,3.93,1.9,5.89,2.78,3.8,5.97,6.74,10.12,9.15,13.83,11.7,33.7,17.7,50.86,9.72.6-.11.91.14,1.28.58,1.65,1.99-.1,18.98-1.39,21.82-.96,1.42-2.42,2.5-4.39,3.24l-1.1,39.19-.57.33h-1.98l-.56-.22,1.38-38.54c-21.21,4.88-44.84-2.83-61.29-16.59-.1,10.93-.44,21.87-1.48,32.88-.24,7.53-.85,15.02-1.84,22.47h-1.98c.29-3.99.33-8,.57-11.99.53-9.01,1.41-18.07,1.97-27.1.3-4.93-.14-10.7.59-15.49.13-.86.9-2.12.83-2.84-.04-.37-1.9-2.45-2.33-3.05-2.93-4.21-7.68-10.88-6.3-16.3.18-.72,3.02-5.83,3.58-6.58,1.01-1.34,2.5-2.13,3.61-3.44,1.2-1.41,3.32-6,4.96-6.33,1.49-.3.81.63,1,.81.09.08.88.09,1.06-.02.32-.19,2.81-5.8,3.29-6.73,4.37-8.52,8.48-18.06,11.45-27.22.91-2.82,2.7-8.25,2.84-11.02.06-1.15-.85-2.14.38-2.98,6.47-.86,12.96-1.5,19.4-2.61,14.07-2.42,27.95-6.17,42.01-8.66-1.48-6.86-1.58-14.58-.49-21.51.15-.96.57-1.98.7-2.98.04-.31.31-.97-.2-.91-2.45,4.61-5.73,8.74-9.17,12.7s-7.71,9.19-11.28,12.71c-.33.33-2.71,2.43-2.89,2.48-1.79.53-1.94-.93-1.41-2.27,1.85-4.75,6.73-11.5,9.29-16.39,7.54-14.45,12.26-30.14,16.52-45.85.44-1.61,2.53-8.95,2.2-9.92-.19-.56-1.14-1.42-1.52-2.17-1.27-2.52-1.58-5.79-1.44-8.57l.28-1.41c.34-2.69.86-4.82,2.25-7.2.59-1.01,2.21-2.52,2.47-3.17,1.05-2.59,1.27-10.99,1.49-14.18l.28-1.41c.06-1.02,0-2.08,0-3.1l.28-1.41c.21-.97-5.4,1.96-4.76-.38.17-.61,1.47-.88,1.66-1.59-.66-.02-1.32.01-1.98,0-.92-.18-1.87-.27-2.82-.28-.77-.12-2.24,0-2.7-.84-.85-1.58,2.68-1.66,3.65-2.01.62-.23,3.17-1.81,3.21-2.36-3.73-4.76-6.26-10.71-4.94-16.87.33-1.53,2.81-6.83,3.76-8.09,1.17-1.55,2.81-2.06,4.51-2.83-.32-2.18,1.7-6.23.57-7.93-1.42-2.14-5.21-4.38-7.11-6.29-.89-.9-2.87-2.8-1.8-4,.72-.8,1.74.08,2.54-.27-1.34-1.96-2.13-4.11-3.55-6.05-3.21-4.38-7.79-6.62-8.03-12.85-.18-4.44,1.11-7.89,2.43-11.99.58-.78,1.18-1.34,1.82-.3.18.57.26,1.14,0,1.69-.02,1.84-.59,3.93-.22,5.72,1.46,7.1,6.19,9.22,10.53,14.03,2.58,2.87,4.75,6.16,7.33,9.03,4.29-8.78,8.18-17.25,14.26-24.97,2.26-2.87,5.84-6.05,8.01-8.91,4.83-6.37,6.9-10.97,13.43-16.49,8.65-7.32,25.65-13.81,36.98-13.97l1.69-.28c3.11-.04,6.2-.26,9.31-.28h-.02Z"/>
  <path class="st3" d="M185.76,515.99l1.13-39.65c.18-.98,2.73-1.34,3.68-2.24.58-.56.75-1.11.98-1.84,1.38-4.41,1.94-14.15,1.56-18.78-.28-3.44-1.31-1.81-3.12-1.12-8.8,3.36-19.58,3.48-28.58.64-6.43-2.03-15.46-6.69-20.4-11.21-1.82-1.4-3.92-2.43-5.63-3.97s-6.51-6.92-6.86-8.95c-.16-.95-.09-2.02,0-2.98,6.44-11.31,11.84-23.38,15.88-35.76,1.34-4.09,2.85-8.7,2.97-12.98,1.83.06,3.66-.11,5.47-.32,18.22-2.06,36.17-7.23,54.21-10.42.43,1.22,1.59,7.71,3.4,7.35.72-.14.37-3.07.43-3.81.07-.82.41-4.53.83-4.82.46-.31,1.19-.34,1.47.27.53,1.16.77,2.46,1.53,3.54.97,1.39,7.87,7.42,9.3,7.28.24-.02.67-.46.59-.78-.09-.39-2.03-2.63-2.48-3.46-.54-1.01-1.06-2.14-1.24-3.28-.16-1.01-.34-5.27-.08-6.04.18-.52,2.71-1.42,3.06-1.2s.55,1.27.83,1.72c.48.76,2.67,4.25,3.51,4.06,1.23-.28.74-7.02,1.79-7.6.32-.18.94-.19,1.32-.29.37.03.26,2.76,1.54,2.29-.37,5.01-1.27,10.06-1.66,15.08-.75,9.62-1,20.83-.58,30.49.07,1.5.51,3.22.6,4.74-8.37,3.71-9.38,13.49-4.49,20.6.4.57,1.45,1.33,1.59,1.8.24.8.12,4,.03,4.99-.43,4.48-1.75,10.59-2.64,15.14-2.62,13.4-6.11,26.72-10.24,39.71l-7.7,21.79h-22.02.02Z"/>
  <path class="st24" d="M120,515.99c.64-13.13,1.42-26.26,2.55-39.36-.2-5.72.21-11.39.27-17.08,5.12,4.6,11.52,8.51,17.77,11.44,9.04,4.23,19.22,6.66,29.21,7.2,5.39.29,10.21-.38,15.39-1.7l-1.41,39.51h-63.79.01Z"/>
  <path class="st24" d="M389.84,515.99l-.14-38.66c2.59,5.15,9.4,7.25,14.7,8.45,10.13,2.3,19.09-.36,29.06-1.11,4.76-.35,9.64-.06,14.39-.57,3.88-.41,7.83-1.39,11.43-2.82.49.67-1.45,10.36-1.65,12.03-.93,7.51-1.37,15.13-1.17,22.68h-66.62Z"/>
  <path class="st13" d="M381.37,221.08v-5.36c.47,1.54.47,3.85,0,5.36Z"/>
  <path class="st13" d="M306.29,130.49c-1.4-.05-2.83,0-4.23,0,1.04-.47,3.13-.48,4.23,0Z"/>
  <path class="st13" d="M209.19,247.89c-1.17-.02-1.75-.11-2.82-.28.89.12,2.15-.32,2.82.28Z"/>
  <path class="st13" d="M383.91,266.23h-1.98c.97-.11.61-.4,1.98,0Z"/>
  <path class="st13" d="M388.14,297.56c-.39-.21-.38-1.3-.28-1.69.47.31.28,1.16.28,1.69Z"/>
  <path class="st13" d="M200.72,166.61v-1.69c.31.51.59,1.21,0,1.69Z"/>
  <path class="st13" d="M292.74,130.77c-.31.47-1.16.27-1.69.28.31-.47,1.16-.27,1.69-.28Z"/>
  <path class="st13" d="M403.67,164.08c-.67-.5-.2-1.17,0-1.69v1.69Z"/>
  <path class="st13" d="M213.99,251.28c0-.79.18-.93.28-1.41l-.06,1.21-.23.2h0Z"/>
  <path class="st13" d="M207.22,281.75c.03-.7.24-1.11.28-1.41-.02.45.18,1.17-.28,1.41Z"/>
  <path class="st13" d="M213.71,255.79c.04-.58.28-1.31.28-1.41-.02.45.18,1.17-.28,1.41Z"/>
  <path class="st13" d="M394.07,281.19c-.46-.24-.27-.96-.28-1.41.06.41.24.7.28,1.41Z"/>
  <path class="st17" d="M323.79,459.26c-1.34.51-2.52,1.42-3.87,1.92-8.35,3.04-27.11-.22-35.88-2.66-.65-.18-2.6-.6-2.3-1.64.27-.94,1.47-.01,1.91.07,9.1,1.66,22.21,4.26,31.25,3.45,2.75-.25,5.3-1.48,8.12-1.51.37,0,.62-.25.78.38h-.01Z"/>
  <path class="st17" d="M306.85,502.44h-4.09c-3.95,0-12.03-4.35-15.3-6.71-4.73-3.41-9.1-9.33-11.7-14.55-.41-.81-1.54-2.37-.1-2.73,3.51,5.4,6.53,11.37,11.74,15.36,6.5,4.96,11.18,5.53,18.5,8.03.37.13.86.08.95.6Z"/>
  <path class="st16" d="M320.97,497.36l4.51-5.23c4.47-5.58,7.74-11.03,9.34-18.04.27-1.17,1-.89,1.13.25.61,5.26-6.81,17.42-10.87,20.76-1.24,1.02-2.57,1.74-4.1,2.25h-.01Z"/>
  <path class="st24" d="M363.31,200.76c-.22-1.21-.47-6.24-1.32-6.79-1.78-1.16-4.7,2.34-6.59,2.56.07-1.33.76-5.81,0-6.64-1.54-1.71-4.65,2.35-5.8,3.24-1.97,1.54-4.04,1.79-6.34,2.55-.17-.23.68-3.75.86-4.36.44-1.52,2.81-5.1-.03-5.12l-37.12,20.77c-.44,1.99,2.26,1.47,3.54,1.13-1.77,1.62-3.81,4.44.28,3.95-2.64,4.02-4.77,8.37,2.36,5.32,1.99-.85,3.29-2.14,5.07-3.11,4.08-2.23,8.41-4.05,12.89-5.31-1.42,1.84-3.37,3.1-4.94,4.79-1.2,1.29-3.85,3.6-1.55,4.8-6.26,2.7-11.25,8.54-12.7,15.24-1.87-1.22-3.72-3.46-5.91-4.1-2.04-.59-8.74-.15-10.86.45-2.86.81-4.65,2.7-7.07,4.22-2.08-6.32-6.7-11.56-12.74-14.36-2.1-.97-4.03-1.35-6.19-1.99-1.5-.45-1.25-1.15.16-1.03,3.48.3,7.48,4.05,10.27,3.81,1.8-.15,1.23-1.37.44-2.38-1.98-2.54-4.5-4.52-6.76-6.78-.04-.22.26-.17.42-.13,3.86.99,8.94,3.38,12.47,5.31,1.85,1.01,3.19,2.35,5.26,3.2,7.08,2.91,4.62-1.61,2.17-5.41,4.07.49,2.08-2.31.28-3.95,1.39.65,5.05.34,3.09-1.54-.93-.89-5.43-3.36-6.85-4.16-7.22-4.06-14.84-7.51-22.11-11.47-2.7-1.47-5.33-3.08-7.9-4.78-2.52.39-.28,3.64.17,5.17.18.61,1.03,4.13.86,4.36-2.3-.76-4.37-1.01-6.34-2.55-1.15-.9-4.26-4.95-5.8-3.24-.75.83-.06,5.3,0,6.64-1.89-.22-4.81-3.72-6.59-2.56-.94.61-1.09,6.8-1.46,6.8-2.26-.58-3.93-2.25-5.92-3.39s-2.42-.18-2.13-3.26c.11-1.12.74-2.09.8-2.87,1.35-17.11,3.76-27.13,15.03-40.57,19.33-23.05,57.42-24.13,84.39-16.38,21.67,6.23,31.19,26.11,34.35,46.93.45,2.94,1.19,9.57.59,12.28-.21.95-4.19,5.35-4.74,4.71h0Z"/>
  <path class="st3" d="M266.42,367.89c1.2,4.17,2.63,7.84,5.09,11.43,8.88,12.98,16.6,17.04,32.37,17.59,16.78.58,26.04-1.33,34.17-16.66l4.08-8.75c.5,9.34-.01,18.75.58,28.09-.59,1.47.02,8.76-.6,9.41-.23.24-1.78.05-1.9.11-.06.03-.09.4-.26.48-3.61,1.7-5.22,3.68-6.76,7.36l-17.74-1.7c-16.73-.35-33.05-.02-49.66.29-6.68.12-13.39-.21-20.04.56-.47.05-1.05.53-1.15.52-.11,0-1.03-1.34-1.4-1.67-1.25-1.14-3.1-2.32-4.67-2.95-.6-.24-1.93-.32-2.26-.56-.54-.41-.21-3.35-.28-4.24-1.17-14.72-.43-27.77,2.67-42.2.43-2.01,1.3-3.88,1.56-5.92,5.38,1.64,10.47,4.05,15.81,5.77,3.42,1.1,7.01,1.71,10.36,3.04h.03Z"/>
  <path class="st41" d="M313.07,321.27c.64-.56.55.82.71,1.11.91,1.68,1.26.49,1.8-.09.78-.83.6,1.53,1.86,1.53.93,0,.85-1.68,1.55-1.99-.15.85.37,2.86,1.31,3.03.34.06.75-.32,1.23-.09.95.47,2.31,5.36,2.27,6.5-.33,9.63-12.36,14.92-15.82,24-4.07,10.67-1.93,25.43,11.71,26.4,6.54.47,13.85-3.54,16.18-9.81,1.6-4.3,2.86-14.11,1.25-18.33-.91-2.37-2.81-4.04-5.14-5.02-6.06-2.57-8.35.69-7.9,6.63-.74-.59-1.37-2.05-1.42-2.97-.2-3.87,4.65-8.17,8.38-8.3,1.52-.05,4.52,1.45,5.61,2.51,1.2,1.16,4.17,7.08,4.06,8.63-.03.47-.59.72-.51,1.33.08.58.94,1.18,1.08,2.06,1.64,10.26-4.79,24.23-12.54,30.89-7.26,6.24-22.84,5.77-31.9,4.79-17.23-1.86-27.5-17.71-30.5-33.57-2.17-11.45-.99-29.95,7.35-38.96,2.72-2.94,2.08-1.19,4.37-.41,1.7.58.86-.3,1.29-1.28.23-.53,1.58-1.39,1.97-1.98.31.54.45,3,1.56,2.41.6-.32,4.35-7.09,4.51-8.34.41-.37,1.98,2.06,2.2,2.45.35.62.65,1.25.92,1.9.11.26.75,3.65,1.69,2.52.4-.47,1.51-3.2,1.82-3.21.59.58,1.07,3.53,2.26,2.26.32-.34.21-1.12.7-1.13l2.98,6.2c1.34,1.44,1.75.16,2.24-1.13,1.47-3.83,2.57-7.83,5.79-10.72.25,1.97.48,3.95,1.05,5.86.25.82,2,5.22,2.52,5.4,1.28.42,1.29-.9,1.51-1.1v.02Z"/>
  <path class="st41" d="M386.73,296.71c.05,1.44-.09,2.9.04,4.34,1.49,16.87,12.03,41.41,21.75,55.3,1.24,1.77,5.25,6.02,5.87,7.39.06.12.07.46-.14.42-3.58-3.15-8.22-5.19-11.85-8.19-2.62-2.16-4.57-5.43-7.2-7.48-1.31-1.02-2.19-.76-1.55.98.81,2.17,4.98,6.61,6.46,9.06.96,1.6,2.27,4.17,2.83,5.92,1.53,4.78,1.06,10.02,1.84,14.94l-11.06-19.28c-.6-.87-3.71-5.31-4.9-3.6-.35.5.01,4.54-.32,5.89-.39,1.62-2.18,5.27-3.05,6.83-.41.73-.9,1.74-1.56,2.25.24-6.03-1.37-12.02-4.37-17.22-.86-1.48-5.45-7.51-7.35-5.64-.9.88-.28,6.02-.09,7.44.42,3.13,1.3,6.98,2.07,10.07.45,1.8,1.29,3.52,1.42,5.36-4.17-3.98-7.84-7.48-10.35-12.79-.52-1.1-2.1-6.03-2.68-6.42-2.25-1.5-1.37,3.94-2.15,5.16l-3.02,7.27c-1.05-3.72-2.48-7.39-4.28-10.82-.92-1.76-5.13-8.93-7.58-7.67-1.75.9.32,7.86.53,9.64.04.31.28,1.28-.24,1.23-.07-1.7-3.15-2.34-3.6-2.89-.26-.32-.75-2.6-1.06-3.31-1.36-3.08-2.99-6.2-6.08-7.81.27-5.58,1.11-11.06,1.7-16.61.51-4.71.47-12.47,2.2-16.71.67-1.65,2.99-3.65,3.79-5.38,8.51.7,17.22.9,25.68-.72,3.8-.73,7.41-2.03,11.03-3.37l7.27-3.6v.02Z"/>
  <path class="st41" d="M256.89,304.89c-.58,1.7,2.32,4.13,2.47,4.97.06.32-.23.9-.23,1.36.09,9.95,1.03,19.64.29,29.64-.1,1.31-.5,2.76-.56,4.09-.89-.81-2.53-1.22-3.66-.7-.36.17-.72.83-1.15,1.11-5.1,3.26-10.94,6.44-16.44,8.96-1.85.85-3.77.76-4.57,3.05-1.08.18-1.11-1.36-2.03-1.63-3.96-1.19-2.5,9.02-3.61,8.97-.15,0-1.52-2.16-1.69-2.54-.78-1.76-1.23-6.94-2.76-7.7-.29-.14-.44-.23-.76-.08-2.6,1.27-3.32,12.19-2.47,14.89l1.48,3.89c-3.67-2.77-6.66-5.76-7.16-10.62-.16-1.51.49-7.16-.79-7.68-1.12-.46-1.63,1.53-1.93,2.49-1.04,3.3-1.09,6.86-1.58,10.27-.05.32-.1,1.32-.53,1.3-1.51-7.93-2.49-16.56-1.34-24.61.39-2.74,2.74-9.41,2.12-11.59-.07-.23-.44-.69-.64-.71-1.27-.1-2.75,4.67-3.3,5.68-3.62,6.65-8.67,11.62-13.64,17.12-2.02,2.23-3.73,4.85-6.06,6.78l9.84-18.52c6.47-15.19,11.88-31.97,15.01-48.21.06-.33.13-.51.42-.71,3.08,3.94,8.08,5.96,12.7,7.62,10.36,3.72,21.71,4.44,32.6,3.1h-.03Z"/>
  <path class="st41" d="M276.65,258.9c-.72,1.63.09,4.09,1.4,5.23,2.98,2.58,6.45-.42,9.43-.07.47.05,3.95,2.37,5.06,2.8,1.27.49,2.81.82,4.15,1.08l-.28.84,1.69.29v-.84l1.7.28c-1.71,4.01-3.41,8.31-5.5,12.14-5.83,10.68-9.76,14.92-21.6,18.76-16.97,5.5-37.09,6.27-53.45-1.59-8.33-4-12.4-11.03-9.35-20.27,1.38-4.19,7.47-11.54,12.26-8.03,1.4,1.03,1.19,2.22,1.14,3.79-.71-.48-.59-1.33-1.12-2.12-1.83-2.7-5.85-1.79-7.62.57-4.15,5.53-2.92,14.29,4.51,16.09,12.89,3.13,29.18-8.56,38.81-16.24,3.02-2.41,6.15-5.76,9.2-8.02.83-.61,6.51-4.28,7.12-4.46.87-.26,1.57-.28,2.46-.22h0Z"/>
  <path class="st41" d="M313.35,263.98c1.39-.12,2.73.5,3.8.57,1.14.08,4.28.16,5.25-.13,1.9-.58,2.97-4.34,2.24-6.08.77-.02,1.51-.06,2.27.13.55.14,6.5,3.94,7.31,4.54,3.04,2.26,6.18,5.61,9.2,8.02,9.65,7.7,25.67,19.19,38.58,16.3,7.42-1.66,8.83-9.83,5.07-15.64-1.78-2.75-6.15-4.06-8.09-.92-.43.7-.29,1.59-1,1.96-.04-1.57-.26-2.76,1.14-3.79,4.78-3.51,10.87,3.84,12.26,8.03,6.82,20.64-21.99,25.99-36.41,26.08-11.43.07-31.73-3.44-40.23-11.55-2.85-2.72-4.21-6.01-6.24-9.28-.29-.46-.89-.57-1.22-1.04-.98-1.42-1.58-3.8-2.27-5.35-1.08-2.42-2.65-4.87-2.96-7.62,1.67-.3.92.56,1.13.85.05.06,1.37.02,1.54,0,.34-.02.07-.62.16-.85,1.53-.49,3.04-.9,4.53-1.22-3.72,8.07,2.89,18.03,10.23,21.42l.2.41c.62.08.9-.02.85-.28-6.81-1.52-13.27-11.48-12.26-18.33.09-.59.6-2.78.77-3.1.21-.41,2.48-1.9,2.72-1.64.1.11.55,2.5.59,2.76.42.11.51-.16.56-.56-1.64-.65-1.45-2.96.28-3.67v-.02Z"/>
  <path class="st14" d="M464.34,448.24c.07-.07,0-1.42.14-1.97.11-.41,2.03-4.22,2.27-4.22,2.65,3.74,4.54,8.38,5.86,12.76,1.02,3.39,1.57,6.97,1.61,10.53.03,2.76-.06,4.57-2.43,6.29-3.02,2.19-9.51,5.68-13,7.03-9.89,3.85-19.07,2.75-29.29,3.74-11.95,1.16-22.64,3.95-34.12-2.01-1.39-.72-4.75-3.71-4.3-5.33.16-.57,1.26-2.07,1.63-2.91.82-1.89,2.22-7.09,4.17-7.68,8.41-.71,16.87-.88,25.28-1.54,6.41-.5,15.96-.97,21.94-2.62,3.88-1.07,11.66-5.67,14.99-8.15,1.14-.85,3.13-3.23,4.16-3.75.35-.18,1.05-.1,1.1-.16h-.01Z"/>
  <path class="st14" d="M191.41,453.9c-.13.92.24,1.77.3,2.67.24,3.54-.48,10.23-1.22,13.76-.11.53-.3,1.61-.53,2.01-.53.91-4.52,2.16-5.7,2.49-12.74,3.49-30.15.24-42.05-5.16-10.81-4.9-20.15-10.84-25.63-21.78-.82-1.64-2.07-5.55-1.88-7.31.06-.52,3.29-6.42,3.78-6.97.86-.98,2.26-1.85,3.22-2.99,1.42-1.69,2.11-3.76,3.67-5.21-.09,1.06.19,2.04.49,3.04,1.88,6.14,8.27,10.43,13.03,14.06,2.33,1.78,4.37,4.06,6.99,5.43,1.79.93,3.82,1.41,5.64,2.26,5.78,2.68,9.21,4.72,15.8,5.66,5.95.84,12.67.69,18.56.02,1.74-.2,3.8-1.55,5.53-1.95v-.03Z"/>
  <path class="st7" d="M340.72,303.77c.12.43-.11.47-.28.71-3.13,4.51-9.59,10.79-14.25,13.69-1.36.85-2.89,1.39-4.24,2.25.2-2.39,1.08-4.8,1.27-7.2.16-2.05.26-6.22.02-8.19-.12-1.04-.38-1.04-1.42-.98-.06,2.78-.01,5.84-.29,8.6-.09.85-.9,6.65-1.13,6.92-.5.61-.8-1.27-1.52-1.12-.78.59-1.24,1.56-1.3,2.52-.74-.32-.32-1.71-1.12-2.13-.94-.49-1.61.54-1.69.43,0-.4-.06-1.6-.47-1.7-1.51-.38-1.52.88-2.05,1.87-.15.28.16.54-.59.4-.38-1.78-1.15-3.26-1.56-5.07-.3-1.31-.58-5.58-1.39-6.25-.3-.25-.37-.25-.73-.15-2.3.65-7,10.46-7.05,13.16-.85-.6-1.02-1.88-1.54-2.83-.26-.48-1.83-3.25-1.98-3.38-.96-.86-1.24,0-1.84.57-.11-1.12-.77-3.69-2.1-2.23l-1.58,2.38c-.63-1.98-2.07-3.47-2.98-5.21-.33-.64-1.09-4.33-2.13-2.65-.26.42-.6,2.8-.97,3.76-.23.61-2.28,4.51-2.54,4.52-2.07-2.57-3.73,1.57-5.34,2.53l-2.43-1.59c-.29-3.87-.96-7.64-.25-11.53-1.24-3.15-1.9.46-2.01,1.97-.22,3.2.51,6.38.95,9.53.03.23.29.74-.22.78-.31.02-5.28-2-5.86-2.32-2.69-1.45-7.68-6.65-9.36-9.26-.49-.76-1.22-1.71-.01-1.95,8.25-1.64,16.63-3.04,24.03-7.3,4.81-2.77,7.24-6.18,10.2-10.68,1.33-2.02,2.66-4.16,3.73-6.29l.71,2.82c3.09,5.12,7.42,1.45,7.34-3.39.67,1.22,1.19,2.55,1.89,3.76,3.94,6.85,7.77,11.47,15.09,14.83,5.89,2.71,12.63,4.3,19.01,5.4h-.02Z"/>
  <path class="st38" d="M334.8,217.7c-1.17,1.73-3.59,7.09.57,6.38,2.4-.41,6.82-3.16,8.88-4.61,5.04,2.23,9.54,6.98,10.52,12.55,3.35,19.17-23.97,31.43-37.05,17.57-11.95-12.67,1.69-32.07,17.08-31.89Z"/>
  <path class="st41" d="M225,197.38l8.72,4.41c2.12,1,5.79,4.82,8.21,3.06,1.62-1.17,1.05-5.9,1.85-6.06.68-.14,3.95,2.97,5.79,2.42,2.4-.71.7-4.89.84-6.66,1.61,1.38,3.01,3,4.97,3.92,1.57.74,3.36.82,4.78,1.43.97.42,1.61,1.66,2.94,1.01,1.22-.6.02-1.6-.16-2.38-.31-1.35-.85-3.97-.94-5.27-.03-.42-.23-.79.39-.67l28.93,15.52c-.05.63-1.11-.05-1.38.74-.41,1.19.81,1.82.81,1.94,0,.11-.68.51-.8.91-.56,1.89,3.46,4.79,3.62,6.85-.61.59-5.87-3.31-6.77-3.81-1.8-1-4.65-2.27-6.59-3.01-1.47-.56-6.75-2.4-8.01-2.41-3.2-.03-.21,3.8.61,4.72,1.19,1.33,2.78,2.19,3.81,3.66-2.52-.87-8.33-4.52-9.95-.77-.83,1.93,2.39,5.45,2.61,7.54-.21.2-2.06-.63-2.45-.8-4.6-1.97-8.05-5.42-12.14-8.19-1.21-.82-6.99-4.65-7.93-4.8-3.5-.57-.64,6.09-.92,6.45-2.09-1.33-3.93-2.98-6.12-4.18-4.29-2.35-6.07-2.56-5.17,3.33-.49.51-4.6-2.85-5.21-3.39-2.22-1.99-3.67-4.08-6.4-5.74-1.55-.94-4.74-2.91-5.46-.18-2.29-2.81-4.94-5.44-8.04-7.34.05-.58.91,0,1.42-.12.45-.11,1.09-.66,1.13-1.16.05-.66-2.64-3.99-3.24-4.95-.81-1.3-1.31-2.7-2.19-4.02-3.47-5.19-8.78-7.05-8.1-14.41.03-.31.13-1.55.53-1.59.66,1.69,1.08,3.75,1.84,5.36,1.57,3.36,5.9,6.16,8.47,9.03,3.89,4.33,6.48,9.58,11.7,12.57,1.05.6,6.52,3.49,6.23.57-.06-.6-2.23-2.46-2.27-3.54h.04Z"/>
  <path class="st41" d="M394.63,196.81l-7.76,7.62c-.72-2.73-3.91-.76-5.46.18-2.72,1.66-4.18,3.75-6.4,5.74-.61.54-4.72,3.9-5.21,3.39.91-5.89-.88-5.68-5.17-3.33-2.19,1.2-4.03,2.85-6.12,4.18-.28-.35,2.59-7.02-.92-6.45-.94.15-6.72,3.98-7.93,4.8-2.66,1.8-5.42,4.35-8,6.11-.88.6-5.24,2.73-6.16,2.87-.39.06-.54,0-.42-.42.57-1.9,3.37-5.35,2.61-7.13-1.61-3.75-7.43-.11-9.95.77,1.14-1.48,6.45-5.45,5.89-7.42-.44-1.55-2.67-.67-3.69-.4-3.91,1.04-8.83,2.89-12.36,4.85-.9.5-6.15,4.4-6.77,3.81.16-2.06,4.19-4.96,3.62-6.85-.12-.4-.8-.8-.8-.91,0-.12,1.22-.74.81-1.94-.27-.78-1.32-.11-1.38-.74l28.93-15.52c.62-.12.42.25.39.67-.09,1.3-.64,3.92-.94,5.27-.17.77-1.49,2.02.05,2.47,1.31.39,1.79-.69,2.74-1.1,1.5-.64,3.31-.71,4.97-1.52,1.88-.92,3.22-2.49,4.78-3.82.14,1.76-1.56,5.94.84,6.66,1.84.54,5.11-2.56,5.79-2.42.94.19-.07,5.83,2.61,6.43,2.44.55,5.35-2.31,7.45-3.43s4.36-2,6.46-3.13c.23-.12,2.43-1.7,2.25-1.14-.26,1.25-2.5,2.87-2.22,3.89.59,2.12,5.43-.6,6.54-1.27,4.91-2.92,7.62-8.22,11.34-12.37,2.57-2.86,6.9-5.66,8.47-9.03.75-1.61,1.18-3.68,1.84-5.36.4.03.5,1.27.53,1.59.68,7.36-4.63,9.21-8.1,14.41-.88,1.32-1.39,2.71-2.19,4.02-.56.9-3.05,3.96-3.17,4.47-.32,1.28,1.13,1.98,2.21,1.48v.02Z"/>
  <path class="st38" d="M269.6,219.95c15.05,2.8,24.49,23.09,10.42,33.42s-37.28-1.47-34.69-19.16c.79-5.4,6.57-12.73,12.13-13.58,1.48-.22,3.79,2.38,5.27,3.22.96.54,5.67,2.73,6.51,2.81,4.82.48.06-6.41.36-6.71Z"/>
  <path class="st7" d="M321.46,254.74c.37.45,1.78,4.18,1.79,4.86.03,1.45-.86,3.27-2.44,3.51-.69.11-3.27.29-3.95.26-.58-.02-1.15-.63-1.82-.53-.22-.22,3.19-4.27,3.34-5.28.05-.35.09-.56-.22-.79-.29-.2-.63-.18-.95-.09-.34.1-3.28,4.64-4.29,5.59-4.94,4.64-9.82,4.87-16.36,4.24-2.74-.27-5.71-1.76-7.9-3.39-.98-.73-5-5.09-5.37-5.07-.34.02-.43.6-.37.93.18,1.14,3.24,3.69,3.06,3.86-2.06.45-4.35.57-6.51.44-1.02-.34-1.85-2.58-1.56-3.55.07-.23,2.07-3.97,2.23-4.14.69-.76,2.61-1.74,3.59-2.76,2.78-2.88,4.54-6.77,5.07-10.73.09-.64-.17-1.93.07-2.34.07-.12,1.84-1.27,2.2-1.61,4.52-4.23,6.85-6.5,13.61-5.43,2.74.43,2.76,2.64,4.04,4.42.57.8,2.18,1.89,2.51,2.57.57,1.18.73,3.79,1.35,5.42.86,2.24,2.84,5.07,4.6,6.69.88.81,4,2.55,4.29,2.9v.02Z"/>
  <path class="st7" d="M270.72,258.9c-1.85,1.55-4.18,2.43-6.06,3.96-4.78,3.88-9.24,8.05-14.29,11.68-.87.63-8.32,5.9-8.72,5.53l-5.63-20.43c1.4-1.4,3.36-1.02,4.89-1.33,1.2-.24,2.28-.98,3.55-.82.36-.35-1.57-4.76-1.84-5.64-1.85-6.1-5.19-16.36-5.52-22.42-.28-5.23,1.04-10.53-.27-15.67,2.61.21,7.22,5.65,9.17,5.66,3.64.02.55-5.64.99-6.22,3.01,1.77,6.1,3.48,8.74,5.79-18.25,8.09-14.75,31.06,2.55,38.09,1.38.56,5.3,1.84,6.63,1.84h5.79l.02-.02Z"/>
  <path class="st24" d="M328.87,257.2c5.96.36,11.2-.5,16.35-3.55,13.91-8.23,15.98-27.49.87-35.53l11.29-7.48c.22.29-.9,3.48-.86,4.37.04.98.8,1.37.86,1.99.07.78-.52,2.38-.57,3.37-.19,3.86.37,7.08.57,10.74.46,8.31-2.58,15.58-3.68,23.69.19,2.94,5.83,1.78,8.02,2.45.31.09.49.3.46.63l-2.81,21.62c-.95-.48-1.91-1-2.79-1.58-9.22-6.01-17.17-14.25-26.2-19.88-.47-.29-.98-.38-1.48-.56-.25-.08-.24-.17,0-.28h-.03Z"/>
  <path class="st41" d="M234.88,260.31l5.65,20.59c-6.62,3-13.72,6.63-21.23,5.01-5.34-1.15-6.15-5.83-4.39-10.44.7-1.82,1.88-3.88,4.05-4.15,3.08-.38,2.47,2.95,1.74,4.87-.48,1.25-3.26,4.68-2.72,5.53.84,1.32,3.36-1.42,3.92-2.07,2.91-3.36,5.17-9.46.19-12.05-2.64-1.37-5.6-1.11-7.81.9.46-5.15,1.34-10.31,1.17-15.49,1.59-.68,2.57-2.13,3.91-3.14,1.79,2.96,4.6,7.71,7.53,9.55.73.46,3.76,1.91,4.49,2.01,1.61.23,2.16-.64,3.51-1.12h-.01Z"/>
  <path class="st41" d="M367.16,231.43c-.11.19-.6.25-.9.93-1.74,4.02-3.29,15-3.77,19.66-.12,1.16,0,2.33-.04,3.49l-7.34-.85c.72-5.62,3.05-11.53,3.67-17.07s-.97-10.58-.57-16.09c.11-1.55.59-3.19.85-4.72,2.99-2.18,5.78-4.56,9.18-6.13-.07,2.66-.81,5.74,3.25,4.66.65-.17,4.24-2.93,4.92-3.54,1.09-.98,1.79-2.23,2.97-3.1l.16,12.72c-.14.2-3.76,1.15-4.47,1.46-3.16,1.38-6.24,5.66-7.93,8.59h.02Z"/>
  <path class="st41" d="M235.72,217.7c.19,2.98-.31,5.93-.29,8.9.03,7.7,3.46,18.27,5.87,25.74.4,1.26.95,2.39,1.49,3.59-2.42.94-5.15.65-7.34,2.12-2.33-7.62-3.87-15.49-6.07-23.14-1.81-6.3-4.78-16.9-11.24-19.81-.67-.3-1.43-.39-2.14-.54-.19-.22.45-4.09.67-4.5.36-.67,1.23.93,1.76,1.08,2.36.7,1.59-2.03,1.63-3.34,1.68.97,3.64,2.09,5.07,3.39,1.01.92,1.68,2.04,2.69,2.96,1.88,1.72,5.29,4.71,7.9,3.53v.02Z"/>
  <path class="st41" d="M378.52,267.61c-.05.07-.76.3-1.11.74-2.52,3.11-.42,7.9,1.84,10.59.4.48,1.85,1.98,2.3,2.22.71.37,1.44.02,1.65.3.13.17.92,2.25.95,2.49.12,1.05-1.09,1.16-1.92,1.35-7.45,1.72-15.16-1.85-21.62-5.22l1.85-12.15c1.12.33,1.98-.58,2.75-.78,1.22-.3,2.19-.03,3.55-.68,1.09-.53,4.5-3.38,5.55-4.32.99-.89,1.9-1.89,2.68-2.97l1.53,8.43h0Z"/>
  <path class="st24" d="M333.38,342.43c-4.62-1.97-8.66,1.84-11.47,5.04l-9.56,4.55-.14-.42c2.2-2.92,5.29-5.13,7.62-7.9,1.02-1.22,3.52-4.68,4.09-6.07,2.11-5.18,1.52-10.48-1.83-14.95,5.65-2.04,10.17-6.04,14.39-10.16-1.51,9.9-2.75,19.89-3.1,29.91h0Z"/>
  <path class="st25" d="M342.63,411.07c13.61-2.13,16.14,20.11,4.09,21.87-14.05,2.05-16.14-19.99-4.09-21.87Z"/>
  <path class="st25" d="M233.68,413.61c13.61-2.13,16.14,20.11,4.09,21.87-14.05,2.05-16.14-19.99-4.09-21.87Z"/>
  <path class="st24" d="M227.54,234.06c-2.82-1.85-6.17-3.04-9.17-.85-.71.52-3.03,2.7-3.67,3.39-1.09,1.17-1.78,2.74-2.68,3.81-.16.19-.25.44-.57.29-.27-.13-1.38-1.9-1.64-2.32-2.25-3.78-3.57-8.6-2.33-12.94.28-.98,2.9-6.26,3.53-6.91,1.48-1.55,4.42-2.03,6.44-1.62,1.83.37,4.95,4.17,6.13,5.73,2.12,2.8,2.92,8.01,3.96,11.42h0Z"/>
  <path class="st3" d="M263.63,348.96c-.16,5.72.12,11.17,2.01,16.61l-27.1-8.75c-.11-.64.04-.45.36-.63,1.8-.99,4.21-1.71,6.04-2.7,3.21-1.73,6.86-4.11,10.06-6.03.55-.33,1.04-1.18,1.52-1.32,1.17-.35,2.06.87,3.08,1.33,1.3.59,2.67,1.02,4.02,1.49h.01Z"/>
  <path class="st3" d="M321.25,349.77c-1.24,4.48,3.19,9.52,7.06,11.14l-18.34,13.41c-1.13-2.4-1.88-4.79-1.99-7.47-.1-2.32.75-11.03,2.75-12.23,1.41-.85,4.47-1.67,6.2-2.55.57-.29,3.96-2.66,4.32-2.31h0Z"/>
  <path class="st3" d="M335.92,357.67c-.11,5.31-.22,14.06-4.66,17.77-4.72,3.94-10.02,5.22-15.94,3.26-1.5-.5-3.22-1.32-3.9-2.83,7.85-6.45,16.39-12.07,24.5-18.2h0Z"/>
  <path class="st24" d="M384.76,242.52c-.21-.28,5.32-4.49,3.11-5.52-.37-.17-2.13,1.35-3.03,1.51-1.87.31-4.83-.68-6.47-1.58-3.36-1.85-5.76-5.56-10.26-3.44.42-1.01.75-2.07,1.41-2.96,4.14-5.59,8.66-7.55,15.68-6.93,5.36.48,6.04,7.06,5.37,11.31-.26,1.64-2.71,6.54-3.82,7.76-.73.81-1.12-.08-1.98-.16h0Z"/>
  <path class="st24" d="M382.22,250.43c-3.66,4.71-8.02,10.05-13.01,13.38-2.21,1.47-3.93,1.4-6.46,1.86.6-2.29,1.55-19.06,2.31-19.7.08-.07,1.2-.22,1.68-.45.59-.28.53-.81,1.29-.95.79-.14,3.35-.26,3.78.41.22.34.23.99.49,1.41.65,1.06,1.52,2.13,2.68,2.69.73.35,5.53,1.44,6.37,1.49.31.02.58-.1.88-.13h0Z"/>
  <path class="st24" d="M272.42,319.29c-4.83,6.2-8.1,13.69-8.71,21.62-.15,1.98.21,4.31-.04,6.18-.04.32.11.57-.42.41-.93-.28-2.01-1.24-2.98-1.57.3-1.08.7-2.29.82-3.4.16-1.47.26-3.53.33-5.03.35-8.24-.28-16.72,0-24.99,3.29,3.04,6.58,5.61,11.01,6.78h0Z"/>
  <path class="st41" d="M231.21,197.94c-.5.59-6.42-3.84-7.22-3.95-3.12-.46-.47,4.57-.68,4.8-.73,0-3.12-1.54-3.07-2.06,4.48-8.96,8.17-18.8,15.49-25.87-2.77,8.8-3.06,18.03-4.51,27.09h-.01Z"/>
  <path class="st41" d="M228.33,235.81c-.32.99,1.63,5.86,1.45,6.12-.04.05-.89.38-1.18.59-.33.25-.34.87-.91.87-.63,0-1.84-1.58-3.86-1.54-4.42.1-3.28,4.06-5.47,6.6-.6.21-.37-.5-.69-.7-.84-.55-2.69.17-3.68.14.47-.62,1.77-1.31,1.28-2.25-.55-1.07-3.09.38-4.28.53-.87.11-1.77,0-2.65.03l2.37-1.72c1.7-1.59,2.45-3.72,3.85-5.47.66-.82,4.07-4.25,4.88-4.75,3.32-2.03,5.9.23,8.89,1.55h0Z"/>
  <path class="st32" d="M347.78,409.59l-3.95-.85c.02-1.17-.04-2.35,0-3.52.5-13.11-.21-25.04-.85-38.1-.13-2.57.08-5.18,0-7.76,1.77.61,1.45,3.76,1.76,5.43,2.13,11.21,2.92,23.87,3.33,35.34.11,3.17-.16,6.31-.3,9.47h.01Z"/>
  <path class="st41" d="M384.47,240.27c-.44,1.21-4.22,2.04-3.92,3.19.36,1.39,3.41.38,4.49.89l2.26,3.81c-.78.62-5.23-1.03-6.21-1.55-.75-.41-3.16-3.2-3.65-1.65-.4,1.28,2.11,3.36,1.95,3.48-1.98-.29-4.13-.32-5.51-1.96-.97-1.15-.92-2.81-2.51-3.42-1.88-.72-3.99.08-5.81.58.45-2.63.24-6.52,2.73-8.14,4.29-2.8,7.22,2.23,10.82,3.76,1.64.7,3.58,1.07,5.36.99v.02Z"/>
  <path class="st24" d="M230.36,243.94l3.94,14.65c-.88.19-1.6,1.19-2.49,1.3-.94.11-4.01-1.33-4.84-1.97-.96-.74-6.92-8.31-6.99-9.08-.04-.48,1.8-5.01,2.49-5.31,3.11-1.4,4.98,2.96,7.9.42h0Z"/>
  <path class="st32" d="M239.39,358.8c-1.19,2.15-1.85,4.38-2.41,6.76-2.72,11.5-3.3,23.06-3.25,34.87l.88,10.68-1.71.46c-.68-7.51-.8-15.17-.58-22.73.24-8.36.97-17.04,2.02-25.35.22-1.73.61-3.49.84-5.22,1.43-.22,2.83.23,4.2.54h.01Z"/>
  <path class="st41" d="M369.51,197.09c1.02-7.46-.58-15.03-2.26-22.29.37.08.59.47.79.76,1.19,1.64,3.32,5.68,4.25,7.6,1.57,3.26,2.78,7,3.98,10.43.03.37-.21.47-.45.65-.57.42-6.04,3.06-6.32,2.85h.01Z"/>
  <path class="st3" d="M334.42,352.4c.49.53,1.64,2.95,1.38,3.56-.14.33-1.61,1.34-2.04,1.65l-4.89,2.87c.98-2.05-2.65-3.24-3.05-5-.36-1.59-.17-5.23,1.84-5.67,1.69-.37,5.57,1.31,6.75,2.58h.01Z"/>
  <path class="st18" d="M381.65,365.85l-6.17-1.45c-.66-4.68-2.21-9.3-2.01-14.07.73-.8,4.48,4.21,4.85,4.89.76,1.41,4.11,9.57,3.33,10.63h0Z"/>
  <path class="st28" d="M385.6,283.73l-4.51-12.98c5.94-.1,7.68,9.02,4.51,12.98Z"/>
  <path class="st34" d="M313.35,263.98c-1.36,1.13-1.13,2.21-.28,3.67-.04.35-.23.54-.56.56-.49-.84-1.09-1.34-.85-2.54-.43.3-1.47.64-1.68,1.07-3.92,8,3.46,18.59,10.71,21.79.18.32-.1.42-.85.28-3.39-.73-6.01-3.5-8.02-6.23-3.2-4.34-5.85-10.39-2.71-15.49-1.41.35-2.71,1.28-4.23,1.13.08-.23,3.92-1.37,4.62-1.73.99-.5,3.15-2.45,3.85-2.5h0Z"/>
  <path class="st28" d="M353.71,359.64c-1.7-.97-3.66-1.18-5.52-1.67l-1.53-9.61c.57-.07.93.48,1.27.84,2.7,2.92,4.22,6.84,5.78,10.44Z"/>
  <path class="st28" d="M396.33,368.39l-7.34-1.13c.85-2.87,2.24-4.99,1.7-8.18l2.2,3.02,3.44,6.3h0Z"/>
  <path class="st39" d="M311.62,235.22l-.39,2.79c-2.54-2.2-3.22-6.04-7.09-6.46-1.54-.17-5.9.06-7.33.52-3.32,1.08-5.26,3.9-7.89,5.94-.91-2.43-.53-1.83.9-2.77,5.47-3.58,9.33-5.7,16.25-3.94,1.92.49,3.71,3.09,5.54,3.92h.01Z"/>
  <path class="st10" d="M365,362.18c-.63-.05-3.86-.55-3.95-.99.56-1.42,1.4-2.79,1.41-4.37l2.54,5.36Z"/>
  <path class="st33" d="M330.28,216.28c.14-.41,1.1-.73,1.5-.89.66-.27,4.23-1.61,4.43-.65.38,1.9-4.71,1.15-5.93,1.54Z"/>
  <path class="st23" d="M223.59,359.64c-.08.08-1.88.38-2.26.57-.13-1.51.73-2.83,1.13-4.23l1.13,3.66h0Z"/>
  <path class="st8" d="M380.52,272.44c.17.18.86,4.13,1.13,4.8-.95-.72-1.43-2.47-1.62-3.6-.03-.21-.2-1.94.49-1.2h0Z"/>
  <polygon class="st6" points="326.89 256.64 324.25 257.23 323.51 255.79 326.89 256.64"/>
  <path class="st2" d="M382.22,250.43c.19-1.21-.05-1.27-.85-1.97,2.6.43,2.04.44.85,1.97Z"/>
  <path class="st43" d="M212.53,362.98s-.62.22-.8.33l.28-2.82c.56.17.69,2.23.51,2.49h.01Z"/>
  <path class="st35" d="M344.11,357.67c-.78-.02-1.6-.5-1.41-1.41.68.21,1.19.72,1.41,1.41Z"/>
  <path class="st26" d="M216.53,249.02l-1.13,1.41c-.1-.96.08-1.58,1.13-1.41Z"/>
  <path class="st36" d="M328.87,257.2v.28c-.35-.13-1.41-.31-1.41-.42.35-.55,1.24.13,1.41.14Z"/>
  <path class="st21" d="M292.35,396.99c1.02-.08,3.25.53,4.04,1.2.89.75,1.02,3.67.85,4.76-.36,2.33-3.72,3.94-5.64,2.29-1.78-1.52-2.39-8.02.76-8.25h-.01Z"/>
  <path class="st37" d="M296.13,414.11c.12-2.71-1.44-4.39-3.69-2.13-.8.81-.51,1.83-1.39,2.41-1.54-3.78,5.48-7.25,5.93-2.4.08.87.06,1.76-.85,2.12h0Z"/>
  <path class="st0" d="M308.55,392.1c-15.97-2.27-29.8-17.82-35.33-32.26-3.07-8.01-3.27-22.16.28-30.01.44-.97,4.17-6.83,4.7-6.84.04,0,.69.23.71.26.49.61-2.43,4.11-2.88,4.88-4.88,8.42-5.07,23.37-1.41,32.27,4.53,10.99,13.43,22.2,24.22,27.43,3.26,1.58,7.27,2.54,10.26,3.99.27.32.08.42-.56.28h.01Z"/>
  <path class="st0" d="M313.63,385.89c-6.46.7-12.04-5.94-14.12-11.42-3.41-9-.76-22.22,5.51-29.5,3.23-3.75,12.6-10.08,9.13-16.17-.33-.58-1.55-.72-.93-1.61,1.25.02,1.86.94,2.25,1.99,3.02,8.1-6.54,13.1-10.53,18.53-7.35,9.98-8.55,28.9,3.43,35.98l5.27,2.21h-.01Z"/>
  <path class="st27" d="M296.69,377.7c-.5.48-2.53-2.89-2.77-3.3-2.26-3.87-4.17-9.84-4-14.34.44-11.7,14.42-17.86,11.51-31.27-.1-.46-1.13-1.84.19-1.32s1.34,5.38,1.24,6.59c-1.3,15.65-16.23,16.53-9.92,35.68.92,2.78,2.28,5.44,3.75,7.96h0Z"/>
  <path class="st12" d="M291.61,374.32c-6.28-3.5-12.19-14.14-13.47-21.1-1.43-7.77.5-18.68,5.84-24.77.28-.32,2.03-2.07,2.26-.84-6.31,6.7-8.89,16.86-6.97,25.88,1.25,5.84,4.83,12.2,8.67,16.73,1.33,1.57,2.42,2.5,3.94,3.82.37.4.22.54-.28.28h0Z"/>
  <path class="st42" d="M288.79,350.61c-1.67-5.08-.65-11.48,1.2-16.44.32-.86,2.63-5.68,3.17-5.86.29-.09.85-.14.7.42-.26.94-1.85,3.13-2.39,4.39-2.25,5.28-3.25,11.8-2.4,17.49-.08.25-.17.24-.28,0h0Z"/>
  <path class="st40" d="M291.89,374.04c.28.24.77.41.85.84-.56.16-.78-.37-1.13-.56l.28-.28Z"/>
  <path class="st19" d="M289.07,350.61c.02.15.65.85.14,1.13-.23,0-.33-.86-.42-1.13h.28Z"/>
  <path class="st1" d="M309.11,391.81c.24.12.55.26.56.56-.47.21-.92-.25-1.13-.28l.56-.28h.01Z"/>
  <path class="st27" d="M288.51,268.91c-.02-.11-.28-.81-.56-.7-.82,3.53-5.57,12.78-8.78,14.22-.57.25-1.94.72-2.23-.11,1.98-.7,3.64-2.92,4.86-4.6,1.65-2.28,4.29-6.67,5.11-9.29.08-.27.38-.92.05-1.08-3.41,7.54-13.15,14.61-21.44,15.25-.31.02-2.11.24-1.85-.43,8.98-2.76,19.48-7.62,22.87-17.08.87-.19.67.81.89,1.07.04.05.39-.19.65.04,3.24,3.04,1.27,12.73-2.38,15.25l2.82-8.04c-.14-1.42.19-3.14,0-4.52v.02Z"/>
  <path class="st20" d="M313.06,267.64c1.03,1.76,6.24,5.28,8.19,6.06,3.84,1.54,7.16,1.19,11-.13-1.26,2.89-4.68,3.12-7.45,2.79-3.87-.46-10.37-4.82-12.31-8.15-.07-.6-.04-.63.56-.56h.01Z"/>
  <path class="st15" d="M311.37,266.8c.07.06-.29,1.34-.3,1.82-.06,4.3,4.73,10.35,8.58,12.06,2.1.93,5.09,1.76,7.38,1.64.52.96-1.85,1.17-2.52,1.14-6.33-.28-14.35-7.95-14.39-14.26,0-.59.25-3.24,1.25-2.4h0Z"/>
  <path class="st22" d="M320.68,288.53c.39.17.94.22.85.56-.7.25-1.25-.18-1.69-.28l.85-.28h-.01Z"/>
  <path class="st44" d="M306.29,297.28c-2.33-1.67-5.3-3.27-8.24-2.46-1.01.28-2.06,1.01-2.97,1.27-.37.1-1.06.31-.92-.36,1.77-1.18,3.8-2.31,6.03-2.09,1,.1,7.29,2.11,6.1,3.64h0Z"/>
  <path class="st30" d="M346.65,246.2c-.99.96-10.3-8.08-11.44-9.02-4.14-3.41-9.87-6.71-13.55-10.44-1.02-1.03-.76-1.81.53-1.09,7.62,5.79,15.41,11.39,22.35,18.01.32.3,2.43,2.24,2.11,2.55h0Z"/>
  <path class="st11" d="M329.43,245.35c-3.56-1.29-5.93-4.83-8.5-7.45-1.05-1.07-2.63-1.25-2.23-3.27l10.72,10.72h.01Z"/>
  <path class="st31" d="M344.11,234.34c-1.33-.79-9.47-7.4-9.31-8.32.1-.6.64-.26.93-.09.53.3,1.88,1.56,2.46,2.06,1.41,1.23,4.52,3.86,5.51,5.21.28.38.52.59.41,1.14Z"/>
  <path class="st4" d="M281.03,229.55c.87.01-.36,1.45-.43,1.54-2.09,2.65-4.64,3.25-7.31,4.83-6.31,3.73-12.81,9.99-19.13,13.33-1.3.68-2.97.82-1.47-.62,1.89-1.83,4.86-3.32,7.01-4.84,5.88-4.16,11.04-7.56,17.21-11.29.7-.42,3.79-2.94,4.12-2.93v-.02Z"/>
  <path class="st9" d="M269.31,229.27c.3.29-.88,1.33-1.12,1.55-2.34,2.23-10.26,6.83-13.36,8.37-1.1.55-4.04,2.08-2.73-.19,5.7-3.33,11.22-6.95,17.22-9.73h-.01Z"/>
  <path class="st29" d="M279.76,240.83c-2.51,1.55-4.58,3.61-7.08,5.2-.62.4-2.88,1.89-3.34,2.02-.96.27-1.02-.58-.49-1.21.71-.83,6.72-4.68,8.01-5.39.66-.36,2.58-1.65,2.91-.63h-.01Z"/>
  <path class="st5" d="M343.26,421.44c.15-1.28,1.97-1.92,2.56-2.67,1.03-1.31.3-2.48,3.1-1.84-.37.7.07,1.37,0,2.09-.2,1.87-1.51,1-2.53,1.44-.54.24-1.67,1.82-2.24,2.29-.05.27,2.05,2.47,2.37,2.67.4.25,1.58-.41,1.16,1.39-.35,1.52-2.8,1.62-2.97-.18-.04-.43.22-.95.12-1.26-.04-.11-1.56-1.67-1.68-1.67-.56-.01-.38,2-.55,2.55-.33,1.09-1.68,2.03-2.54.81-1.29-1.83,2.07-3.54,2.01-4.64,0-.12-1.29-1.95-1.41-2.03-.43-.31-1.41-.23-1.75-.93-.42-.86.2-2.84.99-3.26s2.98.84,2.71,2.14-2.11,1.94.66,3.09h-.01Z"/>
  <path class="st17" d="M241.65,416.93c-.3,1.06-1.21,1.78-1.71,2.66-.37.66-.57,2.12-1.19,2.62-.76.6-2.46.43-2.71,1.97-.08.5,1.98,1.97,2.47,2.26.85.51,1.76-.25,1.76,1.64,0,2.44-3.14,2.44-3.36.22-.05-.5.34-1.01.1-1.48-.1-.19-1.77-1.43-1.96-1.39-.17.03-1.22,1.08-1.23,1.25,0,.21.49.78.5,1.41.05,3.22-3.61,3.38-3.65,1.14-.05-2.45,5.29-4.33,2.25-6.52-.86-.62-2.18-.42-2.24-1.94,0-.27.26-1.64.38-1.86.26-.48,1.95.52,2.28.84.96.94.24,1.33.45,2.06.05.17.91,1.49,1.22,1.34,1.2-.8,1.29-3.08,2.14-3.81.53-.45.99-.1,1.38-.29s2.72-2.47,3.12-2.11h0Z"/>
  <path class="st3" d="M295.47,399.8c1.54,2.21-1.01,5.54-3.18,3.89-.83-.63-.93-4.43-.36-4.78.72-.45,3,.13,3.54.89h0Z"/>
</svg>