<?xml version="1.0" encoding="UTF-8"?>
<svg id="Layer_1" xmlns="http://www.w3.org/2000/svg" version="1.1" viewBox="0 0 792 612">
  <!-- Generator: Adobe Illustrator 29.8.3, SVG Export Plug-In . SVG Version: 2.1.1 Build 3)  -->
  <defs>
    <style>
      .st0, .st1 {
        stroke: #ffd194;
      }

      .st0, .st1, .st2, .st3 {
        stroke-miterlimit: 10;
      }

      .st0, .st4 {
        fill: #fbb019;
      }

      .st1 {
        fill: #a8362a;
        stroke-width: 8px;
      }

      .st2 {
        fill: none;
      }

      .st2, .st3 {
        stroke: #fed194;
      }

      .st3 {
        fill: #fcb017;
      }
    </style>
  </defs>
  <rect class="st1" x="62.02" y="188.86" width="667.97" height="222.66" rx="40.79" ry="40.79"/>
  <g>
    <path class="st3" d="M211.18,303.63c-1.54,4.22-12.16,24.58-18.43,25.86-4.61.9-8.7,1.28-12.54,1.28-31.36,0-36.1-27.52-23.81-44.8,0,20.61,15.74,37.89,29.95,37.89,6.02,0,11.9-3.2,16-10.62,3.2-5.76-3.46-10.88-14.46-17.79-.77-.26-1.41-.38-2.05-.38-1.79,0-3.07.9-3.07.9,0,0,.51-2.94-2.18-4.99l-3.58-2.18c-20.86-13.06-24.96-13.95-11.39-27.91,9.73-10.24,12.93-13.82,17.02-13.82,8.45,0,17.41,10.5,23.55,10.5,1.66,0,3.07-.64,4.22-2.56,0,0,.13,5.89-4.22,10.11-3.2,2.94-4.74,5.38-7.17,5.38-1.02,0-2.18-.38-3.58-1.28-4.99-2.94-12.29-7.55-14.46-8.83-1.41-.9-3.46-2.43-5.5-2.43-1.28,0-2.56.51-3.84,2.05-4.74,5.38,4.61,11.9,16.64,19.2.77.38,1.54.51,2.18.51,1.79,0,2.94-.9,2.94-.9,0,0-.38,3.2,2.56,5.12.13.13.26.13.26.13,11.52,7.04,18.05,11.14,14.98,19.58ZM203.12,296.71c-2.69-2.05-15.23-9.47-14.72-10.5-1.92,0-21.38-13.18-24.06-14.72,2.56,2.05,23.68,15.49,23.04,16.51.64-1.02,12.8,7.04,15.74,8.7ZM180.08,290.57l.26.13c-.13,0-.13-.13-.26-.13Z"/>
    <path class="st3" d="M236.78,320.52c1.28,0,3.07-.77,5.38-2.56l-8.45,12.29s-1.41.51-3.33.51c-4.35,0-11.52-2.56-11.52-18.69v-6.27c0-3.84-3.07-5.12-3.07-5.12,0,0,3.07-1.28,3.07-5.12v-22.66h-3.07v-2.82c8.32,0,16-10.5,17.28-15.36v15.36h6.14v2.82h-6.14v22.66c0,3.84,3.07,5.12,3.07,5.12,0,0-3.07,1.28-3.07,5.12v4.35c0,6.53.9,10.37,3.71,10.37ZM226.92,300.68c-1.15,0-.77-18.05-1.02-21.38-.26,3.33.13,21.38-1.02,21.38,1.15,0,.77,16.26,1.02,19.59.26-3.33-.13-19.59,1.02-19.59Z"/>
    <path class="st3" d="M290.8,335.12c-6.78-2.18-7.3-8.45-7.3-17.54-2.82,3.46-11.78,13.18-22.4,13.18-12.93,0-12.03-12.93-12.03-17.02v-7.94c0-3.84-3.07-5.12-3.07-5.12,0,0,1.66-.51,2.56-2.82.77-1.79-1.54-3.97-1.54-3.97,3.07,1.02,11.78-2.3,15.87-4.61-1.79-.64-3.58-1.28-5.38-2.05-3.84-1.15-6.91-4.35-6.91-7.94,0-3.2,7.04-9.6,11.39-12.16,0,0-2.3,5.63,4.1,5.63,5.5,0,8.06-3.2,14.34-3.2,13.06,0,17.28,5.12,17.28,19.33v6.66c0,3.84,3.07,5.12,3.07,5.12,0,0-3.07,1.28-3.07,5.12v6.27c0,3.97,0,8.19,3.46,8.19-4.99,1.79-12.8,8.45-10.37,14.85ZM257.13,300.68c-.9,0-1.02-3.2-1.02-4.86,0,1.66-.13,4.86-1.02,4.86,1.15,0,.77,16.26,1.02,19.59.26-3.33-.13-19.59,1.02-19.59ZM270.06,322.06c4.48,0,10.24-3.2,13.44-7.04v-9.22c0-3.84-3.07-5.12-3.07-5.12,0,0,3.07-1.28,3.07-5.12v-14.08c0-4.35-.38-9.34-4.48-9.34-5.63,0-6.02,15.1-17.92,15.62,6.14,1.92,18.05,4.1,18.05,12.03,0,2.18-1.41,3.84-2.69,3.84-2.82,0-3.46-3.2-1.28-4.86.77-.64,1.02-1.66.64-2.69-1.15-3.33-6.4-4.61-12.54-6.66v6.14c0,3.84,3.07,5.12,3.07,5.12,0,0-3.07,1.28-3.07,5.12v7.94c0,6.14,2.94,8.32,6.78,8.32ZM290.67,281.74c0,3.33-.13,8.7-1.02,8.7.9,0,1.02,14.72,1.02,23.55,0-8.83.13-23.55,1.02-23.55-.9,0-1.02-5.38-1.02-8.7Z"/>
    <path class="st3" d="M329.32,330.25h-24.32c3.71,0,4.99-4.48,4.99-8.32l.13-16.51c0-3.46-3.07-4.74-3.07-4.74,0,0,3.07-1.28,3.07-5.12v-5.89c0-5.38.51-9.22-3.07-9.22,8.32-1.79,14.21-6.02,17.28-11.14v17.15l.9-1.28c4.61-6.66,10.37-15.62,13.57-15.62,2.18,0,6.14,1.92,9.98,1.92,1.92,0,3.71-.51,5.25-1.92-7.81,15.23-8.58,16.13-13.18,16.13-3.58,0-5.63-3.33-8.45-3.33-1.54,0-3.33.9-5.76,3.84l-2.3,3.46v6.91c0,3.07,3.07,4.1,3.07,4.1,0,0-3.07.9-3.07,4.74v16.51c0,3.84,1.28,8.32,4.99,8.32ZM318.19,300.68c-.26,0-.38-.51-.51-1.41-.51-3.58-.26-12.42-.51-14.98-.13,2.56,0,11.39-.38,14.98-.13.9-.38,1.41-.64,1.41.38,0,.51,1.02.64,2.56.38,4.61.26,14.59.38,17.03.26-2.43.13-12.42.51-17.03.13-1.54.26-2.56.51-2.56Z"/>
    <path class="st3" d="M378.86,320.52c1.28,0,3.07-.77,5.38-2.56l-8.45,12.29s-1.41.51-3.33.51c-4.35,0-11.52-2.56-11.52-18.69v-6.27c0-3.84-3.07-5.12-3.07-5.12,0,0,3.07-1.28,3.07-5.12v-22.66h-3.07v-2.82c8.32,0,16-10.5,17.28-15.36v15.36h6.14v2.82h-6.14v22.66c0,3.84,3.07,5.12,3.07,5.12,0,0-3.07,1.28-3.07,5.12v4.35c0,6.53.9,10.37,3.71,10.37ZM369,300.68c-1.15,0-.77-18.05-1.02-21.38-.26,3.33.13,21.38-1.02,21.38,1.15,0,.77,16.26,1.02,19.59.26-3.33-.13-19.59,1.02-19.59Z"/>
    <path class="st3" d="M482.67,300.68s-2.82,1.02-3.58,3.58c-3.97,16-8.06,26.37-27.14,26.37-16.51,0-24.19-9.47-26.88-25.35-.38-1.92-1.54-3.58-3.33-4.35-.26-.13-.38-.26-.38-.26,0,0,2.69-1.28,2.69-5.12,0-2.05-.13-4.35-.13-6.53,0-26.11,6.27-41.73,28.03-41.73s28.03,15.62,28.03,41.73c0,2.43-.13,4.74-.13,7.04,0,3.33,2.82,4.61,2.82,4.61ZM432.36,263.18c-.26,3.33.13,37.51-1.02,37.51,1.15,0,.77,10.5,1.02,13.82.26-3.33-.13-13.82,1.02-13.82-1.15,0-.77-34.18-1.02-37.51ZM463.34,289.03c0-23.94-2.56-38.27-11.39-38.27s-11.39,14.34-11.39,38.27c0,2.3.13,4.61.13,6.91.13,3.58,3.2,4.74,3.2,4.74,0,0-2.94,1.28-2.69,5.12.9,13.57,4.22,21.38,10.75,21.38s10.11-7.81,10.88-21.63c.26-3.58-2.69-4.86-2.69-4.86,0,0,2.94-1.15,3.2-4.35.13-2.43,0-4.86,0-7.3ZM471.66,263.18c-.26,3.33.13,37.51-.9,37.51,1.02,0,.64,10.5.9,13.82.26-3.33-.13-13.82,1.02-13.82-1.15,0-.77-34.18-1.02-37.51Z"/>
    <path class="st3" d="M536.04,300.68s-3.84.51-6.53,4.74c-5.12,8.06-20.61,25.35-31.11,25.35-5.12,0-8.83-4.48-8.83-17.15v-7.94c0-3.71-3.07-4.99-3.07-4.99,0,0,3.07-1.28,3.07-5.12v-5.12c0-5.5.38-9.34-3.07-9.34,8.19-1.66,14.34-6.02,17.41-11.01v26.75c0,2.94,2.94,3.84,2.94,3.84,0,0-2.94,1.15-2.94,4.48v2.82c0,6.4,2.18,13.18,6.53,13.18,6.27,0,10.5-10.37,10.5-15.36,0-3.84-3.07-5.12-3.07-5.12,0,0,3.07-1.28,3.07-5.12,0-8.96-2.82-17.02-8.06-17.02-3.2,0-6.02,3.97-6.02,3.97,0,0,.26-2.69,4.61-5.89,4.22-3.2,9.34-7.04,14.34-7.04,7.17,0,13.31,11.01,8.45,25.99-1.02,3.07,1.79,5.12,1.79,5.12ZM496.61,284.94c-.26,3.33.13,15.74-1.02,15.74,1.15,0,.77,16.26,1.02,19.59.26-3.33-.13-19.59,1.02-19.59-1.15,0-.77-12.42-1.02-15.74ZM526.44,279.82c-.13,1.28.13,6.02-1.02,6.02,1.15,0,.77,12.42,1.02,15.74.26-3.33-.13-15.74,1.02-15.74-1.15,0-.77-4.74-1.02-6.02Z"/>
    <path class="st3" d="M568.04,316.94c-2.3,0-4.61-.26-6.78-.64,2.69,5.12,6.66,7.04,10.88,7.04,6.27,0,12.8-4.48,15.36-9.86-2.05,10.62-8.58,17.15-22.14,17.15-17.15,0-21.25-11.01-22.27-25.6-.26-3.07-3.2-4.35-3.2-4.35,0,0,2.94-1.15,3.07-4.74.51-15.23,4.74-27.14,22.4-27.14s21.5,12.16,22.4,27.27c.13,3.46,3.07,4.61,3.07,4.61,0,0-2.69,1.54-3.71,4.22-2.94,8.83-10.75,12.03-19.07,12.03ZM550.25,284.94c-.26,3.33.13,15.74-1.02,15.74,1.15,0,.77,16.26,1.02,19.59.26-3.33-.13-19.59,1.02-19.59-1.15,0-.77-12.42-1.02-15.74ZM572.01,305.8c.77-3.2-2.43-5.12-2.43-5.12,0,0,3.07-1.15,3.07-4.74,0-13.82-1.66-24.45-7.3-24.45s-7.04,10.5-7.3,24.19c0,3.71,3.07,4.99,3.07,4.99,0,0-2.82,1.28-2.82,4.86,0,2.94.77,5.5,1.54,7.68,6.02.26,10.75-1.02,12.16-7.42ZM580.07,284.94c-.26,3.33.13,15.74-1.02,15.74,1.15,0,.77,6.53,1.02,9.86.26-3.33-.13-9.86,1.02-9.86-1.15,0-.77-12.42-1.02-15.74Z"/>
    <path class="st3" d="M618.98,330.25h-24.32c3.71,0,4.99-4.48,4.99-8.32l.13-16.51c0-3.46-3.07-4.74-3.07-4.74,0,0,3.07-1.28,3.07-5.12v-5.89c0-5.38.51-9.22-3.07-9.22,8.32-1.79,14.21-6.02,17.28-11.14v17.15l.9-1.28c4.61-6.66,10.37-15.62,13.57-15.62,2.18,0,6.14,1.92,9.98,1.92,1.92,0,3.71-.51,5.25-1.92-7.81,15.23-8.58,16.13-13.18,16.13-3.58,0-5.63-3.33-8.45-3.33-1.54,0-3.33.9-5.76,3.84l-2.3,3.46v6.91c0,3.07,3.07,4.1,3.07,4.1,0,0-3.07.9-3.07,4.74v16.51c0,3.84,1.28,8.32,4.99,8.32ZM607.84,300.68c-.26,0-.38-.51-.51-1.41-.51-3.58-.26-12.42-.51-14.98-.13,2.56,0,11.39-.38,14.98-.13.9-.38,1.41-.64,1.41.38,0,.51,1.02.64,2.56.38,4.61.26,14.59.38,17.03.26-2.43.13-12.42.51-17.03.13-1.54.26-2.56.51-2.56Z"/>
  </g>
  <rect class="st2" x="80.22" y="202.47" width="628.11" height="196.24" rx="25.5" ry="25.5"/>
  <g>
    <path class="st4" d="M396.28,199.42c-5.54-3.58-9.88-8.71-14.82-13.08s-10.97-8.16-17.57-8.09c-11.24.12-19.53,11.01-30.47,13.58-4.02.94-8.22.71-12.33.31-5.99-.57-12.13-1.53-17.32-4.58s-9.29-8.62-8.99-14.64c.41-8.29,8.93-14.23,17.2-14.99-7.43,3.55-12.29,13.58-7.59,20.34,1.38,1.99,3.41,3.47,5.61,4.48,7.7,3.55,16.77,1.46,24.69-1.55s15.8-6.95,24.28-7.01c10.45-.07,20.66,6.43,25.02,15.92"/>
    <path class="st4" d="M397.54,197.26c-8.5-5.57-14.21-14.63-23.54-19.07-4.51-2.14-9.35-2.99-14.27-1.98-4.27.88-8.17,3.07-11.83,5.35s-7.21,4.8-11.18,6.53c-4.69,2.05-9.67,2.07-14.69,1.62-8.83-.77-20.11-2.69-23.93-11.98s5.6-16.49,13.86-17.31l-1.26-4.66c-6.03,2.97-10.68,9.59-10.68,16.42,0,8.61,7.84,13.7,15.64,14.7,8.67,1.11,17.01-2.17,24.89-5.34,7.43-2.98,15.46-6.13,23.57-4.31s14.33,6.96,17.68,14.14c.57,1.22,2.33,1.53,3.42.9,1.25-.73,1.47-2.19.9-3.42-2.98-6.37-8.44-11.59-14.85-14.45-7.36-3.28-15.12-3.28-22.79-1.03s-15.31,6.46-23.48,8.11c-3.73.76-7.67.96-11.37-.06-3.23-.88-6.61-2.74-7.99-5.96-1.13-2.61-.69-5.74.61-8.37,1.51-3.06,3.91-5.51,6.97-7.02,2.16-1.06,1.2-4.9-1.26-4.66-9.07.91-18.54,6.91-19.62,16.63-.55,4.97,1.66,9.83,4.95,13.45,3.6,3.96,8.62,6.31,13.75,7.58s11.2,1.99,16.72,1.89,10.22-1.67,14.88-4.27c7.24-4.05,14.87-11.3,23.84-9.78,5.64.96,10.4,4.55,14.5,8.34,4.58,4.24,8.8,8.87,14.05,12.32,2.7,1.77,5.21-2.56,2.52-4.32h0Z"/>
  </g>
  <g>
    <path class="st4" d="M403.02,197.92c5.54-3.58,9.88-8.71,14.82-13.08s10.97-8.16,17.57-8.09c11.24.12,19.53,11.01,30.47,13.58,4.02.94,8.22.71,12.33.31,5.99-.57,12.13-1.53,17.32-4.58s9.29-8.62,8.99-14.64c-.41-8.29-8.93-14.23-17.2-14.99,7.43,3.55,12.29,13.58,7.59,20.34-1.38,1.99-3.41,3.47-5.61,4.48-7.7,3.55-16.77,1.46-24.69-1.55-7.92-3.01-15.8-6.95-24.28-7.01-10.45-.07-20.66,6.43-25.02,15.92"/>
    <path class="st4" d="M404.28,200.08c4.65-3.04,8.5-7.01,12.49-10.84,3.62-3.48,7.58-6.98,12.35-8.78,4.4-1.66,8.79-1.48,13.12.31s7.82,4.42,11.61,6.76,8.17,4.71,12.78,5.49c5.86.99,12.01.29,17.84-.66,5.26-.86,10.53-2.52,14.79-5.83,3.86-2.99,6.9-7.31,7.61-12.22,1.66-11.43-9.25-19.36-19.52-20.38-2.46-.25-3.42,3.6-1.26,4.66,4.86,2.39,8.99,8.08,8.12,13.45-1.23,7.55-10.87,9.07-17.14,8.4-8.18-.88-15.61-4.95-23.28-7.61s-15.36-3.69-22.94-1.05-14.23,8.23-17.67,15.58c-.57,1.22-.34,2.7.9,3.42,1.08.63,2.85.33,3.42-.9,2.94-6.29,8.43-11.21,15.03-13.4,7.85-2.61,15.62-.54,23.09,2.33,8.04,3.09,16.06,6.87,24.87,6.8,7.65-.06,17.03-3.82,18.54-12.24,1.39-7.72-3.55-15.72-10.42-19.1l-1.26,4.66c7.14.71,15.62,6.3,14.65,14.38-.49,4.09-3.4,7.75-6.75,9.98-4.13,2.75-9.15,3.9-14.01,4.52-5.21.66-10.77,1.28-15.88-.22-4.04-1.19-7.63-3.51-11.15-5.75-3.72-2.37-7.44-4.77-11.61-6.27-4.39-1.58-9.18-1.74-13.64-.33-11.37,3.59-17.61,14.25-27.18,20.53-2.68,1.76-.18,6.09,2.52,4.32h0Z"/>
  </g>
  <rect class="st0" x="385.81" y="175.29" width="26.32" height="26.32" transform="translate(-16.4 337.31) rotate(-45)"/>
</svg>