<?xml version="1.0" encoding="UTF-8"?>
<svg id="Layer_1" xmlns="http://www.w3.org/2000/svg" version="1.1" viewBox="0 0 1287.27 894.55">
  <!-- Generator: Adobe Illustrator 29.6.1, SVG Export Plug-In . SVG Version: 2.1.1 Build 9)  -->
  <defs>
    <style>
      .st0 {
        fill: #b59055;
      }

      .st1 {
        fill: #24241b;
      }

      .st2 {
        fill: #010101;
      }

      .st3 {
        fill: #0e1215;
      }

      .st4 {
        fill: #5e574c;
      }

      .st5 {
        fill: #574423;
      }

      .st6 {
        fill: #0e1214;
      }

      .st7 {
        fill: #030303;
      }

      .st8 {
        fill: #6f6d66;
      }

      .st9 {
        fill: #000f19;
      }

      .st10 {
        fill: #0b1013;
      }

      .st11 {
        fill: #5f5441;
      }

      .st12 {
        fill: #696969;
      }

      .st13 {
        fill: #55411e;
      }

      .st14 {
        fill: #020101;
      }

      .st15 {
        fill: #020202;
      }

      .st16 {
        fill: #615c54;
      }

      .st17 {
        fill: #ececeb;
      }

      .st18 {
        fill: #686765;
      }

      .st19 {
        fill: #5a5449;
      }

      .st20 {
        fill: #666460;
      }

      .st21 {
        fill: #54401e;
      }

      .st22 {
        fill: #696867;
      }

      .st23 {
        fill: #d6d8d9;
      }

      .st24 {
        fill: #1d2323;
      }

      .st25 {
        fill: #676767;
      }

      .st26 {
        fill: #fefefe;
      }

      .st27 {
        fill: #152128;
      }

      .st28 {
        fill: #70634d;
      }

      .st29 {
        fill: #020201;
      }

      .st30 {
        fill: #3a3425;
      }

      .st31 {
        fill: #65583b;
      }

      .st32 {
        fill: #1f2321;
      }

      .st33 {
        fill: #9e9e9e;
      }

      .st34 {
        fill: #5e5546;
      }

      .st35 {
        fill: #101b20;
      }

      .st36 {
        fill: #0d1113;
      }

      .st37 {
        fill: #b08c52;
      }
    </style>
  </defs>
  <g>
    <path class="st12" d="M0,.55l.17-.27h1286.75c.24,218.37.17,436.69-.2,654.96-.61,1.61-2.08,1.47-4.41-.44l-2.93.43c-11.09-2.53-22.23-4.77-33.42-6.71-1.07-.23-5.1-2.29-4.49-3.64l1.01-.73c13.36-.26,26.8-.87,40.11-2.38,1.31-.15-23.39-1.98-24.98-.77l-1.34-.49c3.55-8.97,4.62-17.98,3.22-27.01-3.17-4.19-4.64-8.76-4.42-13.69.73-5.85.74-11.54.03-17.08l-1.23-1.56c-1.46-8.56-4.04-16.83-7.74-24.81-1.48-4.15-2.44-8.46-2.67-12.84,1.65-21.16-5.01-38.89-15.81-56.86-5.05-9.11-6.11-18.25-5.73-28.29-.49-5.42-1.96-6.76-7.53-7.17-8.86-2.65-15.6-8.04-21-15.33-2.04-2.72-13.43-7.25-16.2-6.36-1.49.48-12.48,12.35-12.96,13.96.04,7.95-1.67,15.85-5.13,23.72-3.33,8.37-6.32,16.79-8.65,25.24-11.3,10.8-22.94,21.46-34.93,31.98-8.17,3.81-12.66,10.33-15.92,18.5-3.31,8.21-6.1,16.58-8.39,25.1l-1.3.55c-.17.85-1.48,2.83-2.16,3.09-.91.35-15.63-4.6-17.17-5.43-10.2-5.5-13.65-12.08-15.22-23.29l-1.97-11.41c-.49-8.69-1.01-11.12-9.63-13.47-11.77-.97-14.8-4.23-21.43-13.41l-15.11-22.62c-.73-.99-3.27-4.33-4.35-4.45-2.14-.22-9.73,10.77-10.72,13.05-5.91,12.08-11.71,23.27-22,32.15l-5.14,8.49c-1.58.75-3.34.19-5.3-1.68-3.29-1.46-12.84,5.75-15.15,7.89l-10.75,9.56c-4.97,3.08-9.48,6.62-13.51,10.62.66,8.04-3.23,8.43-7.6,2.64-2.29-7.79-9.31-12.98-15.81-17.37-1.47-.95-6.64-4.34-6.97-5.88-4.92-22.64-6.15-46.01-6.78-69.03l-.79-.86c-.11-16.23-.2-32.38-.27-48.44-1.83-4.62-3.06-9.48-3.69-14.58-.84-5.33-3.53-8.61-7.82-11.49-2.86-4.33-4.95-9.23-6.27-14.72-10.07-15.18-13.12-33.45-15.88-51.45-7.11-30.16-28.8-57.25-61.17-61.36-24.18-4.23-47.03-10.4-64.63-28.15-9.48-9.57-15.16-20.79-20.15-33.07-6.87-13.72-10.39-19.7-26.71-21.12-15.45-.4-30.95-.69-46.5-.85-18.66,1.95-37.89,4.91-55.93,8.5-8.69,5.19-15.39,13.81-20.87,22.37-10.91,20.62-24.89,38.52-41.06,55.46-6.74,7.61-12.84,15.9-16.84,25.07-6.33,6.24-8.15,12.9-9.32,21.68l-4.27,14.34c-2.78,15.14-5.73,30.29-12.69,43.99-2.34,9.32-5.7,17.38-11.3,25.21-2.94,8.95-6.56,16.51-12.12,24.03l-3.71,10.81c-10.68,20.52-18.41,46.64-14.49,69.91.73,2.87.46,5.18-.83,6.94.95,2.52,1.21,3.34-.19,5.83,0,10.84-.92,22.11-5.4,32.12-1.64.79-2.37,1.06-2.75-1.04l-3.35-17.97c-8.26-6.79-16.84-12.65-28.37-12.85-10.1-.47-20.21-1.49-30.08-3.01-5.61-.89-10.15-4.61-13.01-9.43-1.77-5.14-4.6-8.78-8.49-10.92-6.99-1.06-13.95-2.2-20.88-3.41.11-1.51-1.39-1.66-2.67-1.43-.35-3.31.06-6.66,1.25-10.05-.08-.64-.14-1.27-.11-1.9s.06-1.23.25-1.77c5.07-14.49,12.78-28.32,21.49-40.69,2.82-4.76,3.05-6.6,3.03-11.94-.04-14.06-7.21-23.61-22.29-21.9-3.31-.44-8.26-1.19-7.98-5.35,3.11-14.75,6.24-30.24,8.94-45.46.84-4.72-10.31-2.7-4.36-.62l.91,1.02c-2.03,14.14-4.95,28.11-8.75,41.89-2.57,12.12,7.59,12.02,16.43,11.44,14.07-.04,16.94,18.37,12.98,28.87-10.69,14.86-21.21,31.23-24.2,49.79l-1.26,1.54c.15,1.85-.2,3.41-1.06,4.7-5.66-.21-11.15-1.11-16.46-2.7-5.59-1.61-9.8,2.82-12.93,7.06-6.04,11.43-13.72,21.4-23.18,30.08-1.7.47-3.58.52-5.64.17-1.45.32-6.03,6.15-7.12,7.63-1.78,4.45-19.1,27.75-20.68,27.06-2.46-5.01-4.88-10.05-7.25-15.13l-1.28-.43-1.9-6.64c-1.85-6-2.21-11.21-.65-17.11-8.85-6.75-17.71-14.93-25.69-23.16-2.19-.6-4.23-.97-6.49-.69-1.66.2-9.94,3.08-10.9,3.91-7.64,12.73-14.27,26.11-19.87,40.14-2.04,4.93-8.44,15.58-13.63,17.59-5.67.19-9.45,2.67-13.23,6.93-10.53,14.32-24.19,21.32-40.75,27.38-6.06,4.17-12.42,7.39-19.1,9.67l-1.35-.9c-1.64.34-1.31-7.84-1.09-8.23.23-.41.66-.63,1.09-.77l-.99.46c-2.81-2.48-5.37-.79-7.67,5.09-3.67,8.41-7.27,16.78-10.81,25.12l-1.24.13c-.03.26-.06.47-.14.48-1.51.32-5.06.84-6.64,1.01-8.85.95-20.75,1.83-29.58,1.74l-.71-1.05C-.01,415.21.02,207.86,0,.55Z"/>
    <path class="st21" d="M1092.08,634.52l-.47,1.3c4.71-.44,9.38-.56,14.02-.34,4.69,7.21,9.03,11.21,17.48,14.26,10.16,9.79,26.72,5.81,38.92,1.99,10.28-4.61,20.83-7.92,31.67-9.94l1.97.91c3.33.19,6.52-.2,9.57-1.18,2.42.41,4.92.61,7.5.61,1.13-1.75,2.64-1.54,4.52.61,1.65-3.22,4.04-2.01,6.14.02l1.04-.91c5.32,1.65,10.65,2.1,16.36,1.95l.66,1.09,4.75,2.6c10.92.66,21.86,5.17,32.66,6.62,1.47.2,2.83-.49,3.67-.36.92.15,2.44,2.15,4.16,1.49.42,79.77.42,159.54,0,239.31H346.77c-1.95-2.21,1.61-5.32,3.65-6.93-.3-3.07.81-4.96,3.35-5.67-.33-1.25.39-2.39,2.15-3.43,1.28-3.18,3.19-5.32,5.71-6.43,9.42-8.43,23.12-14.66,35.71-15.42l.86-1.05c16.87-2.36,34.72-4.88,50.78-11.26,1.64-.03,2.84-.54,3.61-1.51,16.27-7.22,33.76-8.35,51.46-9.15,10.54-1.76,21.1-3.4,31.67-4.93,3.45.84,6.84-.48,9.79-1.74l1.05.77c13.4-2.8,26.6-5.85,39.6-9.15l2.42-1.72c3.42.18,5.85-.12,8.1-2.85,2.52-.77,4.56-2.04,6.13-3.82,1.98-.21,2.63-.6,4.16-1.71,1.2.48,2.34-.08,3.42-1.7,2.38-.53,4.18-1.13,6.02-2.97,2.89-.38,5.4-1.36,7.51-2.95.88-2.42,3.1-3.4,6.65-2.94.57-2.6,3.16-3.19,5.51-3.5.3-1.82,3.11-2.39,4.73-2.58,1.75-1.46,3.54-2.46,5.38-3,.7-1.38,1.7-2.35,2.99-2.91.18-1.46,1.28-2.34,3.3-2.65,2.16-3.97,5.59-7.01,9.62-9.02-.15-2.4.66-3.93,2.44-4.59,4.44-6.66,8.24-13.88,11.39-21.67l1.42-1.27c-.34-2.63.23-4.06,1.73-4.31.65-4,2.18-7.74,4.58-11.25,0-1.6.46-2.7,1.39-3.3l1.52-4.92c1.17-2.16,2.36-4.18,3.56-6.08l-.46-1.07c.89-1.65,1.74-3.31,2.53-4.98-.93-2.07-.39-3.55,1.99-3.06-.24-2.17.24-3.62,1.46-4.37l-1.35-1.46c.58-2.05.85-4.12.81-6.22-1.85-.54-1.86-1.86-.73-3.26-1.1-3.16-.26-4.96,1.99-7.01-2.24.42-2.13-4.68-.23-5.67-.36-.54-.16-1.07.15-1.72l-.1-.93c2.89-.84,3.57-1.63,3.92-5.07.1-1.47,1.26-1.59,3.49-.38.86-1.37,2.53-2.12,5-2.23-.64-.94-1.24-2.25.34-2.82,8.06-.18,16.08-1.18,24.03-3.01l13.49-.55c3.58-.18,6.97-1.24,10.05-2.91-.92-3.97,3.32-4.82,5.99-2.87,2.83-1.26,5.86-1.95,9.09-2.08.25-1.13.82-1.93,1.71-2.39l-2.82-2.03c-1.47-2.41,2.57-4.25,3.78-2.17l1.52.68c3.83,5.16,6.96,11.12,8.69,17.19,1.64,4.89,4.96,5.49,9.95,1.8l7.51-1.83c15.58-1.63,31.09-3.84,46.53-6.64,9.86-1.52,20.1-2.73,29.96-1.31,10.39,4.02,15.67.38,22.06-7.75l1.36.04c2.99,0,3.99,2.6.65,3.74,2.56.29,4.98.98,7.24,2.05,2.19-1.62,4.45-2.54,6.79-2.75-.27-2.66.62-5.36,3.15-2.68.66-1.1,1.81-1.59,3.43-1.45.7-.58,1.34-.41,1.92.5.39-1.09,1.02-1.62,1.9-1.59,1.94-.16,5.1,3,4.36,4.91-.64,1.18-2.75-1.09-1.46.02.61.52,1.25.98,1.46-.02.61-.69,1.46-1.29,2.56-1.79,1.6-4.36,7.86-3.36,7.19,1.2,1.98-.8,3.93-1.22,5.85-1.27-.47-1.5,0-2.2,1.35-2.89.35-.18,7.3-.75,7.67-.64,1.85.52,2.54,1.96,2.62,3.77,1.06-1.52,2.25-1.17,3.7-.41-3.28-3.97,5.48-5.6,5.42-1.36,2.36-.12,3.07,1.1,3.95,2.97l1.81-1.66c1.13-4.47,5.3-5.86,4.72-.17,1.77-.07,3.25.28,4.46,1.06,1.21-1.65,2.92-3.08,4.32-.84,2.92.34,6.16-.4,7.19-3.53,1.37-1.03,5.43.33,3.72,2.3l.77.85c1.58-1.7,3.56-.8,3.59,1.33l.86,1.05c2.67-.69,4-.9,4.32,2.32,3.29.86,3.1-4.33,1.36-5.56.55-1.85,4.77-2.54,6-1.09.3.7.67.68,1.09,0-.48-1.42-.03-1.53,1.09-.55,1.7.07,2.41,2.93,1.82,4.4l.37-.67c2.35.16,4.52-.06,6.52-.64-.89-1.77-.11-3.17,1.59-4.06-1.78.12-3.04-.28-3.76-1.21,0-1,.66-1.47,2.01-1.39-.56-1.31-.5-2.3.17-2.97-.54-.86-.07-1.56,1.41-2.13-.03-1.26.41-2.01,1.31-2.23.83-1.35,2.32-1.9,4.49-1.65,18.59,1.26,37.98-.14,56.93-2.03l2.38.42Z"/>
    <path class="st13" d="M225.73,586.01l1.36.29c1.02,3.49,1.1,7.13.25,10.92.63,4.02-.76,7.92-4.18,11.7,10.65-.21,21.28-.28,31.71,1.13,8.1-1.12,15.33-.38,23.22,1.08l1.06,1.05c1.24.51,2.49.5,3.76-.02,1.89,1.9,4.82,2.63,7.53,1.25l2.81,1c4.78-.91,9.71-.41,14.78,1.5,2.67-.85,6.72-1.89,8.73.63,2.42,1.05,5.02,1,7.78-.17,2.43.62,4.95,1.02,7.57,1.2.92,1.29,2.43,1.79,4.51,1.53,1.93-3.24,5.27-.88,7.34,1.06l3-1.32c3.47.81,6.9,1.82,10.27,3.01,2-1.25,3.18-1.04,3.54.61,2.94-1.28,4.81-.91,5.61,1.11,2.41-1.29,5.31-2.7,7.17.22,1.69-.51,3.31-.59,4.88-.22l.38.61c-.56,2.2-.21,3.09,1.05,2.67,2.76-3.58,5.41-2.21,8.04.62,1.43-2.26,3.72-1.88,6.88,1.13,2.31-1.7,4.5-1.79,6.08.84l7.37-.35c2.25,1.96,3.91,2.02,4.99.17,2.88.89,5.6,2.52,8.14,4.88,3.05-1.36,5.25-1.1,6.6.77,1.14-2.04,2.91-2.59,3.69-.07,2.86-1.29,7.89-.26,10.21,1.87,1.27-1.19,3.24-1.64,3.04.4.2-.63.38-.41.53.68-2.59-2.42,1.15-4.39,3.18-1.73,2.25,2.96-2.62,5.14-3.18,1.73.73,1.7,2.13,2.54,3.19.61l2.42-.93c3.03.74,6.04,1.53,9.03,2.37,1.94-2.1,3.53-1.24,4.48,1.24l2.61-.15c2.13-1.9,3.15.11,3.72,2.19l2.07-.47c2.5-2.97,5.91-2.7,8.18.37.23,3.06,2.45,3.74,6.64,2.01,1.33,1.32,2.77,1.56,4.31.72l1.65,1.23c2.17-3.79,4.88-4.51,5.09.8,4.84-.25,9.33.22,13.47,1.43l1.29-.51c3.17,2.02,6.68,3.66,10.53,4.9l.29,1.17c1.17-2.82,3.26-2.13,3.96.74.73.65,1.69.6,2.88-.15,2,1.52,4.21,1.7,6.64.53,2.81,1.94,5.48,3.05,8.99,3.24,2.19-2.4,4.02-.36,5.03,2.08,2.46-.74,4.07-.43,4.81.92,3.48-2.59,5.87-1.23,8.96,1.23,3.56.75,7.16,1.36,10.8,1.82l1.24.97c4.67.35,9.28.53,13.92.27.51-.03.84.31,1,.81.52.73,1.42.94,2.69.61,13.16,2.92,26.5,4.62,40.04,5.12l1.44,1.36c.48-.94,1.39-.94,2.73,0,1.56-1.48,2.48.4,1.24,2.07-2.16,6.14-4.39,12.36-6.7,18.64l.45,1.74c-2.84,7.39-6.17,14.53-9.98,21.42.34,1.55-.23,2.8-1.96,2.81-.15,1.67-.69,3.83-2.65,3.76-1.71-1.17-1.93.05-.43,1.36.24.91-3.53,9.94-5.51,9.74l-2.91.2c-2.72,3.24-5.82,5.37-9.31,6.39-1.04,2.02-2.83,3.58-5.39,4.68-.88,1.73-2.27,2.57-4.18,2.51-6.54,5.66-13.59,10.62-20.83,14.85.08,1.94-1.62,2.13-3.21,2.27-2.29,3.13-5.65,5.2-10.09,6.19.32,1.18-.01,1.88-.63,2.84-3.59,5.55-18.76,11.93-25.38,12.81-2.61,4.5-6.17,6.58-10.68,6.24-7.74,4.8-17.08,7.31-25.9,9.47-17.5,8.83-36.93,13.6-56.41,16.51l-2.43-.91c-2.32,1.08-13.15,3.42-14.55,1.56-1.14-1.51,1.73-4.16,3.18-2.69.57-.09.83-.26.55-.55-1.1-.45-2.21-.28-3.35.5-9.65,1.09-19.38,2.28-29.19,3.59-13.74-1.01-27.33-.78-40.77.7-8.14-1.3-16.1-2.15-24.59-2.05-17.15.19-34.51,1.95-51.32,3.76l-.72,1.28c-5.8-.17-11.09,1.03-15.85,3.61-1.36-.2-2.73.08-4.09.84-3.83-.06-6.59.38-10.05,1.95-1.36,3.22-6.34.83-8.7-.63-24.18-1.57-50.78,6.1-71.01,19.35-.35,2.92-2.45,3.75-4.75,2.16-.23,1.8-1.73,2.61-3.23,3.36l-17.74,7.14c-.22,2.02-1.32,3.91-3.28,5.67.43,2.56-1.08,4.11-4.54,4.65,1.88,3.64.07,5.77-3.27,7.32l-1.25,1.8c-3.66-.22-5.47,1.69-5.43,5.72l-.96,1.05c.26,2.38-1.43,3.9-5.06,4.56H0v-272.02l37.08-2.18c1.73-.61,1.98.93.51,1.96-6.6-1.03-14.72,7.98-2.27,5.13,4.19-.34,8.25,0,11.87,2.39l10.13,6.51c3.31,1.86,6.98,1.89,10.53.7,25.22-10.94,52.47-18.45,79.95-22.02,6.5-.84,13.68-1.64,19.93,0,7.29,2.64,15.21,4.87,22.94,6.56,10.93,2.39,29.54.98,29.37-13.56,5.09-5.27,5.19-10.94,4.62-17.9l1.06-.85c-.3-1.22-.3-2.31,0-3.27Z"/>
    <path class="st0" d="M245.9,832.4c4.57-2.26,7.62-1.36,7.76,4.05,4.58.38,7.57.15,11.76-1.89,9.06-1.6,18.19-2.51,27.36-3.35l2.35-.96c4.71.95,9.4,1.62,14.06,2.01,1.99-2.33,4.8-1.96,8.43,1.09,4.86-.87,6.97.03,6.33,2.7,5.51.87,11.01,1.94,16.49,3.21,2.59,2.08,5.4,3.68,8.45,4.82l.83,1.16c-.7,5.42,3.88,1.98,5.54-.31-1.04-5,5.43-5.5,4.85-.46,1.36.5,2.32.26,2.67-1.25,2.93-.33,5.97-.18,9.11.45.96-1.26,2.22-1.4,3.79-.42l2.7-1.95c4.27-.19,8.12-1.1,11.56-2.76,3.05.91,5.44.5,7.17-1.24,0,0,9.38-1.49,28.14-4.48,3.75-2.36,7.42-3.11,11.03-2.25,2.99-3.17,5.84-4.28,8.57-3.32l3.42-2.31c7.5-3.36,1.7,8.43-2.48,8.92l-8.59,3.44,10.09-3.52c1.76.54,3.53,1,5.33,1.37-1.49-3.8.67-6.64,6.48-8.52l.13-.46c-4.77.16-3.54-6.27,1.07-4.9,1.27-2.29,3.55-3.4,6.84-3.31,7.62-4.95,16.73-8.68,25.39-11.86,17.97-6.59,36.26-12.6,54.45-18.53,3.64-1.22,7.2-2.64,10.39-4.54.87.53,1.64,1.2,2.32,2.03,2.72-1.04,5.37-1.84,7.96-2.4-.94-1.47-.6-2.85,1.06-3.37.25-3.82,2.51-3.33,5.17-1.88.35-2.88,2.54-4.76,6.57-5.64l1.04-1.77c-5.35,2.73-10.86,4.9-16.54,6.52-3.65,3.73-7.09.24-3.31-3.32,6.79-2.75,13.32-6.38,19.59-10.88l1.91-.2c.83-2.18,2.42-1.65,3.62-.06,1.66-1.32,3.64-2.62,5.72-3.67,3.05-5.35,6.45-8.7,11.93-11.37.65-1.6,1.5-3.05,2.56-4.35,5.81-2.96,11.15-5.76,15.93-10.3-.64-3.27,2.24-5.28,5.02-3.36,2.03-1.7,4.17-3.07,6.43-4.1.07-2.56,1.42-4.6,4.05-6.11l1.02-3.83c2.91-2.45,2.31-3.93-.67-1.05-.56,6.82-8.64,9.24-5.87.82,2.23-6,4-12.12,5.33-18.38l1.72-1.67c.23-5.69,1.78-10.78,4.64-15.27,2.38-.48,4.34-1.73,5.86-3.74,1.58.31,3.18,0,4.78-.91l6.92.68c4.39-1.01,12.83-4.19,2.21-1.73-2.62-.45-2.25-2.16-.36-3.62,1.11-.86,17.55-3.15,12.46,2.53l.77.14c2.21-3.68,9.69-1.6,12.2.88.47.47,3.38,7.92,3.42,8.54.02.31-1.28,5.44-1.46,6.08-1.6,5.78-3.78,11.64-6.3,16.99.12,1.19.68,2.29,1.66,3.3.3,2.45-.43,5.19-1.9,7.42.73,3.88.71,8.31-4.11,8.88-3.27,6.21-5.88,12.98-8,19.79-2.93,6.99-6.89,15.68-11.29,21.78-2.03,2.81-3.09,3.7-6.45,5.01-3.46,4.54-11.63,11.15-17.48,11.83-8.53.99-7.72-4.94-.47-5.32,1.88-2.04,4.29-3.73,7.2-5.08l.57-2.99c4.22-8,7.36-16.37,9.39-25.09,2.1-1.07,3.99-14.33,2.89-14.36-.15,0-2.58,1.38-2.52,1.52,3.17,2.64-.07,6.99-2.19,9.45-4.46,3.97-7.43,6.7-10.03,12.25-2.78,10.54-7.25,15.72-16.37,20.7l-5.51,6.05c-1.41.83-2.09.39-2.81-.98-4.03,2.96-4.85,4.68-2.45,5.17,1.55,2.32-8.18,15.37-9.12,6.93-4.52-.1-3.41-4.24.54-3.29-.44-1.34-.52-2.65-.24-3.93-1.82,1.82-5.02,3.74-5.58.19-8.32.02-1.54-6.22,2.42-8.07,4.84-5.71,10.05-10.99,15.63-15.85,3.78-3.01,3.99-6,3.97-10.42,4.81-3.66-5.5-4.26-2.89-.28l-.35,1.25c-3.5,2.73-7.19,5.21-11.05,7.42-3.1,5.05-5.74,6.7-11.67,7.29-1.18,2.62-3.27,3.94-6.27,3.97l-10.38,7.89c3.16,1.6,6.45,4.44.35,4.75-5.16,3.24-5.63,4.67-1.41,4.31,4.09-5.94,10.3-1.68,3.87,3.17-3.34,1.7-5.92,4.07-7.73,7.11-3.41,1.07-6.97,1.58-10.7,1.51-9.22,2.81-18.02,6.74-26.4,11.78-8.13,1.19-2.27,2.64,1.59.38l7.45-.38c3.54-2.26,7.17-2.91,10.91-1.93,2.75-2.58,6.12-3.27,10.11-2.07,2.08-.76,11.41-3.01,10.84,1.09-.44,3.23-28.47,7.94-32.55,8.5-16.29,1.59-32.05,4.57-47.28,8.93-13.53,10.72-30.69,13.53-47.35,14.92-2.28,1-4.5,2.18-6.66,3.55l-7.92-.99c-4.62,2.56-9.91,3.81-15.88,3.75-5.27,3.93-10.9,6-17.36,3.61l-1.65.82c-1.93,3.28-7.55,4.7-10.89,2.83-2.47,2.54-5.84,4-10.1,4.37-14.46,6.73-29.84,14.74-39.19,27.84-.51,2.29-2.17,7.55-4.27,8.21-2.64-1.02-4.8-.75-6.5.81h-171.74c-5.44-2.77-3.48-5.32,1.57-6.77-1.83-4.42-8.06,1.56-10,4.08-2.74,2.01-4.15,2.22-7.38,2.69h-27.26c.56-1.71,3.53-1.82,4.13-3.27.27-.66-.85-1.17-.85-1.36,0-.33,1.38-.66,1.79-1.5.6-1.22.46-4,.91-4.47,2.11-2.24,4.6-1.3,4.83-1.44.11-.06.5-1.34,1.14-1.88.89-.76,3.19-1.84,3.61-2.42s-.69-.89-.69-1.37c0-.51,1.13-1,.93-1.35-.18-.32-3.91-.71.33-2.68.99-.46,2.64-.52,3.25-1.12.27-.27-.34-1.82.06-2.6.29-.57,2.79-3.4,3.28-4.07.19-.25-.35-1.31.28-1.95.66-.67,8.81-3.52,10.69-4.32,2.18-.93,7.92-2.9,9.55-4.51.54-.53.19-2.23,1.72-1.99,1.21.19,2.16,2.13,3.54-.76l-1.63-.54c2.48-.54,4.44-2.39,6.68-3.82,13.63-8.67,31.06-12.66,46.97-15.87,4.78-.96,15.21-1.16,20.26-.53.46.06,2.91,1.9,5.03,2.11,1.58.15,2.4-.43,3.39-.43Z"/>
    <path class="st37" d="M654.27,664.5c2.4.16,2.66.64,3.38,2.75,1.2,1,8.4-1.49,9.95-2.44,2.54.52,5.01.6,7.39.24,3.59-1.37,10.29.71,13.09,3.27,4.56,1.37,7.28,4.64,8.18,9.81,2.42,2.77-.75,2.55-.49,4s2.18.45-.6,2.54l2.18-.54c.88,2.37-1.73,3.37-2.06,4.09-.62,1.32-.12,3.57.43,4.9l-1.64,1.37h2.19c-.27,2.63.25,4.85-1.1,7.35,1.36,1.24,2.03-.73,1.49,2.05-.38,1.96-.36,1.41-2.03.96,1.25.86.85,3.68-.06,4.34-.34.25-1.39-.72-1.57-.53-1.09,1.12,1.5,1.87,1.08,2.17-1.23-.25-.69.55-1.1,1.3-.1.18-.79.21-.93.46-.62,1.09.71,2.67-1.77,3.43,2.03.41.26,2.68-1.1,3.27l1.09.81c-2.61,1.47-3.94,6.2-4.36,9.28l-1.08-.55c.79,3.01-1.64,4.77-2.56,6.99-.68,1.64-1.32,3.36-1.95,5.03-.25.67.04,1.83-.34,2.38-.44.63-1.55.2-1.7.33s.76,2.56-.09,3.98c-.41.68-1.2.78-1.52,1.36-2.77,5-5.37,12.53-7.95,17.02-.89,1.55-3.94,2.85-2.99,5.44-3.28-1.78-1.98,2.89-2.84,3.68-.68.63-3.47,1.99-4.27,2.68-.72.62-1.46,1.48-2.42,2.33-1.64,1.44-2.19,3.34-3.01,4.12s-2.1.54-2.61.94c-.76.6-.01,2-.1,2.05-.36.18-1.47-.15-2.24.27-.41.22-.08,1.08-.33,1.37-2.09,2.44-3.33.91-3.43,1.09-.13.24.21,1.18-.1,1.51-.28.31-1.57.29-2.27.66s.23,1.73-2.55.56l.54,1.63-2.43-.54c-.94.32-.32,1.49-.38,1.56-.43.45-3.73.32-5.08,1.73-.6.62-.68,1.97-.89,2.14-.24.19-3.56-.59-5.97.86-.51.31-.07,1.1-.26,1.4-.1.16-2.69,2.02-2.86,2.09-1.7.7-4.27.88-6.11,1.7l.55,1.07c-1.88-.56-2.6.84-3.13,1.06s-1.49-.05-2.31.32-1.49,1.91-2.72,2.22c-1.66.42-2.11-1.51-2.19,1.05l-3.28.27c-.27.97,1.27.24,1.09.81-.37,1.14-2.07.13-2.18.27-.17.22.16,1.47,0,1.65-.23.24-1.42-.59-1.87-.57-.33.02-.23.99-.65,1.08-4.13.92-1.98,1.14-4.43,2.61-2.68,1.61-5.52.76-6.12.95-.73.23-1.62,1.56-2.6,1.79-4.49,1.04-6.66,1.54-11.32,3.09-2.61.87-5.11.72-7.33,1.22-5.82,1.29-11.84,2.47-18.05,3.8-.99.21-2.79,1.21-3.55,1.25-.18,0-1.12-3.3-1.33.58-1.99-1.22-3.97.36-5.79.52-1.22.11-2.25-.44-3.14-.36-12.51,1.17-24.62,4.7-36.53,5.34-12.6.67-24.99.94-37.39,5.25-3.14,1.09-6.11,2.97-9.29,3.42,1.37,2.05-1.23,1.02-2.35,1.29-2.2.53-4.76,1.76-7.03,2.55-8.42,2.91-18.96,5-28.04,6.32-5.07.74-9.48,2.01-14.08,2.66-.88.13-1.89-.88-2.75.25-.14.18.35,1.05.28,1.09-.17.1-2.28-.49-3.1-.39-2.22.26-8.86,1.91-11.36,2.71-2.72.88-5.98,2.83-8.58,3.98-2.38,1.05-4.4,1.87-6.49,3.16-2.37,1.47-3.84,2.91-5.75,4.42-1.67,1.31-.6,1.86-.7,1.94-.21.17-1.76-.72-2.59.13-1.34,1.36-3.1,7.09-5.59,6.42,1.75,3.28-2.07,2.63-2.61,3.94-.34.82.35,1.28.38,1.82.01.29-.78.19-.86.34-.17.3.36.93.1,1.51-.34.79-2.06,2.15-3.01,2.22l1.09,1.36-2.18.28c-.34.89,2.93.24,1.63,1.63-.28.3-1.85-1.56-2.18,1.09h-15.27c.8-4.82,6.21-1.4,6.53-1.64.22-.16,2.1-4.18,2.46-4.91.53-1.08.43-2.53,1.13-3.77s7.98-8.75,9.37-9.87c6.61-5.3,22.18-14.82,30.11-17.72,1.92-.7,8-1.31,8.99-3.03.28-.49.24-1.53.3-1.59.53-.49,2.7.94,3.57,1.06,1.55.23,5.07-.79,6.35-1.63.72-.47.82-1.37,1.52-1.88,3.51-2.58,5,.36,7.38.22.37-.02,6.67-1.38,7.11-1.56,1.47-.58,1.9-1.81,3-2.45,3.8-2.23,8.81-.9,13.16-2.11,1.61-.45,4.18-2.36,4.59-2.43,1.58-.3,6.24,1.13,8.06.96,2.14-.2,2.98-2.5,4.65-3.03,6.75-2.13,12.95-.75,19.78-2.58,10.12-2.71,18.9-4.87,26.87-11.29,2.77-2.23,7.14-3.33,10.63-4.09,20.87-4.53,43.24-5.86,64.36-11.43.83-.22,6.28-2.23,6.52-2.48.77-.79-.05-.99-.81-1.08-1.26-.16-3.61-.13-4.89.03-1.08.14-1.94.92-3.28,1.08-2.23.26-4.26-.71-5.96-.56-2.08.19-3.57,2.41-4.52,2.63-1.07.25-3.87-.85-5.88-.45-1.11.22-3.16,1.99-5.14,2.39-2.07.42-5.58.02-7.83.44-2.78.52-2.92,2.61-6.53.29-3.19-2.05,3.73-2.4,5.44-3.02,3.39-1.24,6.89-4.3,10.13-5.68,2.96-1.27,11.38-4.86,14-5.63s9.88-.28,12.01-1.62c.58-.36,1.22-2.33,2.17-3.28,1.3-1.31,3.68-2.28,5.19-3.53,1.41-1.18,5.05-4.56,1.15-4.35-2.33.13-2.89,2.6-3.43,2.74-2.53.65-6.3-.4-3.72-3.3.17-.19,3.91-2.89,4.15-2.99.92-.41,2.24.56,2.68-.54s-1.77-1.04-2.53-1.56c-3.7-2.52-.99-2.2-.24-2.82,1.88-1.56,8.95-7.49,10.99-8.17,1.12-.37,2.02.38,2.69.05.99-.48.97-2.43,2.2-3.29,2.5-1.74,5.42.31,9-3.53.84-.9,1.07-2.09,1.92-2.98,2.91-3.08,7.19-3.81,10.32-7.15.49-.52,1.62-.74,1.68-1.15.11-.8-1.02-2.03-.37-2.94,1.36-1.92,6.91-1.42,6.9.84,0,.97-1.31,1.45-1.56,2.29-.47,1.55.2,3.52-.24,5.21-1.13,4.3-8.01,8.82-10.99,11.91s-5.23,6.69-8.5,9.49c-1.18,1.01-5.66,3.57-5.92,4.45-1.09,3.66,3.15,1.23,3.73,1.81v2.18c2.99-.44,3.74-2.68,5.99-3.82.34,1.72-1,4.14-.57,5.71.2.75,2.05-.37,1.66,1.1-1.34,2.62-4.63-1.38-4.9,1.91,4.1-.96,2.89,2.34,3.27,2.73,1.71,1.76,6.33-6.11,7.08-7.37.49-1.73-2.39.17-2.18-1.62.18-1.51,2.36-3.66,3.54-4.65,1.96-1.65,2.49-2.42,3.28.56,2.27-1.65,4.2-4.84,6.14-6.55,4.81-4.22,9.56-4.21,12.53-11.3,1.97-4.7,3.31-9.61,6.22-13.96,2.66-4,8.29-6.64,10.4-11.95,1.58-3.98-1.48-3.16-1.21-4.48.64-1.26,3.63-2.19,4.12-3.01.37-.62-.29-1.55-.16-2.3.56-3.33,3.97-6.05,5.58-9.13,2.02,1.55-.08,3.34-.55,4.89-.35,1.16-.31,2.55-.76,3.6-.65,1.52-2.96,2.08-3.11,3.19-.31,2.3.24,6.48-.27,9.25s-2.64,5.39-3.1,7.8c-1.81,9.49-5.23,15.33-9.13,24.12-.4.9-.2,2.18-.66,3.15-.51,1.08-4.7,2.72-6.14,3.68-.8.53-.93,1.61-1.22,1.81-.42.29-6.71.15-5.06,3.36,1.37-.46,3.62.17,4.76-.1.71-.17,8.19-3.51,9.09-4.04,3.31-1.96,5.21-5.49,7.71-7.55,1.5-1.23,3.65-1.27,4.6-2.48,3.38-4.3,9.57-16.15,11.83-21.43,2.55-5.97,3.15-10.56,6.31-16.56.84-1.59,1.74-4.59,2.84-5.95.74-.91,3.16.33,4.13-3.49.52-2.07-.45-3.01-.3-4.6s1.95-2.47,1.64-4.13c-2.16.47-1.34-.87-1.8-1.45-.52-.65-1.83-.46-1.47-2.09.61-2.76,2.4,3.48,3.81,1.9.72-.8-1.18-2.42-1.49-3.15-1.13-2.65.23-2.59.79-4.37,2-6.36,5.01-11.84,5.73-18.25.09-.8.8-1.66.83-2.4.04-1.07-1.3-2.85-1.77-3.99-.76-1.82-.03-3.16-2.48-4.61-1.82-1.08-6.47-2.38-8.35-1.28-1.43.84-.71,2.52-4.17.98-.74-1.01,3.32-2.73.27-3.27-.93-.17-9.83.66-10.49.97-.76.35-1.42.81-1.23,1.76.35.34,10.71-3.08,7.07.81-.82.88-7.08,2.92-8.44,3.04-2.42.22-5.01-.99-7.67-.62-1.03.14-.72,1.06-1.15,1.14-1.04.2-2.09-.47-2.67-.38-.65.1-1.26,2.07-2.1,2.59-1.1.68-2.36.32-3.35,1.01-.79.55-2.5,4.76-2.83,5.9-.69,2.39-.76,6.77-1.45,8.91-.41,1.27-1.58,1.29-1.93,2.03-1.04,2.24-1.2,6.46-1.91,8.86-.61,2.09-4.17,11.07-3.99,12.26.15.96,1.28.87,2.05.52,2.06-.92,1.69-4.1,2.7-5.48.63-.86,3.75-3.33,4.32-1.53.83,2.62-1.03,2.42-1.6,3.3-.66,1.03-.53,3.02-1.17,4.15-1.12,1.98-5.03,2.12-3.72,6.92-2.53-.99-4.91,2.95-7.37,3.8l.02,1.11c.67.29,1.67-1.41,1.9-1.1.93,1.33-1.15,1.84-1.57,2.49-.51.78-1.01,4.2-2.79,2.95-.3-.21,3.13-7.92-1.1-5.73-1.7.88-.42,2.47-1.02,3.31-.26.37-6.28,5.19-7.01,5.71-2.41,1.71-7.92,3.71-9.45,5.13-1.16,1.07-.89,2.45-1.82,3.64-1.26,1.61-4.57,2.6-6.05,3.76-2.86,2.22-4.14,5.43-5.94,7.69-.85,1.06-2.88,1.69-4.11,2.44-.98.6-1.5,2.19-2.92,1.82-.69-.18-1.53-1.58-1.74-1.57-.4.02-.59,1.3-.94,1.5-.59.34-1.72,0-2.57.43-3.94,1.99-7.7,5.02-11.21,7.33-2.7,1.78-3.67,1.57-6.3,2.42-1.83.59-4.24,3.47-1.34,4.12,1.76-2.74,4.52-2.07,7.2-3.17,5.07-2.08,7.99-4.15,13.29-5.79,1.35-.42,6.6-3.73,7.05-1.66.07.32-3.33,3.98-3.59,4.05-.75.19-2.05-1.4-3.16-1.04-.71.23-.87,1.83-1.75,2.65-1.65,1.53-4.84,1.14-6.25,3.59-.47.81.32,2.09-.82,2.44-1.5.47-2.37-1.06-3.23-1.08-1.67-.04-1.03,1.8-1.5,2.6-.34.58-2.11.42-1.23,1.79,1.89,2.95,6.35-.97,6.83-.56,1.1,2.36-.7,1.9-1.48,2.88-.5.62-.37,1.59-1.07,2.07-2.28,1.58-4.48-2.52-5.9-2.6-.45-.02-5.32,3.12-8.1,2.59-.75-.14-.68-2.44-1.16-2.22-.93.91-2.17,1.64-3.37,2.13-4.92,2-9.98,3.79-14.88,5.25-13.94,4.17-27.67,9.55-41.47,14.13-8.02,2.66-16.44,6.54-24.35,9.99-1.87.81-4.82,3.26-6.16,3.7-1.48.48-3.16-.29-5.13,1.37-.8.68-1.25,2.67-1.69,2.66-.12,0-.62-.82-1.19-.94-1.9-.41-2.57,1.98-1.29,2.9.92.66,3.41-1.65,2.11,2.06-.63,1.8-7.25,2.27-7.01,5.49.08,1.11,2.39,4.31-1.76,3.5-3.76-.73-2.11-2.43-7.34-.03-4.54,2.09-7.92,2.52-12.55,3.79-1.34.37-2.39,1.96-3.27,2.22-1.54.44-5.21-.52-6.9-.28-3.92.56-10.28,4.26-14.86,4.67-2.48.22-5.85-.65-7.43-.39-4.73.79-8.34,5.39-14.18,3.29l-12.67,4.77-2.46-1.35c-.45-1.99,7.95-5.09,9.68-5.57,11.24-3.09,21.34-4.1,32.55-6.16,8.09-1.49,16.41-3.21,24.36-4.62.93-.17,11.33-4.4,11.91-4.9l3.28-6.25c-2.56-.55-4.63,2.71-6.5,3.02-.98.16-1.53-.96-2.78-.63-1.08.29-4.51,3.76-5.68,3.93-.93.13-2.43-.8-3.64-.58-3.73.69-6.79,3.46-11.75,3.86s-9.8.7-14.83,1.64c-2.43.45-5.68.92-7.86,1.41-1.47.33-2.06,1.8-3.4,2.06-1.78.34-3.66-.67-4.77-.43-.69.15-1.37,1.14-2.43,1.41-2.69.68-6.86.71-9.03,1.33-.92.26-1.73,1.83-2.96,2.01-1.74.24-2.1-2.34-2.93.55l-9.45-1.07c.28,2.48-3.6,2.31-4.43,1.16-.17-.24,1.16-3.71-2.1-2.73-1.49.45.25,2.59-1.03,4.17-.61.75-4.68,2.89-5.58,2.89-2.04,0-.85-2.95-1.82-4.15-.66-.81-2.46-.8-3.52-1.39-1.53-.85-2.67-2.3-4.04-3.05-5.49-3.01-10.84-1.54-16.4-3.22-3.03-.91-.79-2.54-1.18-2.91-.8-.76-4.69,0-5.61-.11-1.68-.21-3.85-2.78-5.81-2.94-1.14-.09-1.42,1.3-2.23,1.68-2.65,1.25-11.49-2.13-14.41-1.9-.92.07-1.59.86-2.33.96-8.63,1.13-17.9,1.33-26.34,3.09-1.95.41-6.02,2.38-7.37,2.46-1.72.1-3.83-1.25-5.93-.04-1.44-.35-.34-4.18-1.94-5.13-.98-.58-4.08-.27-5.46-.27,1.5-.35,2.02-2.09,3.23-2.49,2.18-.73,5.48-.07,7.42-.72.94-.31.87-1.16,1.12-1.16.59,0,1.32.64,2.06.59.23-.02,1.85-1.72,4.02-2.1s1.39-.25,3.06-.75c2.83-.84,8.12-.26,8.46-.52.2-.16.16-1.22.95-1.49.57-.19,4.32-.52,5.42-.64,19.87-2.02,40.51-4.3,60.49-2.7,3.39.27,7.55,1.54,10.91,1.52,4.07-.03,9.3-1.34,13.63-1.41,10.99-.19,22.29,1.57,33.16.25,4.78-.58,10.24-2.01,14.81-2.54,2.48-.29,5.6-.28,7.61-.56,1.28-.18,3.08-2.66,3.57.57.76.74.42,1.07-.55.55-.63.45-2.29,1.06-2.73,2.18,1.52-.09,3.12.16,4.64.01,3.2-.32,6.76-1.23,9.27-2.1.6-.21,2.05.98,2.61.88,17.1-2.91,31.97-5.73,48.21-12.84,4.78-2.09,7.13-3.94,11.76-4.59,3.85-.55,14.15-4.58,18.31-6.24,1.27-.51,3.08-2.08,3.73-2.26,1.35-.37,2.79.15,4.14-.23,3.5-.98,4.53-5.23,6.52-6.02,1.41-.56,2.66-.19,3.82-.54,3.78-1.16,12.5-5.36,15.96-7.49,1.06-.65,5.08-4.07,5.47-4.95.48-1.07-.37-2.06-.31-2.15.17-.25,4.48-1.89,5.52-2.4.52-.26,1.2.1,1.86-.29.28-.17,2.62-2.56,2.69-2.74.22-.59-.42-1.46-.25-1.66.11-.13.77.42,1.28.36.29-.03,2.42-.31,2.48-.42.17-.29-.18-.99.41-1.61,1.9-1.98,5.53-3.08,7.77-4.65,5.15-3.61,9.9-8.02,15.05-11.67l.54,1.63c.91-3.62,4.39-3.7,6.26-5.75.54-.6.46-1.62.65-1.78.29-.25,1.72,0,2.62-.38,1.87-.79,6.19-5.56,7.09-5.99,1.21-.57,2.83.08,3.85-.53,1.33-.8,3.03-6.82,4.34-8.2l-1.62-.26c.54-5.34,3.03-2.02,3.26-2.18.09-.07,1-1.9,1.01-2.01.11-.73-.86-1.19-.94-1.61-.42-2.14,1.54-.47,1.83-.42,2.02.35.91-1.27,1.17-1.95,1.26-3.33,4.41-8.16,6.06-11.85,1.43-3.17,2.92-7.36,4.51-11.05,3.55-8.95,6.5-17.76,8.85-26.44,1.32.24,2.55.15,3.69-.27-.81-1.16.39-2.86,1.64-3.27-1.09-.13-1.05-.67,0-1.09-1.77-3.2,6.34-2.15,6,.55Z"/>
    <path class="st26" d="M0,.55v-.55h1287.27v894.55h-.55c0-79.76-.01-159.55,0-239.31V.54S0,.55,0,.55Z"/>
    <path class="st5" d="M143.95,894.55c-.32-2.21,1.27-.23,2.06-.65.74-.4,2.62-1.37,3.35-1.84,1.95-1.25,4.46-4.83,5.65-5.51s3.91-.54,5.02-2.34c6.01,6.15-1.26,4.1-2.43,6.84-.88,2.06,2.85.77,2.15,3.51h-15.81Z"/>
    <path class="st9" d="M425.82,510.23c.44-7.77-2.14-14.81-1.63-22.07.89-12.56,5.25-28.97,9.09-41.06,1.65-5.19,4.38-8.42,6.29-12.8,3.64-8.36,1.97-10.4,8.35-18.36,4.51-5.62,4.96-11.16,7.78-17.3,1.78-3.86,4.69-7.08,6.57-10.88,2.88-5.81,3.44-12.31,6.41-18.12,4.31-8.42,4.16-10.12,6.48-19.15,1.48-5.74,2.96-9.16,3.61-15.02.86-7.79,3.19-12.85,5.26-20.27,1.01-3.63,1.44-8.77,2.73-12.54,1.64-4.81,4.66-6.43,7.1-10.34,1.29-2.07,2.01-4.7,3.16-6.65,10.4-17.52,28.09-32.25,39.93-49.48,10.83-15.75,15.64-30.6,31.16-43.53,5.58-4.66,5.86-3.5,12.22-4.68,15.4-2.87,30.87-5.26,46.47-6.96,10.6-1.15,21.09.21,31.53.45,9.66.22,20.87-1.03,29.86,2.9,11.45,5,16.83,24.22,22.47,34.77,3.14,5.88,8.82,13.15,13.64,17.98,7.16,7.17,19.59,14.79,29.07,18.36,17.93,6.75,38,7.44,55.68,15.2,19.68,8.64,37.82,37,40.81,57.87,1.66,11.62,4.3,24.2,8.07,35,1.93,5.54,4.86,8.61,7.18,13.54,1.79,3.81,2.87,9.97,4.84,13.15,1.39,2.25,4.33,3.63,5.97,5.48,3.56,4.03,4.21,12.54,5.29,17.61.37,1.74,1.65,3.72,1.92,5.16.71,3.76.44,16.71.16,21.13-.34,5.41-.52,5.95-.1,11.5.37,4.93-.31,10.8,0,15.23.07,1.04,1.16.57,1.21,1.59.68,11.96.06,23.72,1.51,35.49,1.32,10.71,3.37,21.34,4.73,31.91.53,4.13,3.5,5.26,6.23,7.58l-1.45.49c-3.72-3.08-7.64-5.25-11.76-6.5-15.02,2.73-30.01,5.98-44.99,9.76,0,0-6.7.51-20.09,1.52-3.97,4.79-7.66,9.81-11.06,15.05-8.25,14.08-16.95,27.84-25.85,41.52-3.57,5.49-6.83,8.78-12.2,12.1-2.04,1.88-2.69,3.12-2.34,6.01,1.03,8.5,4.17,16.43,7.58,24.23l-.51,1.56c-7.41.99-.12,1.78.53,4.65.34,1.46-1.37.52-1.62.81-.98,1.11,1.1,1.78,1.11,1.91.02,2.46-2,.23-3.01.29-.42.02-3.55.61-4.66.77-2.47.35-3.78.65-4.61,3.03-1.78.24.88-2.06-1.16-2.68-.44-.13-3.34.39-3.47.51-.12.11.88,2.06-.14,3.12-.15.16-3.37,1.61-3.91,1.8-6.16,2.21-12.99,1.13-19.24,1.77-5.45.56-11,2.13-16.44,2.78-3.05.36-6.25.31-9.33.33l2.43,1.69c1.03-.05,3.63-2.3,3.48.1s-2.26.56-4.24.66c-.8.04-1.23.63-1.96.78-.93.19-1.94-.14-2.68,0-.55.1-.09,1.16-.43,1.54-.29.33-1.82-.09-1.52,1.22-1.24-1.1-1.14-2.13-3.26-1.63l-1.32.47c-3.58-1.39-7.14-2.81-10.67-4.28-4.43-1.15-8.51-2.67-13.09-3.27-2.33.4-4.77.32-7.32-.24-1.75.98-8.49,3.36-10.1,2.51-.66-2.45-1.01-2.56-3.3-2.81-.38-.45-4.14-1.57-4.56-1.55-.72.04-1.29.98-1.43,1-.02.83-.84.77-1.09,0-2.72-.42-5.68-.47-8.48-.29-.13,0-.25.32-.36.71-1.66-.71-2.9-.74-4.79.12.75.74.41,1.06-.55.55-2.08.47-3.54.28-4.36-.55-1.73.97-2.64.97-2.73,0l-2.67,1.05c-8.13.26-16.22.65-24.28,1.17l-1.4-.59-10.63.63c-3.13-1.3-6.61-1.72-10.45-1.27-1.32-.49-1.97-.9-2.62-2.12-1.83,1.19-3.53,1.47-5.1.85-2.34-3.13-8.14-5.37-11.22-2.48-1.78-2.49-4.9-3.88-8.19-3.24-.82-1.26-2.63-1.67-5.45-1.21-3.13-1.63-6.31-2.63-9.54-3.02-2.09,2.31-3.13,1-4.42-1.11l-2.45-.5c-1.12,1.83-2.74,1.12-4.33-.09-3.06.07-5.3-.8-6.71-2.61-3.89-.35-5.2-7.27.17-4.46l-2.38-4.09c-6.44-3.73-3.02-8.98,2.2-2.96.08,2.16.87,3.34,2.4,3.54,2.9-2.67,5.47-.73,7.72,5.83,1.75,1.09,3.46,1.71,1.18-.71l.24-1.6c-5.06-2.31,3.04-5.53,4.2-.88.09,4.55,2.73,5.43,6.73,5.59-.46-3.12,2.09-2.43,3.94-1.3,2.04-1.58,3.04-.53,2.36,1.87,1.19,2.31,11.31,3.54,5.29.9-3.12-2.34-.79-6.66,2.24-3.61,1.96.47,3.95-4.62,1.85-2.59-1.46-.19-2.87-.9-4.23-2.11-1.52,1.05-3.4.67-5.64-1.16-1.6.98-2.94.92-4.03-.17-1,2.32-3.96,2.83-4.67.14.33-2.06-.61-2.47-2.23-1.25-3.4-1.73-7.03-3.29-10.88-4.7-1.85,1.57-5.36-.86-3.86-2.82-.73-.76-1.78-.89-3.15-.38l-2.51-1c.4-12.75-2.85-25.99-6.03-38.5-6.37-19.21-12.36-37.91-10.56-58.3-1.45-15.03-4.01-29.93-7.68-44.67l-3.15-18.46c-6.79-30.89-20.44-37.16-28.18-4.98.43,11.89-3.64,19.17-9.7,29.3-3.84,6.41-7.81,12.61-12,18.79-1.09,1.61-7.89,11.37-10.53,10-.61-.32-.6-11.26,1.42-11.77-.94-.56-1.33-1.64-1.17-3.23Z"/>
    <path class="st14" d="M1255.1,582.74c.35,7.4.42,14.86.23,22.38l.78,2.5c7.37,9.18,3.59,21.96.22,32.12-.4,5.59-12.02,5.17-16.03,3.57-2.46.89-3.87-.05-5.68-1.67-7.06-.92-14.49-.7-21.36-.19-5.9.29-11.76.71-17.58,1.26-13.16,1.04-21.39,6.01-33.28,10.06-10.45,3.56-25.23,6.5-35.61,1.31-1.38-.69-2.91-2.64-4.23-3.4-3.47-2.01-8.7-3.66-11.66-6.33-1.67-1.51-4.77-7.73-6.11-8.11l-30.14,1.57c-.59-.88-.03-.99.8-1.09,5.35-.65,11.57-.12,16.64-2.18v-.73c3.09-.74,6.32-1.41,9.67-2-.97-6.94-4.68-11.66-9.43-16.71-3.39-5.83-.68-14.34,1.49-20.27.82-2.65.48-5.34-1.43-7.45l.25-1.35c-4.21-3.37-7.06-9.67-5.28-14.71,1.21-.54,3.08-1.67,1.76-2.66l.79-.08c3.15-10.47,9.75-36.32,19.97-41.9,10.97-5.99,19.31-16.3,28.55-24.88,2.77-2.57,9.75-7.27,11.39-10.42,1.12-2.15,1.17-5.79,1.95-7.86,3.68-9.82,11.04-27.36,11.73-37.34.07-.98-.64-1.71-.31-2.98.46-1.78,12.09-14.38,13.7-14.7.82-.16,2.44-.15,3.29-.04.74.1,10.37,3.7,11.1,4.16,3.25,2.05,6.47,7.2,9.3,9.78,3.56,3.26,9.17,6.11,13.63,7.63,3.11,1.06,5.75-.24,7.76,3.69,2.2,4.28.32,13.68,1.8,19.46,5.08,19.83,19.01,30.93,20.47,54.76.77,12.61-1.2,17.49,3.69,30.11,3.31,8.53,6.49,15.01,7.19,24.7Z"/>
    <path class="st2" d="M212.64,541.85c2.28,4.76,4.54,9.53,6.78,14.31,1.25.03,1.94,1.43,2.29,2.63.84,2.91,1.71,6.25,2.38,8.95.59,3.68.79,9.79.49,13.81,0,.13-.22.25-.49.36.3-.01.53,0,.54.05.53,2.4.88,4.86,1.1,7.31.11,4.18.74,10.54-1.19,14.35-.88,1.73-4.09,4.31-3.64,5.97.15.57,1.19,1.19,1,1.48-.03.05-.78-.17-1.06.41-.57,1.15-.5,2.51-1.41,3.94-6.32,9.84-23.08,9.11-32.96,6.29-3.85-1.1-7.69-2.09-11.58-3.14-6.35-1.71-7.66-3.64-15.43-3.37-25.27.88-59.78,10.12-83.25,19.46-4.58,1.82-8.22,4.4-13.77,4.26-5.84-.14-12-6.25-16.89-8.78-3.66-1.89-5.78-1.76-9.85-1.65-2.16.06-8.12,2.17-7.89-1.84.22-3.69,6.73-6.13,9.82-5.23.2-.12-.57-.97-.55-1.09.12-.53,1.89-3.49,2.28-4.53,2.93-7.78,6.64-18.44,11.22-25.31,1.44-2.16,2.71-3.64,5.45-2.45.4.18,1.77,1.28,1.77,1.49v8.99c7.37-.85,13.43-6.54,19.97-9.74,9.13-4.47,20.57-7.49,28.32-14.21,5.33-4.63,14.46-17.43,20.51-19.28,2.06-.63,4.91-.38,6.74-1.43.71-.41,7.15-8.03,7.8-9.1,4.31-7.06,6.91-16.21,10.58-23.77,2.66-5.49,6.19-11.03,9.23-16.39,1.44-2.53,2.34-7.28,5.49-8.68.9-.4,2-.25,2.7-.57,5.33-2.46,8.39-3.77,14.58-1.72,7.15,7.45,14.91,14.23,22.65,20.96,1.93,1.67,3.88.9,3.58,4.63-.11,1.33-.95,2.19-1.1,3.3-.62,4.77,2.24,14.42,3.79,19.32Z"/>
    <path class="st10" d="M425.82,510.23c-.2,2.11,2.18,2.3,2.22,2.48.2.96-.2,2.44-.04,3.51l-.54-1.64c-1.04-.15-1.47.42-1.63,1.37-.21,1.2-.57,7.83,0,8.44,2.45-.67,4.15-3.08,5.67-4.95,7.63-9.35,15.44-23.05,21.43-33.63,4.96-8.78,2.15-15.35,4.91-23.98.96-2.99,4.94-11.55,6.79-13.92,2.96-3.8,7.85-4.52,11.36-1.04,9.95,9.87,11.46,27.79,13.69,40.66,2.63,15.14,7.23,30.28,8.13,45.84.47,8-.6,15.78.67,23.86,1.84,11.62,5.91,22.65,9.27,33.79,3.41,11.32,6.07,25.53,6.96,37.25.12,1.55-1.38,3.99.8,4.11,1.22.07,2.03-1.47,3.21-.62.7.5.15,1.39.32,1.67-.44,1.97-2.37,2.11-5.78.44-3.02,1.98-4,2.16-7.68,2.12-3.56-.74-6.93-.7-10.1.12l-5.76-1.1c-1.47,1.75-3.14,2.14-5.02,1.15l-1.74,1.01c-8.7-1.42-17.39-2.46-26-3.16-3.01-.78-8.33-2.86-8.79-6.03l-4.17-1.36c-.94-6.47-9.27-11.45-12.58-3.68-.67.84-2.07.16-2.87-.4l-1.2.65c-5.27-2.46-10.46-1.37-13.44,3.83-8.82,6.65-7.07-4.29-5.62-9.6.51-1.7-.27-2.57-2.33-2.61-6.91-4.08-12.25-7.21-20.33-6.89-3.36.41-6.49.77-9.95.43-1.4,1.31-3.53,1.81-6.38,1.49-1.68.52-3,.38-3.98-.4-3.16.89-5.79.71-7.91-.55-.05.42-.17,1.05-.47,1.09-1.72.21-6.57.21-8.31,0l-.76-1.09c4.6,2.88-2.12,3.48-4.94,3.14l-4.11,1.06c-1.76.2-1.25-1.58-.38-2.74l-6.19.19-.33-1.05c-.34.95-.76.95-.95-.05l-.67.68c-8.02-.59-16-.54-23.95.14l-1.55-.82-11.59,1.33-1.66,1.15c-1.07,2.61-5.03,2.81-7.34,1.13-2.9-.13-1.87-1.2-.12-2.52-.28-.19-.1-.37.55-.55l1.53-1.42c17.11-5.74,33.6-5.88,51.39-3.77,9.66.84,18.55-1.28,27.48-4.48,9.17-1.18,18.46-.86,27.88.99,5.63-.37,10.57-.06,15.79,2.02.88-10.24,2.68-20.32,5.38-30.23,1.08-5.05,1.1-10.16.87-15.31-.12-2.77-3.73-26.05-4.64-27.08-1.16-1.31-8.74-6.26-10.68-7.31-4.27-2.3-8.52-3.32-13.42-3.48-9.04.67-17.71-.12-26.02-2.38-13.36.31-22.52-9.61-25.39-21.47l-1.35-.95c-7.06-1.22-14.06-2.36-21-3.41-.78-.14-1.12-.84-1-2.11-.85.06-1.51-.2-2.07-.87-1.22-1.47-.08-10.34,2.52-10.65-.24,3.31-1.53,6.43-1.08,9.81,1.13-.09,2.6-3.24,2.99-3.26,1.77-.11-.26,3.35-.24,3.54.14,1.5,6.6,1.23,7.84,1.4,1.17.16,2.19.82,3.36,1.01,4.05.63,7.81.03,11.88,2.29,3.72,2.07,5.48,9.01,8.53,12.73,6.36,7.74,11.48,6.43,20.4,7.95,13.29,2.25,26.82-.22,39.19,7.15,1.79,1.06,3.19,2.81,4.75,3.97,1.72,1.29,4.31,1.58,5.66,4.15,1.37,6.47,2.74,13.06,3.59,19.58,1.08-1.16,1.89-3.99,2.34-5.56,3.26-11.27,4.09-21.11,4.74-32.6Z"/>
    <path class="st15" d="M206.65,158.09c.66,6.72-3.11,12.55-5.09,18.62-2.05,6.28-3.64,12.74-6.1,18.97-.78,1.99-2.8,7.8-3.5,9.04-3.81,6.67-21.98,17.13-29.26,20.35-2.28,1.01-11.87,3.79-12.63,5.08s.97,4.56,1,6.18c.07,3.57.02,7.27,0,10.86-.02,6.92.95,15.66-4.13,21-1.28.27-1.8-2.1-1.9-2.98-.92-7.95.12-16.61.06-24.54-.04-5.1-2.87-14.88,3.39-17.33,1.16-.45,1.96.24,3.1-.08,8.14-2.25,29.7-13.41,34.37-20.2,5.3-7.71,7.15-16.68,10.18-25.26,2.37-6.7,6.81-13.77,6.64-21.11-.15-6.77-8.93,1.85-10.64,2.93-7.77,4.9-21.01,5.3-29.23,1.06-5.25-2.71-13.36-12.78-17.21-17.68-.62-.78-.79-2.14-1.47-2.89-.37-.4-5.61-3.83-5.97-3.83-.52,0-2.63,1.24-3.26,1.63-4.89,3.06-9.63,8.94-13.97,12.72-8.82,7.69-18.81,14.15-28.78,20.31-1.9,1.18-11.59,8.35-13.44,5.68-.73-1.05-.89-6.04.26-6.87,1.23-.89,3.19.59,4.54.23.62-.16,9.73-5.63,11.03-6.47,11.72-7.55,19.29-14.56,29.36-23.79,1.92-1.76,9.77-8.04,11.77-8.67,2.75-.87,8.03,1.21,10.13,3.02,2.87,2.47,5.6,7.38,8.16,10.37,9.85,11.5,17.38,17.19,33.45,12.17,1.88-.59,5.91-4.83,8.08-6.09,7.87-4.59,8.46.81,14.66,2.61,15.49,4.5,38.21-.98,55.04.03,2.3.14,8.06.65,9.95,1.5,1.77.8,3.98,4.33,4.78,6.12,3.96,8.79,4.16,19,10.08,26.99.86,1.16,6.97,5.95,2.45,6.82-3.56.68-6.62-3.1-8.45-5.73-5.05-7.25-5.01-16.55-8.33-24.38-.77-1.82-1.7-4.3-3.53-5.19-3.35-1.62-4.97-.62-8.01-.66-17.37-.25-33.36,1.7-50.73.51-2.12-.15-4.68-.75-6.82-1.08Z"/>
    <path class="st15" d="M646.63,107.39c-1.07-1.04-5.63,5.86-6.26,6.55-5.29,5.79-12.53,13.32-18.86,17.67-3.52,2.42-11.92,4.3-11.44-2.13.19-2.6,3.5-4.48.6-7.65-.74-.81-5.83-2.98-7.07-3.29-4.01-.99-11.62-.75-15.24,1.19-6.86,3.68-7.89,12.15-15.37,16.25-3.25,1.78-6.63,2.19-3.22-2.13,5.58-7.06,7.78-14.15,16.32-18.57,5.01-2.6,5.13-1.84,10.11-1.88,1.39-.01,2.46-.61,4.28-.5,4.11.26,8.92,2.24,12.06,4.87,4.17,3.48,3.82,4.9,3.56,10.35.78.1,1.42,0,2.15-.3,1.32-.53,7.51-5.93,9.03-7.31,6.65-6.02,12.53-12.98,18.83-19.35,1.54-3.4.28-6.91.49-10.41.35-5.85,1.11-11.54,1.13-17.4,0-2.72.34-6.76-.06-9.26-.18-1.15-4.13-8.6-4.96-9.76-1.68-2.36-6.11-1.4-8.91-1.45-12.65-.21-25.42,2.41-38.23,3.76-9.1.96-34.08,3.84-41.52.2-1.37-.67-1.31-2.65-3.12-2.35-2.81,5.02-7.68,9.73-10.32,14.8-3.06,5.87-5.44,13.25-8.36,19.45-.59,1.24-.33,4.36-2.91,2.61-1.57-1.07.6-3.8.97-5.08,1.89-6.51,3.4-12.38,6.58-18.49,1.99-3.82,10.97-17.78,14.01-19.79,5.82-3.86,2.75,3.86,8.87,4.76,14.82,2.19,33.54-2.07,48.44-3.61,8.94-.92,24.19-3.34,32.61-2.19,7.27.99,12.36,12.19,12.88,18.74.71,8.97-.63,18.44-1.1,27.28-.17,3.16-.84,8.65-.55,11.44.27,2.59,3.03,8.59,5.45,9.81,10.28,5.24,31.26,4.51,43.23,6.93,6.36,1.28,8.52,9.42-.82,6.82-12.76-3.56-25.48-2.36-36.97-5.56-1.15-.32-10.76-4.19-11.18-4.63-1.94-1.98-4-7.75-5.16-10.38Z"/>
    <path class="st2" d="M1266.55,37.06c-.72-.03-1.13.4-1.55.9-13.26,15.59-25.15,21.97-41.25,33.46-1.43,1.02-2.66,3.1-4.11,4.06-2.79,1.84-7.89,2.88-8.62,6.98,2.04,3.68,4.04,7.42,5.64,11.31,3.14,7.63,3.95,13.24,9.55,19.89,4.73,5.63,9.24,2.43,13.6,4.94,3.88,2.23.42,6.64-.24,8.97-2.02,7.06-3.96,16.55-5.12,23.77-.5,3.1.12,10.1-2.46,12.25-2.72,2.26-4.21-4.28-4.15-6.29.04-1.49.92-2.98,1.05-4.44.42-4.66.39-9.35,1.3-13.97.42-2.13,4.92-15.01,4.22-15.68-5.28-.31-9.99-1.11-12.82-5.99-10.25,7.88-21.3,14.48-32.48,20.94-1.15,1.16.05,2.59.04,3.86-.04,6.17-6.6,20.42-9.89,26.08-3.57,6.15-11.05,13.38-11.8,20.95-.67,6.7,11.22,11.79,12.38,20.06.92,6.61-1.73,12.32-9.22,11.12-.55-.48,2.78-3.91,3.12-4.78,1.71-4.4.68-7.3-2.04-10.74-4.22-5.32-11.53-9.12-10.31-17.43s11.22-21.01,15.56-29.13c1.64-3.07,6.24-10.33,6.23-13.42-.01-2.9-3.37-3.09-1.9-7.33,1.11-3.21,3.44-2.74,5.35-3.91,5.65-3.45,11.04-7.29,17.17-10.09,1.56-1.51,13.94-8.48,14.2-9.28.15-.47.11-.95-.05-1.41-2.61-4.47-4.65-9.3-6.71-14.04-.54-1.23-.6-3.08-1.27-4.73-1.35-3.31-5.77-9.23-6.51-12.04-1.23-4.65,3.55-5.65,6.39-7.52,18.01-11.88,36.02-24.37,53.26-37.78,1.15-.77,2.9-1.11,3.47.46Z"/>
    <path class="st36" d="M1089.9,568.56c-.75,2.49-1.77,3.2-2.07,4.2-1.52,5.04,1.67,9.73,4.8,13.25-5.11-.04-6.71-6.66-7.33-10.88-5.18-1.55-10.37-3.14-15.56-4.75-8.46-4.97-16.3-9.96-17.23-20.62-1.31-8.49-2.79-16.9-4.43-25.23-3.5-2.73-7.95-4.09-13.32-4.1-6.53-1.3-10.88-6.87-14.69-11.97-5.47-8.76-11.29-17.33-17.48-25.7-1.62-1.11-13.9,21.27-14.61,23.73-4.5,7.26-9.77,13.98-15.81,20.17l-5.25,8.67c-3.45,3.24-6.38.29-8.42-2.68-4.65,1.56-8.59,4.77-12.38,7.94-6.68,6.77-13.96,12.64-21.84,17.61-.69,3.06-1.58,6.04-2.69,8.94l-1.25-.21c-1.93.34-6.24-2.57-7.71-4.13-3.54-7.62-8.28-13.25-15.42-18.17l-.31-1.68c5.14,2.38,11.2,7.81,14.41,12.57,1.2,1.79,1.26,4.16,2.24,5.39.13.16,2.8,2.41,2.98,2.49,3.36,1.59,2.46-4.49,2.73-6,.44-2.43,11.27-9.11,13.88-11.2,5.06-4.07,10.53-9.92,15.83-13.61,1.2-.84,7.64-4.24,8.77-4.36,3.11-.32,3.95,2.02,6.21,2.72,1.78-2.44,3.28-6.1,4.99-8.37,2.84-3.75,7.56-7.13,10.52-11.29,7.09-9.94,10.65-22.41,18.84-31.31,4.27-4.63,4.81-4.75,8.95.32,5.38,6.59,19.53,31.97,25.68,34.29,5.38,2.02,16.42,1.76,19.59,7.12,1.93,3.25,1.38,6.83,1.99,10.01,1.25,6.58,3.04,22.15,7.36,26.44,3.76,3.73,8.02,7.27,13.16,8.65,4.09,1.1,4.31,1.13,8.21,2.69,2.32.94,5.92,2.27,6.66-.93Z"/>
    <path class="st7" d="M311.87,478.07c-1.08,3.19-2.03,5.4-1.9,9.01.08,2.05,1.27,1.28,2.99,1.35l-.55,3.27c-.59,1.17-2.96,2.89-4.55,2.17-.95-.43-4.18-5.91-2.35-6.85,1.22-.25,1.7-1.59,1.45-4.04,1.19-14.12,10.35-30.89,18.01-42.77,2.15-3.34,5.9-6.78,7.2-10.79,1.21-3.73.79-12.75-.65-16.5-.46-1.2-2.02-3.78-2.84-4.79-5.02-6.2-10.31-3.63-17.1-4.16-3.08-.24-8.39-1.62-9.27-4.91-.26-.99-.76-4.67-.69-5.62.42-5.15,3.51-14.28,4.64-19.9,1.21-6.01,2.61-12.07,3.84-17.97.16-.77.83-5.87.63-6.1-.15-.17-1.83,0-2.43-1.12-2.12-3.99,7.86-5.33,7.98.79-2.36,11.93-4.44,23.96-6.72,35.86-.74,3.84-2.9,7.4-1.98,11.51,7.06,4.85,15.06-.24,22.3,5.51,1.76,1.4,6.29,8.53,6.82,10.63.92,3.66,1.51,13.69.11,17.04-2.21,5.29-4.99,8.03-7.72,12.45-7.1,11.49-12.88,23.2-17.21,35.94Z"/>
    <path class="st3" d="M984.13,234.95c-3.89-1.05-8.44,1.5-11.77,1.59-10.01.28-20.3-.51-30.41.22l-15.06,3.65c.77.6.73,4.06-.54,2.72-.15-.16-.78-3.94-.47-4.29.23-.26,5.66-2.29,6.46-2.53,13.84-4.1,26.42-.86,39.46-2.48,4.46-.55,14.01-4.77,15.92,1.64s-.1,22.93,4.35,27.27c1.86,1.81,6.22.81,8.66,1.15,4,.56,8.91,1.5,11.79,4.57,2.04,2.17,3.84,10,4.28,13.17.47,3.46-.46,9.31,2.02,12.15,2,2.3,14.09,5.11,17.62,6.91,3.4,1.73,10.87,6.47,14.18,8.72,2.15,1.46,5.75,5.71,7.27,6.35,1.73.73,3.29.16,4.93.52,3.11.69,6.37,6.96,8.11,9.34,2.27,3.12,8.33,10.5,9.05,13.87.16.75.36,1.53-.39,2.06-2.6,1.82-4.82-4.78-5.81-6.24-1.54-2.26-10.44-15.03-11.68-15.58-1.55-.69-3.47-.02-5.66-.88-2.44-.96-2.6-2.67-4.12-4.06-3.42-3.13-12.31-8.14-16.64-10.62-6.54-3.74-19.33-3.82-21.49-11.77s1.41-20.95-8.65-24.05c-1-.31-5.44-1.21-6.43-1.25-1.92-.08-3.11.84-5.16.32-2.95-.75-4.95-3.22-6.19-5.82-3.39-7.13-1.31-17.07-3.49-24.33-.22-.74-.1-1.55-.13-2.31Z"/>
    <path class="st7" d="M378.78,321.71c1.53-.24,3.46,1.28,3.31,2.83-.11,1.17-1.58,1.91-1.94,2.94-2.26,6.48-2.34,15.88-4.53,22.73-1.14,3.55-6.64,15.37-10.65,15.58-1.99.1-2.14-2.15-4.32-2.25-4.87-.22-13.3,7.76-17.21,10.65-7.52,5.57-17.23,11.43-24.21,17.23-1.69,1.4-3.18,3.97-4.35,4.92-1.63,1.31-3.19-1.62-3.04-3.01.24-2.23,3.39-3.55,4.65-4.65,6.58-5.73,14-9.82,20.95-15.03,6.91-5.19,13.45-12.91,22.43-15.2,1.39-.35,5.61.39,6.22-.27.35-.37,4.33-8.5,4.5-9.16,1.21-4.66,1.45-11.23,2.46-16.07.66-3.17,1.91-10.63,5.71-11.23Z"/>
    <path class="st6" d="M312.42,491.7c.91-.22,16.57,1.93,18.68,2.31,1.23.22,3.05.82,3.67,2.05l-1.13.62c-6.94-1.19-13.88-2.25-20.8-3.16-3.16,3.37-7.1,2.56-8.19-2.07-6.03-.94-12.02-2.04-17.97-3.3-3.23.25-5.52,3.17-7.35,5.6-4.59,8.29-9.79,15.5-15.68,22.98-2.43,3.08-8.18,10.16-12.03,10.3-1.95-1.12-3.36-1.11-4.22.05-7.74,11.11-15.79,22.02-24.14,32.74,2.4,6.44,3.96,11.61,2.52,18.74l.96,6.45-1.01,1c.06,1.08-.03,2.19,0,3.27l-1.64-7.36v-14.17c0-.25-1.48-4.03-1.76-4.78-2.54-6.63-7.25-13.38-9.69-21.11,3.45,3.75,4.17,8.98,6.43,13.48.26.52-.15.88.93.68,6.42-7.48,12.33-15.36,18.07-23.36.75-1.04.89-2.33,1.59-3.32,1.26-1.79,5.93-7.56,7.73-8.08,1.92-.56,3.81.73,5.04.18.61-.27,5.13-5.05,6.03-6,3.13-3.31,8.21-9.12,10.58-12.86,3.74-5.9,5.95-12.35,12.03-16.86,5.67-4.22,9.36-1.08,15.33-.07,3.02.51,6.83.38,10.02,1.16l.55-3.82c-.1,1.16.16,2.35-.02,3.51-.15.96-1.18,1.57-1.08,2.71.02.19,1.26,3.44,1.37,3.59,1.66,2.25,4.39-.9,5.19-1.09Z"/>
    <path class="st6" d="M1029.38,308c1.83,1.83-4.14,7.43-5.14,8.75-2.2,2.91-3.75,6.36-7.12,8.69-2.99,2.07-12.24,3.84-13.3,5.78-3.27,9.43-4.55,19.33-6.29,29.14-.56.81-2.48.31-3.57.79-.79.35-1.6,1.89-2.45,2.45-.94.62-2.05.75-2.97,1.39-2.36,1.64-16.62,13.96-18.57,12.23.75-1.87,2.62-4.1,4.1-5.44,2.78-2.53,7.8-6.43,10.9-8.72,2.07-1.53,8.3-4.4,9.47-6.34,1.72-2.86,2.54-14.17,3.48-18.32.41-1.81.99-4.42,1.52-6.11,2.3-7.32,6.52-5.33,12.34-7.83,2.74-1.18,6.31-4.16,8.34-6.38,1.51-1.65,5.9-8.95,6.77-9.58.57-.41,2.19-.8,2.49-.5Z"/>
    <path class="st24" d="M1255.1,582.74c.7.75.93,2.07,1.02,3.07.49,5.9-1.44,13.66-.45,19.53.69,4.08,4.61,5.9,4.9,12.54.08,1.75.15,9.07-.01,10.34-.13.97-1.43,2.31-1.82,3.68-.74,2.61-.71,5.47-2,8.08,8.97-.17,17.96-1.06,26.85.68,2.99.58,3.61,1.52.14,2.05-12.4,1.9-29.61,2.19-42.26,2.17-3.13,0-9.29-.11-12.21-.6-1.46-.25-3.98-1.59-4.42-1.6-.32,0-.23,1.05-.6,1.13-2.26.52-2.96-2.24-4.31-2.24s-1.3,2.24-2.71,2.25c-1.16,0-2.39-2.22-2.73-2.2-.44.01-1.12,2.09-1.63,2.11-.15,0-.58-.71-1.08-.74-1.39-.1-3.52.29-4.77.12-.52-.07-1.1-.88-1.83-.98-1.53-.2-1.95,1.64-3.78,1.72s-2.94-1.37-5.72-1.15c2.31-.94,5.43-1.38,7.91-1.63,7.27-.72,24.47-1.75,31.03-.55,1.35.25,1.91,1.65,3.02,1.98s2-.41,2.89-.23,1.48,1.34,3.38,1.55c1.46.16,6.93-.79,8.72-1.12s3.21-2.82,3.81-4.36c2.42-6.21,4.12-17.71,2.98-24.21-.44-2.49-3.9-5.66-4.3-8.24-1.13-7.14.51-15.67-.02-23.14Z"/>
    <path class="st33" d="M1092.63,586.01c5.98,6.17.26,11.53-.48,18.33-.21,1.91-.37,6.32-.04,8.08.42,2.28,6.54,7.49,8.17,10.91,1.37,2.88,1.45,6.09,3.27,8.73.04,1.05-10.16,2.29-11.46,2.46-15.26,2.08-30.12,3.34-45.56,3.29-6.02-.02-12.24-1.35-18.23-.02l-.48,1.09-11.26.05c1.45,1.72,1.55,2.87.31,3.43-7.99-.06-16,.23-24.02.89-.31,1.05-.78,1.05-1.09,0-5.27.17-10.39-.12-15.36-.87-4.18.75-8.5.76-12.62-.34-1.42-1.84-2.58-1.85-3.48-.04-3.44.36-7.31.59-10.64-.34-8.31.65-16.63.45-24.96-.59-.25.76-.45,1.05-1.17,1.01-3.51-.16-5.74-13.91-4.44-16.89,5.7-2.3,6.07-10.02,6.31-15.47.6-13.95,1.14-29.35-4.51-42.24-.5.15-.68-.04-.55-.55,2.31-2.37,1.26-6.99,3.25-9.56,10.98-5.71,19.35-17.17,29.51-23.37,1.07-.65,4.58-2.58,5.6-2.39,1.57.3,3.12,6.15,7.2,3.2.73-.53,3.47-6.1,4.46-7.53,4.02-5.82,9.88-10.68,13.45-15.99,5.81-8.65,8.74-18.65,15.59-26.96.82-1,2.35-1.74,2.98-3.52,2.85,3.51,5.57,7.21,8.14,10.93,5.51,7.96,13.61,24.43,22.91,27.25,5.58,1.69,15.21.24,16.53,7.46,1.22,6.71,1.57,13.68,3.02,20.42.62,2.86,2.21,10.09,3.65,12.16,1.75,2.52,11.43,9.63,14.36,10.72,4.14,1.54,6.48,1.32,11.28,3.44,1.46.65,4,.25,4.36,2.18.51,2.77-.09,3.16,1.53,6.1,1.48,2.68,3.07,3.09,4.47,4.53Z"/>
    <path class="st29" d="M896.89,542.94c4.49,3.81,9.72,7.34,12.99,12.36,1.28,1.96,1.88,4.64,3.07,6.2,1.81,2.37,5.31,3.25,7.39,5.42.17.18.41.36.55.55,2.43,5.16,3.7,10.43,3.82,15.81.42,2.39.42,4.75,0,7.09,1.6,9.9.92,20.22-.83,29.88-.74,2.13-2.34,3.78-4.78,4.96.45,4.92-.75,6.69-3.6,5.3-1.68,2.01-3.34,4.44-4.97,7.28-.61.91-1.01,1.79-.48,2.83-1.91,2.37-3.93,4.7-6.06,6.98.98,1.41-.46,3.67-2.18,3.27-2.34,3.01-8.6,9.74-12.3,10.32-1.21.19-3.58.2-4.76-.07-4.34-1.01-7.24-1.88-12.16-2.02-16.22-.45-28.66,2.96-44.16,5.34-10.98,1.69-24.18,1.68-34.57,5.23-1.73.59-3.1,2.29-5.08,2.27-5.3-.05-5.99-8.39-7.9-12.19s-4.83-6.88-6.65-11.07c-3.36-7.75-8.21-19.27-8.23-27.53-.01-4.93,6.71-7.29,9.58-10.09.73-.71,1.47-1.9,2.14-2.77,10.91-14.12,19.26-30.37,28.76-45.38,1.45-2.29,10.18-14.84,11.61-15.65.96-.55,6.56-.92,8.26-1.01.95-.05,1.84.55,2.67.5,18-1.12,32.37-8.26,50.12-9.86,2.97-.27,3.67-1.98,7.55-.37s6.19,4.55,10.22,6.41Z"/>
    <path class="st35" d="M920.88,567.47c6.04,8.18,5.53,31.9,4.93,42.27-.17,2.88-.78,8.74-1.77,11.31-1.25,3.24-4.37,3.75-4.71,4.28-.94,1.48,2.2,14.41,3.75,15.45.57.38,1.19.14,1.62.27,17.8.7,26.7,1.04,26.7,1.04,6.17-.34,12.29-.08,18.34.78,6.45-.62,12.93-.07,18.99.62l3.03-.26c.36,0,.73.01,1.09,0,4.03.11,8.07-.22,12.12-.99,6.74.57,13.03-.09,19.61-.96l.98.86,1.63,3.81-3.81.55c-.61,1.59-5.26,3.58-6.54,2.18-.47.13-.94.51-1.09.55-.3,1.05-.79,1.04-1.09,0-1.96.43-3.81.54-6,1.09-.51,1.71-5.02,2.86-6.54,2.18-1.48.21-.77-1.58-2.44-1.11-.2.06-1.55,3.27-2.33.2-.14-.54.43-1.17.41-1.27-.23-1.09.47-1.95,2.1-2.58-23.42.48-46.93-.2-70.53-2.04l-2.97.31c.91.95,1.09,1.84.53,2.67l-1.1,3.27c-.49.45-2.3-1.67-2.72-2.18-1.64-.22-2.93-1.63-3.88-4.22-3.66-.19-7.29-.43-10.92-.72-1.61,2.49-3.04,3.41-4.29,2.77,2.25-3.13,4.61-6.64,6.54-9.81.31,2.42,2.26,3.1,5.85,2.04.29-.32-.92-6.93-1.27-7.02-1.04,3.76-2.56,5.41-4.58,4.97,1.04-1.7,3.44-7.52,4.72-8.06.5-.21,1.57.4,2.1.21,2.33-.81.76-3.76,1.64-5.24.43-.72,2.56-1.38,3.28-2.17,2.51-2.72,1.18-9.23,2.72-12.6-.02-6.5-.23-13.04-.28-19.57.42-2.34.42-4.7,0-7.09-.44-3.15-1.15-7.66-2.13-10.64-.53-1.61-2.54-2.58-1.69-5.17Z"/>
    <path class="st16" d="M926.88,648.7c-.4-.53-2.62-3.44-2.18-3.81,1.5.31,3.3-.34,4.64-.26,18.47,1.06,38.23,2.12,56.67,2.46,7.11.13,13.7-.3,20.74-1.12-.41,1.76-3.5,1.48-5.03,2.06-1.27.48-2.72,1.64-3.97,2.3-.19-.86-1.95-2.06-2.99-1.66-.55,3.48-5.73,4.61-8.65,3.84-.43-.11-.35-.93-.44-.99-1.05-.69-2.1,1.88-2.99,2.03-1.09.18-2.96-3.19-3.48,1.14-1.15.12-.15-1.71-.59-2.15-.23-.23-1.5.29-1.62-.32-.15-.75.26-3.31.04-3.52-2.33-.53-1.28,1.53-2.81,3.46-3.69,4.69-4.01.05-4.8-.49-1.66-1.13-3,1.49-3.03-2.98l-4.08.56c-.31,1.16,1.46,1.5.85,2.72-1,2-1.98-.21-3.27-.04-.25.03-1.2,2.69-2.49,1.67-.23-.18.78-4.39-2.45-4.41-3.57-.02.37,4.2-3.55,2.77l1.09-2.17c-1.18.13-4.02-.45-4.68.53-.44.65.76,1.83-.22,2.48-.6.4-1.31-.23-1.83-.1-1.32.33-4.29,1.56-5.49,1.46-.53-.04-.64-1.57-1.14-1.64-.32-.05-.91,1.92-1.9.26l2.72-.81c.36-1.84-2.83-2-4.02-1.67-.3.08-.96,3.93-4.7,3.3-1.3-1.78-3.03-3.15-4.36-4.91Z"/>
    <path class="st34" d="M903.98,647.61c1.74-.52,2.48-3.51,4.09-3.82,2.86-.56,8.55,1.45,11.93.52.88,1.99,1.66,3.77,3.07,5.48.42,2-1.76.72-2.18,1.09-1.18,1.04,1.45.84,1.06,1.87-.28.74-1.44,2.19-1.89,3.03-1.64.24-.33-1.76-.59-2.74-.13-.5-1.21-1.96-1.85-2.16v4.91c-2.37-2.72-6,1.9-7.91,1.96-1.13.03-1.98-1.06-2.88-1.27-2.09-.49-5.76.19-6.12-2.87.84.03,2.34.07,2.72-.83.61-1.42-2.25-.07-1.63-1.9.84-1.08,1.45-2.25,2.18-3.27Z"/>
    <path class="st8" d="M1028.29,637.79c-.02.84-.01,2.26-.5,2.92-.08.11-2.1,1.4-2.23,1.44-4.81,1.52-15.35.27-20.99.55-3.74.18-8.37,2.09-11.73.54,3.73-.11,8.21-1.21,11.81-1.42,1.86-.11,12.15,1.22,12.17-.49,0-.19-2.05-2.47-1.63-3.54h13.09Z"/>
    <path class="st4" d="M1023.39,646.51c2.06-.23,4.44.16,6.54,0-.35,1.49-3.12,2.33-3.58,3.26-.52,1.06,1.22,2.2-.63,3.16s-4.18.49-6.15.11v1.64c-3.57-.87-1.5-.79-1.75-2.87-.11-.97-.95-2.05-.98-3.13,2.32-.64,4.3-1.93,6.54-2.18Z"/>
    <path class="st18" d="M700.07,672.14c.29.19,1.09.59,1.1.88.01.36-1.53,4.36-1.73,4.49-.74.44-2.6-.45-3.19.63-.06-.07-.73.13-.95-.12-1.69-1.96-1.48-4.52-2.28-5.64-.67-.95-4.06-2.72-4.95-4.05,5.09,1.32,6.95.64,11.99,3.82Z"/>
    <path class="st4" d="M1008.66,650.33c.84.23,2.07-.76,2.18.8.11,1.46.26,5.07-1.46,5.65-4.14,1.42-3.19-2.35-3.46-2.64-.38-.41-4.29,1.84-4.35-.81.3-.17.38-.68.54-.83,1.13-1,4.95-1.78,6.54-2.18Z"/>
    <path class="st4" d="M1015.75,649.24c.28,1.94,1.73,3.21-.3,4.89-1.32-.26-2.69-1.05-2.97-2.46-.43-2.2,1.73-.89,2.18-2.44.33-.07.76.07,1.09,0Z"/>
    <path class="st34" d="M924.7,655.78c-1.67.15-1.77-1.37-1.63-2.72,1.67-.15,1.77,1.37,1.63,2.72Z"/>
    <path class="st35" d="M931.24,653.6c.24.33,1.22,1.53,1.09,1.63-1.51-.07-3.79-.82-3.27-2.72.84.45,1.11.91,2.18,1.09Z"/>
    <path class="st33" d="M225.73,586.01c-.16-2.63-.98-5.46-1.04-7.41-.09-2.91.92-6.33.45-9.71-.36-2.63-3.7-7.92-2.82-9.98l18.58-23.97c1.34-2.23,5.07-9.26,7.58-9.91,1.54-.4,2.34,1.95,5.27.4,1.77-.93,7.95-8.05,9.6-10.02,2.77-3.3,6-7.63,8.41-11.21,3.46-5.13,7.2-14.85,13.56-16.99,2.23-.75,8.41,1.52,11.3,2.09,1,.2,1.88-.22,2.75-.07s6.23,1.21,6.45,1.46c.35.37-.13,3.38,2.55,3.76,2.44.35,2.81-1.36,4.08-1.93,1.68-.75,5.87,1.04,7.94,1.31,4.28.55,10.81.06,14.39,2.24,2.59,1.57,1.59,2.99,2.48,4.88.51,1.08,5.13,7.71,6.03,8.69,5.91,6.46,9.22,5.42,16.7,6.74,2.56.45,5.57,1.7,7.83,1.99,9,1.14,18.09-.86,27.51,1.93,5.62,1.66,11.01,6.61,15.81,9.81l4.26,21.36c1.81,14.18.38,20.16-2.93,33.44-1.6,6.42-2.69,12.95-2.45,19.63-2.98,0-5.6-1.78-8.51-2.12-2.99-.35-6.22.2-9.2-.06-7.94-.71-16.37-2.68-24.41-1.5-4.83.71-9.32,2.99-14,3.99-13.17,2.8-27.47-.45-40.59-.35-10.5.08-18.62,3.57-28.68,5.51-1.24.29-2.33.84-3.27,1.64.45,1.36-1.43,1.51-2.18.55-4.27.33-7.66-1.24-11.22-1.6-4.21-.42-9.5.68-13.59.55-3.52-.12-7.9-1.05-11.42-1.16-6.99-.21-14.03.2-21.01.02-.04-3.6,4.49-5.87,4.79-9.66.09-1.07-.52-2.05-.45-3.12.25-3.66,1.49-7.6-.52-11.2Z"/>
    <path class="st20" d="M375.66,608.36c16.53-2.04,15.86-2.96,30.4,5.31.8.45,2.28.44,2.73.81,2.46,2.06-3.16,12.27.5,13.44,3.05.98,5.07-3.88,6.73-5.11,3.98-2.95,8.43-2.21,12.53-.28,5.56,1.48,11.18,3,16.86,4.55l2.77.9c8.63,6.95,10.83,4.74,20.99,6,5.18.64,10.27,2.05,15.54,2.17.52.17,1.04.29,1.58.34,6.46.64,21.32,2.24,25.81,7.36,1.05,1.2,1.35,2.79,1.6,4.31.03.17-.02.35-.1.53-.9,3.51-1.9,1.49-3.6,1.14-2.06-.43-5.02-1.01-7.07-1.16-2.55-.19-6.38,1.86-5.15-3.25-2.57-1.11-1.59.67-2.74,1.89-1.94,2.05-3.17-.79-3.53-.79-.27,0-1.36,1.62-1.64,1.62-.34,0-1.44-1.91-2.26-2.07s-5.33,1.92-5.65,1.53c.56-2.31-1.24-1.38-1.55-1.69-.35-.35.38-2.87-1.16-3.47-.46-.18-1.05.36-1.5.12-.16-.09-.14-.88-.5-.97-2-.47-2.45,1.46-3.88,2.05-.37.16-3.25.79-3.39.69s-.57-3.29-1.37-3.26c-.1,0-.64.8-1.2.9-.23.04-3.81.31-3.96.17-.08-.08-.03-1.08-.33-1.57-1.46-2.36-1.46.31-3.11.35-2.88.07-6.26-2.43-8.86-2.38-1.2.03-3.67,2.34-5.72,1.42,0-.72-.02-1.46,0-2.18.55.32,1.27,1.21,1.9,1.09,2.29-.44-.31-4.11-1.89-2.73-.08.07.01,1.22,0,1.64-.08-.05-.47.08-.92-.18-.22-.13-.05-.94-.45-.92-.94.03-1.45,1.38-2.61,1.06-.58-.16-1.04-1.13-1.88-1.44-1.1-.4-4.6-.89-5.96-1.12-.62-.11-2.47,1.66-3.44.98-.09-.06,1.09-1.58-.28-2.17l-1.36,2.18c-1.37.33-2.11-1.93-2.99-2-.28-.02-3.91,1.27-4.13,1.23-1.02-.22-7.12-5.79-8.12-5.2-.06.04.13.87-.68,1.24-2.81,1.29-2.99-1.12-4.53-1.27-1.65-.16-5.86.7-7.39.34-1.27-.3-1.08-1.81-2.42-2.01-2.1-.32-2.83,1.56-3.26,1.56-.34,0-4.35-3.6-5.73-3.16l-.82,2.17c-2.61-.9-3.31-4.38-6.27-2.98-.97.46-1.22,2.1-2.97,1.93-2.95-.29-1.14-3.56-1.4-3.84-.5-.54-1.51.92-1.91.91-.47,0-.94-.9-1.09-.9-.58-.01-.55,2.16-1.63,1.62-1.44-5.39-5.68-.89-7.02-1.15-1.15-.22-1.34-2.04-1.45-2.11-.31-.21-6.11,2.73-4.9-.55-1.08-.23-1.32.96-2.33.97-1.2.02-2.43-.98-3.5-1.3-.42-.12-1.09.28-1.44.17-.98-.3-3.71-1.98-4.99-2.01-.8-.02-2.51,1.63-3.84,1.42-.74-.12-3.63-3.82-5.74-2.29-.99.72.25,2.77-1.32,2.5-.96-2.83-2.48-.92-3.58-1.38-.62-.26-1.03-1.53-1.95-1.75-.7-.16-3.32.05-4.78-.2-.88-.15-1.59-1.03-2.24-1.03-1.02-.01-1.61,1.45-3.05,1.37-.86-.04-2-.44-3.23-.55-1.44-.13-1.21.93-1.08-1.37l.93-1.15,10.95-1.44,1.21.95,11.02-.55c15.5,2.3,31.07,4.22,46.72,5.75-2.48-5.58-2.18-7.81.91-6.67.44-2.93-1.03-4.17-4.4-3.69-.35,3.56-3.35,3.47-3.49-.11-3.68,1.24-5.33.82-4.95-1.27Z"/>
    <path class="st1" d="M519.06,633.43c2.51,4.05,2.78,1.57,3.98,1.72.47.06,4.68,2.08,5.72,2.48,1.71.65,3.38-.08,4.75,2.34,1.32.65.37-2.81,1.89-1.63.21.16,1.09,2.19,2.73,2.45-2.1,1.42-.81,2.77.99,1.79.26-.14.85-2.02,1.48-2.02.2,0,1.22,1.21,1.88,1.37.63.15,1.16-.88,2.34-.79,1.7.14,2.99,1.97,3.49,2.05.73.12,1.14-1.16,2.39-.84.94.24,2.65,1.88,3.54,2.52.17-4.25,3.42,1.26,3,1.64h-1.64c1.75,3.88.56,2.02-1.34,2.17-1.04.08-1.37,1.31-2.47,1.11.12-1.72.18-1.83-1.63-1.63-.54,4.48,4.45,1.6,3.81,6.54-1.67-1.72-4.14.66-4.35.54-.06-.04.16-.7-.7-1.29-2.34-1.61-6.21-.58-4.22-5.24l-1.37,1.64-3.54-1.64.54,2.72c-2.5-.18-7.06-.26-8.32-2.86s.28-6.96-5.31-4.49l3.26.81c.6,1.36-1.01,1.01-1.1,1.35-.4,1.53.81,1.26.93,1.5,1.42,2.85-2.13,2.22-3.62,1.2-1.76-1.21-2.43-7.72-5.71-7.37-.29.03-.49,2-2.45,1.39s-2.37-2.13-2.34-3.97c-1.67-.15-1.72-2.88-3.42-2.29-2.26.78,2.52,3.64,2.81,4,.8.99,1.65,3.87,2.9,4.49.52.26,4-3.09,4.36,2.41-.29.26-6.76-.86-7.36-1.6-1.64-1.52-1.11,2.01-.71,2.59.47.69,2.17.17,2.65.43.85.45,1.07,1.85,1.61,2.17.22.13,4.13.1,5.03.38.74.23,2.18,1.49,2.34,1.48.49-.05.65-1.4.88-1.56.16-.11,3.56.66,3.73.76.81.46,1.53,2.43,1.93,2.44.29,0,.86-1.47,2.05-1.49,4.75-.07,6.92,2.55,9.97,3.11,2.1.39,5.86-1.19,5.16,1.66,2.13-2.18,4.74.99,7.61.56l.03,2.16c1.28.26,1.59-1.29,2.57-1.56.84-.22,6.17,1.38,7.19,1.88,1.35.66,2.86,2.98,3.07,2.97.92-.04,2.37-1.71,3.84-1.65,1.36.05,1.21,1.76,2.24,2.08.41.13,1.04-.2,1.54-.13,2.24.33,5.14-.16,7.91.56.46.12.86,1.19,1.91,1.3s4.12-.75,5.7-.81c.64-.02,3.68.48,4.38.8.07,1.7-4.02,2.46-4.91,1.09-2.94.23-12.36.45-14.97.02-1.13-.19-1.48-1.28-2.19-1.42-2.91-.56-6.98-.22-10.23-1.47-1.43-.55-2.53-2.37-4.56-2.57s-2.22.75-3.51,1.34c-2.54,1.15-1.28-1-1.62-1.34-.37-.38-2.99,1.15-4.37.29-.79-.49-.91-2.58-1.94-2.98-1.86-.27-.76,1.41-3.23,1.1-.79-.1-4.53-1.01-5.34-1.25-.95-.28-1.68-1.79-2.96-1.99s-2.1.95-3.19,1.02c-1.54.1-2.36-1.5-3.31-1.56-.7-.04-1.07.87-1.8.72-2.57-.52-2.1-1.77-3.02-3.52-1.54.81-.68,4.04-2.72,3.25-1.51-.59-.05-2.47-.27-2.72l-7.08-2.47c-.39-.18-2.34-2.44-2.74-2.98-.75-1-1.63-3.37-2.49-4.32-1.36-1.5-10.38-4.88-12.63-5.36-4.35-.93-10.14.02-13.78-2.85,4.07.1,2.91-1.96,4.65-2.21,1.51-.23,4.94,1.1,6.62,1.1,1.07,0,1.71-.81,2.09-.8,3.51.09,8.07,1.05,11.48.6,1.03-.13,2.18-2.85,5.31-1.86,1.74.55.8,2.01,4.2.45Z"/>
    <path class="st32" d="M330.96,609.45c1.45.01,3.65.05,5.21.02,2.38-.05,4.89-.8,7.33-.56.34,2.17-2.43.23-3.86,1.86-3.48,3.96,2.85.51,3.12.47,1.29-.21,3.81,1.06,5.65-.15l-.55-2.18h9.54c2.65,0,5.27.25,7.91.55-.44,1.82-5.08,3.52-6,1.64-4.09,2.49-10.63,2.54-15.27,1.64-.75.91-1.69,1.5-2.87,1.52l-11.31.66c-3.98.46-9.35,1.48-13.09,1.64-1.92.08-4.48-.73-5.68-.55-.82.12-1.36.98-2.19,1.04-2.34.17-8.06-2.06-10.74-2.37-2.07-.24-3.11.81-4.58.85-1.59.05-2.3-1.02-3.14-1.02-.93,0-1.94.79-3.19.67-1.63-.16-2.9-1.77-4.05-1.9-1.62-.19-3.02,1.47-4.05-1.08.24-.02,1.71-.42,2.18-.55.22-1.26,1.64-1.29,2.73-1.09l-1.09,2.18c1.61-.76,2.42.7,4.08.61s4.88-1.56,4.97-3.38l12.76-.5c-1.46,1.45-3.53,2.17-6.23,2.17,10.28.13,20.53-.41,30.73-1.62,1.82.39,2.37.21,1.67-.55Z"/>
    <path class="st22" d="M625.92,664.5c1.58.29,1.84.63.77,1.03-.42,4.52,2.91,5.46,9.99,2.82,2.43.12,2.08,5.45.14,5.97-6.62-1.33-13.93-.56-20.84-1.78-6.87-1.21-14.53-1.64-20.45-3.54-1.55-.5-4.67.83-2.87-1.76,1.22-.1,3.74-.97,4.91-1.09,9.79-1,18.47-1.86,28.35-1.64Z"/>
    <path class="st27" d="M628.65,664.5l.12.82c-1.55,1.29-.86,2.11,2.06,2.45.83-1.77,4.91-3.41,6.54-2.18.46-1.73.84-1.33,1.64,0,2.17-1.67,6.66-1.35,9.27-.55-.14,1.5-.57,2.18-1.64,3.27-.94.53-1.93.51-2.96.23-.39.81-1.38,1.12-2.97.94.2,2.08-.19,3.69-1.16,4.83-1.27,1.16-2.03.14-2.73,0l.54-4.9c-3.6,0-6.78,2.65-10.34.8-2.39-1.24.32-3.82-1.11-5.71.91.02,1.82-.05,2.73,0Z"/>
    <path class="st28" d="M646.64,668.32c-1.89,1.92-2.56.04-3.27.55-.07.05.46.94.32,1.64-.47,2.44-2.4,6.66-3.29,9.29-1.95,5.71-4.01,9.92-6.3,15.23-.55-.85.09-2.4.41-3.26,1.41-3.85,4.09-9.22,4.83-13.09.2-1.05-.42-2.45-.28-2.65.16-.25,1.3-.34,1.59-.9.19-.37-.96-.4-1.09-.82-.41-1.37.3-4.37,0-6h7.09Z"/>
    <path class="st0" d="M425.82,818.23c.94-.58,1.83-2.28,2.72-.82-1.51.84-1.95,1.1-1.63,3l-1.63-1.64c.19-.14.34-.42.55-.55Z"/>
    <path class="st37" d="M654.61,701.06c1.21-.38,3.12.89,2.96,2.4-.04.37-3.06,4.24-3.3,4.39-1.47.88-4.31-.6-5.71,1.78l-4.65-1.79c.87-2.12,3.05-3.8,5.31-3.95,1.17-.08,2.29.76,3.41.18s1-2.7,1.97-3Z"/>
    <path class="st37" d="M647.72,694.48c-4.22-.13-1.74-10.44.83-10.34,2.89,3.73-.57,6.47-.83,10.34Z"/>
    <path class="st37" d="M667.9,703.76c.31.31-.07,1.12-.38,1.59-1.07,1.64-2.81,3.58-3.9,5.3-.71,1.13-.67,2.96-2.26,3.46.11-1.46,1.43-5.09,2.15-6.16.45-.68,1.72-.9,2.25-1.71.39-.59.64-3.99,2.14-2.49Z"/>
    <path class="st37" d="M568.67,786.61c.15.14-.76,3,.55,3.81-1.13-.71-5.26.21-5.45,0-1.13-1.23,4.03-4.61,4.9-3.81Z"/>
    <path class="st37" d="M684.26,701.57c-3.77-1-4.14,4.75-7.63,5.45-.48-.5,4.61-6.78,5-6.96,1.1-.52,2.26.53,2.63,1.51Z"/>
    <path class="st37" d="M625.92,764.81l-3,5.44c-2.21-2.4-.12-5.94,3-5.44Z"/>
    <path class="st37" d="M651.55,727.74c.25-2.75,1.9-4.87,4.35-5.99.96,1.31-3.66,6.72-4.35,5.99Z"/>
    <path class="st37" d="M656.46,720.65c-.42-.38,1.3-3.49,2.44-3.26,1.67.33-.25,4.45-2.44,3.26Z"/>
    <path class="st37" d="M527.24,813.87c-.47-2.26,1.36-4.09,2.17-1.37l-2.17,1.37Z"/>
    <path class="st37" d="M672.26,707.57v.81c-2.18,2.99-3.46-1.12,0-.81Z"/>
    <path class="st37" d="M630.01,767c1.37.21,0,2.7-.55,2.7-1.28,0-.65-2.25.55-2.7Z"/>
    <path class="st37" d="M668.44,723.92v2.18c-2.17-.01-2.14-2.18,0-2.18Z"/>
    <path class="st0" d="M374.03,834.04c3.53-.06,7.15-.91,10.66-1.12s7.59-.17,11.33-.32c1.12-.04,2.38.9,3.66.06.4-.26.39-1.33.84-1.4.94-.15,1.57.79,2.29.99,1.18.33,3.44-.26,3.41,1.52-.03,2.34-3.05,1.33-3.97,1.5-5.5,1.03-17.69,2.18-23.01,1.46-.88-.12-6.09-1.5-5.21-2.69Z"/>
    <path class="st0" d="M257.89,831.85c-.25-1.25.14-.87.7-1.23,2.62-1.65,5.16-1,7.64-1.61,2.79-.69,6.22-2.12,9.43-2.57s7.76-.95,10.93-1.09c4.03-.17,1.67,2.07-.74,2.56-1.53.31-3.11-.07-4.64.26-5.5,1.19-10.5,1.86-15.7,2.82-2.67.5-4.34,2.12-7.61.85Z"/>
    <path class="st0" d="M438.91,824.23c-2.44,3.13-6.88,2.24-10.05,2.75-1.53.25-9.78,3.6-10.66,2.69v-2.73c3.01.41,5.65-.55,8.51-1.02,2.35-.39,2.33-.52,4.41-1.04,2.3-.58,5.39.05,7.79-.65Z"/>
    <path class="st31" d="M654.27,664.5c2.99-1.16,3.33,2.19,3.57,2.21,2.44.25,7.55-2,10.34-2.22,2.2-.17,4.86.29,6.81.55-1.44-.09-.61,1.13-2.42,1.15-2.08.03-3.61-1.41-4.86-1.16-.35.07-.31.9-.78,1.06-1.28.44-7.17,2.33-8.03,2.28-3.13-.18-1.89-2.4-2.16-2.79-.82-1.15-2.32.11-2.46,0-.16-.14.1-.95-.02-1.08Z"/>
    <path class="st0" d="M365.85,834.04c-.21,1-1.07,1.01-1.89,1.1-2.15.26-6.91,1.24-6.83-1.65l8.72.55Z"/>
    <path class="st23" d="M647.18,663.96c.36-.03.74.05,1.09,0-.02.36.03.73,0,1.09-3.1-.13-6.21.11-9.27.55-.49-.03-1.5-1.19-1.36-1.52.36-.87,8.12-.42,9.54-.12Z"/>
    <path class="st0" d="M406.2,830.22c1.89-1.68,4.61-2.87,5.99-.27-1.58,1.85-3.99.14-5.99.27Z"/>
    <path class="st0" d="M445.99,823.68c-1.16-.73-4.57,1.4-4.9,1.09-1.05-.98,5.15-4.5,4.9-1.09Z"/>
    <path class="st0" d="M357.67,824.77c.37,1.27-2.56,3.42-3.27,2.72-1.1-1.1,2.02-3.28,3.27-2.72Z"/>
    <path class="st0" d="M338.04,826.95h-2.73s0-1.63,0-1.63c1.35-.15,2.87-.04,2.72,1.63Z"/>
    <path class="st17" d="M633.55,664.5c.76-.4,3.95-1.12,4.43-.67.31.29.47,2.18-.61,1.76-2.02.56-4.21,1.63-6.54,2.18-6.2-.73-1.85-3.35,2.18-2.73.19-.13.4-.51.55-.55Z"/>
    <path class="st37" d="M647.18,663.96c-2.56.2-5.38-.24-7.92,0-1.6.15-.14.7-.26,1.64-.21.03-.41-.34-1.64,0,.94-2.19-2.12-1.52-3.82-1.09,2.87-1.75,7.29-1.13,10.64-1.1.92,0,2.42-.35,2.99.55Z"/>
    <path class="st22" d="M633.01,665.05l-4.66,1.06,2.48,1.67c-2.52.6-3.47,1.65-3.8-1.97-.11-1.24,1.17-.61,1.62-1.3,1.5.08,2.87.52,4.36.55Z"/>
    <path class="st33" d="M1095.93,563.07c-.3-.4,2.14-8.49,2.58-9.61,1.18-3.04,10.31-20.57,12.51-21.29.98-.32,2.09-.05,3.28-.53,2.64-1.06,7.03-6.46,9.4-8.59,8.42-7.59,16.38-15.76,24.79-23.19,1.4-1.23,6.05-4.58,6.79-5.75,1-1.6.3-3.21.73-4.72,2.06-7.31,5.71-14.21,7.91-21.53,2.05-6.79,3.77-20.15,7.23-25.48.55-.84,6-6.82,6.55-7.08,1.73-.79,4.23-.05,5.93.59,9.79,3.74,12.78,14.22,24.61,18.46,1.9.68,6.89.94,7.89,3.01.86,1.79.06,9.03.28,11.71,1.36,16.76,16.82,33.08,20.88,49.44,2.68,10.81-.71,22.15,1.5,32.29.98,4.48,5.26,11.65,6.92,16.53,3.56,10.46,4.28,18.24,4.19,29.31-.02,2.85-1.13,7.35-.76,9.78.4,2.6,3.95,5.06,4.81,9.92,1.2,6.78-.57,12.63-1.87,19.25l-2.05,1.5c-14.6-1.35-30.1-3.81-44.81-2.55-6.99.6-20.66,2.18-27.14,3.94-5.32,1.45-12.5,5.84-18.4,7.76-10.41,3.4-20.62,5.06-31.2.69-3.34-1.38-12.61-7.05-14.8-9.73-4.15-5.06-5.41-13.54-8.94-19.41-1.55-2.58-5.97-5.48-6.52-7.65-.37-1.46-.31-5.87-.09-7.45.74-5.2,3.52-6.96,2.68-14.22-.56-4.88-7.2-8.34-7.64-11.49-.55-3.87,8.38-8.53,5.16-12.74-.72-.94-2.24-.96-2.39-1.16Z"/>
    <path class="st33" d="M43.12,621.95c-1.46-1.71,6.27-18.44,8.41-20.67,2.63,4.39,5.64,3.58,9.97,2.32,5.95-1.73,10.31-5.7,15.56-8.43,11.67-6.05,24.58-9.26,34.46-18.42,4.27-3.96,12.84-15.29,17.68-16.66,1.98-.56,5.21-.35,6.87-1.31,8.73-5.04,15.21-23.56,19.48-32.31,3.16-6.49,7.25-12.53,10.43-19.01.81-1.65.22-3.24,2.3-4.78.56-.42,7.09-3.64,7.68-3.77,1.25-.26,3.34-.37,4.5.16,1.36.62,6.93,7.1,8.73,8.72,2.55,2.3,12.93,9.76,13.02,12.5.05,1.54-.55,3.24-.4,5.41.79,11.09,9.33,28.06,14.31,38.01,3.62,7.23,1.93,11.76,2.52,19.28.41,5.27,3.45,13.08.45,17.91-.76,1.22-1.97,1.91-2.74,3.25-1.65,2.89-1.08,6.96-3.51,9.02-9.8,8.32-24.51,1.58-34.95-1.42-4.37-1.26-5.15-1.38-9.38-3.16-14.02-5.92-25.55-1.5-39.04,3.01-6.62,2.21-11.18,3.42-18.03,4.87-10.53,2.23-22.17,5.94-32.37,9.61-4.63,1.66-12.82,6.88-17.48,5.46-.51-.16-6.04-2.97-6.91-3.45-3.74-2.07-7.01-5.88-11.57-6.15Z"/>
    <path class="st33" d="M510.75,630.03c-1.82,2.04-11.77.57-14.89.65-7.39.2-11.98,1.29-19.65.61-4.78-.43-19-1.28-22.32-3.3s-6.93-7.29-10.07-10.1c-1.23-1.1-3.76-3.37-5.15-3.56-4.6-.63-6.16,2.19-9.89,2.7-5.24.72-8.92-1.04-14.04,2.32-.74.49-3.57,3.8-4.18,3.17.38-1.75,1.16-3.56,1.51-5.3,1.63-8.02.56-16.16,1.9-24.27,1.04-6.27,3.6-13.45,5.02-20.06,2.65-12.39,4.01-22.63,7.48-35.04,1.73-6.19.52-7.43,4.83-13.16,6.88-9.16,11.79-15.89,17.64-25.97,2.62-4.51,9.74-15.5,10.57-19.96.56-2.99-.17-6.56.17-9.64.44-3.99,3.98-13.3,6.03-16.87,4.06-7.05,7.33-4.52,10.74,1.1,5.81,9.56,6.65,16.49,8.3,27.13,2.38,15.35,6.81,30.67,8.61,46.45,1.05,9.18-.1,18.19.69,27.12,1.2,13.66,7.99,29.68,11.77,42.75,2.35,8.12,2.96,16.53,4.04,24.85.25,1.94,2.04,7.11.89,8.39Z"/>
    <path class="st11" d="M375.66,608.36c1.5,2.34,3.97-.79,5.66.49.7.53.1,2.2,1.16,2.78.55-.88.11-2.46,1.33-2.99.34-.14,4.92.3,5.25.77.13.2.73,4.46.7,4.69-.23,1.78-2.29-.35-3.19-.29-.36.38,4.33,8.15,1.9,8.16-.12,0-.57-.81-1.06-.82-11.43-.21-25.83-3.43-38.19-4.63-6.44-.62-12.83-2.17-19.36-1.63,4.54-.53,9.5-1.56,14.18-2.18,2.34.73,5.05.84,8.1.35l2.33.99c1.6-2.26,2.51-1.52,4.28.1-.36-1.51-.18-2.53.55-3.08,2.92-.43,3.56-.92,6-1.64,3.51-1.03,6.61-.63,10.36-1.09Z"/>
    <path class="st19" d="M330.96,609.45c2.11-.23.94,1.43.22,1.54-.55.08-1.34-.48-2.07-.4-5.79.62-12.34,1.83-18.03,2.15-6.33.35-13.01-.31-19.38-.03.07-.79,2.06-1.24,2.7-1.39,3.32-.78,7.06-1.23,10.39-1.88,11.21-2.19,15.56-.09,26.17,0Z"/>
    <path class="st30" d="M428.55,622.53c3.92.64,1.17-1.57,1.63-2.17,2.87-.19,4.84-3.34,7.77-2.62.98.24,5.95,4.71,6.45,5.58.65,1.15.43,2.88.55,3,.14.14,1.59.34,3.24,1.67-6.27-.65-12.91-1.98-18.71-4.48-.59-.26-.82-.92-.92-.97Z"/>
    <path class="st13" d="M284.61,609.99c-.15.19-.32.44-.55.55-.79.38-1.89.88-2.73,1.09v-1.63c1.02-.14,2.32.18,3.27,0Z"/>
    <path class="st8" d="M924.7,641.06l17.64.58c1.28-2.81,1.37-.3,1.56-.18,1.92,1.23,4.59-.66,5.72-.84.66-.11,1.3.89,2.1.97,1.58.17,5.64.29,7.08.03,1.16-.21,2.06-2.48,3.52-2.73,2.48,4.91,10.67,4.85,15,2.17l.54,1.64,1.91-1.63v1.64c1.69-.64,3.07,0,4.61.02,2.7.02,4.17.52,7.39.52-2.71,1.5-6.25.07-8.97-.02-16.47-.59-33.23-.23-49.66-1.05-2.38-.12-6.34-.49-8.43-1.11Z"/>
    <path class="st33" d="M878.9,544.03c1.29,7.2,5.87,13.04,8.19,19.89,1.26,3.74,1.87,7.37,2.72,11.18.31,2.07,2.14,5.73,3.27,2.18,1.23-5.22.97-7.94-.26-13.1-1.73-7.3-5.5-12.92-7.93-19.87-.01-1.49,6.1,2.17,6.55,2.45,1.38.48,2.65,1.2,3.82,2.18,7.22,6.37,7.39,7.44,12.53,15,1.72,2.52,5.51,4.69,7.39,6.78,5.15,5.74,4.68,28.43,4.08,36.3-.12,1.65-.98,10.47-1.42,11.12-.88,1.3-3.65,2.81-5.06,4.75-5.94,8.16-9.99,18.31-16.75,26.32-1.63,1.93-6.11,6.43-8.66,6.05-1.08-.16-1.51-1.19-2.33-1.53-3.07-1.26-11.78-.68-15.67-.7-16.93-.05-28.65,2.68-44.72,4.94-7.45,1.05-15.76,1.39-22.86,2.76-2.31.45-10.57,3.61-11.95,3.16s-1.34-2.92-1.9-4.12c-3.88-8.34-9.82-16.67-13.15-25.12-1.09-2.77-3.62-10.64-2.48-13.2.36-.79,1.38-1.13,1.9-1.64l4.36-2.73c5.16-5.29,10.31-14.99,15.27-21.26l2.18-3.82c4.6-6.29,7.96-12.46,11.99-19.08.54-1.36,1.12-2.76,2.18-3.82,2.12-3.48,4.24-6.98,6.54-10.36,1.17-1.57,2.45-3.02,3.82-4.36.2-.13.38-.48.55-.55,4.04-.14,8.04-.32,11.99-.55,4.86-.56,9.01-1.73,13.63-2.73,1.72-.04,3.36-.4,4.91-1.09,5.64-1.34,15.37-4.89,20.17-5.45,2.32-.58,4.76-.4,7.09,0Z"/>
    <path class="st9" d="M833.1,553.3c-.1.01-.58.5-1.32.57-3.4.31-7.23-.27-10.68-.02,3.49-1.28,8.18-.19,11.99-.55Z"/>
    <path class="st9" d="M820.56,554.39c-1.03,1.64-2.08,3.37-3.82,4.36.72-1.05,1.47-2.84,2.49-3.8.56-.53,1.1-.41,1.33-.56Z"/>
    <path class="st9" d="M889.81,575.1c1.1,1.57,1.68,5.07,3.27,2.18-.24,1.03.39,2.88-2.19,1.37-1.17-.69-.86-2.52-1.08-3.55Z"/>
    <path class="st9" d="M878.9,544.03c-2.27.19-4.87-.26-7.09,0,1.75-.93,5.45-.91,7.09,0Z"/>
    <path class="st36" d="M924.7,590.37c-.02-2.36.01-4.73,0-7.09.29,2.04,1.39,5.14,0,7.09Z"/>
    <path class="st9" d="M778.58,617.08c-1.19,1.22-2.64,2.25-4.36,2.73,1.32-1.31,2.18-2.51,4.36-2.73Z"/>
    <path class="st9" d="M895.26,548.94c-1.52-.24-2.58-1.45-3.82-2.18,2.19-.29,2.7,1.19,3.82,2.18Z"/>
    <path class="st9" d="M851.64,549.48c-1.29,1.23-3.25,1.13-4.91,1.09,1.59-.34,3.32-.71,4.91-1.09Z"/>
    <path class="st9" d="M793.85,595.82c.03-1.84,1.37-2.7,2.18-3.82-.08,1.85-1.28,2.68-2.18,3.82Z"/>
    <path class="st9" d="M808.02,572.92c.32-1.41.87-3.1,2.18-3.82-.72,1.18-1.45,2.62-2.18,3.82Z"/>
    <path class="st25" d="M910.53,637.79c.18-.29,1.4-.85,1.88-1.65,1.03-1.72,1.14-4.73,3.56-4.89l1.96,9.29c-2.58.9-10.1,1.67-7.41-2.75Z"/>
    <path class="st21" d="M943.24,650.33c0,2.14-2.16,2.17-2.18,0h2.18Z"/>
    <path class="st20" d="M359.31,611.08c1.6,4.11-.23,5.9-3,2.19-2.01,4.57-3.72-1.12-6,1.62-.48-2.42-5.92,1.43-6.27-2.18,5.06-.67,10.22-.89,15.27-1.64Z"/>
    <path class="st20" d="M368.57,610.54c-.94,3.03-3.17,2.87-.54,5.99-.94-.44-5.1-.06-5.47-.29-1.11-.66-2.15-3.04-.18-3.39.5-.09,1.12.42,1.49.38.28-.03,3.33-3.08,4.7-2.69Z"/>
  </g>
  
</svg>