<?xml version="1.0" encoding="UTF-8"?>
<svg id="Layer_1" xmlns="http://www.w3.org/2000/svg" version="1.1" viewBox="0 0 792 612">
  <!-- Generator: Adobe Illustrator 29.8.3, SVG Export Plug-In . SVG Version: 2.1.1 Build 3)  -->
  <defs>
    <style>
      .st0, .st1 {
        stroke: #ffd194;
      }

      .st0, .st1, .st2, .st3 {
        stroke-miterlimit: 10;
      }

      .st0, .st4 {
        fill: #fbb019;
      }

      .st1 {
        fill: #a8362a;
        stroke-width: 8px;
      }

      .st2 {
        fill: none;
      }

      .st2, .st3 {
        stroke: #fed194;
      }

      .st3 {
        fill: #fcb017;
      }
    </style>
  </defs>
  <rect class="st1" x="53.76" y="188.08" width="667.97" height="222.66" rx="40.79" ry="40.79"/>
  <g>
    <path class="st3" d="M185.05,272.67c4.87,0,9.91-3.36,11.93-7.39h1.51c-2.18,8.65-7.22,13.44-17.05,13.44-10.84,0-15.88-5.88-17.64-16.3-.5-2.44-2.44-3.36-2.44-3.36,2.18-1.34,1.68-5.46,1.68-7.64,0-17.14,5.21-27.38,19.49-27.38,18.65,0,16.88,18.48,16.88,23.1-1.09-.5-2.18-.76-3.28-.76-4.79,0-9.32,4.03-9.32,8.48,0,1.68.92,2.86,2.77,2.86,2.52,0,2.52-2.94,4.28-3.11,3.78-.42,2.52,6.3-3.44,6.3-3.02,0-5.63-1.85-5.63-5.21,0-6.72,5.46-8.32,5.46-16.8,0-6.8-3.61-12.6-7.73-12.6-8.48,0-8.57,25.28-8.57,29.65,0,2.35,2.18,3.11,2.18,3.11,0,0-1.93.92-1.43,3.36,1.6,7.48,5.88,10.25,10.33,10.25ZM169.17,264.53c0-1.93.08-5.46.67-5.46-.59,0-.67-11.68-.67-18.06,0,6.38-.08,18.06-.67,18.06.59,0,.67,3.53.67,5.46Z"/>
    <path class="st3" d="M218.98,278.47h-16.97c2.52,0,3.28-2.6,3.28-5.46v-10.58c0-2.52-2.02-3.36-2.02-3.36,0,0,2.02-.84,2.02-3.36,0-16.8,1.18-24.61-2.02-24.61,5.38-1.09,10.42-3.95,12.43-7.22v31.84c0,2.52,2.02,3.36,2.02,3.36,0,0-2.02.84-2.02,3.36v10.58c0,2.86.76,5.46,3.28,5.46ZM210.5,269.23c0-3.78.08-10.16.67-10.16-.59,0-.67-12.18-.67-19.4,0,7.22-.08,19.4-.67,19.4.59,0,.67,6.38.67,10.16ZM239.56,255.71c0,2.52,2.02,3.36,2.02,3.36,0,0-2.02.84-2.02,3.36v4.12c0,2.6-.08,5.38,2.27,5.38-3.28,1.18-9.58,5.54-7.98,9.74-3.61-1.6-4.7-3.86-4.7-8.99v-10.25c0-2.52-2.02-3.36-2.02-3.36,0,0,2.02-.84,2.02-3.36v-1.09c0-5.12-3.36-7.73-6.3-7.73-2.44,0-4.7,1.76-4.7,5.29,0,2.52,1.85,4.7,5.21,4.2,4.7-.67,4.28,3.7.5,3.7-5.63,0-9.07-5.04-7.9-9.58.84-3.44,3.61-5.21,6.38-5.21,2.6,0,5.38,1.51,6.8,4.54v-20.16c0-2.94-.76-5.46-3.36-5.46v-.08h17.05v.08c-2.52,0-3.28,2.52-3.28,5.46v26.04ZM234.27,269.23c0-3.78.08-10.16.67-10.16-.59,0-.67-12.18-.67-19.4,0,7.22-.08,19.4-.67,19.4.59,0,.67,6.38.67,10.16Z"/>
    <path class="st3" d="M285.59,259.07s-1.85.67-2.35,2.35c-2.6,10.5-5.29,17.3-17.81,17.3-10.84,0-15.88-6.22-17.64-16.63-.25-1.26-1.01-2.35-2.18-2.86-.17-.08-.25-.17-.25-.17,0,0,1.76-.84,1.76-3.36,0-1.34-.08-2.86-.08-4.28,0-17.14,4.12-27.38,18.4-27.38s18.4,10.25,18.4,27.38c0,1.6-.08,3.11-.08,4.62,0,2.18,1.85,3.02,1.85,3.02ZM252.58,234.45c-.17,2.18.08,24.61-.67,24.61.76,0,.5,6.89.67,9.07.17-2.18-.08-9.07.67-9.07-.76,0-.5-22.43-.67-24.61ZM272.91,251.42c0-15.71-1.68-25.12-7.48-25.12s-7.48,9.41-7.48,25.12c0,1.51.08,3.02.08,4.54.08,2.35,2.1,3.11,2.1,3.11,0,0-1.93.84-1.76,3.36.59,8.9,2.77,14.03,7.06,14.03s6.64-5.12,7.14-14.2c.17-2.35-1.76-3.19-1.76-3.19,0,0,1.93-.76,2.1-2.86.08-1.6,0-3.19,0-4.79ZM278.37,234.45c-.17,2.18.08,24.61-.59,24.61.67,0,.42,6.89.59,9.07.17-2.18-.08-9.07.67-9.07-.76,0-.5-22.43-.67-24.61Z"/>
    <path class="st3" d="M328.35,259.07s-1.85.67-2.35,2.35c-2.6,10.5-5.29,17.3-17.81,17.3-10.84,0-15.88-6.22-17.64-16.63-.25-1.26-1.01-2.35-2.18-2.86-.17-.08-.25-.17-.25-.17,0,0,1.76-.84,1.76-3.36,0-1.34-.08-2.86-.08-4.28,0-17.14,4.12-27.38,18.4-27.38s18.4,10.25,18.4,27.38c0,1.6-.08,3.11-.08,4.62,0,2.18,1.85,3.02,1.85,3.02ZM295.34,234.45c-.17,2.18.08,24.61-.67,24.61.76,0,.5,6.89.67,9.07.17-2.18-.08-9.07.67-9.07-.76,0-.5-22.43-.67-24.61ZM315.66,251.42c0-15.71-1.68-25.12-7.48-25.12s-7.48,9.41-7.48,25.12c0,1.51.08,3.02.08,4.54.08,2.35,2.1,3.11,2.1,3.11,0,0-1.93.84-1.76,3.36.59,8.9,2.77,14.03,7.06,14.03s6.64-5.12,7.14-14.2c.17-2.35-1.76-3.19-1.76-3.19,0,0,1.93-.76,2.1-2.86.08-1.6,0-3.19,0-4.79ZM321.12,234.45c-.17,2.18.08,24.61-.59,24.61.67,0,.42,6.89.59,9.07.17-2.18-.08-9.07.67-9.07-.76,0-.5-22.43-.67-24.61Z"/>
    <path class="st3" d="M371.02,261c-1.01,2.77-7.98,16.13-12.1,16.97-3.02.59-5.71.84-8.23.84-20.58,0-23.69-18.06-15.62-29.4,0,13.52,10.33,24.86,19.66,24.86,3.95,0,7.81-2.1,10.5-6.97,2.1-3.78-2.27-7.14-9.49-11.68-.5-.17-.92-.25-1.34-.25-1.18,0-2.02.59-2.02.59,0,0,.34-1.93-1.43-3.28l-2.35-1.43c-13.69-8.57-16.38-9.16-7.48-18.31,6.38-6.72,8.48-9.07,11.17-9.07,5.54,0,11.42,6.89,15.46,6.89,1.09,0,2.02-.42,2.77-1.68,0,0,.08,3.86-2.77,6.64-2.1,1.93-3.11,3.53-4.7,3.53-.67,0-1.43-.25-2.35-.84-3.28-1.93-8.06-4.96-9.49-5.8-.92-.59-2.27-1.6-3.61-1.6-.84,0-1.68.34-2.52,1.34-3.11,3.53,3.02,7.81,10.92,12.6.5.25,1.01.34,1.43.34,1.18,0,1.93-.59,1.93-.59,0,0-.25,2.1,1.68,3.36.08.08.17.08.17.08,7.56,4.62,11.84,7.31,9.83,12.85ZM365.73,256.46c-1.76-1.34-10-6.22-9.66-6.89-1.26,0-14.03-8.65-15.79-9.66,1.68,1.34,15.54,10.16,15.12,10.84.42-.67,8.4,4.62,10.33,5.71ZM350.61,252.43l.17.08c-.08,0-.08-.08-.17-.08Z"/>
    <path class="st3" d="M397.31,276.87c8.4,0,16.13-8.57,17.72-17.81l-3.36,19.4h-37.63c2.52,0,3.28-2.6,3.28-5.46v-10.58c0-2.52-2.02-3.36-2.02-3.36,0,0,2.02-.84,2.02-3.36v-18.56c0-3.53.34-6.05-2.02-6.05,5.46-1.09,10.5-3.95,12.52-7.22v11.51l6.38-7.64c2.44-3.19,4.37-3.86,7.48-3.86s5.96,3.02,8.9,3.02c1.43,0,2.94-.67,4.45-2.69-2.02,5.38-5.88,14.45-10.67,14.45s-6.22-4.12-10.84-4.2c-1.76,0-3.7.67-5.71,2.77v12.68c1.6-3.11,4.79-4.62,7.9-4.62s6.22,1.68,7.14,5.21c1.09,4.54-2.27,9.58-7.98,9.58-3.78,0-4.2-4.37.5-3.7,3.44.5,5.21-1.68,5.21-4.2,0-3.7-2.77-5.71-5.8-5.71-3.36,0-6.97,2.6-6.97,8.15v1.09c0,2.52,2.02,3.36,2.02,3.36,0,0-2.02.84-2.02,3.36v14.45h9.49ZM382.44,239.66c0,7.22-.08,19.4-.67,19.4.59,0,.67,6.38.67,10.16,0-3.78.08-10.16.67-10.16-.59,0-.67-12.18-.67-19.4Z"/>
    <path class="st3" d="M483.24,262.09c0,4.28,3.61,2.94-.34,7.06-6.89,7.22-16.04,9.91-24.11,9.91-10.58,0-19.4-4.54-19.4-9.41,0-5.54,8.32-9.07,8.32-9.07-2.6,5.21,9.07,14.78,20.16,14.78,3.36,0,6.72-.92,9.58-3.11,3.53-2.77-4.7-3.86-4.7-8.9v-2.02c-2.02,4.37-6.89,6.64-11.76,6.64-6.55,0-13.27-4.03-13.27-12.26v-18.56c0-1.6-.42-5.38-2.02-6.05,5.46-1.09,10.33-3.95,12.43-7.22v32.84c0,5.46,2.94,7.56,6.13,7.56,4.03,0,8.48-3.19,8.48-6.97v-20.92c0-3.11.17-5.29-1.93-5.29,5.38-1.09,10.42-3.95,12.43-7.22v32.09c0,2.35,2.02,3.11,2.02,3.11,0,0-2.02.76-2.02,3.02ZM452.92,259.74c0-2.18.08-5.71.67-5.71-.59,0-.67-9.66-.67-15.46,0,5.8-.08,15.46-.67,15.46.59,0,.67,3.53.67,5.71ZM478.2,259.74c0-2.18.08-5.71.67-5.71-.59,0-.67-9.66-.67-15.46,0,5.8-.08,15.46-.67,15.46.59,0,.67,3.53.67,5.71Z"/>
    <path class="st3" d="M528.01,259.07s-1.85.67-2.35,2.35c-2.6,10.5-5.29,17.3-17.81,17.3-10.84,0-15.88-6.22-17.64-16.63-.25-1.26-1.01-2.35-2.18-2.86-.17-.08-.25-.17-.25-.17,0,0,1.76-.84,1.76-3.36,0-1.34-.08-2.86-.08-4.28,0-17.14,4.12-27.38,18.4-27.38s18.4,10.25,18.4,27.38c0,1.6-.08,3.11-.08,4.62,0,2.18,1.85,3.02,1.85,3.02ZM495,234.45c-.17,2.18.08,24.61-.67,24.61.76,0,.5,6.89.67,9.07.17-2.18-.08-9.07.67-9.07-.76,0-.5-22.43-.67-24.61ZM515.33,251.42c0-15.71-1.68-25.12-7.48-25.12s-7.48,9.41-7.48,25.12c0,1.51.08,3.02.08,4.54.08,2.35,2.1,3.11,2.1,3.11,0,0-1.93.84-1.76,3.36.59,8.9,2.77,14.03,7.06,14.03s6.64-5.12,7.14-14.2c.17-2.35-1.76-3.19-1.76-3.19,0,0,1.93-.76,2.1-2.86.08-1.6,0-3.19,0-4.79ZM520.79,234.45c-.17,2.18.08,24.61-.59,24.61.67,0,.42,6.89.59,9.07.17-2.18-.08-9.07.67-9.07-.76,0-.5-22.43-.67-24.61Z"/>
    <path class="st3" d="M566.65,229.67v26.04c0,2.52,2.02,3.36,2.02,3.36,0,0-2.02.84-2.02,3.44v1.85c0,9.58-8.48,14.45-17.05,14.45s-17.05-4.87-17.05-14.45v-1.93c0-2.52-2.02-3.36-2.02-3.36,0,0,2.02-.84,2.02-3.36v-18.56c0-3.53.25-6.05-2.02-6.05,5.38-1.09,10.67-3.95,12.77-7.22l-.34,17.89v13.94c0,2.52,2.02,3.36,2.02,3.36,0,0-2.02.84-2.02,3.36v1.93c0,7.39,5.54,11.17,11.09,11.17s11-3.78,11-11.17v-1.93c0-2.52-2.02-3.36-2.02-3.36,0,0,2.02-.84,2.02-3.36v-18.06c0-12.1-10.84-13.52-13.44-13.52h18.31v.08c-2.52,0-3.28,2.52-3.28,5.46ZM537.76,266.21c0-2.69.08-7.14.67-7.14-.59,0-.67-12.18-.67-19.4,0,7.22-.08,19.4-.67,19.4.59,0,.67,4.45.67,7.14Z"/>
    <path class="st3" d="M599.66,248.48c1.93-.84,3.95-1.43,5.71-1.43,3.02,0,5.21,1.85,4.96,7.31v1.34c0,2.52,2.02,3.36,2.02,3.36,0,0-2.02.84-2.02,3.36v4.12c0,2.6,0,5.38,2.35,5.38-3.28,1.18-9.58,5.54-8.06,9.74-5.29-1.68-4.7-7.31-4.7-15.12v-4.12c0-2.52-2.02-3.36-2.02-3.36,0,0,2.02-.84,2.02-3.36v-1.34c0-2.77-.92-3.78-2.27-3.78-.67,0-1.51.25-2.35.67-4.12,2.35-7.9,3.78-9.32,4.28v.17c0,2.52,2.27,3.36,2.27,3.36,0,0-2.02.84-2.02,3.36v10.58c0,2.86.76,5.46,3.28,5.46h-17.05c2.6,0,3.36-2.6,3.36-5.46v-10.58c0-2.52-2.1-3.36-2.1-3.36,0,0,2.1-.84,2.1-3.36v-18.56c0-3.53.25-6.05-2.02-6.05,5.38-1.09,10.16-3.95,12.18-7.22v7.39c5.12-5.29,10.25-7.39,14.53-7.39,5.54,0,9.49,3.53,9.49,7.98,0,7.22-4.96,12.77-10.33,16.63ZM581.01,271.67c.08-2.6.08-12.6.67-12.6-.5,0-.59-4.96-.5-19.91-.08,14.95-.17,19.91-.76,19.91.67,0,.67,10,.59,12.6ZM593.36,229.92c-2.6,0-5.12,1.34-7.39,3.36v20.58c7.39-2.94,13.94-8.99,13.94-17.47,0-4.12-2.6-6.47-6.55-6.47ZM605.12,268.64c0-3.95.08-9.58.67-9.58-.59,0-.67-4.12-.67-7.22,0,3.11-.08,7.22-.67,7.22.59,0,.67,5.63.67,9.58Z"/>
    <path class="st3" d="M215.7,373.47c4.87,0,9.91-3.36,11.93-7.39h1.51c-2.18,8.65-7.22,13.44-17.05,13.44-10.84,0-15.88-5.88-17.64-16.3-.5-2.44-2.44-3.36-2.44-3.36,2.18-1.34,1.68-5.46,1.68-7.64,0-17.14,5.21-27.38,19.49-27.38,18.65,0,16.88,18.48,16.88,23.1-1.09-.5-2.18-.76-3.28-.76-4.79,0-9.32,4.03-9.32,8.48,0,1.68.92,2.86,2.77,2.86,2.52,0,2.52-2.94,4.28-3.11,3.78-.42,2.52,6.3-3.44,6.3-3.02,0-5.63-1.85-5.63-5.21,0-6.72,5.46-8.32,5.46-16.8,0-6.8-3.61-12.6-7.73-12.6-8.48,0-8.57,25.28-8.57,29.65,0,2.35,2.18,3.11,2.18,3.11,0,0-1.93.92-1.43,3.36,1.6,7.48,5.88,10.25,10.33,10.25ZM199.83,365.33c0-1.93.08-5.46.67-5.46-.59,0-.67-11.68-.67-18.06,0,6.38-.08,18.06-.67,18.06.59,0,.67,3.53.67,5.46Z"/>
    <path class="st3" d="M249.64,379.27h-16.97c2.52,0,3.28-2.6,3.28-5.46v-10.58c0-2.52-2.02-3.36-2.02-3.36,0,0,2.02-.84,2.02-3.36,0-16.8,1.18-24.61-2.02-24.61,5.38-1.09,10.42-3.95,12.43-7.22v31.84c0,2.52,2.02,3.36,2.02,3.36,0,0-2.02.84-2.02,3.36v10.58c0,2.86.76,5.46,3.28,5.46ZM241.16,370.03c0-3.78.08-10.16.67-10.16-.59,0-.67-12.18-.67-19.4,0,7.22-.08,19.4-.67,19.4.59,0,.67,6.38.67,10.16ZM270.22,356.51c0,2.52,2.02,3.36,2.02,3.36,0,0-2.02.84-2.02,3.36v4.12c0,2.6-.08,5.38,2.27,5.38-3.28,1.18-9.58,5.54-7.98,9.74-3.61-1.6-4.7-3.86-4.7-8.99v-10.25c0-2.52-2.02-3.36-2.02-3.36,0,0,2.02-.84,2.02-3.36v-1.09c0-5.12-3.36-7.73-6.3-7.73-2.44,0-4.7,1.76-4.7,5.29,0,2.52,1.85,4.7,5.21,4.2,4.7-.67,4.28,3.7.5,3.7-5.63,0-9.07-5.04-7.9-9.58.84-3.44,3.61-5.21,6.38-5.21,2.6,0,5.38,1.51,6.8,4.54v-20.16c0-2.94-.76-5.46-3.36-5.46v-.08h17.05v.08c-2.52,0-3.28,2.52-3.28,5.46v26.04ZM264.93,370.03c0-3.78.08-10.16.67-10.16-.59,0-.67-12.18-.67-19.4,0,7.22-.08,19.4-.67,19.4.59,0,.67,6.38.67,10.16Z"/>
    <path class="st3" d="M289.2,379.61c-18.98,0-16.88-27.55,2.86-48.89l-.08-.25c-.92-2.94-2.44-5.46-4.96-5.46v-.08h17.05v.08c-2.6,0-2.52,2.52-1.68,5.46l7.81,26.04c.76,2.52,3.02,3.36,3.02,3.36,0,0-1.76.84-1.01,3.36l3.19,10.58c.84,2.86,2.35,5.46,4.96,5.46h-17.05c2.52,0,2.52-2.6,1.68-5.46l-3.78-12.6c.25,1.43.25,3.11-.08,5.04-1.18,6.05-4.87,13.36-11.93,13.36ZM292.73,354.15c3.02,0,6.38,1.6,7.9,5.04l-8.23-27.22c-8.06,8.57-19.4,35.78,1.76,35.78,6.05,0,7.31-9.16,2.86-11.42-1.09-.59-2.02-.84-2.69-.84-3.02,0-3.28,3.95-5.54,3.95-1.6,0-2.27-1.6-1.26-3.02,1.09-1.51,3.11-2.27,5.21-2.27ZM310.2,372.72c-.5-2.18-3.95-12.85-3.19-12.85-.76,0-7.56-22.43-8.4-24.61.5,2.18,7.81,24.61,7.06,24.61.76,0,3.7,10.67,4.54,12.85Z"/>
    <path class="st3" d="M350.1,349.28c1.93-.84,3.95-1.43,5.71-1.43,3.02,0,5.21,1.85,4.96,7.31v1.34c0,2.52,2.02,3.36,2.02,3.36,0,0-2.02.84-2.02,3.36v4.12c0,2.6,0,5.38,2.35,5.38-3.28,1.18-9.58,5.54-8.06,9.74-5.29-1.68-4.7-7.31-4.7-15.12v-4.12c0-2.52-2.02-3.36-2.02-3.36,0,0,2.02-.84,2.02-3.36v-1.34c0-2.77-.92-3.78-2.27-3.78-.67,0-1.51.25-2.35.67-4.12,2.35-7.9,3.78-9.32,4.28v.17c0,2.52,2.27,3.36,2.27,3.36,0,0-2.02.84-2.02,3.36v10.58c0,2.86.76,5.46,3.28,5.46h-17.05c2.6,0,3.36-2.6,3.36-5.46v-10.58c0-2.52-2.1-3.36-2.1-3.36,0,0,2.1-.84,2.1-3.36v-18.56c0-3.53.25-6.05-2.02-6.05,5.38-1.09,10.16-3.95,12.18-7.22v7.39c5.12-5.29,10.25-7.39,14.53-7.39,5.54,0,9.49,3.53,9.49,7.98,0,7.22-4.96,12.77-10.33,16.63ZM331.46,372.47c.08-2.6.08-12.6.67-12.6-.5,0-.59-4.96-.5-19.91-.08,14.95-.17,19.91-.76,19.91.67,0,.67,10,.59,12.6ZM343.8,330.72c-2.6,0-5.12,1.34-7.39,3.36v20.58c7.39-2.94,13.94-8.99,13.94-17.47,0-4.12-2.6-6.47-6.55-6.47ZM355.56,369.44c0-3.95.08-9.58.67-9.58-.59,0-.67-4.12-.67-7.22,0,3.11-.08,7.22-.67,7.22.59,0,.67,5.63.67,9.58Z"/>
    <path class="st3" d="M378.83,379.61c-18.98,0-16.88-27.55,2.86-48.89l-.08-.25c-.92-2.94-2.44-5.46-4.96-5.46v-.08h17.05v.08c-2.6,0-2.52,2.52-1.68,5.46l7.81,26.04c.76,2.52,3.02,3.36,3.02,3.36,0,0-1.76.84-1.01,3.36l3.19,10.58c.84,2.86,2.35,5.46,4.96,5.46h-17.05c2.52,0,2.52-2.6,1.68-5.46l-3.78-12.6c.25,1.43.25,3.11-.08,5.04-1.18,6.05-4.87,13.36-11.93,13.36ZM382.36,354.15c3.02,0,6.38,1.6,7.9,5.04l-8.23-27.22c-8.06,8.57-19.4,35.78,1.76,35.78,6.05,0,7.31-9.16,2.86-11.42-1.09-.59-2.02-.84-2.69-.84-3.02,0-3.28,3.95-5.54,3.95-1.6,0-2.27-1.6-1.26-3.02,1.09-1.51,3.11-2.27,5.21-2.27ZM399.83,372.72c-.5-2.18-3.95-12.85-3.19-12.85-.76,0-7.56-22.43-8.4-24.61.5,2.18,7.81,24.61,7.06,24.61.76,0,3.7,10.67,4.54,12.85Z"/>
    <path class="st3" d="M432.84,373.47c4.87,0,9.91-3.36,11.93-7.39h1.51c-2.18,8.65-7.22,13.44-17.05,13.44-10.84,0-15.88-5.88-17.64-16.3-.5-2.44-2.44-3.36-2.44-3.36,2.18-1.34,1.68-5.46,1.68-7.64,0-17.14,5.21-27.38,19.49-27.38,18.65,0,16.88,18.48,16.88,23.1-1.09-.5-2.18-.76-3.28-.76-4.79,0-9.32,4.03-9.32,8.48,0,1.68.92,2.86,2.77,2.86,2.52,0,2.52-2.94,4.28-3.11,3.78-.42,2.52,6.3-3.44,6.3-3.02,0-5.63-1.85-5.63-5.21,0-6.72,5.46-8.32,5.46-16.8,0-6.8-3.61-12.6-7.73-12.6-8.48,0-8.57,25.28-8.57,29.65,0,2.35,2.18,3.11,2.18,3.11,0,0-1.93.92-1.43,3.36,1.6,7.48,5.88,10.25,10.33,10.25ZM416.97,365.33c0-1.93.08-5.46.67-5.46-.59,0-.67-11.68-.67-18.06,0,6.38-.08,18.06-.67,18.06.59,0,.67,3.53.67,5.46Z"/>
    <path class="st3" d="M495.76,339.79c-3.02-4.54-5.46-7.9-8.06-10.08-2.6-2.1-5.29-3.11-8.82-3.11v29.9c0,2.52,2.02,3.36,2.02,3.36,0,0-2.02.84-2.02,3.36v10.58c0,2.86.76,5.46,3.28,5.46h-17.05c2.6,0,3.36-2.6,3.36-5.46v-10.58c0-2.52-2.02-3.36-2.02-3.36,0,0,2.02-.84,2.02-3.36v-29.9c-3.61,0-6.3,1.01-8.9,3.11-2.6,2.18-5.04,5.54-8.06,10.08l2.27-14.78h39.82l2.18,14.78ZM473.67,370.03c0-3.78.08-10.16.67-10.16-.59,0-.67-13.94-.67-22.18,0,8.23-.08,22.18-.67,22.18.59,0,.67,6.38.67,10.16Z"/>
    <path class="st3" d="M521.54,377.67c8.4,0,16.13-8.57,17.72-17.81l-3.36,19.4h-37.63c2.52,0,3.28-2.6,3.28-5.46v-10.58c0-2.52-2.02-3.36-2.02-3.36,0,0,2.02-.84,2.02-3.36v-18.56c0-3.53.34-6.05-2.02-6.05,5.46-1.09,10.5-3.95,12.52-7.22v11.51l6.38-7.64c2.44-3.19,4.37-3.86,7.48-3.86s5.96,3.02,8.9,3.02c1.43,0,2.94-.67,4.45-2.69-2.02,5.38-5.88,14.45-10.67,14.45s-6.22-4.12-10.84-4.2c-1.76,0-3.7.67-5.71,2.77v12.68c1.6-3.11,4.79-4.62,7.9-4.62s6.22,1.68,7.14,5.21c1.09,4.54-2.27,9.58-7.98,9.58-3.78,0-4.2-4.37.5-3.7,3.44.5,5.21-1.68,5.21-4.2,0-3.7-2.77-5.71-5.8-5.71-3.36,0-6.97,2.6-6.97,8.15v1.09c0,2.52,2.02,3.36,2.02,3.36,0,0-2.02.84-2.02,3.36v14.45h9.49ZM506.68,340.46c0,7.22-.08,19.4-.67,19.4.59,0,.67,6.38.67,10.16,0-3.78.08-10.16.67-10.16-.59,0-.67-12.18-.67-19.4Z"/>
    <path class="st3" d="M569,349.28c1.93-.84,3.95-1.43,5.71-1.43,3.02,0,5.21,1.85,4.96,7.31v1.34c0,2.52,2.02,3.36,2.02,3.36,0,0-2.02.84-2.02,3.36v4.12c0,2.6,0,5.38,2.35,5.38-3.28,1.18-9.58,5.54-8.06,9.74-5.29-1.68-4.7-7.31-4.7-15.12v-4.12c0-2.52-2.02-3.36-2.02-3.36,0,0,2.02-.84,2.02-3.36v-1.34c0-2.77-.92-3.78-2.27-3.78-.67,0-1.51.25-2.35.67-4.12,2.35-7.9,3.78-9.32,4.28v.17c0,2.52,2.27,3.36,2.27,3.36,0,0-2.02.84-2.02,3.36v10.58c0,2.86.76,5.46,3.28,5.46h-17.05c2.6,0,3.36-2.6,3.36-5.46v-10.58c0-2.52-2.1-3.36-2.1-3.36,0,0,2.1-.84,2.1-3.36v-18.56c0-3.53.25-6.05-2.02-6.05,5.38-1.09,10.16-3.95,12.18-7.22v7.39c5.12-5.29,10.25-7.39,14.53-7.39,5.54,0,9.49,3.53,9.49,7.98,0,7.22-4.96,12.77-10.33,16.63ZM550.36,372.47c.08-2.6.08-12.6.67-12.6-.5,0-.59-4.96-.5-19.91-.08,14.95-.17,19.91-.76,19.91.67,0,.67,10,.59,12.6ZM562.7,330.72c-2.6,0-5.12,1.34-7.39,3.36v20.58c7.39-2.94,13.94-8.99,13.94-17.47,0-4.12-2.6-6.47-6.55-6.47ZM574.46,369.44c0-3.95.08-9.58.67-9.58-.59,0-.67-4.12-.67-7.22,0,3.11-.08,7.22-.67,7.22.59,0,.67,5.63.67,9.58Z"/>
  </g>
  <rect class="st2" x="71.96" y="201.68" width="628.11" height="196.24" rx="25.5" ry="25.5"/>
  <g>
    <path class="st4" d="M388.02,198.64c-5.54-3.58-9.88-8.71-14.82-13.08s-10.97-8.16-17.57-8.09c-11.24.12-19.53,11.01-30.47,13.58-4.02.94-8.22.71-12.33.31-5.99-.57-12.13-1.53-17.32-4.58s-9.29-8.62-8.99-14.64c.41-8.29,8.93-14.23,17.2-14.99-7.43,3.55-12.29,13.58-7.59,20.34,1.38,1.99,3.41,3.47,5.61,4.48,7.7,3.55,16.77,1.46,24.69-1.55s15.8-6.95,24.28-7.01c10.45-.07,20.66,6.43,25.02,15.92"/>
    <path class="st4" d="M389.29,196.48c-8.5-5.57-14.21-14.63-23.54-19.07-4.51-2.14-9.35-2.99-14.27-1.98-4.27.88-8.17,3.07-11.83,5.35s-7.21,4.8-11.18,6.53c-4.69,2.05-9.67,2.07-14.69,1.62-8.83-.77-20.11-2.69-23.93-11.98s5.6-16.49,13.86-17.31l-1.26-4.66c-6.03,2.97-10.68,9.59-10.68,16.42,0,8.61,7.84,13.7,15.64,14.7,8.67,1.11,17.01-2.17,24.89-5.34,7.43-2.98,15.46-6.13,23.57-4.31s14.33,6.96,17.68,14.14c.57,1.22,2.33,1.53,3.42.9,1.25-.73,1.47-2.19.9-3.42-2.98-6.37-8.44-11.59-14.85-14.45-7.36-3.28-15.12-3.28-22.79-1.03s-15.31,6.46-23.48,8.11c-3.73.76-7.67.96-11.37-.06-3.23-.88-6.61-2.74-7.99-5.96-1.13-2.61-.69-5.74.61-8.37,1.51-3.06,3.91-5.51,6.97-7.02,2.16-1.06,1.2-4.9-1.26-4.66-9.07.91-18.54,6.91-19.62,16.63-.55,4.97,1.66,9.83,4.95,13.45,3.6,3.96,8.62,6.31,13.75,7.58s11.2,1.99,16.72,1.89,10.22-1.67,14.88-4.27c7.24-4.05,14.87-11.3,23.84-9.78,5.64.96,10.4,4.55,14.5,8.34,4.58,4.24,8.8,8.87,14.05,12.32,2.7,1.77,5.21-2.56,2.52-4.32h0Z"/>
  </g>
  <g>
    <path class="st4" d="M394.77,197.14c5.54-3.58,9.88-8.71,14.82-13.08s10.97-8.16,17.57-8.09c11.24.12,19.53,11.01,30.47,13.58,4.02.94,8.22.71,12.33.31,5.99-.57,12.13-1.53,17.32-4.58s9.29-8.62,8.99-14.64c-.41-8.29-8.93-14.23-17.2-14.99,7.43,3.55,12.29,13.58,7.59,20.34-1.38,1.99-3.41,3.47-5.61,4.48-7.7,3.55-16.77,1.46-24.69-1.55-7.92-3.01-15.8-6.95-24.28-7.01-10.45-.07-20.66,6.43-25.02,15.92"/>
    <path class="st4" d="M396.03,199.3c4.65-3.04,8.5-7.01,12.49-10.84,3.62-3.48,7.58-6.98,12.35-8.78,4.4-1.66,8.79-1.48,13.12.31s7.82,4.42,11.61,6.76,8.17,4.71,12.78,5.49c5.86.99,12.01.29,17.84-.66,5.26-.86,10.53-2.52,14.79-5.83,3.86-2.99,6.9-7.31,7.61-12.22,1.66-11.43-9.25-19.36-19.52-20.38-2.46-.25-3.42,3.6-1.26,4.66,4.86,2.39,8.99,8.08,8.12,13.45-1.23,7.55-10.87,9.07-17.14,8.4-8.18-.88-15.61-4.95-23.28-7.61s-15.36-3.69-22.94-1.05-14.23,8.23-17.67,15.58c-.57,1.22-.34,2.7.9,3.42,1.08.63,2.85.33,3.42-.9,2.94-6.29,8.43-11.21,15.03-13.4,7.85-2.61,15.62-.54,23.09,2.33,8.04,3.09,16.06,6.87,24.87,6.8,7.65-.06,17.03-3.82,18.54-12.24,1.39-7.72-3.55-15.72-10.42-19.1l-1.26,4.66c7.14.71,15.62,6.3,14.65,14.38-.49,4.09-3.4,7.75-6.75,9.98-4.13,2.75-9.15,3.9-14.01,4.52-5.21.66-10.77,1.28-15.88-.22-4.04-1.19-7.63-3.51-11.15-5.75-3.72-2.37-7.44-4.77-11.61-6.27-4.39-1.58-9.18-1.74-13.64-.33-11.37,3.59-17.61,14.25-27.18,20.53-2.68,1.76-.18,6.09,2.52,4.32h0Z"/>
  </g>
  <rect class="st0" x="377.55" y="174.51" width="26.32" height="26.32" transform="translate(-18.26 331.24) rotate(-45)"/>
</svg>