<?xml version="1.0" encoding="UTF-8"?>
<svg id="Layer_1" xmlns="http://www.w3.org/2000/svg" version="1.1" viewBox="0 0 792 612">
  <!-- Generator: Adobe Illustrator 29.6.1, SVG Export Plug-In . SVG Version: 2.1.1 Build 9)  -->
  <defs>
    <style>
      .st0 {
        fill: #fcb017;
        font-family: VastrexDemo-Regular, Vastrex-Demo;
        font-size: 84px;
      }

      .st0, .st1, .st2, .st3 {
        stroke-miterlimit: 10;
      }

      .st0, .st3 {
        stroke: #fed194;
      }

      .st1, .st2 {
        stroke: #ffd194;
      }

      .st1, .st4 {
        fill: #fbb019;
      }

      .st2 {
        fill: #a8362a;
        stroke-width: 8px;
      }

      .st3 {
        fill: none;
      }
    </style>
  </defs>
  <rect class="st2" x="53.76" y="188.08" width="667.97" height="222.66" rx="40.79" ry="40.79"/>
  <text class="st0" transform="translate(160.1 278.47)"><tspan x="0" y="0">CHOOSE YOUR </tspan><tspan x="29.82" y="100.8">CHARACTER</tspan></text>
  <rect class="st3" x="71.96" y="201.68" width="628.11" height="196.24" rx="25.5" ry="25.5"/>
  <g>
    <path class="st4" d="M388.02,198.64c-5.54-3.58-9.88-8.71-14.82-13.08s-10.97-8.16-17.57-8.09c-11.24.12-19.53,11.01-30.47,13.58-4.02.94-8.22.71-12.33.31-5.99-.57-12.13-1.53-17.32-4.58s-9.29-8.62-8.99-14.64c.41-8.29,8.93-14.23,17.2-14.99-7.43,3.55-12.29,13.58-7.59,20.34,1.38,1.99,3.41,3.47,5.61,4.48,7.7,3.55,16.77,1.46,24.69-1.55s15.8-6.95,24.28-7.01c10.45-.07,20.66,6.43,25.02,15.92"/>
    <path class="st4" d="M389.29,196.48c-8.5-5.57-14.21-14.63-23.54-19.07-4.51-2.14-9.35-2.99-14.27-1.98-4.27.88-8.17,3.07-11.83,5.35s-7.21,4.8-11.18,6.53c-4.69,2.05-9.67,2.07-14.69,1.62-8.83-.77-20.11-2.69-23.93-11.98s5.6-16.49,13.86-17.31l-1.26-4.66c-6.03,2.97-10.68,9.59-10.68,16.42,0,8.61,7.84,13.7,15.64,14.7,8.67,1.11,17.01-2.17,24.89-5.34,7.43-2.98,15.46-6.13,23.57-4.31s14.33,6.96,17.68,14.14c.57,1.22,2.33,1.53,3.42.9,1.25-.73,1.47-2.19.9-3.42-2.98-6.37-8.44-11.59-14.85-14.45-7.36-3.28-15.12-3.28-22.79-1.03s-15.31,6.46-23.48,8.11c-3.73.76-7.67.96-11.37-.06-3.23-.88-6.61-2.74-7.99-5.96-1.13-2.61-.69-5.74.61-8.37,1.51-3.06,3.91-5.51,6.97-7.02,2.16-1.06,1.2-4.9-1.26-4.66-9.07.91-18.54,6.91-19.62,16.63-.55,4.97,1.66,9.83,4.95,13.45,3.6,3.96,8.62,6.31,13.75,7.58s11.2,1.99,16.72,1.89,10.22-1.67,14.88-4.27c7.24-4.05,14.87-11.3,23.84-9.78,5.64.96,10.4,4.55,14.5,8.34,4.58,4.24,8.8,8.87,14.05,12.32,2.7,1.77,5.21-2.56,2.52-4.32h0Z"/>
  </g>
  <g>
    <path class="st4" d="M394.77,197.14c5.54-3.58,9.88-8.71,14.82-13.08s10.97-8.16,17.57-8.09c11.24.12,19.53,11.01,30.47,13.58,4.02.94,8.22.71,12.33.31,5.99-.57,12.13-1.53,17.32-4.58,5.19-3.05,9.29-8.62,8.99-14.64-.41-8.29-8.93-14.23-17.2-14.99,7.43,3.55,12.29,13.58,7.59,20.34-1.38,1.99-3.41,3.47-5.61,4.48-7.7,3.55-16.77,1.46-24.69-1.55-7.92-3.01-15.8-6.95-24.28-7.01-10.45-.07-20.66,6.43-25.02,15.92"/>
    <path class="st4" d="M396.03,199.3c4.65-3.04,8.5-7.01,12.49-10.84,3.62-3.48,7.58-6.98,12.35-8.78,4.4-1.66,8.79-1.48,13.12.31s7.82,4.42,11.61,6.76,8.17,4.71,12.78,5.49c5.86.99,12.01.29,17.84-.66,5.26-.86,10.53-2.52,14.79-5.83,3.86-2.99,6.9-7.31,7.61-12.22,1.66-11.43-9.25-19.36-19.52-20.38-2.46-.25-3.42,3.6-1.26,4.66,4.86,2.39,8.99,8.08,8.12,13.45-1.23,7.55-10.87,9.07-17.14,8.4-8.18-.88-15.61-4.95-23.28-7.61s-15.36-3.69-22.94-1.05-14.23,8.23-17.67,15.58c-.57,1.22-.34,2.7.9,3.42,1.08.63,2.85.33,3.42-.9,2.94-6.29,8.43-11.21,15.03-13.4,7.85-2.61,15.62-.54,23.09,2.33,8.04,3.09,16.06,6.87,24.87,6.8,7.65-.06,17.03-3.82,18.54-12.24,1.39-7.72-3.55-15.72-10.42-19.1l-1.26,4.66c7.14.71,15.62,6.3,14.65,14.38-.49,4.09-3.4,7.75-6.75,9.98-4.13,2.75-9.15,3.9-14.01,4.52-5.21.66-10.77,1.28-15.88-.22-4.04-1.19-7.63-3.51-11.15-5.75-3.72-2.37-7.44-4.77-11.61-6.27-4.39-1.58-9.18-1.74-13.64-.33-11.37,3.59-17.61,14.25-27.18,20.53-2.68,1.76-.18,6.09,2.52,4.32h0Z"/>
  </g>
  <rect class="st1" x="377.55" y="174.51" width="26.32" height="26.32" transform="translate(-18.26 331.24) rotate(-45)"/>
</svg>