<?xml version="1.0" encoding="UTF-8"?>
<svg id="Layer_1" xmlns="http://www.w3.org/2000/svg" version="1.1" viewBox="0 0 1287.27 894.55">
  <!-- Generator: Adobe Illustrator 29.6.1, SVG Export Plug-In . SVG Version: 2.1.1 Build 9)  -->
  <defs>
    <style>
      .st0 {
        fill: #12110f;
      }

      .st1 {
        fill: #161513;
      }

      .st2 {
        fill: #494842;
      }

      .st3 {
        fill: #827e70;
      }

      .st4 {
        fill: #48463e;
      }

      .st5 {
        fill: #7e7b6d;
      }

      .st6 {
        fill: #56544c;
      }

      .st7 {
        fill: #2b1b00;
      }

      .st8 {
        fill: #160707;
      }

      .st9 {
        fill: #0d0d0b;
      }

      .st10 {
        fill: #1e1d1a;
      }

      .st11 {
        fill: #1b1b18;
      }

      .st12 {
        fill: #340000;
      }

      .st13 {
        fill: #380000;
      }

      .st14 {
        fill: #545248;
      }

      .st15 {
        fill: #24231f;
      }

      .st16 {
        fill: #090807;
      }

      .st17 {
        fill: #181714;
      }

      .st18 {
        fill: #4f4e46;
      }

      .st19 {
        fill: #171717;
      }

      .st20 {
        fill: #9f0a00;
      }

      .st21 {
        fill: #0a0a09;
      }

      .st22 {
        fill: #888576;
      }

      .st23 {
        fill: #7c796b;
      }

      .st24 {
        fill: #100f0e;
      }

      .st25 {
        fill: #5e5b51;
      }

      .st26 {
        fill: #0f0f0d;
      }

      .st27 {
        fill: #200707;
      }

      .st28 {
        fill: #141411;
      }

      .st29 {
        fill: #191815;
      }

      .st30 {
        fill: #d6d0b9;
      }

      .st31 {
        fill: #1f1305;
      }

      .st32 {
        fill: #2a2924;
      }

      .st33 {
        fill: #131311;
      }

      .st34 {
        fill: #69665b;
      }

      .st35 {
        fill: #fea408;
      }

      .st36 {
        fill: #696969;
      }

      .st37 {
        fill: #817e70;
      }

      .st38 {
        fill: #1c1b18;
      }

      .st39 {
        fill: #2e2e2d;
      }

      .st40 {
        fill: #0b0b09;
      }

      .st41 {
        fill: #cdc7b1;
      }

      .st42 {
        fill: #1b1a17;
      }

      .st43 {
        fill: #1d1c19;
      }

      .st44 {
        fill: #646156;
      }

      .st45 {
        fill: #141311;
      }

      .st46 {
        fill: #131210;
      }

      .st47 {
        fill: #181715;
      }

      .st48 {
        fill: #11110f;
      }

      .st49 {
        fill: #2b0d00;
      }

      .st50 {
        fill: #252420;
      }

      .st51 {
        fill: #3c0000;
      }

      .st52 {
        fill: #0c0c0b;
      }

      .st53 {
        fill: #1a1a17;
      }

      .st54 {
        fill: #2f0000;
      }

      .st55 {
        fill: #2e2e2e;
      }

      .st56 {
        fill: #151412;
      }

      .st57 {
        fill: #181815;
      }

      .st58 {
        fill: #fefefe;
      }

      .st59 {
        fill: #3f0000;
      }

      .st60 {
        fill: #858173;
      }

      .st61 {
        fill: #141412;
      }

      .st62 {
        fill: #d5cfb8;
      }

      .st63 {
        fill: #6b6b6b;
      }

      .st64 {
        fill: #d3cdb6;
      }

      .st65 {
        fill: #300000;
      }

      .st66 {
        fill: #868374;
      }

      .st67 {
        fill: #1f1e1b;
      }

      .st68 {
        fill: #fa0000;
      }

      .st69 {
        fill: #53514a;
      }

      .st70 {
        fill: #6a6a6a;
      }

      .st71 {
        fill: #5f5d53;
      }

      .st72 {
        fill: #100f0d;
      }

      .st73 {
        fill: #181818;
      }

      .st74 {
        fill: #d7d1b9;
      }

      .st75 {
        fill: #090908;
      }

      .st76 {
        fill: #320000;
      }
    </style>
  </defs>
  <path class="st70" d="M0,.55l.17-.27,1286.82.13c.17,225.37.08,450.73-.27,676.09-.38,1.7-3.8,1.5-4.36,0l-.89-.12c-2.66-6.34-6.97-11.51-12.95-15.5-2.29-2.38-3.59-5.36-3.89-8.94l-4.61-8.89c-.46-9.16-4.79-17.4-10.08-24.76-2.57-.88-2.71-.96-3.66-3.44-1.64-10.88-6.92-21.48-13.45-30.84l-2.47-6.11c-3.36-7.13-7.16-13.76-11.39-19.88-6.58-28.43-16.82-56.78-27.94-84.35-6.01-20.71-16.62-38.94-28.84-57.14-9.41-12.34-16.22-24.7-21.05-38.93-6.8-12.4-14.29-24.47-22.46-36.2-13.15-28.99-31.3-56.07-50.17-82.03-2.87-3.94-6.08-7.61-9.57-10.98-11.22-8.89-21.29-18.85-30.2-29.89-18.36-18.79-37.4-37.3-56.57-55.13-8.68-8.08-17.72-14.7-27.36-21.5-11.78-8.31-24.4-17.09-36.63-24.73-13.15-8.22-23.44-13.11-38.44-17.42-30.77-8.84-61.12-16.52-93.36-19.4-35.89-5.55-71.67-11-107.33-16.34-19.74-.14-39.59-.35-59.47-1.13-41.52.38-82.6,5.5-123.14,15.33-24.91,6.04-49.81,12.81-74.5,19.62-4.8,1.33-9.32,3.48-13.52,6.09-16.16,11.26-32.92,22.06-50.28,32.38-11.78,9.53-24.43,17.18-37.97,22.95-12.3,8.58-23.74,18.62-34.3,30.12-32.79,26.87-63.33,56.5-90.27,89.35-52.16,63.61-103.16,130.8-140.23,204.4-11.43,22.69-22.42,45.85-29.22,69.51-2.43,6.87-5.94,13.51-12.67,16.59l.28,1.79c-1.99,9.29.6,15.95,7.22,22.34,1.63,2.14,3.22,4.28,2.12,6.85,2.67-.75,1.49,3.41-.79,1.91-2.96-3.45-6.81-6.16-11.28-7.17l-1.02-1.29C-.02,395.95.02,198.23,0,.55Z"/>
  <path class="st55" d="M921.43,642.7c1.29-2.15,2.4-4.48,3.32-6.99,15.62,0,31.22-.07,46.8-.22,65.91-4.49,133.84-8.57,199.44-11.3l1.24,1.06c.44,3.38.43,7.47,0,10.9.15-.48.34-.47.55,0-.45-3.21-.42-7.31,0-10.63-1.73-.78,1.55-4.9,2.63-6.16,7.03-8.19,21.07-11.01,31.48-9.9,6.57.7,15.12,6.91,19.46,11.77l.69-.71c3.6.17,7.22.5,10.84.99-2.04-5.71-4.34-11.35-6.88-16.91-2.12-12.39-5.26-24.37-9.42-35.95-.79-1.62-.9-6.81,1.37-5.24,3.8,7.12,7.25,14.34,10.34,21.67,7.23,9.02,11.25,20.37,13.61,31.49,5.08,2.53,8.34,9.51,10.49,14.84,1.67,4.14,2.1,7.09,2.61,11.5l4.65,9.01c.29,3.7,1.65,6.74,4.07,9.12,5.51,4.42,10.55,8.49,12.87,15.55l.79-.11c.47-.28,3.43.2,4.36,0,.4.73.4,1.47,0,2.18l-1.33,1.07c-8.73.97-23.57,2.65-27.85,11.52-3.2,6.63-1.95,15.23-.77,22.19,1.22.21,1.75.79,1.59,1.74l.28.93c-2.08,7.25-4.36,14.47-6.83,21.66.2,1.6,6.42,3.36,8.48,3.36.62,1.33,2.66,1.68,3.79.8,1.9.64,3.81,1.35,5.73,2.14,1.71-.89,2.78-.64,3.23.74,2.27.44,6.5,2.69,6.03,5.08-.12.62-3.02,3.36-2.71.72l-1.15-.06c-8.61-5.44-25.47-2.56-29.67,7.61l-1.35.63-.45,5.63-.64.37c-1.4.25-2.92-.37-4.55-1.86-1.81-.52-3.02-1.35-3.63-2.5l-.95-.51.4-4.94c-.46-.05-1.07-.27-1.07-.64.02-4.19.39-11.97,5.89-11.83l10.62-.88c-2.98-1.46-1.66-4.86-.65-7.27,2.7-4.21,4.08-8.49,4.12-12.84-2.6-4.18-7.53-6.79-11.88-8.84l-.49-1.31c-.53-.96.38-1.15,2.73-.55l.73-1.25c13.88-4-.14-21.32-9.14-22.58-5.98-.84-14.76,1.32-18.11,6.72l-1.28.21-.31,3.93c1.36,2.39.91,3.08-1.32,2.07-.99,1.21-1.51,1.03-1.64-.55-2.42-.55-3.81-1.36-.55-1.64-.26-.05-.5-.13-.69-.27-.73-.51.06-17.08,4.9-15.3l11.37-1.03c15.9-2.74,2.47-24.31-6.34-25.85-.82-.14-16,1.02-16.62,1.57-.57.5-1.64,5.42-1.34,6.53l.61.97c-.81,2.57.21,4.55,2.12,6.12,0,2-2.31,1.64-3.74,1.01l-.7,5.76c-.33,2.58-2.37,3.18-4.43,1.87-.4.58-4.29,12.66-4.28,13.36,0,.32,5.78,2.17,6.09,2.1.53-2.26,3.26-6.84,4.69-3.01-3.09,5.98.81,4.74,2.73.41,4.88-6.04,3.71,4.23-.37,5.2,2.08.32,6.65,1.08,2.18,1.64-.69,1.42-1.52,1.42-2.18,0-2.72.58-3.75.25-3.08-.98l-4.01-.65c-.61.93-1.66.98-3.14.16-.78,1.18-2.4,2.59-3.87,2.61-7.22.1-1.36-12.13.18-15.34,3.72-8.66-5.24-8.88-11.36-7.99-14.5,2.11-17.91,8.69-14.66,22.21,2,.74,2.23,2.82.7,6.21l-3.33,10.3,6.03,2.29c1.54-6.39,6.91-5.97,3.2.51.83.52,1.86.33,2.45-.41,3.68-7.22,7.59-5.49,3.01,1.52l3.47,1.39.35-8.11c.15-2.51,1.18-8.74,4.43-6.64,1.46-.6,1.34-.05.55,1.09l.21,1.38c-2.54,1.5-1.07,16.91-.39,17.73,1.12.01,1.69.6,2.07,1.61s-4.37,15.17-5.47,16.88c1.96.6,3.33,1.52,4.13,2.74.65.26,1.1.14,1.38-.64,1.2,1.87,2.33,2.23,3.38,1.1,1.05.42,2,.99,2.87,1.73.33-1,.75-1.01,1.09,0,1.6-.88,2.61-.55,3.04.99,2.63.71,6.28,1.87,3.51,4.46l.99,1.04c-.67,3.32-1.76,6.52-3.27,9.58l5.06,1.97c.21-2.32,1.58-5.18,3.49-2.34.33.11,6.32-2.25,6.58-2.49.45-.43,1.26-4.55,1.32-5.57-.26-.15-.25-.33,0-.55l1.14-.85c1.04,1.1,2.19,1.64,3.78.52.04,2.4,4.58,1.94,5.72.58.11,1.69,1.23,2.41,3.06,2.76l-.16,1.47c-4.25,1.45-8.59,2.68-13,3.71l-.51,1.27c-12.4,2.74-12.73,11.8-10.55,22.27,1.13.21,1.84.59,2.28,1.73.29.75-3.95,12.98-4.65,14.67l-1.29.4c-.11,1.44,1.34,2.53,4.36,3.27.18-.47.36-.47.55,0,.97-1.09,1.26-.86,1.09.55,1.12.59,2.28.62,3.49.1,1.06,1.51,4.94,2.07,5.23-.65-1.35-.69.34-3.32,1.15-3.94,4.59-3.49,2.87,3.47.54,5.7l3.79,1.56.83-8.82c-.11-6.57,3.85-9.36,11.87-8.36l7.59-1.54,1.49.68c.82-.35.85-.88.11-1.58-.02-.9.67-.95,1.53-.6.84.36,1.5.26,1.98-.29.86,1.16,2.33,2.45,3.1.82.76.33,1.61.7,2.55,1.11.14-.79.67-.98,1.57-.57,1.03-2.08,5.08-9.41,6.29-4.53l-2.47,5.35,3.17,1.32c.42-4.08.98-8.21,1.68-12.4.43-2.96,2.24-4.3,5.17-4.4,5.56.49,10.8-.38,15.73-2.61l1.58.41c.43,11.62.42,23.26,0,34.89-1.06,12.4-2.8,24.71-5.22,36.93-.13,8.39-.52,15.73-2.88,23.67-2.95,9.92-4.75,11.58-13.99,17.07-5.41,3.21-10.97,5.85-17.17,6.28h-253.53c-75.5-1.36-152.44-2.69-230.83-4.01-58.03,2.09-116.38-.35-175.07-3.33l-41.62-1.07c-77.4-.09-154.8-.56-232.19-1.39-39.26-4.07-78.64-6.27-118.15-6.6-22.18-2.08-44.2-2.87-66.04-2.38-33.34-1.72-56.36-15.16-68.7-46.83-8.89-22.83-17.89-47.57-24.23-71.71-2.7-16.65-6.34-32.48-10.94-47.48-1.66-1.5-.35-1.65,3.93-.45l3.7.45c.14-1.32,4.69-1.38,5.9-1.11,4.05.89,4.94,1.46,5.49,5.76l1.17,11.34,3.74-1.69c-2.33-2.23-4.05-9.19.54-5.7.81.62,2.5,3.25,1.15,3.94.71,3.27,4.24,1.62,5.93.28.74.98,1.81.62,2.79.27-.18-1.44-.07-1.5,1.09-.55.12-.49.3-.48.55,0,3.2-.77,4.66-1.86,4.36-3.27l-1.46-.99-3.13-10.23c-.96-1.5-2.54-4.37.23-4.04,1.88-.02,2.74-1.64,2.57-4.86-.02-3.22.4-6.15,1.25-8.77,2.33-.91,8.38-1.02,10.33.76,1.47,3.69,2.17,7.66,2.1,11.93l2.38-.8c-4.21-7.59.16-6.02,3.72-1.06l.52-.02c-.9-4.57,1.76-5.49,3.17-.66l4.42-1.75c-1.07-3.81-2.22-7.65-3.45-11.54,10.07-16.06-9.6-25.07-21.55-17.57.56,1.02.59,1.79-.55,1.09-1.55.13-1.75-.72-.55-1.64-1.51-2.11-.33-3.59,3.53-4.45.07-1.49,1.07-1.82,3.01-1-.15-1.07.32-1.3,1.09-.55,1.69-.93,2.97-1.06,3.83-.37,1.38-1,2.64-1.42,3.8-1.26.16-1.22,1.52-2.12,4.08-2.72-2.02-3.62-3.23-7.39-3.63-11.31-2.49-3.74-2.38-6.22.32-7.45.97-1.29,1.76-15.75-.63-17.57l.4-1.29c-.87-1.07-.69-1.43.55-1.09,3.16-1.86,4.2,3.56,4.36,6.04l.53,8.69,3.37-1.43-2.54-5.16c.91-1.98,2.58-.94,3.59.63,1.7,4.12,6.12,6.08,2.89,0,.99-4.29,4.35.55,4.7,2.97l6.03-2.29c-1.94-5.03-3.38-10.16-4.31-15.38,1.3-.71,1.98-1.55,2.04-2.51,1.71-9.49,1.03-16.64-9.43-19.76l-.32-1.23c1-.79,2.21-1.49,3.63-2.09,5.09.71,10.18,1.43,15.27,2.16.94,5.15,1.36,6.22,1.28,3.2,1.41.24,2.09,1.48,2.05,3.72-.54,3.33.62,3.98,3.49,1.95-4.71-6.93-.79-8.75,2.91-1.57,3.44,2.38,2.24-.59,1.02-2.97,1.04-4.52,4.17.9,4.9,2.77l6.39-2,1.04.82.51.19c-.48-2.33.12-3.64,1.81-3.94,52.39-1.74,105.48,6.05,157.43,14.82,8.43,1.21,16.89,2.22,25.39,2.92,2.15-.28,3.44.32,3.35,2.17l-10.37,12.96c-5.25,6.57-5.88,8.75-1.89,6.54,9.41-6.77,19.37-12.8,30.69-17.18,1.04-.4,21.1,2.02,21.99,2.69.48.36.93.74,1.28,1.24-14.86,14.86-26.62,31.36-36.05,49.95-.68,1.35-4.18,9.24-.95,7.54,24.14-20.74,52.88-36.5,81.18-51.44,1.65-.87,6.03-2.62,5.96.5-9.66,12.65-14.36,29.34-15.36,45.09-4.53,13.89-.07,29.22,4.48,42.74,3.19,9.48,5.06,14.29,14.33,18,5.86,6.14,12.67,9.06,20.45,11.85,12.1,3.78,24.25,7.32,36.43,10.64,12.38,1.43,25.3,2.41,37.84,2.32,17.87-.12,33.08-3.92,49.9-10.01,20.3-5.64,42.99-2.94,62.86,2.33,12.3,6.36,24,8.93,37.79,9.9,16.81,1.19,34.08,1.68,51.07,2.07,6.02.14,25.59-.02,30.17-4.28,8.68-8.9,16.76-18.33,23.79-28.25,1.96-2.48,2.2-3.71.72-3.67-11.81,3.29-23.72,6.76-35.24,11.16-17.09,9.45-34.45,8.69-53.24,5.62-17.48.98-33.35-2.96-49.44-9.58-19.3-5.31-37.96-10.06-58.54-10.49s-39.33,2-58.48,4.6c-7.3,1.58-13.54-.32-20.02-3.09-9.92-1.22-23.65-7.39-24.41-18.89-.05-.78-.08-4.29.25-4.58.17-.15.47-.16.8-.14,6.12,7.68,13.59,7.34,22.94,6.44,29.36-5.73,60.21-4.82,89.85-2.16,17.62,4.29,37.72,3.55,54.82-2.16,6.55-4.77,3.12,2-.51,4.56l11.72.1c2.56-.9,4.99-1.35,7.28-1.35,2.43,3.74,6.93,4.03,11.13,2.69,7.76-3.4,15.55-5.1,23.34-5.08,7.12,4.41,16.5,3.39,24.08.46l4.81-.33c2.89-1.16,3.48-1.36,6.05.97l3.71,1.88c10.73,9.01,27.01,8.87,39.51,3.76,17.26-8.55,36.1-11.52,54.92-12.03,15.37,7.91,34.08,16.01,51.63,11.85,4.6.84,9.24,1.12,13.9.86,1.87-.34.9-1.8,0-2.86-7.37-7.57,3.34-4.13,7.37-2.08,7.36,1.86,8.43-.58,2.96-6.02-.27-1.14.69-1.41,2.87-.82l8.25.35c.98-.78.45-2.05-1.57-3.81-.41-.68-.21-1.08.59-1.2.96.62,9.6,5.48,9.99,4.04-2.28-4.15-.25-4.9,6.1-2.25,1.89.43,2.54.16,1.97-.84-4.26-7.42,7.08-2.64,10.03.11.15-16.94-20.73-26.68-35.73-25l.24-1.65c3.96-1.71,19.89-12.35,18.64-16.57-.02-.08-.15-.12-.31-.16-.9.31-4.43,1.42-4.72.17-.13-.56,2.57-5.87,3.32-6.71-1.43-.08-1.36-.62,0-1.09Z"/>
  <path class="st63" d="M26.18,709.75c.71.29,1.4.11,1.9,1.1.69,3.81,2.07,7.46,2.97,11.21,4.14,17.11,5.91,33.82,11.33,50.81,4.43,13.86,9.93,27.58,14.88,41.27,5.71,15.79,8.82,28.96,21.79,40.9,27.86,25.64,55.74,18.51,90.26,19.87,9.42.37,18.87,1.89,28.31,2.23,39.05,1.38,77.87,1.41,116.68,6.54,79.87,1.97,159.78.09,239.37,1.5,43.98.78,87.87,3.47,131.92,5.04,26.77.95,53.54-1.22,80.19-.72,65.89,1.24,131.92,2.15,197.87,3.99,7.62.21,15.33-.38,22.94-.04,2.13.09,5.27.57,7.34,1.11H0v-199.51c2.31-3.11,3.88,2.56,3.87,5.01l.7,9.86c.39,1.08.82,1.71,1.99,1.08,4.53-2.45,14.94-5.62,19.32-2.13.2.16.26.5.29.89Z"/>
  <path class="st58" d="M0,.55v-.55h1287.27v894.55h-.55c-1.36-27.98-1.34-55.97,0-83.95,0-11.62.01-23.27,0-34.89-1.07-1.62-1.07-3.29,0-4.91-1.06-.5-1.06-1.14,0-1.64-1.59-8.82-1.55-17.89,0-26.71-.81-2.57-1.27-5.2-1.38-7.9-2.51-1.5-.52-8.38,1.38-10.09-.25-.45-.47-.91-.63-1.39s-.28-.92-.28-1.38c.02-13.86.09-27.86.18-41.65l.73-1.38c0-.73,0-1.45,0-2.18.62-225.3-.47-450.65,0-675.95H0Z"/>
  <path class="st74" d="M25.09,672.14c.57,3.26.5,6.7.08,9.96,1.21,1.36-.27,5.12-2.16,5.46.98,5.37,2.84,10.65,4.85,15.9-.19,1.02-4.87,3.36-5.5,1.93-1.11.01-2.2.38-3.27,1.09-.29,1.06-.78,1.05-1.09,0-.62-.27-1.53-.09-2.73.55.61,1.42-1.8,1.57-2.99,1.19-1.16.74-6.17,3.48-7.22,2.76-.44-5.52-1.29-10.91-2.55-16.16-1.31-.48-2.15-1.14-2.5-1.96v-32.16l.91-1.1c7.95.17,16.61,1.05,22.27,7.23,1.05,1.15,3.43,4.27,1.9,5.31Z"/>
  <path class="st39" d="M13.09,600.18c.33-.89.26-1.64.14-2.61,2.62-1.48,5.79-2.14,4.61,1.94l2.33.09c2.96-5.35,6.16-10.6,9.62-15.78.72-3.66,2.11-4.67,4.19-3.05-1.62,3.46-3.21,9.73.38,11.77,1.03-.24,2.15.14,3.36,1.16,5.92,1.31,11.91,2.37,17.95,3.18,1.15,1.01,3.14,12.8,2.61,14.12l-1.02.62c5.26.33-3.83,2.86-3.96,2.46-.07-.23.01-.52.15-.82l-.86-1.06c1.69-9.75-14.62-13.47-21.36-10.44-8.01,3.6-19.39,17.63-6.21,21.76l.62,1.19c2.05-.58,2.96-.39,2.73.55l.04.75c-5,2.25-9.14,5.39-12.4,9.4.04,4.35,1.42,8.63,4.12,12.84,1,2.38,2.24,5.58-.47,7.3l10.75.89c2.7.21,3.22.99,4.39,3.18.8,1.51,1.72,8.2.12,9.25.55,1.58.47,4.52-.55,5.45-.62,1.15-1.83,1.98-3.63,2.5-1.63,1.5-3.14,2.12-4.55,1.86l-.53.54c-.11-2.33-.3-4.69-.56-7.08-.16-.86-2.06-3.77-2.74-4.62-4.63-5.79-15.39-6.92-22.34-6.83v-2.73c2.52-1.42,5-2.09,7.84-2.01,1.08-1.13,1.83-1.42,2.25-.87l7.36-2.52c-.93.6-.94.22-.03-1.14-2.54-7.14-4.8-14.35-6.79-21.6l.27-.76c-.15-.92.39-1.52,1.62-1.79,1.13-1.79,1.39-15.36,1.01-17.75-.99-6.22-7.04-11.15-12.99-12.54l-.55-1.18v-2.18c5.62,1.07,9.67,3.92,13.36,8.17.76-.23-.31-1.44-.28-1.63Z"/>
  <path class="st63" d="M1286.73,894.55h-39.26c1.28-.81,2.85-.77,4.36-1.36,6.82-2.69,20.65-9.21,23.87-15.93.76-1.59,3.46-12.37,3.89-14.65.87-4.63.27-8.97.67-13.51.58-6.67,2.57-14.76,3.62-21.46.89-5.68,1.33-11.48,2.85-17.04.01,27.97-.01,55.98,0,83.95Z"/>
  <path class="st74" d="M10.91,629.07l-.13,2.02c2.37,7.09,4.61,14.28,6.7,21.46l-10,3.51c-1.74.63-2.79.47-3.15-.48.1,1.51-3.39,2.1-4.33,1.29v-37.07l.31-1.11c3.02-2.33,2.92-5.78-.31-10.33v-12.54c5.76.61,12.94,6.44,14.35,12.09.67,2.69.54,7.17.4,10.01-.1,1.93-.67,8.2-1.2,9.7-.41,1.15-1.97.91-2.64,1.45Z"/>
  <path class="st2" d="M63.25,611.08c1.04.26,2.31.26,3.82,0,2.43.78,5.06,1.38,7.88,1.79,3.01,1.2,8.16,3.37,7.93,6.93l-.55,1.09-1.28.19c-12.36-10.04-27.79-9.55-38.29,2.66,12.63,2.98,16.57,9.57,14.1,22.33,4.34.79,6.56,3,6.96,7.66l1.08,10.76c.07.29,5.64-.69,3.66-2.67l.69-1.14c-.72-.77-.42-1.05.55-.55,1.55-.34,2.94,1.91,3.27,3.27-1.35.51-2.01.03-2.11.09-.14.09-.14,1-.99,1.43-.55.28-2.83.53-2.9.66,1.45,2-1.02,1.18-.54,3.27-3.96,1.73-5.83-.44-5.6-6.5l.15-1.13c-2.02.25-2.23-2.07-.51-2.97-.84-.86-1.04-1.69-.58-2.48.68-8.07-6.94-6.64-3.82.55,1.45.47,1.86,4.06.55,4.91,1.35,1.82,2.51,3.89,3.48,6.21,4.45,3.08-3.32,6.86-5.29,3.81-3.19-.35-2.42,4.12-1.2,5.39.23.25,6.04,2.41,6.37,2.35,2.26-2.31,3.2.17,3.97,2.31l4.5-1.5c-1.04-2.85-1.88-5.72-2.52-8.6l1.05-.7c.55-.14.48-.64.55-1.09,1.58-.45,2.28.82,2.09,3.81,3.11,5.53,6.04,16.58-4.37,11.02,1.93,2.9,2.14,4.86.64,5.89-.13,3.73-.81,9-1.65,12.8-.35,1.58-.98.63-2.17.82-.5-.86-.2-1.52.76-1.42,2.11-13.95.88-19.61-13.5-23.24-8.83-2.23-25.77,2.31-23.26,13.74l3.03,8.88c1.25,3.45.99,4.84-3.11,5.06l7.29,1.8.43,1.17c-2.14.24-4.14-.25-6.22-.6-1.03-.18-1.6-1.2-1.42.6-5.2-2.14-9.46-1.6-14.84.15-2.64.86-6.61,4.47-7.48.63-.95-4.15-.23-9.81-1.48-13.78-.44-1.39-.79-1.91-2.37-1.72v-2.18c1.47.34,3.03.49,3.68,2.04,1.45,3.48,1.37,11.46,1.77,15.4l5.99-2.47c0-1.21-3.64-6.41-3.27-6.79,1.25-1.28,4.3,5.91,4.9,6.3.98.64,1.59-.22,2.18-.31,1.73-1.31,2.64-1.49,2.73-.55.33-.07.78.08,1.09,0,1.37-1.76,2.46-2.12,3.27-1.09,1.09-.4,4.7-1.4,4.78-2.45.03-.43-2.99-6.53-3.43-7.9-.37-1.19-.12-2.34-.39-3.43-.39-1.58-2.35-3.23-1.01-4.98.43-.57,1.48-.01,1.7-.67.72-2.09,1.47-11.7,1.07-13.83,1.02,1.38.49,3.89.56,5.73.03.86.53.76.53.81.92.51,1.32,1.18,1.2,2.01l6.37-3.9c-.67-1.26-.46-2.08.61-2.47.14-1.46,1.03-3.54.55-5.45,1.5-.25,2.04,1.18,1.64,4.27l3.6-1.66c-6.34-8.32.31-9.47,3.41-.94l2.05-.51c-2.63-6.45,2.37-5.88,3.42-.3,1-.29,6.73-2.3,6.67-2.71-.83-1.91-5.36-14.5-4.85-15.61,2.79-1.41,3.2-5.91,3.13-9.04-.34-14.95-11.86-16.07-24.47-16.25l-1.15-.85c-.47-.93-1.88-.45-2.73-.55l.26-1.21c4.44-1.78,8.27-1.42,12.87-.5.19-5.46,1.79-7.27,4.79-5.43l5.32-3.52c1.92-1.53,3.44-1.79,4.57-.78.04,0,.36.47.72.4,1.35-.25,2.64-1.19,4.18-.95v-.53c-.35,0-1.01-.28-1.09-.56.24-1.76,5.28-2.12,6-.55Z"/>
  <path class="st66" d="M10.91,629.07l7.02,23.92c-6,1.83-11.62,4.22-17.93,4.97v-1.09l3.27-.55c.69-.68-4.66-9.61-.24-6.57,1.89,1.3,2.13,5.69,2.47,5.98.46.39,3.14.03,3.2-.76.08-1.04-3.55-7.59-2.7-8.45,3.76-.02,3.97,5.31,3.82,8.17,1.38-.43,7.32-1.88,7.59-3.05.14-.61-4.08-9.71-4.62-11.64-.4-1.43-.13-2.87-.51-4.4-.54-2.16-3.76-4.62-1.37-6.53Z"/>
  <path class="st32" d="M0,619.8v-11.45c4.1,2.37,5.78,10.21,0,11.45Z"/>
  <path class="st19" d="M1282.37,676.5c-.09.06-.21,1.69-1.08,1.63-1.19-3.52-2.55-6.65-4.93-9.52-3.16-3.82-9.26-6.44-11.31-11.05-.78-1.76-.55-3.58-1.19-5.35-.93-2.57-3.69-6.35-4.57-9.06-.76-2.31-.57-5.27-1.15-7.57-.7-2.78-6.54-14.69-8.46-16.46-1.06-.98-2.46-.66-3.25-1.81-1.2-1.74-1.38-6.63-2.05-8.85-1.57-5.17-6.1-14.73-8.99-19.36-.83-1.33-2.39-2.13-3.06-3.48-.94-1.88-1.22-4.83-2.21-7.06-1.04-2.34-2.59-3.51-3.48-5.24-1.61-3.12-2.5-6.73-4.52-9.65-.39,5.1,2.58,9.37,3.94,14.05,2.5,8.63,3.55,17.82,5.89,26.28.76,2.74,7.86,16.97,7.11,18.01-1.53,2.12-9.35-1.27-11.76-.55-.51,2.29,1.53,3.4,2.46,4.9.51.83.34,1.45-.54,1.09-1.06-.44-3.12-4.83-4.2-6.18-2.66-3.36-12.59-9.69-16.77-10.47-8.95-1.67-25.22,1.32-31.39,8.47-.68.78-4.08,5.84-4.08,6.28v10.63h-.55v-10.9c-2.25.11-4.56-.16-6.81,0-17.81,1.31-35.61,1.24-53.44,2.72-35.27,2.91-70.49,3.78-105.76,6.01-12.91.81-25.76,2.41-38.69,2.74-14.13.36-28.33-.3-42.46-.05-1.1.26-1.09,6.22-3.63,6.02l-.75-1.23c3.58-8.24,3.9-16.08.95-23.5l.35-1.44c-2.57.61-3.21-.09-2.39-2.95-.76,3.58-5.16,3.54-2.96,0l-.1-1.41-1.46-.33c-.68-.6-7.6-8.1-7.64-8.68-.04-.49.11-.94.38-1.35-1.25,1.29-2.38-.04-2.04-1.61,5.53-8.43,8.96-18.71,8.58-28.9-1.85,6.6-4.37,12.79-7.56,18.56-.76,1.09-10.84,10.88-9.42,5.61,1.87-1.48,2.05-2.18-.45-2.39-.49,1.5-3.21,1.48-3.82,0-2,.14-3.91.35-5.73.62,1.47,4.82-4.68.15-4.05-2.32-1.87-1.77-2.6-3.39-2.22-4.85-.42-.34-.73-1.22-.52-1.23.78-.04.61.64-.25.81-7.41-4.13-15.14-7.26-23.2-9.38.2-1.56-.67-2.23-2.61-1.99-.75,4.67-1.77,9.3-3.07,13.86l-1.42,1.2c-1.44.41-1.84-.31-1.66-1.67,1.81-6.31,3.07-12.72,3.79-19.25-2.12,3.72-3.38,4.51-3.77,2.38-.62-.25-1.03-.85-1.22-1.78-14.91-4.2-29.69-8.87-44.36-14.01l-6.31-3.88c-2.82-1.82-5.39-2.11-7.7-.85-1.27.07-8.83-4.6-9.64-6.19-.46-.16-.45-.34,0-.55-1.64-1.73.93-4.67,2.36-6.11,6.44-6.51,22.58-7.85,31.2-8.12,28.75,1.66,57.2-.46,86.13-2.62,2.91-.22,16.09-1.31,19.31-3.46,1.03-.68,1.74-1.52,2.03-2.79.31-4.73,2.65-8.46,7.03-11.18,3.79-2.9-1.08-18.63-3.14-20.55-.91,5.91-7.89,14.86-13.57,16.61-4.17.05-8.05.81-11.64,2.28-1.54,1.63-5.7,3.59-4.67-.05-.55,0-.55-.54,0-1.64l-.44-1.51c3.76-8.84,2.75-19.05.13-28.08-2.52,2.19-5.36,4.2-8.53,6.05-9.65,10.4-22.91,13.04-36.44,15.1-.43.86-.99,1.34-1.68,1.46-6.99-.9-13.91-1.76-21.16-1.16l-1.68-1.13c-.48-.15-.47-.34,0-.55l.48-.77c-70.08-12.19-148.01-20.51-220.47-6.66,22.53-.93,45.1-1.27,67.7-.99l2.36.79c-.11.37-.65.55-1.64.55-1.39.48-2.82.96-4.3,1-41.58,1.23-83.19,2.52-124.71,7.84-78.98,10.11-156.66,33.02-224.99,72.91,13.17-6.78,27.97-9.57,42.66-11.11,13.85-.95,27.36-2.68,40.54-5.21,12.68.31-1.22,5.96-5.34,7.6-31.1,16.81-62.54,37.31-83.23,66.53,8.23-6,17.64-11.5,27.77-15.57,24.81-9.79,49.35-21.17,72.82-33.88,2.79-1.84,5.04.64,2.81,2.94-35.19,22.7-70.51,51.77-86.96,90.7,25.37-21.44,57.86-38.69,88.59-54.67.78-.41,1.64-.66,2.51-.92s1.77-.44,2.68-.6c1.14-.52,1.87-.52,2.18,0l-.89,2.03c-15.99,12.53-20.32,33.16-22.72,52.27-4.46,15.24.93,31.46,6.31,45.93,2.94,7.91,4.96,9.1,12.34,12.7,5.33,5.44,11.26,8.87,18.6,11.08l.54,1.35c.45.16.45.34,0,.55-5.12-1.84-9.42-2.56-14.13-5.77-2.64-1.81-4.84-4.51-7.5-6.13-4.98-3.03-7.12-2.32-9.94-8.6-6.22-13.83-11.54-32.16-9.88-47.36.22-2.04,1.36-3.02,1.61-4.39.57-3.19-.02-7.81.7-11.29,1.54-7.45,6.4-21.41,10.13-28.03,2.33-4.13,8.56-8.69-.66-6.11-26.9,14.23-52.51,28.49-76.39,47.37-.88.69-7.69,8.35-7.26,3.15.15-1.74,2.23-6.64,3.07-8.43,3.9-8.29,11.88-20.34,17.19-28.06,5.41-7.85,11.82-13.78,18.34-20.63l-22.48-3.16c-6.83,2.94-13.87,5.91-20.23,9.78-2.33,1.41-11.79,9.1-13.68,8.63-.46-.11-.84-.74-.79-1.27.08-.8,7.27-10.23,8.44-11.74.92-1.2,7.74-8.4,6.76-9.32-29.81-2.17-59.04-8.72-88.66-12.47-25.6-3.25-53.37-5.62-78.97-5.55-5.18.02-12.04-.54-16.95,0-3.5.38-.57,3.07-1.33,3.84-.15.16-3.7.44-4.36.54.07-1.19,2.45-.58,2.72-1.63-.41,0-.93,0-1.11-.32-1.6-2.82-3.17-7.23-3.34-10.46-2.12-3.56-2.04-5.77.23-6.64,1.58-1.9,1.28-13.42-.75-15.88-7.65-9.25-26.38-8.77-33.56,1.24l-1.26-.1c-1.02,2.81-.43,5.67,1.09,8.18,1.42-.38,1.43-.03.55,1.09.22,5.24-1.92.36-2.73-2.18-.27.06-.54.1-.79.05-.46-.1-2.85-7.79-3.04-8.72-.34-1.61-.92-4.46,1.17-4.91,1.32-.29,1.93.59,1.02,1.59,2.32-1.8,2.63-7.1,2.77-10.15.52-10.8-1.58-17.57-12.77-21.64-17.06-6.2-32.4-2.46-42.35,13.22-7.77,12.25-7.19,22.87,8,25.88.99.93.33,1.32-.9,1.4l-.3,1.19c-7.46,3.11-16.14,13.92-12.81,22.2l-.53,1.13c.19,1.68-.4,1.15-1.09.27-2.62-3.38-2.06-8.17,0-11.71-2.3-.58-1.53,1.39-2.51,3.21-2.13,3.98-5.93,8.58-7.96,12.75-2.54,5.24-3.61,11.19-6.71,16.19-1.11-1.9,4.58-12.08,4.09-12.53-.38-.36-2.82.06-3.27-.26-1.49-1.06,1.59-2.4-.28-3.01-1.71-.56-.94,1.9-2.99.54.98,1.56-.52,2.05-.55,2.18-.81-5.83-7.78-10.36-9.65-15.15s-1.34-9.12-.77-14.08c.08-.72-.5-1.58-.39-2.07.13-.6,3.56-2.17,4.57-3.02,8.04-6.74,10.33-21.77,13.86-31.39,2.55-6.94,6.74-15.33,9.82-22.34,18-41.03,40.21-79.67,65.43-116.65,26.8-39.29,56.99-78.79,87.22-115.58,27.81-33.84,54.56-60.35,88.38-88.26,8.34-6.88,14.31-14.64,22.61-21.55,3.91-3.26,11.32-9.36,15.44-11.82s9.99-4.16,14.19-6.52c7.83-4.4,16.66-11.85,24.53-16.91,10.97-7.06,22.35-13.52,33.29-20.68,10.28-6.73,17.58-13.9,30.02-17.41,14.85-4.2,30-7.5,44.84-11.86,18.54-5.45,38.04-9.79,57-13.88,22.03-4.75,45.56-6.07,68.07-8.26,20.59-2,38.98-.59,59.34-.04,12.82.34,25.31-.88,38.04,1.22,40.12,6.61,80.29,13.25,120.64,18.39,17.62,2.24,30.15,5.31,47.05,10.2,10.05,2.91,20.53,5.12,30.53,8.17,20.41,6.24,37.8,19.8,55.22,31.46,18.26,12.22,31.19,20.69,46.87,36.54,16.93,17.12,35.68,32.49,51.78,50.71,3.89,4.4,6.46,8.58,11.16,12.83,10.69,9.66,19,14.97,27.78,27.28,14.45,20.27,30.3,43.1,41.85,65,2.18,4.13,3.58,8.64,5.79,12.75,6.7,12.44,16.22,23.55,22.74,36.14,4.97,9.59,6.32,18.4,12.72,27.63,10.35,14.91,19.74,29.63,28.54,45.6,4.56,8.27,6.48,15.99,9.7,24.65,8.25,22.2,16.81,42.02,23.3,65.01,1.85,6.54,3.03,15.26,5.38,21.33.85,2.19,3.14,4.27,4.15,6.2,4.15,7.94,7.65,16.99,12.34,24.18,3.07,4.7,6.37,12.02,8.27,17.35.9,2.52,2.04,9.63,2.79,10.84s1.89.67,2.91,1.45c1.8,1.39,8.95,15.36,9.43,17.83.46,2.34-.03,4.83.84,7.34.96,2.79,4.14,7.05,5.04,9.68.48,1.41.27,2.85.94,4.51,1.58,3.94,8.45,7.89,11.31,11.59,1.75,2.26,2.99,5.39,4.36,7.9Z"/>
  <path class="st74" d="M1176.05,669.41c-1.04-.34-5.27-1.67-5.45-2.48,1.73-3.73,3.56-7.62,4.77-11.55.3-.97.08-2.27.38-3.43.4-1.56,1.96-4.03,1.98-5.15.05-2.8-2.11-1.14-2.52-1.86-.28-.49-.59-3.27-.73-4.21-2.38-15.97-.16-23.72,16.18-27.84,2.45-.62,6.73-1.51,9.17-1.73,13.55-1.21,26.87,10.16,31.55,22.29,6.05,15.7-6.61,18.88-19.08,20.15-2.67.27-7.81-.72-9.84,1.07-2.54,2.24-2.45,17.36-3.52,21.29-1.45.14-2.57-.6-3.81-1.09-3.81-.55-4.9-1.83-3.27-3.82.9-1.79,1.6-3.22,2.73-4.91-.24-.41-.61-.59-1.09-.55-1.31,1.51-4.03,6.92-4.91,7.09-1.97-.58-4.29-1.09-6-1.09-1.02-.2-1.63-.28-2.73-.55-1.31-.51-2.58-1.06-3.82-1.64Z"/>
  <path class="st31" d="M879.45,627.44c-.64,1.45-2.11,2.48-4.41,3.08,6.2-.15,12.11-1.31,18-2.98l1.13.98c1.35-.71,3.15-.54,2.22,1.07s-17.6,3.69-20.4,3.97c-4.3.55-12.83,5.13-12.98,10.02-.14,4.51,10.26,13.51,15.53,11.96,4.03-1.63,5.24-1.37,3.63.78,8.16.37,15.95-.92,23.36-3.87,8.02-.78,11.43-1.17,14.29-9.35.76-.65,1.34-.29,1.61.68-.73,2.26-1.57,4.46-2.73,6.54l5.99-1.63c-1.18,6.85-6.33,10.94-11.82,14.62l-8.35,5c4.85-.21,9.9-.73,14.62.93,3.21,1.12,11.72,6.21,14.57,8.33,3.7,2.75,6.7,8.32,7.3,12.87,1.06,8.1-2.72,2.92-5.81,1.45-2.05-.97-3.91-.48-5.59-1.77-.46.52,2.85,4.07,1.11,5.2-2.32,1.51-8.21-2.2-9.3-1.38.7,1.22,1.9,2.21,1.63,3.81-4.44.71-7.61-2.94-11.45-4.35.85,1.81,3.55,2.57,3.27,4.9l-12.54-.54c.75,2.18,6.28,5.51,2.59,7.22-5.54,2.58-10.38-3.73-15.68-2.32,6.72,7.03,4.36,7.43-4.08,7.08-4.75-.2-6.2-.73-11.04-.12-15.41,1.95-30.1-4.07-44.13-10.13-1.62-.7-2.51-2.07-4.23-2.31-4.21-.58-17,1.03-21.84,1.67-7.83,1.04-14.75,2.92-22.07,5.74-13.47,5.18-22.48,10.61-38.08,6.97-6.13-1.43-10.68-5.21-16.3-7.69-.93-.41-2.49-2.03-3.15-2.09-.72-.06-1.83.82-2.79.87-5.28.25-5.81,1-10.54,1.95-2.93.59-10.44.7-13.27.12-1.76-.36-3.66-2.26-5.61-2.57-9.49-1.48-23.1,7.99-30.2,5.66-1.27-.42-3.8-2.94-4.65-2.96s-3.7,1.44-5.47,1.62c-4.08.42-8.9-.16-13.1-.02-2.08.07-4.67,1.85-4.07-1.07,1.51.14,2.52-.05,3.8-.84.66-.41,4.93-4.56,4.38-5.15-1.51,1.1-3.06,2.44-4.89,3.01-9.05,2.79-33.61,5.11-42.44,3.17-10.9-2.39-15.42-2.49-26.56-2.88-17.77-.61-39.76-2.17-57.16.05-9.5,1.21-24.96,6.05-33.99,1.68-2.26-1.1-3.45-4.09-5.88-5.03.24,2.88.59,7.49,1.98,10.02.32.58,6.71,7.03,7.55,7.72,2.23,1.81,10.93,4.27,14.19,5.17.48.15.47.34,0,.55l-1.16.78c-10.43-2.12-20.94-5.68-24.96-16.46-.8-2.15-.69-8.05,1.04-9.4-.47-.72-.24-.77.55-.55,1.1-.87,2.34-.44,3.74,1.27,4.19,6.68,15.33,5.74,22.4,4.86,28.18-5.4,57.46-5,86.01-2.58,14.14,4.1,27.93,3.74,42.38,1.85,11.5-1.5,15.75-3.61,23.1-12.31l1.2.36c1.76-1.18,2.04-.91,1.64,1.09,2.62-1.99,3.99-5.17,4.81-8.29l1.19-.43c.69-.82.93-.47.55.55,7.08,2.37,12.34,6.43,8.47,14.59-1.17,2.47-3.07,4.61-5.36,6.1,2.14,1.82,4.87,2.08,8.19.78,7.98-3.58,15.98-5.24,24-4.96,6.95,4.27,16.09,3.59,23.2,0l5.39-.12,1-1.12c-.53-1.31-.53-2.22,0-2.73,1.74-2.56,7.02-3.66,10.24-4.3,8.78-1.75,15.09-.16,22.58,4.07,2.11,1.04,3.54.97,5.58-.19,3.9.28,7.79-.72,11.68-3l1.17.69c.85-.23.85.13,0,1.09.31.28.62.65.55,1.03-.09.49-3.39,7.62-3.75,7.87-1.38.97-2.84.3-4.06-.64-4.55-4.29-7.4-5.12-8.35,1.8-3.49,6.94-11.82-2.1-11.88-7.27l-.8.68c-3.86,8.42-8.49,4.57-11.29-1.89-1.67.07-5.21,3.87-4.06,5.23,8.92,10.57,27.51,10.39,39.67,5.74,16.77-8.75,35.06-11.37,53.84-12.35l2.47.88c1.41.09,1.96.45,1.64,1.09l2.94.65c12.17,5.47,26.24,11.26,39.7,10.53,2.64.07,3.52-.75,2.61-2.46-.78-1.32-.74-2.08.96-1.76,4.2,3.48,10.72,4.52,15.55,3.65l-2.69-2.58c-.16-4.33-8.23-7.39-11.32-5.06-.89,1.99-3.03,3.21-2.51.31-1.55-1.33.47-4.07,2.18-2.73,1.8-.38,3.62-.38,5.45,0l1.5-1.13c.02-3.97,1.7-6.58,5.85-7.16,1.67-.23,6.14.72,5.74,2.84-.03.51-.26.88-.72,1.07-5-1.26-9.18-1.22-6.76,4.93.67.67,10.77,4.12,12.75,4.66.76.21,3.2.77,3.75.43.66-.4-7.9-9.23-8.95-9.71l-.07-1.39.41-.73c-.98-2.77.1-9.96,3.4-7.45,1.13-.27,1.67-.81,1.64-1.64-1.27,1.01-4.09-.62-3.27-2.18.09-.28.2-.56.37-.78,1.11-1.5,8.68,4.42,8.9,6.24.2-3.01,2.04-4.64,2.13-.6-.18,2.98,9.51,9.86,10.59,9.46.11-.04.68-2.1.71-2.26.04-.26-1.53-4.54-1.78-4.9-2.16-1.24-4.23-4.56-.75-3.33l.47-.53c-4.33-6.71,6.25-7.47,10.16-3.51.15-.02,2.49-1.61,2.39-1.73-7.67-8.49-29-9.65-38.45-3.27l4.18,2.81v1.32c-1.54,2.12-6.27-.93-6.98-3.14l-4.42,2.01c-2.36.98-4.97,1.39-5.99-1.39-.6,2.25-1.53,3.45-2.79,3.61-.65.62-.84.26-.55-1.09-.77-.97-.5-2.48.82-4.52-1.76-1.37-3.15-3.8-1.91-5.84-.48.29-.85.29-1.09,0l-.26-1.18c1.36-.63,2.37-8.58,1.99-8.85-7.57-2.12-14.85-9.1-14.44-17.17-1.41.06-7.74-1.74-8.24-2.53-.26-.41-.34-.87-.31-1.35-1.43-1-1.83-1.69.12-2.12,9.11,4.76,10.9,2.84,17.18-4.36,1.36-1.57,9.46-5.44,10.98-4.78.38.17.28.92.07,1.45Z"/>
  <path class="st74" d="M1286.73,678.68c-.04,14.58,1.11,31.54,0,45.79-2.1,2.2-3.11,5.04-3.05,8.53l-1.23,13.12c-.06,3.42-4.48,1.8-5.79.04-2.08-.6-3.99-1.54-5.74-2.61-1.83.18-4.78-.26-6.04-1.52-1.65,1.53-12.64-2.96-13.08-3.82,2.21-7.01,4.44-14,6.7-20.98l-.13-2.02c-.67-.54-2.23-.31-2.64-1.45-.53-1.5-1.1-7.77-1.2-9.7-.86-16.92,6.89-21.14,22.16-24.22,3.29-.66,6.67-1.28,10.03-1.15Z"/>
  <path class="st74" d="M82.34,620.89c2.61,3.25,2.41,7.21,2.2,11.2-.09,1.64-.66,7.38-1.09,8.63-.22.64-1.1.18-1.49.46-1.53,1.08.91,4.21,1.33,5.75.36,1.3.13,2.67.65,4.26.78,2.41,2.31,5.17,3.23,7.61-.06.77-4.44,2.1-5.38,2.44-2.43.99-4.98,1.54-7.63,1.64-.33.19-.74.41-1.09.55-1.52-.07-2.37-1.96-3.27-3.27-.41-.07-.58.12-.55.55.27.49,1.2,2.85.85,3.29-.21.26-6.07,2.4-6.3,2.16.09-2.97-.22-5.98-.63-8.92-.73-5.27-.55-10.37-7.56-9.62.46-4.85,1.69-11.86-.98-16.19-2.28-3.7-8.58-5.23-12.45-6.65-.4-.15-1.15.05-.74-.87,1.99-4.52,13.88-10.9,18.83-11.19,5.93-.34,18.23,3.41,22.06,8.19Z"/>
  <path class="st74" d="M1208.22,698.85c1.43-.63,2.89-.45,4.36.55.27.06,1.17.4,1.64.55,2.91.11,8.65,3.33,11.04,5.52,1.07.99,4.23,4.58,3.29,5.85-13.85,2.52-16.46,9.86-14.3,23.03-4.2.3-6.41.5-6.82,5.08-.46,4.49-.9,8.99-1.32,13.48-.85.88-3.77.2-3.44-1.29-2.17-.82-4.32-1.51-6.44-2.06-.35-.05-.76.06-1.09,0-2.37-.87-4.91-1.6-7.63-2.18-1.79-.69-4.02-.86-5.38-2.44-.04-.47,2.83-6.36,3.23-7.61.52-1.58.29-2.96.65-4.26.43-1.54,2.87-4.67,1.33-5.75-.39-.27-1.27.19-1.49-.46-.9-2.6-1.46-13.46-1.04-16.25.28-1.83,1.1-2.42,2.15-3.58,1.67-5,10.73-7.58,15.77-8.16.18-.02.33-.25.47-.53.6.76,1.55.93,2.84.51.61-.09,1.52-.03,2.18,0Z"/>
  <path class="st74" d="M33.81,709.75c-1.37-.18-9.8-1.89-9.8-3,1.24-1.29,3.22-1.39,4.9-1.36-.72-6.86-8.26-15.82-1.23-21.82,3.36-2.86,11.75-6.91,16.16-6.48,8.14.8,19.62,3.91,21.06,13.29-.78,3.77-.03,8.79-1.08,12.46-.14.51-1.12.39-1.65.91-1.34,1.3.49,2.49.83,3.8,1.12,4.26,2.24,7.38,3.53,11.46.08,1.4-1.38,2.49-4.36,3.27-.16.06-.38-.06-.55,0l-1.09.55-6.77,1.31c-1.25.03-1.77-.67-1.96-1.85-.24-.51-2.39-4.73-3.27-3.81-.22,1.67,3.55,5.31,2.71,6.52-2.13-.12-5.54,3.59-5.98.84-.49-3.01-.68-12.7-2.14-14.76-1.58-2.23-6.83-1-9.31-1.33Z"/>
  <path class="st74" d="M1244.75,793.7c-3.07,1.03-6.93,1.68-10.16,2.11-2.39.32-6.42-.64-8.14,1.13s-1.94,12.08-2.42,15.03c-.45,2.75-3.85-.97-5.98-.84-.85-1.2,2.93-4.85,2.71-6.52-.88-.92-3.03,3.3-3.27,3.81-.27,1.16-.43,1.43-1.5,1.84-.89.34-6.01-.9-7.23-1.3-.68-.73.34-3.81.84-4.8.11-.22-1.02,4.67-1.93,4.25-.16-.06-.39.06-.55,0-2.9-.75-4.36-1.84-4.36-3.27l4.92-14.47c.23-1.45-1.94-.96-2.21-1.71-.71-2.03-1.32-10.71-1.03-12.94.87-6.62,7.28-9.75,13.04-11.22,7.11-2.52,11.82-3.1,18.6.47,11.37,6,11.3,10.88,6.23,21.56-1.27,2.63-1.23,3.87.12,3.72,3.05,1.04,3.82,2.09,2.31,3.14Z"/>
  <path class="st74" d="M1240.93,711.38c3.27.86,12.31,6.45,13.39,9.78,1.73,5.33-5.24,12.99-5.24,17.77,0,3.19,5.6,1.18,3.85,2.97-1.52,1.55-14.39.93-16.35,2.47-1.69,1.32-2.14,8.29-2.19,10.63l-.37,5.53c-.94,1.38-3.54.65-3.55-.9-1.24-.24-2.34-.96-3.1-1.96-2,.35-7.22.71-4.97-2.13.03-.89-.15-1.07-.55-.55l.23,2c-4.02.17-5.01-.86-2.96-3.09.09-1.19-.1-1.55-.55-1.09.32,2.85-.22,3.94-1.64,3.27-1.06.79-5.76-1.13-5.72-2.3,2.02-4.36,3.39-8.7,4.31-13.23l.98-2.08c-2.92-2.1-3.12-10.58-2.73-14.4.89-8.62,8.23-11.69,15.84-13.26,2.72-.56,9.78-1.47,11.31.58Z"/>
  <path class="st74" d="M1276.37,750.63c.27.1.52.22.72.4.52.48-3.44,11.81-4.25,13.29-1.2,5.47-1.03,8.95,4.58,3.81,1.07-.2,8.4,1.67,9.32,2.67,0,1.63,0,3.27,0,4.91-3.49,1.89-6.66,2.9-10.64,3.26-2.47.22-8.12-.68-9.8,1.1s-2.43,13.48-2.46,16.35l-5.98-2.49,3.25-6.78c-2.26.52-3.89,5.64-4.9,6.3s-1.74-.29-2.18-.31l-1.6-.3c-3.59.01-4.69-.8-3.3-2.43.1-1.76-.08-2.48-.55-2.18-.07,1.25,0,2.51.22,3.8l-2.4-.53c-.74,1.1-4.6-.68-4.73-2.17,2.07-5.09,3.61-10.27,4.61-15.55l-1.78-1.91c-.93-4.15-1.02-8.51-.28-13.08,2.37-8.26,11.07-11.16,18.88-11.93,2.74-.27,12.7.31,13.29,3.75Z"/>
  <path class="st74" d="M1160.23,717.38c.75-.25,6.14.98,4.91,2.18-.16.16-3.82,1.25-4.35,1.37-2.62.57-12.99.51-13.92,1.9-1.2,1.8-1.72,12.55-1.91,15.27l-5.98-2.45,3.25-6.27c-4.01,2.55-2.61,7.65-8.72,5.45l2.18-4.9c-1.16-1.16-3.03,4.03-2.73,4.9-3.08-.38-5.67-2.7-8.72-2.73-.37-.35,2.7-6.58,3.02-7.61.36-1.18.1-2.36.38-3.43.26-.99,2.22-4.55,1.48-5.29-.2-.2-1.37.37-1.63-.35-.32-.9-.98-6.3-1.06-7.58-.57-9.08,3.01-12.85,11.44-15.26s15.94-1.97,23.18,4.09.33,13.38-.82,20.71Z"/>
  <path class="st74" d="M141.69,629.57c-.23.24-1.37-.09-1.53.06-.66.65,3.98,14.2,4.88,16.33-3.05.03-5.63,2.35-8.72,2.73.3-.87-1.57-6.06-2.73-4.9l2.18,4.9c-6.11,2.2-4.71-2.89-8.72-5.45l3.25,6.27-5.98,2.45c.02-5.18-.83-10.52-2.18-15.54-1.25-1.1-10.88-1.02-13.65-1.63-.54-.12-4.19-1.21-4.35-1.37-1.23-1.19,4.16-2.42,4.91-2.18-1.22-7.54-8.55-14.53-.51-20.95,7.34-5.86,14.07-6.38,22.87-3.86s12.01,6.19,11.44,15.26c-.06.97-.88,7.58-1.16,7.87Z"/>
  <path class="st74" d="M1168.41,669.41c.2.19,4.14-.44,4.36,1.08-2.85,1.75-15.5,1.03-16.63,2.73-1.2,1.8-1.72,12.55-1.91,15.27l-5.98-2.45,3.25-6.27c-4.01,2.55-2.61,7.65-8.72,5.45l2.18-4.9c-1.16-1.16-3.03,4.03-2.73,4.9-3.08-.38-5.67-2.7-8.72-2.73-.37-.35,2.7-6.58,3.02-7.61.36-1.18.1-2.36.38-3.43.26-.99,2.22-4.55,1.48-5.29-.2-.2-1.37.37-1.63-.35-.32-.9-.98-6.29-1.06-7.58-.46-7.32,1.59-11.65,8.59-14.3,9.48-3.59,19.25-3.61,26.87,3.92,6.88,6.81-2.52,14.01-2.75,21.55Z"/>
  <path class="st74" d="M95.97,564.2c2.93-4.59,12.7-9.66,18.12-9.11,6.35.65,18.12,3.76,19.37,11.15.41,2.43-.12,11.19-.93,13.44-.26.72-1.44.15-1.63.35-.74.74,1.22,4.3,1.48,5.29.28,1.07.02,2.26.38,3.43.41,1.35,3.25,6.74,3.02,7.61l-8.72,2.73c.3-.87-1.57-6.06-2.73-4.9l2.18,4.9c-6.11,2.2-4.71-2.89-8.72-5.45l3.25,6.27-5.98,2.45c.03-2.86.1-6.05-1.09-8.72-1.01-1.64-1.98-3.74-2.17-6.04-4.82-.33-9.58-.94-14.3-1.85l-.43-1.38c-.74-1.14,1.12-2.32,2.73-1.79.72-.22-2.05-6.59-2.5-7.27l.32-1.85c-.11-.3-.39-.62-.55-1.09-1.53-2.49-2.12-5.38-1.09-8.18Z"/>
  <path class="st74" d="M1212.03,697.76c-1.74.48-3.74.3-6-.55l3.27-6.54c-4.01,2.55-2.61,7.65-8.72,5.45l2.18-4.9c-1.16-1.16-3.03,4.03-2.73,4.9l-8.73-3.01c2.27-5.06,3.61-10.18,4.92-15.53.56-.52,2.32,1.99,3.85.86.97-1.3.62-8.39,1.87-8.48.63-.04,1.02,1.68,4.09.53-.16-.44-.17-.91.14-1.27,2.37-2.8,2.76-6.75-1.62-5.38l-1.24-.44c-1.63.29-1.13-.77-1.02-1.83.19-1.94.83-3.96,1.66-5.72l17.49-1.63c10.71,3.51,23.54,23.86,6.42,27.98-2.64.64-12.96.46-13.92,1.9-1.1,1.64-1.49,11.07-1.9,13.63Z"/>
  <path class="st74" d="M93.79,590.37c4.05,1.13,9.84,4.5,11.08,8.82.73,2.53.19,11.83-.7,14.29-.26.72-1.44.15-1.63.35-.66.66,3.98,14.22,4.88,16.33-3.05.03-5.63,2.35-8.72,2.73.3-.87-1.57-6.06-2.73-4.9l2.18,4.9c-6.11,2.2-4.71-2.89-8.72-5.45l3.25,6.27-5.98,2.45c-.42-3.45.09-12.77-1.94-15.24-.43-.52-1.42-.56-1.88-1.11-5.06-5.95-7.62-5.72-15.08-7.56-1.18-.29-1.75.41-.73-1.17,2.21-.33,4.52-.97,6.93-1.91,4.33,4.14,5.08,3.01,4.56-2.52-2.38-4.73-3.67-9.6-3.87-14.6l1.11-.59c.25-2.29,5.18-3.39,7.4-3.64,1.87-.21,8.27.66,10.06,1.29l.54,1.25Z"/>
  <path class="st74" d="M1198.95,697.21c6.01.53,5.26,1.55-2.25,3.06-3.55,1.19-7.38,2.51-9.58,5.72l-.71-.06c-.23.27-1.35.38-1.87,1.11-2.13,2.96-1.47,11.44-1.95,15.24l-5.98-2.45,3.25-6.27c-4.01,2.55-2.61,7.65-8.72,5.45l2.18-4.9c-1.16-1.16-3.03,4.03-2.73,4.9-3.08-.38-5.67-2.7-8.72-2.73.9-2.11,5.54-15.67,4.88-16.33-.2-.2-1.37.37-1.63-.35-.79-2.18-1.37-11.1-.94-13.44,1.7-9.31,21.55-13.61,28.42-9.05,2.16,1.43,1.27,5.22.64,7.57-.71,2.65-6.36,11.97-2.47,13.9,2.85,1.41,3.94-2.26,4.68-2.44.18-.04,2.64.86,3.49,1.05Z"/>
  <path class="st74" d="M122.58,698.78c-.29.29-1.4-.05-1.53.07-.5.46,3.15,11.38,4.34,12.81l-6.81,2.96c-.92-.08-1.15-5.35-2.44-3.78-.44.54,1.81,3.67,1.63,3.81-1.07-.28-2.67.71-3.48.59-.39-.06-1.93-4.84-3.6-4.95.08,2.08,2.51,3.25,2.16,5.43l-4.34,1.66c-.78-2.75-.33-11-2.19-12.8-1.97-1.9-12.1,0-14.71-3.28l4.34-1.63c-1.31-3.28-4.48-9.32-3.57-12.82s8.25-7.51,11.62-8.04c5.99-.95,17.93,1.82,19.42,8.72.25,1.18-.38,10.79-.84,11.25Z"/>
  <path class="st74" d="M1177.68,787.16c-2.26,3.75-12.64,1.55-14.71,3.55-1.87,1.8-1.42,10.05-2.19,12.8l-4.34-1.66c-.36-2.18,2.08-3.35,2.16-5.43-1.68.11-3.21,4.89-3.6,4.95-.81.12-2.41-.87-3.48-.59-.18-.14,2.07-3.27,1.63-3.81-1.29-1.57-1.52,3.7-2.44,3.78l-6.81-2.96c1.03-2.11,2.27-4.61,2.97-6.83.25-.8,1.59-5.77,1.37-5.98-.17-.16-1.32.39-1.65-.35-.88-2.01-1.06-10.93.1-12.93,3.94-6.77,16.31-8.34,23.02-5.19,10.5,4.93,7.55,10.41,3.63,19.29l4.34,1.36Z"/>
  <path class="st74" d="M114.89,657.81c-.35.51-1.97.49-1.41,1.93l4.29,11.84c-2.45.18-9.05,3.32-11.11,2.69-.92-.28-1.88-4.54-3.6-4.86l2.72,5.44-4.9,1.64c-.88-2.54-.4-11.29-2.2-12.79-2.03-1.7-10.08-.18-13.07-1.93.51-1.71,3.15.23,3.29-1.89.24-3.68-5.41-10.1-4.15-13.94,1.03-3.13,8.48-7.48,11.61-8.02,5.88-1.01,18.8,2.45,19.68,9.55.19,1.51-.5,9.38-1.15,10.34Z"/>
  <path class="st74" d="M1182.4,729.02c6.16,5.88-2.38,11.45-2.02,16.99.14,2.12,2.78.18,3.29,1.89-2.98,1.75-11.04.23-13.07,1.93-1.8,1.51-1.33,10.25-2.2,12.79l-4.9-1.64,2.72-5.44c-1.72.33-2.69,4.59-3.6,4.86-2.07.63-8.66-2.51-11.11-2.69l4.38-12.29c.04-1.12-1.3-.99-1.64-1.76-.6-1.34-1.21-8.42-1.01-10.06.85-6.87,12.95-10.27,18.72-9.68,2.51.26,8.62,3.36,10.44,5.09Z"/>
  <path class="st74" d="M1202.23,768.62c.14-.11,2.36,1.47,3.26,1.09l-2.44,6.55c-1.14,1.53-7.76-.78-9.6,1.85-.99,1.42-1.37,10.07-1.6,12.3l-4.9-1.64,2.72-5.44c-3.22,1.85-2.31,6.3-7.08,4.36l1.08-3.81c-1.13.15-1.34,3.6-1.64,3.82-.57.42-5.7-2.57-7.08-2.19l4.16-12.26c-2.18-2.9-3.16-8.8-2.4-12.41,1.65-7.88,18.23-11.72,23.84-7.19,3.01,2.43-2,9.11-2.57,12.1-.45,2.34-.8,5.54,2.3,5.06,1.88-.29,1.73-2.03,1.95-2.19Z"/>
  <path class="st74" d="M67.61,669.41c.17-1.06-.29-1.34.92-2.08,6.29-3.86,22.33-.79,24.04,7.38.76,3.61-.21,9.51-2.4,12.41l4.16,12.26c-1.38-.38-6.51,2.61-7.08,2.19-.29-.22-.51-3.67-1.64-3.82l1.08,3.81c-4.77,1.94-3.86-2.51-7.08-4.36l2.72,5.44-4.9,1.64c-.22-2.23-.61-10.88-1.6-12.3-1.76-2.52-7.3-.42-9.86-1.87.11-3.11-1.14-3.92-2.18-6.54,3.16-2.17,6.92,4.72,7.66-.8.51-3.78-1.82-6.09-2.8-9.29-.48-1.57.42-3.03-1.04-4.09Z"/>
  <path class="st20" d="M921.98,616.53c5.38,7.38,1.93,18.57-.55,26.17-.1.29.09.8,0,1.09-1.32-.29-1.13.67-1.54,1.43-.83,1.55-1.96,4.49-3.13,5.62-2.11,2.03-7.89,1.89-10.95,2.68s-7.22,2.9-10.32,3.31c-2.18.29-10.57.44-12.53.06-.56-.11-.54-.05-.78-.56l.39-1.43c6.97-5.56,14.07-11,21.31-16.32,7.69-5.67,12.72-13.58,16.17-22.41l1.94.37Z"/>
  <path class="st74" d="M1215.85,693.94c2.45-6.46,14.54-9.27,20.62-7.8,3.38.82,8.65,4.49,10.7,7.3,4.93,6.78,7.22,15.58-3.51,17.4-4.35-.68-8.34-.97-12.81.03-3.2.32-3.2-3.25-3.08-5.65l-2.37.49c-.54-.11-8.91-5.39-9.27-5.81-.97-1.12-.56-4.51-.28-5.96Z"/>
  <path class="st27" d="M769.86,727.74c-2.87,3.39-3.99,7.24-6.56,10.62-4.66,6.12-11.89,11.94-16.94,17.95-4.71,3.5-14.4,3.89-20.38,4.16-15.47.69-30.96-.39-46.34-1.14-14.1-.68-25.04-.31-38.89-4.73-5.62-1.79-11.29-5.37-16.45-6.99-6.44-2.02-24.75-3.79-31.91-4.19-14.51-.8-23.83,1.51-37.36,5.83-21.71,6.92-32.91,7.95-55.9,6.85-7.5-.36-19.5-.73-26.45-2.45-10.06-2.49-22.95-7.15-32.69-10.66v-.55l2.23-.39,14.03,3.72c19.17,7.57,40.04,8.87,60.85,8.6,16.92-.22,30.74-4.09,46.4-9.92,20.51-5.99,43.43-2.93,63.7,2.42,12.12,5.77,22.95,8.61,36.42,9.66,13.39,1.05,28.02,1.62,41.5,1.97,9.69.25,18.79.33,28.47-.52,10.18-.9,13.04-3.36,18.51-11.37,5.73-6.1,10.95-12.62,15.92-19.37l1.81-.59c.58-.13.58.24,0,1.09Z"/>
  <path class="st8" d="M495.61,722.29c3.12.86,11.72,3.3,14.45,3.32,5.73.05,14.14-2.08,20.18-2.77,24.27-2.75,50.41-4.63,74.54.69,3.99.88,8.05,2.68,11.74,3.53,3.22.74,7.29.69,10.52,1.47,9.1,2.22,19.46,7.94,29.29,9.96,8.83,1.81,16.25,1.23,24.93,1.79,10.06.65,18.17,2.96,28.9,2.17,12.58-.93,19.22-6.61,30.16-10.18,4.8-1.57,28.88-9.09,32-8.9.62.04,1.81-.29,1.36.82-.27.66-2.92,2.5-3.81,3.55v-1.09l-.4-.69c-16.02,4.87-32.09,10.74-47.84,16.61-7.3,2.15-14.95,2.46-22.46,1.73l-17.6-1.89c-10.52.36-20.84.1-31.1-3.3-29.26-9.76-59.03-18.99-90.41-16.43-18.04,1.41-36.05,2.93-54.01,4.55l-1.7-.58c-.51,0-.69-.19-.55-.55-2.62-.51-5.2-1.17-7.73-1.99l-.44-1.28v-.55Z"/>
  <path class="st69" d="M1243.66,710.84c-.81.14-2.26-.42-2.73.55-5.09-1.35-17.3,1.19-21.54,4.36-7.33,5.5-4.43,13.07-4.12,20.91,4.21,1.27,1.45,2.92.83,5.24-1.06,4.02-1.77,8.09-4.06,11.74l4.89,2.45c.47.13.45.32,0,.55-.02.16-.04.47,0,.55-3.16,2.86-13.73.21-7.56-3.64.79-2.11,1.67-4.17,2.65-6.17-1.35-.93.12-4.07,1.09-4.91l.68-.11c.5,6.55-.06-1.74-.27-4.37-.3-3.7-5.22-.34-4.13,2.91l-.63,1.02c.89.72.75,1.87-.44,3.48.49.98.64,1.83.44,2.52l-.69,2.22c.33,4.15-1.25,7.16-5.31,4.86.13-2.34-.97-1.33-1.09-1.91-.31-1.46,1.12-.22,1.09-1.35-1-.23-2.59-.23-3.45-.66-1.41-.7-.1-1.09-3.09-1.53,1.96.59,4.87-8.76,6.54-7.08.51.51-3.86,6-3.81,7.34.08.4,6.24,2.77,6.54,2.47.45-3.99.28-12.93,1.94-16.32,1.06-2.16,4.13-2.45,6.24-2.21-.41-4.41-1.48-11.09.33-15.2s9.55-7.05,13.84-7.69c.36-.41-2.78-4.08-3.33-4.57-1.76-1.6-8.12-5.64-10.3-6.33h1.64c-.94-2.09-.77-3.95,0-6,.19,1.39-.43,3.76.27,4.91.4.66,8.27,4.4,9.41,5.9,5.25-1.98,2.6.9,3.52,4.07.78,2.7,6.23.08,8.9.36,1.59.17,4,1.29,5.71,1.66Z"/>
  <path class="st18" d="M1286.73,724.47c-.26,3.32-1.71,5.96-1.63,9.27l1.63-.54c.02,3.08,0,6.18,0,9.27-.28.83-.89,1-1.82.51l-.82,6.52c-.43,1.46-1.85,2.04-4.27,1.73-.71.19-4.93,12.85-4.85,13.57.04.32,5.39,2.35,6.03,2.31,2.27-5.33,6.26-5.89,4.03.69,1,.07,1.62.2,1.69,1.39,0,.55,0,1.09,0,1.64-2.21.3-7.5-1.82-9-1.66-.77.08-4.11,4.81-6,1.67-2.24-3.72,2.12-10.24,3.18-13.73.41-1.35.27-2.55.5-3.86.14-.81,1.1-1.8.96-2.58.99.57,1.45.33,1.64-.82.25-1.51-1.37-.52-1.64-.82s.62-1.76.32-2.21c-.38-.58-2.36-.81-3.2-1.18-1.53-.68-1.65-1-3.66-1.51.14-.37.5-.55,1.09-.55.49-.52,5.16-10.33,6.54-8.72.53,2.49-4.72,7.59-4.32,9.5l8.14,3.04c.96-4.37.83-18.85,3.01-21.8.66-.89,1.35-1.21,2.45-1.1Z"/>
  <path class="st62" d="M61.07,661.23c.03.07.72.19.97.92.41,1.19.45,5.95.67,6.17.77.79,2.84-1.5,3.82.54.16.34.42,1.21.55,1.64.15.53-.14,1.49.13,2.3.54,1.66,3.47,6.67,2.05,7.78-.46.36-5.15,2.04-5.66,1.96-.55-.09-1.23-3.39-2.25-3.86v2.72c-1.31-2.21-7.42-3.02-8.46-4.08-.36-.37-1.81-5.48-1.63-5.72.13-.18,3.88-1.66,4.1-1.64.54.06.63,1.67,1.12,1.66.32,0,4.6-1.68,4.59-1.95-2.7-1.61-3.74-5.46-4.35-8.45,1.26-.37,2.71-.37,4.36,0Z"/>
  <path class="st74" d="M1212.03,747.36c-.01.06.65.51.46,1.2-.22.83-1.81,4.93-2.18,5.52-.74,1.17-2.62.63-2.09,1.72.17.36,3.79,1.79,4.18,1.82.71.05,2.7-1.67,4.54-.45.15.27,1.06.48,1.08.89.02.46-1.29,5.05-1.62,5.39-.95.97-7.09,2-8.46,4.08v-2.72c-1.38.5-1.21,3.67-1.36,3.82-.81.82-6.26-2.19-7.63-2.19,1.41-3.38,3.61-7.78,3.82-11.44.72-.52,3.66-.43,3.8-.57.68-.67-.53-6.69,2.2-6.52.65-.87,1.74-1.06,3.27-.55Z"/>
  <path class="st73" d="M79.61,586.01c2.51.47,5.17,0,6.96-1.1l.44.75c3.26-1.22,6.54-2.35,9.84-3.4,1.02-.35,1.09.35.21,2.11,4.61,2.27,10.79.81,15.68,2.31l1.23,6.96.55,9.27c5.29-1.07,10.15-3.88,15.81-3.81-1.06,2.12-3.91.95-5.45,1.31-1.91.44-9.3,3.81-10.02,3.56-1.73-.58-1.42-10.34-2.05-12.42l-16.02-2.25.83,1.62-3.81-.54c-2.03-.57-9.16-1.71-11.09-1.41-2.2.33-4.85,1.6-6.91,2.5-2.13.27-2.31-2.5,0-2.73,1.67-.72,2.47-1.76,2.42-3.11l.85-.16c.76-.74,1.09-.4.55.55Z"/>
  <path class="st6" d="M1222.39,755.54c.07.42-.22,1.3.06,1.55.17.15,4.01.76,4.25.59.31-.22,1.82-6.37,4.4-5.95l-3.27,6.25,5.16,2.48,1.39-5.47c-.05,2.25.37,3.65.55,5.45,1.29.56,1.22,1.27.5,2.32l6.2,3.84c.2-.97.7-1.57,1.48-1.8.08-1.46.67-4.54,1.09-6,.13,3.5-.04,8.99,1.11,12.26.54,1.55,2.2,1.44,2.11,3.28-.02.35-1.6,5.99-1.85,6.82-.56,1.81-3.96,7.84-2.46,9,.35.27,2.4.94,3.28,1.36-.95.37-.29,1.69-.6,2.14-.16.23-.79-.04-1.03.04,1.41-2.66-4.56-1.54-4.88-3.04,2.1-6.56,8.09-14.09,2.18-20.16-6.81-6.98-15.55-8-24.56-5.7l13.08-4.9c-1.97.48-3.11-1.98-3.34-2.1-.2-.11-3.18.7-4.6.5-.99-.14-.68-.96-1.17-1.11-1.14-.34-3.19-.09-4.52-.57.02-.19-.05-.51,0-.55,1.48-1.13.93-.74,1.64-3.27.92-.46.79.28.55,1.09.07.96-1,2.29.31,2.69,1.85.57,1.8-.28,2.42-1.6.77-.72,1.1-.39.55.55Z"/>
  <path class="st22" d="M1258.38,715.2c2.39,1.91-.83,4.37-1.37,6.53-.38,1.52-.11,2.97-.51,4.4-.54,1.93-4.76,11.03-4.62,11.64.26,1.17,6.21,2.62,7.59,3.05-.15-2.86.05-8.19,3.82-8.17.85.87-2.79,7.42-2.7,8.45.06.78,2.74,1.15,3.2.76.34-.29.58-4.68,2.47-5.98,4.42-3.04-.93,5.88-.24,6.57l4.91,1.09c-.34.36-.54.6-1.09.55-3.23-.83-6.61-.96-9.82-1.9-2.74-.79-5.58-2.73-8.65-3.07l7.02-23.92Z"/>
  <path class="st21" d="M1203.31,663.41c.77-.68,1.95-1.18,2.97-1.08,3.78.38,3.56,6.74-.25,8.17-3.32,1.11-4.31-5.68-2.73-7.09Z"/>
  <path class="st69" d="M1198.95,697.21c1.39.16,3.68-.5,4.63.53.31.34-1.36,1.6,2.46,1.1-6.27.89-14.8,3.41-19.08,8.18l-.55-1.09c.54-.63.7-1.64,1.62-2.47,3.49-3.17,10.14-4.55,14.74-5.16l-3.81-1.08Z"/>
  <path class="st41" d="M1243.11,764.81c-.07,1.35-.11,2.58.55,3.81-.77.57-8.64-5.18-10.36-5.72-.15-.36,1.87-.09,1.63-2.45,3.16.54,5.74,2.43,8.18,4.36Z"/>
  <path class="st23" d="M1249.11,790.43c.37,1.32-.4,2.05,2.18,2.18.31-4.94,4.34-8.13,1.35-.55-.42,1.06.96.33,1.38,1.1-4.08-.14-3.97.09-7.63-1.64.36-.14,1.51.17,1.64,0,.11-.13.21-2.15.54-3.28.52.24.7.97.55,2.18Z"/>
  <path class="st3" d="M51.8,722.29c1.35,2.51,2.65,1.16,4.9,1.09.23-.22-3.52-6.26-.27-4.91.99.41.35,6.04,4.09,4.37-1.59.44-7.29,2.65-8.48,1.1-.39-.5-.11-1.35-.24-1.64Z"/>
  <path class="st3" d="M1208.76,808.96c3.74,1.67,3.1-3.96,4.09-4.37,3.25-1.35-.5,4.69-.27,4.91,2.25.07,3.56,1.42,4.9-1.09-.33.71.49,1.94-1.38,2.21-.59.09-4.92-.6-5.78-.81-.73-.18-1.26-.77-1.57-.86Z"/>
  <path class="st5" d="M1187.5,747.36c1.78.31.89-.91,1.07-1.9.31-1.73.29-4.5,2.74-4.64.19,2.82-4.1,7.42.54,7.63.24-1.94.85-5.23,3.27-5.45.49.52-1.8,3.87-1.64,5.17.08.64,2.14-.4,1.64,1.37-3.36-.63-4.56-1-7.63-2.18Z"/>
  <path class="st5" d="M74.16,662.87c.5-.29,1.64-.59,1.67-.85.15-1.22-2.17-4.62-1.67-5.15,2.43.22,3.03,3.51,3.27,5.45,4.64-.21.35-4.81.54-7.63,2.43.13,2.46,2.9,2.74,4.64.16,1.01-.7,2.21,1.07,1.9-.17.06-.5.63-1.07.82-2.16.72-4.29.98-6.56.82Z"/>
  <path class="st34" d="M1182.59,671.59c-.72-1.21,2.56-8.44,3.81-7.08-.2,2.63-1.8,4.71-2.72,7.08,1.65-.01,3.6-.16,4.91,1.1-1.32.26-4.45-.79-6-1.09Z"/>
  <path class="st60" d="M61.62,722.29c-.27.09-.59.41-1.09.55.44-.38-3.73-7.16-1.36-7.08,1.78.06,1.68,5.48,2.45,6.53Z"/>
  <path class="st60" d="M1208.76,808.96c-.5-.14-.82-.45-1.09-.55.78-1.05.68-6.47,2.45-6.53,2.37-.08-1.8,6.7-1.36,7.08Z"/>
  <path class="st69" d="M1212.03,697.76l-1.08.56c-.22.9,1.04.32,1.63,1.08-.52-.12-3.85-.52-4.36-.55,2.93-.41.27-1.58-1.91-1.09l-.27-.54,6,.55Z"/>
  <path class="st34" d="M1195.13,674.86c-1.96-.36-5.09-.17-4.27-2.91.19-.64.95-.8,1-.9-.1.64-.76,1.64-.32,2.21.12.16,3.03,1.39,3.6,1.61Z"/>
  <path class="st60" d="M62.16,722.29c.85-1.96,4.35-.78,4.36-3.27.09.28,1.08.65.31,1.67-.51.67-3.63,1.21-4.67,1.6Z"/>
  <path class="st60" d="M1207.13,808.42c-1.68-.63-6.35-.99-4.36-3.27,0,2.49,3.51,1.31,4.36,3.27Z"/>
  <path class="st34" d="M1193.49,665.59c.77-.89,1.37-2.37,2.72-2.18.37,1.37-1.18,2.04-1.63,2.72l-1.09-.55Z"/>
  <path class="st34" d="M1179.86,671.05c-1.31-.32-3.16-.12-3.82-1.64,1.3.43,3.24.23,3.82,1.64Z"/>
  <path class="st30" d="M1286.73,742.46c.04,8.89-.01,17.82,0,26.71l-3.27-.55c2.91-7.54.83-5.58-1.89-.12-1.54-.83-7.9-1.94-7.93-3.94,2.07-2.56,3.24-13.6,5.83-14.37,1.06-.32,2.34-.03,3.44-.1l1.09-8.72,2.72,1.09Z"/>
  <path class="st10" d="M11.32,671.13c4.04-.72,7.77,6.4,4.13,8.53-5.96,3.49-9.41-7.58-4.13-8.53Z"/>
  <path class="st50" d="M15.25,689.06c.15.18-.05,1.15.02,1.6-2.52-.64-3.69,1.77-5.99,1.63-.48-1.97-1.95-6.44-.85-8.18,1.45-2.28,4.26,3.94,4.9,4.42s1.85.46,1.91.53Z"/>
  <path class="st37" d="M19.09,706.48c2.83-.91-1.32-6.32-.54-7.08.12-.12,1.85-.31,1.77.68l2.04,5.31c-1.3.48-1.8.71-3.27,1.09Z"/>
  <path class="st37" d="M18,706.48c-.95.19-1.72.39-2.73.55.42-.77,1.8-.04,1.38-1.1-3-7.58,1.05-4.38,1.35.55Z"/>
  <path class="st74" d="M28.36,625.26c4.44-1.22,10.34.08,14.73,1.36,8.41,2.44,12.54,6.67,11.98,15.81-.09,1.51-.7,6.91-1.06,8.11-.19.64-1.52.3-1.98.86-.81.96.93,3.6,1.27,4.81,1.05,3.81,1.79,7.82,3.94,11.31-.03.45-8,3.48-8.45,3.41-1.24-.18-1.31-4.37-2.97-4.78-.26,1.87.87,3.34,1.63,4.9-1.39-.38-3.45.81-4.57.6-.39-.08-2.29-6.48-4.7-6.04-.59.61,3.94,5.57,3.27,7.08-1.87-.21-3.61,1.41-5.18,1.65s-.66-2.99-.79-4.14c-.08-.71-.55-1.2-.57-1.32-.31-2.49-.28-9.13-2.19-10.63s-14.83-.91-16.35-2.47c-1.76-1.79,3.84.22,3.85-2.97,0-4.77-6.96-12.44-5.24-17.77,1.09-3.36,10.08-8.87,13.39-9.78Z"/>
  <path class="st74" d="M47.99,568.02l.58-.92c5.06.93,10.18,1.22,15.31,1.46,2.98-1.28,4.71,7.84,4.21,8.72-.81,1.44-1.13,1.19-2.11,0l-1.09.53c-3.87-2.16-4.56,3.35-1.94,5.32l.31,1.24.88.33c1.94-1.17,3.46-1.51,4.55-1.01.08,6.71,1.24,9.02,3.48,6.91l1.49.23c1.2,5.55,2.88,10.98,5.05,16.28.16,1.09-7.64,3.33-9.04,3.6-1.5.29-5.3.78-5.99.07-.1-.11-1.36-2.75-1.27-2.63.68.85,1.96,2.48.84,2.93l-6,.55c-.18-.64.1-1.96-.07-2.91-.33-1.81-1.4-10.37-2.1-10.99-5.26-1.62-16.89-.33-20.72-5.17-5.57-7.03,5.88-22.96,13.63-24.53Z"/>
  <path class="st74" d="M53.44,613.26c-4.45.96-7.47,4.89-9.67,5.36-1.37.29-2.35-1-2.6-.99-1.65.08.33,5.84-2.28,6.45-1.1.25-4.91-.93-6.44-.89-1.86.05-4.94.98-6.81,1.52-5.41-.63-8.57-4.27-7.39-9.85,1.31-6.2,7.84-12.66,13.79-14.56,7.67-2.45,24.64,2.06,21.41,12.96Z"/>
  <path class="st36" d="M21.19,658.59c.18.28,1.36,6.19,1.17,6.46-4.61-3.34-10.17-4.83-15.81-5.45-.21-1.5.17-.84.81-1.09,1.16-.46,4.79-2.1,5.51-2.17.65-.07,8.09,1.9,8.32,2.26Z"/>
  <path class="st41" d="M34.36,674.32c-.23,2.36,1.78,2.09,1.63,2.45-1.5.63-9.69,6.37-10.35,5.72.03-1.33.59-2.44.54-3.81,2.45-1.93,5.01-3.83,8.18-4.36Z"/>
  <path class="st39" d="M47.99,568.02c1.04-1.58.41-.83-.66-1.24-3.95-1.48-10.76-3.93-11.34-8.84-1.51-12.78,8.13-25.01,18.79-30.84,8.27-4.52,18.97-3.01,27.69-.38,5.17,1.56,10.43,5.67,12.96,10.48,1.8,3.43,1.21,13.9.51,17.98-.22,1.31-1.77,2.72-1.07,4.66-.96.35-1.23-.35-1.63-.54-.14-.72-.09-1.45,0-2.15,2.33-16.96,2.78-25.85-17.08-30.04-17.42-3.67-29.46,4.51-36.92,19.99-8.53,17.72,13.03,19.56,25.28,19.4,3.72.35,4.55,3.43,5.03,6.58l1.58,15.11c.93.02,1.93.2,3.02.54.73-.31,1.28-.31,1.64,0-1.2,1.06,0,2.42,0,2.73-.02,2.15-.54,4.08.13,6.69s6.87,13.24,2.21,14.5c-2.8.76-3.52-2.42-4.3-2.61-.59-.14-2.77,1.35-3.91,1.5-1.27.17-2.02-.44-2.85-.45-2.22-.01-.98,1.57-1.09,1.63-.88.51-4.14-.91-5.45-.55-.02-1.28,2.67.17,2.72-1.08.04-1.14-3.12-4.99-3.27-6.54,4.01,2.55,2.61,7.65,8.72,5.45l-2.18-4.9c1.16-1.16,3.03,4.03,2.73,4.9l8.73-3.01c-2.27-5.06-3.61-10.18-4.92-15.53-1.46.07-2.22,1.84-3.85.86-.95-.7-.58-6.57-1.31-7.96-.57-1.08-3.4,1.81-4.65.01,1.86-1.21,2.74-3.45,2.24-5.97l.49-1.12c1.62.29,1.14-.78,1.02-1.83-.23-1.97-.81-3.93-1.66-5.72l-17.36-1.73Z"/>
  <path class="st62" d="M56.16,656.33l-1.08,2.72c.42-3.6-1.94-5.39.09-8.89.78-1.34,4.53-.55,4.88-.05.26.37.88,3.16.97,3.84.13,1.04.57,2.13-1.03,1.83-.97.57-2.24.75-3.82.55Z"/>
  <path class="st52" d="M59.98,655.78c.74.52,2.82,3.45,1.91,4.36l-1.36-1.09c-.18.88.21,1.45.54,2.18-1.57,1.56-2.67,1.07-4.36,0-.27-1.31-.84-3.71-.55-4.91.39-1.59,2.68-1.35,3.82-.55Z"/>
  <path class="st55" d="M69.8,660.14l-.55.55c-.24-.44-2.9-2.95-2.18-3.82,2.3.35,2.07,2.32,2.72,3.27Z"/>
  <path class="st20" d="M779.13,544.58c3.47,1.24,6.55,3.34,9.55,5.44l.26-1.08c6.85-1.06,11.39,4.7,16.9,6.82,9.08,3.49,21.37,6.18,30.98,9.36,4.12,1.37,7.65,3.28,12.1,3.44-.3.76-.3,2.12-.55,2.72l.73,1.05c-5.39,9.64-13.8,16.49-23.5,21.6-2.48,1.59-4.84,3.42-6.69,5.74-5.47,9.26-5.74-.19-2.39-5.07,2.36-3.36,4.38-6.89,6.04-10.59-6.38,4.91-13.12,9.62-20.24,14.11-6.01,4.37-10.16,10.48-12.46,17.49,1.29.3,1.55,1.27,1.77,2.4,2.85-3.17,5.92-2.15,9.2,3.05,2.5-2.14,5.52-3.59,9.03-4.34,5.29-1.07,10.18-2.76,14.69-5.08,2.67-.17,9.74.83,5.33,3.25-6.7,3.66-10.62,7.44-14.38,14.27-.92-1.03-1.66-2.35-2.22-3.97-4.3-10.05-12.65,7.91-14.04,11.78-.15,3.77-1.15,5.25-3.02,4.45-11.33-7.48-6.03,6.93.65,5.04,5.72-3.98,12.47-7.12,19.1-9.58.54-.2.95-.12,1.2.34,3.06-1.14,6.2-1.86,9.4-2.17,2.02-1.01,6.16-.76,8.45,0,.24-.13.42-.24.39-.25-5.71-1.37-13.15.83-18.62,2.59-.4-.3-.78-.52-1.07-.43-6.08,1.81-13.42,5.8-18.61,9.41-2.52.78-5.35-.75-6.62-2.95-3.41-5.94,2.56-4.2,5.72-2.01,1.92.88,2.91-.56,2.97-4.31,1.05-2.76,6.92-13.77,9.12-14.86,3.24-1.6,5.65,3.82,6.4,6.3l1.09.21c3.57-6.44,8.14-11.28,14.82-14.27.28-1.28.47-1.63,1.16-2.6.8-1.13,11.21-6.01,12.57-5.72,1.17.25,1.65.78,2.07,1.9,5.7-1.68,11.58-2.52,17.66-2.52l11.78-2.67c4.19,2.57-1.54,4.07-4.17,4.59-8.86,1.98-16.67,3.74-24.59,8.34-9.03,5.25-5.94,12.4.71,18.33,1.78.76,2.88,1.78,3.3,3.09,3.16,1.47,6.68,3.16,10.36,2.73-1.41,4.94.09,7.56,3.29,11.16,2.72,3.06,6.78,5.92,10.89,6.29-1.46,3.5.1,8.49-3.27,10.9-7.63,5.13-16.9,7.2-26.03,6.09-9.8-7.48-18.08-3.72-27.8,1.64-4.88,3.16-10.38,5.18-16,6.62-9.11,4.39-18.54,8.11-28.31,10.74-1.97.82-8.11,3.49-9.68,3.73-1.16.18-2.04-.49-3.01-.35-.69.09-1.42.88-2.35.99-2.98.34-8.68-3.59-11.78-4.53-8.81-2.67-16.18-.02-24.43,2.89-.63-.14-.63.77,0,2.73.06.52.76,1.98.54,2.18-2.15.18-4.59-.3-6.69.13s-3.87,2.2-6.73,2.54c-2.53.3-8.93.41-11.36.03-1.95-.31-3.85-2.21-5.61-2.57-10.28-2.1-19.53,5.89-29.73,5.76l-4.76-2.61c5.94-2.01,11.51-11.75,5.46-16.65-2.23-1.81-4.91-1.14-6.01-4.07-.17-1.48,0-2.75.55-3.82-.36-1.58-.36-3.22,0-4.91-.34-.88-.16-1.86.54-2.95,4.73-7,6.92-13.5,7.56-21.81l-.84-.82c-15.17-2.31-31.28-4.25-46.83-2.78-4.32.14-8.28,1.27-11.89,3.41-9.93,6.92-19.67,12.23-31.06,15.58-2.78,1.55-4.29,3.44-4.49,6.48,11.08-.21,21.92-1.86,32.53-4.95,12.62-2.31,23.19-4.01,32.45,7.07,4.34,5.52,9.31,10.04,14.92,13.56,1.1,1.51.09,3.82-1.61,3.01-2.91,2.75-8.85,9.43-12.1,10.52-9.02,3.02-25.52,3.93-35.17,3.95-7.9.01-17.26-3.63-26.06-4.11-14.71-.79-32.13-.72-46.86-.58-13.5.13-24.12,3.43-36.56,4.38-3.8.29-11.37-.04-14.85-1.49-2.54-1.06-3.48-4.58-7.22-6.13-1.25.09-1.43.27-.55.55.41,3.33-1.32,5.76.26,9.82.21.54,5.41,7.67,5.98,8.19,4.16,3.84,13.33,5.31,18.83,7.06,1.96.62,7.27,2.09,8.18,3.27-19.73,2.25-40.48,3.2-59.65-1.58-10.5-2.62-18.67-9.85-24.64-18.81-3.47-5.21-7.9-12.08-6.99-18.39-3.08-18.97-4.21-31.36,5.4-48.12,4.55-7.94,10.97-18.41,16.64-25.38.32-.39.45-.85.41-1.35,18.04-11.37,39.1-19.83,59.63-27.62,45.46-17.24,90.73-29.35,138.68-37.4,36.13-6.07,72.42-11.17,108.72-16.11,2-.27,3.96-.8,5.91-1.41,5.23,4.95,9.13,7.86,16.22,10.11,5.19,1.1,10.19,2.61,15.01,4.53Z"/>
  <path class="st20" d="M894.17,506.42c-.95,3.48-6.54,6.66-9.86,7.87-12.22,4.48-26.03,5.78-39.22,6.85-32.36,1.32-64.58,3.71-96.69,8.64l-.58.59c-36.92,5.18-75.14,10.56-112.65,16.76-65.61,10.67-129.85,29.96-189.54,58.9-7.12,4.16-14.36,7.95-21.98,11.05-26.5,14.05-53.35,27.77-77.92,45.02l-17.49,13.85c-1.07-1.25,5.02-12.41,6.1-14.33,20.6-36.55,44.01-53.23,77.14-77.14.92-.67,5-2.82,5.09-3.1.2-.59.23-1.67-.81-1.35-7.25,3.27-14.06,7.5-21.18,10.99-7.43,3.64-15.03,7.29-22.53,10.73-15.81,7.25-34.13,13.16-48.89,21.99-1.65.99-12.78,9.18-13.46,8.61,3.35-4.67,6.68-9.48,10.37-13.88,18.15-21.65,50.59-43.76,75.76-56.72,1.56-.8,10.03-4.27,10.37-4.9.56-1.05-.83-.77-1.35-.81-4.9-.38-9.11,1.5-13.7,2.12-20.56,2.79-42.85,2.74-62.52,9.99-5.41,2-10.54,4.91-15.93,6.97-1.13-.86-.05-.91.41-1.26,5.94-4.61,16.24-9.78,23.11-13.39,92-48.47,188.29-66.08,291.64-69.83,14.93-.54,29.95-1.55,44.96-1.11,21.23.67,42.43,2.05,63.62,4.14,29.28,1.42,58.6,2.59,87.95,3.5,4.47.17,9.16-.28,13.35-.04,1.73.1,9.3,1.66,10.1,1.13l-.55-1.08c9.42-1.7,21.66-3.31,29.73-8.71,2.6-1.74,4.82-4.24,7.4-6.23,3.33-2.57,8.02-3.92,9.49-8.5,3.65,8.87,5.13,24.17.28,32.7Z"/>
  <path class="st20" d="M425.82,617.08c.27-1.36,8.56-5.31,9.06-4.87.2.17.3.46.37.79-5.77,7.88-11.16,16.03-16.26,24.34-10.71,17.47-9.71,30.13-6.5,49.76l.09,6.27c6.87,13.51,16.34,28.26,32.68,31.41,20.2,3.89,38.71,3.54,59.07,1.86,33.17-2.85,66.66-9.15,99.9-2.03,9.98,2.14,19.94,4.95,29.58,8.04,11.16,3.57,22.56,7.91,34.37,8.71,4.6.31,9.63-.4,14.17.01,16.91,1.54,28,4.88,44.98-1.92,14.18-5.68,26.25-9.82,41.03-14.03,1.93-.55,4.09-2.2,1.51,1.23-5.92,7.87-9.24,12.37-16.03,19.68-4.54,4.89-6.25,10.37-13.82,11.81-17.3,3.3-42.52.98-60.37.11-11.19-.55-20.94-.2-32.13-2.76-11.22-2.57-19.54-8.72-31.15-10.28-13.88-1.86-28.27-4.36-42.36-2.05-11.9,1.95-20.96,6.38-32.03,9.4-17.05,4.65-36.14,2.56-53.72,1.65-14.3-.74-18.32-3.08-31.36-7.11-5.54-1.71-11.17-2.6-16.89-4.65-3.8-1.37-9.41-3.4-12.72-5.55-2.69-1.74-5.31-4.96-7.72-6.45-4.88-3.02-7.47-2.29-10.36-8.72-4.94-11.02-10.6-29.61-9.78-41.5.2-2.97,1.44-6.79,1.86-10.01,2.6-19.96,7.21-40.64,24.54-53.14Z"/>
  <path class="st7" d="M850.01,589.82l.81,1.25c-.4.81-4.03,14.21-3.41,13.85,3.43-4.2,7.27-7.75,11.53-10.63,2.54,1.2,4.33,3.63,5.36,7.29l2.84-8.39c.72-1.91,1.83-4.17,3.93-2.55l4.19,5.47c.71-3.64,2.25-6.99,4.62-10.03l1.21.48,3.82,5.19c-2.81.71,1.78,1.45,1.64,3.53,1.14.13.25-1.89.54-2.18.21-.21,5.01.16,6,0,.3,1.45-.99,2.04-3.85,1.75-.05.16.73,3.27.9,3.27.93-.02,6.92-3.61,6.76-5.02,2.78-.42,2.88.66,1.09,2.46-.09.4.57.37.81.27.42-.19,6.22-5.59,6.82-6.27,4.42-4.96,5.41-15.23,8.59-20.29.35-.56-.03-.96,1.23-.69-.05,2.08.1,4.18,0,6.26-.44,9.27-3.22,15.69-7.22,23.86-.36.74-.99,1.18-1.46,1.83l.04.69c.29.19.84.36,1.01.61l.05,1.47c-4.55,7.57-17.92,21.96-26.24,24.33-.72.21-1.47.04-2.16-.18-.52-1.14-1.68-.19-2.38.07-1.9.7-4.76,1.8-6.42,2.85-2.4,1.52-7.59,7.99-9.03,8.41-3.36,1-6.91-1.27-9.94-2.38-1.57-.58-1.21-.12-.59.86-3.85-1.79-6.44-3.62-8.58-7.5-3.92-7.12-2.55-10.44,3.96-14.83,8.68-5.84,19.09-6.47,28.61-9.58.5-.16,1.97-.52,1.08-1.34-.46-.43-10.59,2.61-12.31,2.68-3.43.52-7.39.25-10.72.73-1.7.24-6.97,2.46-7.93,1.4-.06-.07.48-1.39-.4-1.54-1.91-.32-11.56,4.44-13.35,6.27.15.64,1.53-.14,1.67.57.59,2.91-1.35,7.02-1.13,10.06-1.09-.27-.9-.79-.86-1.63.09-2.22,1.02-5.36,1.41-7.63-1.68-1.18-9.46,4.75-10.92,6.25-2.74,2.82-4.13,6.67-6.8,9.54-.65,0-1.82-9.95-6.26-7.9-1.96.91-8.15,11.99-9.02,14.44-.46,1.28-.08,3.9-1.35,4.68-1.33.82-4.9-1.37-6.25-1.97-.61-.27-.97-1.05-1.67.02-1.14,1.76,1.61,4.97,3.15,5.59,4.05,1.65,4.27-.68,6.92-2.07,8.64-4.52,18.21-8.94,28.12-9.5,6.37-.36,12.99,1.07,14.44,8.17-1.14-1.81-5.83-7.09-7.9-7.09h-8.45c-.24,1.43.19.85.78,1.14,3.68,1.83,6.08,3.72,6.85,8.12-2.01-.73-2.94-2.06-5.21-2.69-3.51-.98-7.77-1.06-10.87,1.05-2.45,1.66-3.67,5.62-6.81,5.45l6.27-5.99c4.28-3.56,10.32-1.82,14.99,0-5.35-10.22-17.71-5.15-22.08,3.27-.79-.4.09-1.33.38-1.8,1.34-2.17,2.81-3.46,4.65-5.12.37-.34,1.6-.35.43-1.24-5.16,2.48-10.92,4.79-15.93,7.51-2.03,1.1-1.67,2.55-4.73,2.27-2.46-.23-4.87-1.84-5.53-4.32-2.45-9.24,6.71.17,8.46-1.65-.22-3.86,2.22-8.09,4.15-11.39.72-1.23,4.91-7.49,5.67-7.96,3.17-1.97,6.59,4.39,7.36,6.8,2.59-3.82,4.81-7.65,8.5-10.57,1.83-1.45,3.96-2.28,5.79-3.46.54-.34.97.06.7-1.22-2.04.24-4.12-1.06-6.15-.44-.74.23-1.3,1.25-2.25,1.57-5.13,1.73-15.51,3.8-19.62,6.57-.71.48-.79,1.57-1.14,1.58-1.63.03-4.3-6.62-7.34-5.21-.81.38-1.86,2.89-3.16,1.23-.42-.54-.09-1.88-1.22-2.03l-.82,2.72c-1.15-1.28.52-5,1.11-6.51,5.37-13.76,15.39-17.58,26.6-25.19,1.63-1.11,5.32-4.8,6.64-5.35s.74,1.62.55,2.19c-2.13,6.59-9.02,11.67-8.2,19.06,4.12-9.57,13.92-11.94,21.01-17.7,3.49-2.84,10.33-10.4,11.98-14.46l.68.41,4.22-6.95c.29,8.12-1.69,14.7-3.57,22.32-.2.83-.69,2.23.31,2.75Z"/>
  <path class="st20" d="M779.13,544.03c-7.28-1.62-14.41-3.76-21.39-6.43-1.86-.99-9.65-6.11-7.79-7.81,30.32-4.89,61.88-7.45,93.48-8.53,10.15-.65,20.26-1.81,30.22-3.89,8.06-1.68,14.72-4.22,20.51-9.32,1.09,2.51,2.88-.31,4.23-.95,5.68-2.68,6.72-1.4,11.83-2.35,3.87-.72,11.1-9.63,12.26-13.36.54-1.74.12-4.27,1.66-5.15,2.2,6.9,6.62,13.3,5.42,20.95-.7,4.47-5.37,5.38-6.98,8.29-1.74,3.14-.17,6.83-3.91,9.17-1.96,1.22-7.14,2.09-9.59,2.41-22.53,2.87-45.42,4.38-68.08,4.48-15.87.07-32.09-2.46-47.72,1.85-6.08,1.68-12.35,4.01-14.16,10.64Z"/>
  <path class="st74" d="M93.24,559.3c-.16-.07-.08-.85-1.09-.54-1.3,2.74.81,4.71,1.5,7.49.57,2.29-.09,2.43,1.22,5.05.68,1.37,1.19,2.78,1.52,4.23.49-.12.88-.19.94-.08,1.7,3.22,3.85,8.05-1.62,7.07-5.21,2.31-10.11,3.46-15.71,4.01l-.4-.52c-.09-.19-.47-.36-.55-.55h-.86c.69,2.39-2.26,2.94-4.05,3.27-1.23.49-2.41,1.18-3.81,1.09-1.07-3.93-.98-19.05-3.52-21.29-2.03-1.79-7.16-.8-9.84-1.07-16.09-1.64-26.87-6.9-16.86-24.48s25.61-21.73,43.98-14.62c13.34,5.17,12.49,16.31,10.27,28.52-.17.94.15,2.05-1.13,2.41Z"/>
  <path class="st20" d="M674.44,488.97c-19.03-.59-36.83.42-55.92,1.11-7.49.27-15.08-.03-22.59.52.26-.75,2.49-1.19,3.25-1.37,31.03-7.46,71.34-9.19,103.32-7.86,20.62.86,42.96,2.06,63.33,4.26,11.69,1.27,21.36,2.84,32.79,4.83l29.03,5.05c1.6,1.29-2.71,1.13-3.27,1.09-49.67-.25-99.94-3.48-149.94-7.63Z"/>
  <path class="st7" d="M916.52,612.17c.97,1.75-.12,2.63,0,2.72,1.54,1.21,1.67-1.31,2.16-1.91.85-1.04,2.19-2.21,3.29-2.99.04,1.64-1.88,4.23-1.67,5.7.07.49,1.19.18,1.68.85-1.19-.26-1.22.59-1.56,1.41-7.21,17.71-15.51,20.78-29.77,31.86-2.73,2.12-5.14,4.94-8.47,6.53-.14-.29.28-1.2-.26-1.08-4.14,3.2-9.95.64-13.64-2.19-1.04-.8-5.87-6.46-6.14-7.49-1.13-4.26,2.24-7.44,5.37-9.63,6.56-4.59,12.72-3.59,20.15-4.93,2.67-.48,5.35-1.8,8.16-1.93.16-.87-1.08-.57-1.63-.54l.84-1.63c8.32-3.17,15.16-8.91,21.52-14.72Z"/>
  <path class="st65" d="M894.17,508.05c-.55,1.93-8.1,6.2-10.21,6.97-16.3,5.94-40.63,6.58-58.21,7.76-12.38.83-24.69,1.4-37.08,2.18l-38.44,5.45c6.74,9.72,19,9.31,28.9,13.62v.55c-6.56-2.34-14.14-3.05-20.56-5.88-3.71-1.64-7.7-5.42-10.8-7.75-38.1,5.77-76.45,10.68-114.42,16.97-57.76,9.57-113.71,26.09-167.46,48.98-9.7,4.13-25.93,10.31-32.12,18.58-5.69,7.61-19.1,28.27-21.54,36.79-2.71,9.47-.52,28.49,1.11,38.62,1.63,10.13,13.53,24.87,22.35,29.99,7.91,4.6,28.53,6.61,37.83,6.89,10.37.3,20.02-1.47,30.28-1.66.16.2.36.37.55.55-20.68,1.78-37.64,2.87-58.48-1.23-5.62-1.1-10.24-2.9-14.76-6.5-2.07-1.65-9.58-8.9-10.96-10.84-1.67-2.35-2.65-5.82-4.22-8.32-1.13-1.79-3.62-3.84-4.23-5.59-.99-2.87.58-3.81.55-6.5-.06-4.96-1.92-11.76-2.22-16.91-.71-12.35.08-18.23,5.9-28.98,5.3-9.8,12.82-19.21,18.63-28.8-.43-.82-1.31.16-1.81.37-2.18.92-5,2.35-6.91,3.72h-2.18c32.77-17.37,63.8-30.92,98.95-43.07,61.09-21.13,128.1-30.14,192-39.71,10.08-1.51,20.91-2.1,30.87-4.04,1.92-.37,2.21-1.48,2.36-1.49,17.01-.6,34.11-4.63,51.29-5.79,25.56-1.72,57.44-.75,81.98-8.09,4.2-1.26,10.86-4.57,13.07-8.46-.08.5.12,1.21,0,1.64Z"/>
  <path class="st20" d="M850.01,589.82c1.3-5.38,3.15-10.79,3.27-16.35,2.06.52,5.73-.09,4.36,2.72,8.13.67,15.64,5.54,22.92,8.9.36.17,1.02-.28,1.07-.18.13.67-.16,1.13-.54,1.64-.19.25-.94.48-1.33,1.1-2.29,3.58-2.97,7.29-3.58,11.44l-6.26-8.16c-1.54-.05-4.49,11.19-5.19,13.07-1.88-1.15-3.47-8.84-5.62-8.64s-10.28,10.21-12.64,11.91c-.61-.86-.24-2.39-.12-3.39.48-3.92,2.63-9.76,3.66-14.05Z"/>
  <path class="st20" d="M907.8,601.81c2.59,3.82,5.93,5.3,8.72,10.36.2,1.32-.33,1.63-1.12,2.42-2.49,2.47-7.95,6.78-10.92,8.71-3.35,2.17-6.8,3.44-10.31,5.23-3.37.2-6.11,1.67-9.04,2.14-3.62.58-8.17.63-11.91,1.18-1.27.19-2.31.95-3.58,1.04-.28-1.23,1.87-2.05,2.7-2.48,2.19-1.13,4.85-1.93,7.11-2.97,9.12-4.19,15.6-9.54,22.09-17.44,2.19-2.66,3.71-5.9,6.26-8.18Z"/>
  <path class="st54" d="M824.38,496.61v.55c-26.72-1-53.69-.66-80.39-2.16-23.69-1.33-47.62-4.78-71.19-5.47l1.64-.55c33.59,1.05,66.96,4.91,100.57,6.02,16.77.55,32.63.37,49.36,1.61Z"/>
  <path class="st68" d="M896.89,593.09c.09.01,1.67.72,1.63.81-5.62,5.13-13.21,7.39-20.17,10.09.17-3.79,9.81-5.11,10.67-6.53l-1.4-3.83c1.35-.11,2.8.17,4.13.02.69-.08,1.25-.56,1.32-.57,1.11-.05,2.78-.15,3.82,0Z"/>
  <path class="st71" d="M94.88,571.29c.66,1.31,2.08,2.36,1.64,4.36l1.09-2.18c.76,2.05,4.77,8.57,2.74,10.13-.53.41-2.57-.84-3.28.77-.24-.12-.96.13-1.09,0-.97-1.02.72-1.03.77-1.08.69-.78.11-.63-.46-.52-2.94.61-5.63,2.38-8.9,3.1-2.3.51-5.03.07-7.45,1.27-.64-.04-.19-.87-.32-1.13l6-.55c-.92-2.37-2.52-4.45-2.72-7.08,1.27-1.37,4.54,5.93,3.82,7.08,3.82-1.09,7.52-3.37,11.45-3.82.9-.9-3.47-8.51-3.27-10.36Z"/>
  <path class="st71" d="M97.06,572.38c-2.22-2.37-2.83-5.46-1.09-8.18-.31,3.01.19,5.37,1.09,8.18Z"/>
  <path class="st45" d="M1190.09,624.8c6.63-1.11,6.85,13.97-2.75,11.78-5.88-1.34-2.5-10.9,2.75-11.78Z"/>
  <path class="st48" d="M1212.42,631.35c1.52-.46,5.01.29,5.51,1.92.98,3.21-1.74,10.48-5.62,10.49-5.62.01-2.88-11.5.11-12.4Z"/>
  <path class="st56" d="M1195.68,641.61c.51.5-.88,10.13-1.6,10.68-1.11.85-3.82-1.12-5.04-1.59s-3.95-.01-2.39-2.04c.45-.59,1.97-.34,2.76-1.05,1.68-1.51,1.98-7.23,6.27-6Z"/>
  <path class="st34" d="M1182.04,661.78c.32.35-1.61,5.08-1.92,5.99-.2.59-.02,2.11-1.07,1.63-2.32-1.07,1.76-8.96,2.99-7.62Z"/>
  <path class="st35" d="M874.54,678.68c-.85,3.35-4.4,11.45-7.36,13.34-12.5,2.65-25.99,3.46-39.08,4.02-.5.02-1.02-.19-1.53-.46-15.09,1.34-29.44,1.79-43.76,7.22-7.77,2.94-14.38,7.36-23.04,8.04-7.45.59-16.26.02-23.11-3.04-2.76-1.24-4.28-4.5-7.02-5.78-.69-2.4.46-4.49,2.43-5.79,4.24-2.8,3.09-.26,5.09,2.36,6.12,8.02,5.2-.49,10.35-3.54.28,3.29,1.73,7.96,4.72,9.73,6.94,4.11,4.71-2.98,7.01-5.36,4.09-4.24,8.47,4.86,11.11,3.19.43-.27,2.37-6.62,3.88-8.11,3.84-3.93,6.44-3.03,10.04.58l.94.1c1.6-4.94,4.54-8.02,8.82-9.23,1.14,1.69,2.5,3.04,4.09,4.06,1.73-7.42,5.1-9.41,10.13-5.95,3.02.76,4.99-.88,5.91-4.91,1.54-2.12,9.02-5.56,11.79-6.66,8.76-3.47,12.46-3.22,20.5,1.98,9.41,1.26,18.57-1.74,27.01-6.13.81.37.52,2.12.96,3.13s2.12,2.06,2.17,2.58c.02.25-1.7,3.93-2.03,4.64Z"/>
  <path class="st35" d="M651.55,691.76c-.19-.91-.07-2.06.37-3.45-5.75-4-10.93-9.14-15.7-14.61-9.12-10.7-19.8-8.97-32.11-6.66-10.72,3.31-21.44,4.83-32.17,4.56-.38-3.22,2.6-5.42,5.22-6.62,10.96-2.78,20.09-8.41,29.54-14.78,7.14-4.4,17.18-4.39,25.64-4.24,10.87.2,21.97,1.58,32.72,3.23,1.01-.06,1.79-.08,1.8,0,.21,3.7-1.88,11.83-3.46,15.27-3.91,5.97-6.59,11.04-5.29,18.26l-.54.29c-.33,2.3-2.9,9.46-6,8.72Z"/>
  <path class="st20" d="M875.09,679.77c.43-.85,1.79-4.74,2.46-4.9,1.25-.26,1.61,1.82,2.01,2.06,2.47,1.46,8.8-3.41,9.69-2.6.1.09-.02,1.14.31,1.58,1.07,1.4,3.87,2.62,5.7,2.77,1.3-.92,1.78-.3,1.09,1.09,1.19.97,2.63,1.61,3.27,2.18.33,1.59-.22,2.13-1.64,1.64-.18.13-.82,0-1.34.54-2.57,2.71-.57,7.34-.84,7.63-.54.02-1.09,0-1.63,0-5.98-3.74-11.41-1.44-10.36,5.99-.9-.2-1.82-.36-2.72-.54-1.83-.38-3.65-.38-5.45,0-1.58.76-1.56,1.44-2.18,2.73.16,1.82.16,3.64,0,5.45.69.69,2.06,1.04,2.72,1.91.03.98-6.21,1.82-7.36,1.9-8.65.6-33.61-7.3-40.61-12.53l1.55-.73c12.78-.32,25.4-1.7,37.86-4.14,2.82-3.61,5.12-7.6,6.91-11.97l.56-.06Z"/>
  <path class="st7" d="M923.06,650.33c-2.5,7.02-11.43,12.99-18,16.07-5.01,2.35-10.79,3.36-15.8,5.56-1.76.77-5.33,3.89-7.41,4-1.45.08-6.36-4.13-6.76-5.19-.37-1,.96-.68,1.09-1.17.51-1.95-.51-5.34.11-7.43.24-.82,3.33-3.68,4.22-3.96,3.35-1.03,7.35.37,10.67.34,4.84-.04,9.35-2.44,13.9-3.58,6.02-1.51,12.16-2.26,17.98-4.64Z"/>
  <path class="st76" d="M649.91,690.67c1.27-1.2,2.31-1.14.56-3.01-1.04-1.1-3.02-1.65-4.31-2.78-6.13-5.37-10.49-12.43-18.09-16.8-10.77-6.2-33.58,2.99-46.04,4.05-6.04.51-12,1.09-17.99,1.64-4.65.43-9.08-1.05-13.64-1.62-.49-.06-6.53.35-4.62-1.1,6.45.28,12.78,2.12,19.34,1.62.92-.07,4.92-.7,5.39-1.03.6-.42.56-2.07,1.02-2.92,2.69-4.97,10.73-5.71,15.68-7.77,8.16-3.4,20.51-11.91,28.31-16.94,8.33-5.37,25.42-18.4,28.55-27.6,1.64-4.82,3.78-14.45-.51-18.34-3.79-3.44-13.04-6.06-17.24-10.02-2.97-1.3-4.95.05-7.49,1.21,5.15-6.2,9.68-.7,14.56,2.08,2.37,1.35,10.13,4.91,11.47,6.25,2.24,2.24,2.04,10.53,1.64,13.61-1.94,15.29-20.27,26.11-31.66,34.31-.55.4-1.31.81-1.46,1.53,9.65-2.61,19.27-1.75,29.1-1.02,4.66.35,9.56.61,14.24,1.03,1.61.14,9.43,2.33,10.09,1.63-.62-6.32,6.47-8.07,9.56-11.97,5.3-6.69,4.45-12.25,5.94-19.68.83-4.11,8.84-13.63,12.08-16.81.31-.3,2.26-1.82,2.39-1.69l-12.48,15.59c-1.92,8.56-1.87,18.1-8.48,24.77-1.63,1.65-4.63,2.9-6.03,4.33-3.13,3.21-2.84,13.93-4.61,18.83-1.6,4.43-5.06,8.19-6.56,12.79-.35,1.66-.35,3.3,0,4.91-.04,1.2.42,3.06-.55,3.82-.09-.24-.32-.43-.55-.55.32-2.28-.29-5.7.13-8.32.77-4.79,5.2-9.37,6.66-14.06,1.11-3.56.85-7.32,1.93-10.87-4.47-.45-8.89-1.19-13.36-1.62-13.58-1.3-27.66-3.09-41.08.33-7.69,1.96-15.63,10.23-23.98,13.64-5.45,2.23-13.57,2.37-15.36,8.9,13.47,1.49,26.08-4.42,39.05-5.92,6.8-.79,12.2-1.28,18.17,2.41,7.46,4.61,12.4,12.83,18.83,17.7,2.74,2.08,5.95,1.02,3.01,6.54-.27-.07-.71-1.49-1.64-1.09Z"/>
  <path class="st20" d="M895.26,678.68c-1.41-1.09-5.38-2.93-5.35-4.18.05-2.2,8.12-4.06,10.13-4.4,12.98-2.18,23.08.26,32.84,9.11-1.22.17-2.92-.3-4.03.08-.88.3-.69,1.58-1.16,1.58-1.43-.01-4.18-3.32-8.13-2.72-.41.06-2.24.96-2.37,1.18-.87,1.52,1.55,5.83-.67,4.25l-1.22.17c-2.98-3.95-9.15-4.08-9.69,1.46-1.48.2-6.5-6.23-9.27-5.45-.3-.24-.56-.68-1.09-1.09Z"/>
  <path class="st7" d="M872.36,668.32c.36-.04.73.03,1.09,0-4.07,2.86-10.57,6.02-15.53,6.55-1.96.21-8.6.67-10.29.52-2.55-.23-5.47-3.21-8.51-4.08-3.23-.93-5.6-1-8.84-.1-1.69.47-11.24,4.88-12.71,5.83-5,3.22-2.08,9.28-9.23,8.15-2.06-.33-4.02-2.95-5.76-1.88-3.71,2.3-1.36,14.25-9.54,3.03-.91,1.11-2.31,1.65-3.24,2.74-1.01,1.18-3.54,7-3.94,7.09-3.49.82-4.96-3.39-6.57-3.77-1.16-.28-4.21,1.25-5.07,2.1v-1.09c14.66-6.08,29.45-11.75,44.15-17.73,7.22-2.93,12.33-8.02,20.85-5.56,3.35.97,6.49,4.33,9.96,4.26,1.6-.04,2.75-.89,3.89-.97,1.57-.11,3.09.55,5.25.24,4.63-.67,10.73-4.94,14.03-5.32Z"/>
  <path class="st12" d="M470.53,697.76c-7.51-.62-12.68-.32-19.25-4.47-2.2-1.39-8.31-5.55-6.14-8.65,1.41-2.01,10.81,2.22,13.39,1.12-1.8-6.66.9-13.15,4.47-18.7,4.36-6.79,17.98-18.43,25.93-19.86,2.7-.49,5.87.07,8.53-1.29,4.47-5.31,8.64-11.84,13.6-16.65,3.18-3.08,7-4.9,10.17-7.54,2.81-2.35,4.45-5.49,7.08-7.91-2.29,7.92-10.75,10.71-16.1,15.79-8.95,8.5-22.22,27.79-29.05,38.55-3.15,4.97-5.5,10.78-8.86,15.67-3.57,3.1-13.64,3.43-18.22,3.03-1.9-.17-9.38-2.58-10.03-1.56-1.31,2.08,3.13,5.32,4.66,6.38,2.04,1.4,5.31,3.16,7.69,3.76,4.44,1.12,8.36,0,12.66,1.78-.32-.11-.57.32-.55.55Z"/>
  <path class="st13" d="M722.97,698.85c-2.16-5.16-4-6.44-3.03-12.57.43-2.72,4.09-10.21,6.34-11.66.69-.45,2.41-.66,2.6-.94.14-.2.58-3.74.91-4.81.46-1.5,2.83-9.16,3.27-9.81.79-1.18,3.33.74,4.05,1.39,1,.9,2.13,3.31,2.3,3.41,1.62.95,9.3-4.9,9.99-6.45.55-1.24.16-2.92.52-4.38.51-2.08,1.6-4.2,1.67-5.96-4.43,3.18-12.52,5.78-17.98,6.01-.79.03-2.2.44-1.92-.83,1.97-1.11,4.35-1.21,6.48-2.25,7.12-3.46,20.92-17.29,24.71-24.36,3.13-5.83,1.58-9.55,1.48-15.37-.02-1.11-.15-2.65,1.13-3-1.1,2.4.35,3.86.51,5.77.72,8.55-2.01,13.66-7.04,20.13s-12.21,12.09-19.08,16.9c-.11,1.44.24.54.95.41,1.86-.34,4.28-.91,6.02-1.62s6.43-4.9,6.02-1.11c-.26,2.42-3.16,5.71-1.82,8.58l9.04-7.86,4.86-2.77c-5.12,3.87-9.49,8.81-14.46,12.8-1.39,1.12-7.81,5.96-8.97,6.32-2.9.89-3.23-1.9-5.21-3.57-.53-.45-2.2-2.02-2.72-1.11-.75,1.31-2.92,8.84-3.41,10.77-.26,1.02.12,2.77-.36,3.45-.43.6-1.81.41-2.45.82-4.13,2.64-7.7,12.04-6.6,16.85.47,2.06,1.94,3.03,2.2,4.1.17.71-.09,1.89,0,2.73Z"/>
  <path class="st7" d="M894.17,691.76c2.31,1.44,8.32,7.72,9.84,10.06.44.67.67,1.09.52,1.93-4.55.95-7.09-1.16-10.92-2.44s-9.32-.93-8.66-6.5c.71-6.02,5.4-2.98,9.22-3.06Z"/>
  <path class="st7" d="M873.45,699.94l.54,1.35c.81-6.17,11.15-3.05,13.33.32.43.66.28,1.71.83,2.44,1.09,1.44,3.25,2.49,3.84,4.33.01.5-5.95.29-6.75.21-4.25-.42-7.26-1.06-10.7-3.47-.8-.56-1.17-1.68-1.09.27-2.01-2.01-.98-3.42,0-5.45Z"/>
  <path class="st7" d="M916.52,683.58l-1.09.27c.49,1,2.33,1.59,2.72,2.33.14.26,1.89,5.26,1.94,5.55.12.66-.75,1.04-.61,1.69.2.97,1.63,1.49,1.4,2.7-4.08-1.09-8.53-3.78-11.47-6.79-1.93-1.98-3.24-3.95-2.71-6.83l-1.08,2.72c-.56-7.48,7.64-6.54,10.9-1.64Z"/>
  <path class="st7" d="M899.62,681.95c.89.8-.16,1.51,0,1.63.25.21,3.45.73,5.21,2.7,1.39,1.56,1.37,3.57,1.49,3.74.45.59,3.21,2.51,4.22,3.64s1.81,2.38,2.71,3.55c-2.74-.72-7.65.02-9.97-.65-.24-.07-3.83-2.51-4.22-2.86-1.83-1.65-3.47-4.93-2.42-7.37.25-.57,3.91-3,1.35-2.73.61-.46,1.24-.96,1.64-1.64Z"/>
  <path class="st7" d="M929.59,689.02c-.22.24-1.53-.33-1.63.29l1.64,5.17c-.28.28-7.12-1.92-7.51-2.3-.41-.41-4.04-9.65-3.99-10.51.3-5.12,7.79-1.38,9.72,1.78.46.75,2.27,5.01,1.75,5.57Z"/>
  <path class="st7" d="M939.42,692.85c-1.55-.02-2.07-1.65-3.42-2.3s-3.52-.53-4.47-1.52c-.75-.78-3.02-8.16-2.46-8.72,7.63-1.1,10.6,6.08,10.36,12.54Z"/>
  <path class="st7" d="M875.09,679.77c-1.06,2.12-5.73,12.12-7.21,12.72-13.09,2.69-26.36,3.18-39.68,4.18-.52-.39-1.13-.67-1.64-1.09,9.9-.88,20.38-.97,30.2-2.24,1.95-.25,8.29-1.19,9.74-1.71,1.29-.47,2.63-2.57,3.36-3.73,1.47-2.35,3.45-6.59,4.68-9.22l.55,1.09Z"/>
  <path class="st7" d="M881.08,697.21h-5.45c2.43-1.16,3.21-.44,5.45,0Z"/>
  <path class="st44" d="M1276.37,695.58q-.74.66,0,0c3.09,6.5-3.59,14.43-9.3,9.57-6.67-5.66,5.69-17.16,9.3-9.57Z"/>
  <path class="st25" d="M1275.09,710.92c1.88-.64,2.72.01,2.94,1.81.16,1.35-.78,7.86-1.22,9.19-.23.7-.55.88-1.26.94-.35.03-6.15-1.81-6.68-2.07-3.97-1.91,1.17-2.86,1.77-3.4.95-.86,2.98-5.96,4.45-6.47Z"/>
  <path class="st61" d="M69.64,624.26c4.83-1.41,9.09,7.88,3.99,9.47-6.57,2.06-8.48-8.16-3.99-9.47Z"/>
  <path class="st67" d="M74.16,645.42c-.13.13-1.76-.14-2.43.03-1.19.29-2.7,2.07-3.59,1.37-.68-1.49-2.31-7.89-1.09-8.77,2.31-1.66,3.88,3.88,4.67,4.64.44.43,3.78,1.45,2.44,2.74Z"/>
  <path class="st40" d="M1198.27,710.4c4.87-.43,4.65,8.65.28,9.6-7.58,1.65-5.9-9.1-.28-9.6Z"/>
  <path class="st67" d="M1195.13,731.55c-1.34-1.29,2-2.31,2.44-2.74.79-.76,2.36-6.3,4.67-4.64,1.22.88-.41,7.28-1.09,8.77-.9.71-2.41-1.07-3.59-1.37-.67-.16-2.29.1-2.43-.03Z"/>
  <path class="st11" d="M50.56,688.05c6.61-1.94,9.19,11.04.54,8.5-2.58-.76-3.9-7.51-.54-8.5Z"/>
  <path class="st10" d="M31.99,692.94c5.75-1.98,7.08,7.65,4.55,8.91-4.21,2.1-8.05-7.7-4.55-8.91Z"/>
  <path class="st21" d="M52.5,705.23c.27.31,3.62,1.22,2.04,2.07-.69.37-5.26,1.6-5.75.83s-1.41-7.35.03-7.65c1.79-.37,3.12,4.11,3.69,4.75Z"/>
  <path class="st11" d="M1216.24,774.18c6.44-1.43,5.14,7.89,1.5,8.6-7.45,1.44-5.67-7.67-1.5-8.6Z"/>
  <path class="st10" d="M1234.22,779.09c7.48-2.31,4.01,9.19-.1,9.21s-2.5-8.41.1-9.21Z"/>
  <path class="st21" d="M1216.79,791.36c.57-.64,1.9-5.12,3.69-4.75,1.44.3.53,6.86.03,7.65s-5.07-.46-5.75-.83c-1.58-.86,1.77-1.77,2.04-2.07Z"/>
  <path class="st43" d="M1227.12,721.32c5-.43,4.72,11.3-2.71,9.04-3.94-1.2-1.39-8.69,2.71-9.04Z"/>
  <path class="st38" d="M1244.58,726.19c.77-.18,2.62.46,3.19.97,2.31,2.06-.99,8.7-3.85,8.71-4.46.01-2.43-8.95.65-9.68Z"/>
  <path class="st67" d="M1231.11,734.28c0,1.97.13,6.82-1.34,8.23-.87.84-1.89-.55-2.91-.98-.59-.25-3.9-.22-2.58-1.81.39-.47,1.57-.5,2.18-1.09,1.39-1.35,1.18-5.14,4.65-4.35Z"/>
  <path class="st69" d="M1218.57,752.81c.17-.61.08-1.41.39-2.04.42-.87,1.36-1.07,1.79-.69.29.27-1.16,3.31-1.63,3.81,0-.13-.6-.69-.55-1.09Z"/>
  <path class="st69" d="M1222.39,755.54c-.02-.11-.44-.34-.55-.55.4-.86.31-2.4,1.63-2.73.07,1.19.01,2.56-1.08,3.27Z"/>
  <path class="st10" d="M1256.6,757.26c5.98-1.17,4.46,9.07-.1,9.22-6.43.21-4.32-8.35.1-9.22Z"/>
  <path class="st50" d="M1260,778.42c-1.57.34-2.44-.99-3.67-1.5-.98-.4-3.13.49-2.32-1.49.18-.43,1.41-.36,1.94-.78.79-.62,4.57-8.51,5.19-3.06.27,2.36-.59,4.59-1.14,6.82Z"/>
  <path class="st6" d="M1249.11,790.43c-.16-.57-.92-1.22-.55-2.18.27-.93,2.14-4.46,2.17-1.91,0,.22-1.64,3.19-1.62,4.09Z"/>
  <path class="st26" d="M1141.58,702.23c1.22,2.13-.29,7.28-3.45,7.5-6.54.44-4.24-9.24,1.09-8.69.39.04,2.24.99,2.36,1.2Z"/>
  <path class="st45" d="M1155.13,705.53c5.93-.62,3.01,9.08-.62,9.08-4.33,0-2.61-8.75.62-9.08Z"/>
  <path class="st24" d="M1142.24,713.02c.08,2.65.04,5.45-1.07,7.92-.99.77-3.72-2.33-5.47-1.38-.51-2.7,1.1-1.09,2.09-1.72.56-.35,1.64-5.71,4.45-4.82Z"/>
  <path class="st55" d="M1132.43,727.74l-2.17,5.45c-.02-1.71-.21-5.27,2.17-5.45Z"/>
  <path class="st72" d="M127.71,616.1c.12-.21,1.97-1.16,2.36-1.2,5.33-.55,7.63,9.13,1.09,8.69-3.16-.21-4.67-5.36-3.45-7.5Z"/>
  <path class="st45" d="M113.78,619.4c3.49-.11,5.29,8.47,1.41,9.03-3.63.53-7.22-8.85-1.41-9.03Z"/>
  <path class="st24" d="M131.5,631.71c.99.63,2.6-.98,2.09,1.72-1.75-.94-4.48,2.15-5.47,1.38-1.11-2.47-1.15-5.27-1.07-7.92,2.82-.89,3.89,4.47,4.45,4.82Z"/>
  <path class="st55" d="M139.03,647.06l-2.17-5.45c2.39.18,2.19,3.74,2.17,5.45Z"/>
  <path class="st26" d="M1150.85,652.63c1.22,2.13-.29,7.28-3.45,7.5-6.54.44-4.24-9.24,1.09-8.69.39.04,2.24.99,2.36,1.2Z"/>
  <path class="st45" d="M1164.4,655.92c5.93-.62,3.01,9.08-.62,9.08-4.33,0-2.61-8.75.62-9.08Z"/>
  <path class="st24" d="M1151.51,663.42c.08,2.65.04,5.45-1.07,7.92-.99.77-3.72-2.33-5.47-1.38-.51-2.7,1.1-1.09,2.09-1.72.56-.35,1.64-5.71,4.45-4.82Z"/>
  <path class="st55" d="M1141.7,678.13l-2.17,5.45c-.02-1.71-.21-5.27,2.17-5.45Z"/>
  <path class="st24" d="M118.44,566.5c.12-.21,1.97-1.16,2.36-1.2,5.33-.55,7.63,9.13,1.09,8.69-3.16-.21-4.67-5.36-3.45-7.5Z"/>
  <path class="st45" d="M104.51,569.79c3.49-.11,5.29,8.47,1.41,9.03-3.63.53-7.22-8.85-1.41-9.03Z"/>
  <path class="st24" d="M122.23,582.11c.99.63,2.6-.98,2.09,1.72-1.75-.94-4.48,2.15-5.47,1.38-1.11-2.47-1.15-5.27-1.07-7.92,2.82-.89,3.89,4.47,4.45,4.82Z"/>
  <path class="st55" d="M129.76,597.45l-2.17-5.45c2.39.18,2.19,3.74,2.17,5.45Z"/>
  <path class="st28" d="M1222.2,666.82c5.93-.62,3.01,9.08-.62,9.08-4.33,0-2.61-8.75.62-9.08Z"/>
  <path class="st24" d="M1209.3,674.32c.08,2.65.04,5.45-1.07,7.92-.99.77-3.72-2.33-5.47-1.38-.51-2.7,1.1-1.09,2.09-1.72.56-.35,1.64-5.71,4.45-4.82Z"/>
  <path class="st55" d="M1199.49,689.04l-2.17,5.45c-.02-1.71-.21-5.27,2.17-5.45Z"/>
  <path class="st26" d="M90.09,600.3c.12-.21,1.97-1.16,2.36-1.2,5.33-.55,7.63,9.13,1.09,8.69-3.16-.21-4.67-5.36-3.45-7.5Z"/>
  <path class="st24" d="M93.88,615.9c.99.63,2.6-.98,2.09,1.72-1.75-.94-4.48,2.15-5.47,1.38-1.11-2.47-1.15-5.27-1.07-7.92,2.82-.89,3.89,4.47,4.45,4.82Z"/>
  <path class="st55" d="M101.41,631.25l-2.17-5.45c2.39.18,2.19,3.74,2.17,5.45Z"/>
  <path class="st24" d="M1179.2,686.43c1.22,2.13-.29,7.28-3.45,7.5-6.54.44-4.24-9.24,1.09-8.69.39.04,2.24.99,2.36,1.2Z"/>
  <path class="st24" d="M1179.86,697.21c.08,2.65.04,5.45-1.07,7.92-.99.77-3.72-2.33-5.47-1.38-.51-2.7,1.1-1.09,2.09-1.72.56-.35,1.64-5.71,4.45-4.82Z"/>
  <path class="st55" d="M1170.05,711.93l-2.17,5.45c-.02-1.71-.21-5.27,2.17-5.45Z"/>
  <path class="st28" d="M116.55,693.26c-4.21,4.17-8.91-6.91-2.9-6.39,2.84.24,4.7,4.61,2.9,6.39Z"/>
  <path class="st1" d="M101.89,697.68c-2.97,1.86-6.77-5.23-3.75-6.74,4.22-2.12,5.23,5.82,3.75,6.74Z"/>
  <path class="st47" d="M112.26,696.74c.31.18,1.38,3.22,1.85,3.6.38.3,2.01.33,2.02.96,0,.52-4.06,1.63-4.89,1.91-.13-1.17-2.21-8.33,1.02-6.47Z"/>
  <path class="st55" d="M120.5,713.02c-1.17-.64-1.49-3.15-1.62-4.36,1.48.7,1.61,2.94,1.62,4.36Z"/>
  <path class="st28" d="M1157.92,773.66c1.47,1.45-.03,6.1-2.35,6.42-7.02.96-1.84-10.54,2.35-6.42Z"/>
  <path class="st1" d="M1167.39,783.81c-1.48-.93-.48-8.86,3.75-6.74,3.02,1.52-.78,8.61-3.75,6.74Z"/>
  <path class="st46" d="M1158.05,789.34c-.83-.28-4.9-1.39-4.89-1.91,0-.63,1.63-.66,2.02-.96.52-.42,1.54-3.6,2.09-3.69,3.27-.58.69,4.81.79,6.57Z"/>
  <path class="st55" d="M1149.33,799.15c-1.31-.5,0-4.06,1.09-4.36l-1.09,4.36Z"/>
  <path class="st45" d="M108.92,652.38c-3.72,3.7-8.25-4.31-4.21-6.14,3.43-1.56,6.26,4.1,4.21,6.14Z"/>
  <path class="st53" d="M90.9,649.88c3.9-1.17,4.87,5.76,3.47,6.75-3.25,2.31-7.12-5.66-3.47-6.75Z"/>
  <path class="st57" d="M108.51,660.15c1.1.9-.26.92-.83,1.06-1.41.35-2.66.86-4.07,1.12.07-1.37-2.12-7.04.26-6.54,1.22.26,2.12,3.23,2.74,3.82.7.66,1.78.44,1.9.54Z"/>
  <path class="st55" d="M112.86,672.68c-1.17-.64-1.49-3.15-1.62-4.36,1.65.76,1.73,2.81,1.62,4.36Z"/>
  <path class="st45" d="M1165.02,738.51c-.96.99-4.34.97-4.97-.55-2.06-4.97,5.14-8.03,6.1-3.85.14.63-.71,3.97-1.12,4.4Z"/>
  <path class="st42" d="M1176.41,735.99c5.34-1.8,3.7,7.77-.62,7.04-2.79-.47-.99-6.5.62-7.04Z"/>
  <path class="st57" d="M1165.68,748.45c-1.41-.26-2.66-.77-4.07-1.12-2.7-.66.55-1.11,1.07-1.6.64-.61,1.7-4.15,3.27-3.82s-.4,5.34-.27,6.54Z"/>
  <path class="st55" d="M1156.96,758.81c-1.41-.69-.16-4.03,1.09-4.36l-1.09,4.36Z"/>
  <path class="st56" d="M1186.27,759.98c4.32-.84,4.16,7.88-1.19,7.01-3.42-.56-2.13-6.36,1.19-7.01Z"/>
  <path class="st29" d="M1189.68,769.71l-.55,6.55-4.91-1.1c-.4-1.47.91-1.01,1.64-1.88.62-.75,2.62-4.73,3.81-3.57Z"/>
  <path class="st55" d="M1181.5,782.25l-1.63,3.81c.05-1.13-.29-4.15,1.63-3.81Z"/>
  <path class="st56" d="M81.64,673.85c4.82-1.31,6.93,8.79.54,6.9-2.66-.79-2.88-6.26-.54-6.9Z"/>
  <path class="st29" d="M81.14,683.71c.18.1,1.78,2.82,2.29,3.44.72.87,2.04.41,1.64,1.88l-4.91,1.1c-.04-1.68-1.86-8.05.98-6.42Z"/>
  <path class="st55" d="M88.87,696.12c.37.36.64,3.07.55,3.81-1.07.09-2.31-5.5-.55-3.81Z"/>
  <path class="st33" d="M1228.27,695.15c1.69,2.91-2.58,8.33-5.61,5.35-3.22-3.17,3.54-8.92,5.61-5.35Z"/>
  <path class="st17" d="M1240.79,704.7c-.81.8-3.46.77-3.7-.22-.68-2.75.37-8.1,4.15-6.23,2.34,1.16.88,5.14-.46,6.45Z"/>
  <path class="st64" d="M1208.76,741.91c0-.09-.7-.72-.53-1.8.1-.64.96-4.01,1.15-4.13.17-.11,3.78-.59,3.98-.54,2.41.57.67,7.88.85,9.74l-1.08-2.72c-1.73.24-3.19.06-4.36-.55Z"/>
  <path class="st52" d="M1213.12,742.46c.57,2.3-.77,3.41-1.09,4.91-1.44,1.69-2.21.61-3.27.55-3.43-2.68-.05-4.25,0-6,1.11-.7,3.94-1.14,4.36.55Z"/>
  <path class="st14" d="M65.43,681.4c-1.17-.64-1.49-3.15-1.62-4.36,1.65.76,1.73,2.81,1.62,4.36Z"/>
  <path class="st14" d="M1204.39,767.53c-1.41-.69-.16-4.03,1.09-4.36l-1.09,4.36Z"/>
  <path class="st71" d="M79.06,585.46c-.85,2.09-.86,2.77-3.27,3.27-.47.1-1.12-.07-1.64,0,.54-.21,3.77-1.72,3.81-1.93l-4.35-8.97c3.41.98,4.37,4.91,5.45,7.63Z"/>
  <path class="st18" d="M1281.82,761.54c-.49,1.37-.85,3.03-1.39,4.36-.35.87.06,1.34-1.33,1.09-.08-1.93.21-5.25,2.72-5.45Z"/>
  <path class="st43" d="M41.8,635.18c3.95-.36,7.35,7.75,3.08,9.04-7.04,2.14-7.91-8.6-3.08-9.04Z"/>
  <path class="st38" d="M23.87,640.06c3.68-.36,6.04,9.04,1.91,9.63-3.62.52-8.19-9.03-1.91-9.63Z"/>
  <path class="st15" d="M38.18,648.15c3.47-.79,3.26,3,4.65,4.35.61.59,1.79.62,2.18,1.09,1.33,1.59-1.99,1.56-2.58,1.81-1.01.43-2.04,1.82-2.91.98-1.47-1.41-1.34-6.26-1.34-8.23Z"/>
  <path class="st2" d="M50.11,664.01c.37.25,1.42,4.52,1.14,5.4-1.09-.72-2.36-3.51-2.7-4.66s1.14-1.03,1.56-.74Z"/>
  <path class="st45" d="M46.72,580.7c3.49-.11,5.29,8.47,1.41,9.03-3.63.53-7.22-8.85-1.41-9.03Z"/>
  <path class="st21" d="M65.98,577.28c1.25,1.11.74,3.42.27,4.91-.61,1.92-.85,2.53-2.99,2.17-3.47-.58-4.25-7.76-.25-8.17,1.02-.1,2.2.39,2.97,1.08Z"/>
  <path class="st24" d="M64.44,593.01c.99.63,2.6-.98,2.09,1.72-1.75-.94-4.48,2.15-5.47,1.38-1.11-2.47-1.15-5.27-1.07-7.92,2.82-.89,3.89,4.47,4.45,4.82Z"/>
  <path class="st39" d="M71.97,608.35l-2.17-5.45c2.39.18,2.19,3.74,2.17,5.45Z"/>
  <path class="st33" d="M41.02,609.02c2.07-3.57,8.84,2.17,5.61,5.35-3.03,2.99-7.3-2.44-5.61-5.35Z"/>
  <path class="st17" d="M32.1,618.63c-4.39,2.86-8.13-7.28-2.34-6.97,2.61.14,2.74,5.04,2.34,6.97Z"/>
  <path class="st51" d="M834.74,648.7c-3.71,4.96-13.92,8.03-19.27,4.82-.74-.44-2.62-1.93-1.72-2.64,2.82,4.04,11.04,3.19,15.01,1.37,2.11-.97,3.58-3.5,5.99-3.55Z"/>
  <path class="st59" d="M764.95,676.49c-.92.16-.61-1.35-.51-1.87.47-2.31,2.6-3.79.52-6.04-3.43-3.73-9.26,1.39-11.19,4.64-.63-.96,2.18-4.59,3.03-5.15,2.93-1.95,9.31-2.48,9.83,2.14.33,2.94-1.42,3.63-1.68,6.29Z"/>
  <path class="st49" d="M756.77,674.86c.98-2.79,5.37-7.63,5.99-1.86.44,4.03-3.42,1.19-5.99,1.86Z"/>
  <path class="st31" d="M658.63,679.77c-1.26-1.36-.49-3.39,0-4.91.29,1.68.05,3.26,0,4.91Z"/>
  <path class="st0" d="M54.39,545.25c.67-.11,1.33-.24,2.02-.13,3.28.52,6.26,11.68.99,12.46-4.45.66-9.84-11.2-3.01-12.33Z"/>
  <path class="st16" d="M81.25,539.67c.19.14.38.37.55.55,3.86.83,2.06,8.84.75,9.9-.59.47-4.89.17-5.65-.64-.19-.13-.38-.37-.55-.55-1.03-1.17-1.58-2.62-1.64-4.36-.02-.15-.57-.62-.6-1.35-.09-2.05.74-2.52,2.23-3.56,1.4-1.36,3.31-.79,4.91,0Z"/>
  <path class="st56" d="M82.88,564.2c-.09.1-1.84.07-2.63.37-1.22.47-3.93,2.43-5.04,1.59-.73-.55-2.11-10.18-1.6-10.68,4.29-1.23,4.59,4.5,6.27,6,.49.44,4.51,1.11,3.01,2.72Z"/>
  <path class="st4" d="M76.88,549.48l5.45.54c-1.03-2.06.78-3.32.55-5.45.68.26,1.17,1.1,1.1-.28-.08-1.55-1.14-2.99-2.2-4.08,1.66.08,2.33,1.63,2.76,2.97,1.67,5.23-.8,8.36-6.31,7.38-1.2-.21-1.09-.9-1.35-1.08Z"/>
  <path class="st71" d="M89.43,583.28l-2.18-7.63c1.25-1.37,6.1,7.77,2.18,7.63Z"/>
  <path class="st4" d="M76.34,548.94c-.41-.45-1.22-.46-1.53-1.48s0-1.98-.11-2.89l1.64,4.36Z"/>
  <path class="st4" d="M81.25,539.67c-1.74-.32-3.19-.8-4.91,0,.13-.09.19-.65.55-.81,1.82-.85,2.98-.24,4.36.81Z"/>
  <path class="st35" d="M496.16,647.61c-2.75,3.11-4.51,6.95-6.86,10.3-1.27,1.81-3.29,3.55-4.5,5.31-3.61,5.27-7.26,14.9-10.96,19.02-1.99,2.21-11.58,4.8-13.7,3.27-.41-.29-1.1-4.67-1.1-5.49.03-7.58,9.45-18.52,15.12-23.06,6.4-5.13,13.49-9.67,22-9.36Z"/>
  <path class="st9" d="M1276.37,695.58c.79,1.25-.69,7.75-2.21,8.96s-5.42,1.34-6.8-.23c-.88-1,1.83-1.63.83-3.28l-2.17,1.63c-.4-3.57,2.91-9.05,6.82-8.78.55.04,3.43,1.53,3.54,1.69Z"/>
  <path class="st75" d="M1268.74,720.1c-.1-1.95,2.62-1.17,3.87-2.99.87-1.27.25-3.35,2.93-5.2,3.11-2.15,1.17,7.06.79,8.41-1.23,4.38-4.57-1.59-7.59-.23Z"/>
</svg>