<?xml version="1.0" encoding="UTF-8"?>
<svg id="Layer_1" xmlns="http://www.w3.org/2000/svg" version="1.1" viewBox="0 0 792 612">
  <!-- Generator: Adobe Illustrator 29.6.1, SVG Export Plug-In . SVG Version: 2.1.1 Build 9)  -->
  <defs>
    <style>
      .st0, .st1, .st2 {
        stroke: #ffd194;
      }

      .st0, .st1, .st2, .st3 {
        stroke-miterlimit: 10;
      }

      .st0, .st4 {
        fill: #fbb019;
      }

      .st1 {
        fill: #a8362a;
        stroke-width: 8px;
      }

      .st2 {
        fill: #fab01b;
      }

      .st3 {
        fill: none;
        stroke: #fed194;
      }
    </style>
  </defs>
  <rect class="st1" x="62.02" y="210.36" width="667.97" height="222.66" rx="40.79" ry="40.79"/>
  <rect class="st3" x="80.22" y="223.97" width="628.11" height="196.24" rx="25.5" ry="25.5"/>
  <g>
    <path class="st4" d="M396.28,220.92c-5.54-3.58-9.88-8.71-14.82-13.08s-10.97-8.16-17.57-8.09c-11.24.12-19.53,11.01-30.47,13.58-4.02.94-8.22.71-12.33.31-5.99-.57-12.13-1.53-17.32-4.58s-9.29-8.62-8.99-14.64c.41-8.29,8.93-14.23,17.2-14.99-7.43,3.55-12.29,13.58-7.59,20.34,1.38,1.99,3.41,3.47,5.61,4.48,7.7,3.55,16.77,1.46,24.69-1.55s15.8-6.95,24.28-7.01c10.45-.07,20.66,6.43,25.02,15.92"/>
    <path class="st4" d="M397.54,218.77c-8.5-5.57-14.21-14.63-23.54-19.07-4.51-2.14-9.35-2.99-14.27-1.98-4.27.88-8.17,3.07-11.83,5.35s-7.21,4.8-11.18,6.53c-4.69,2.05-9.67,2.07-14.69,1.62-8.83-.77-20.11-2.69-23.93-11.98s5.6-16.49,13.86-17.31l-1.26-4.66c-6.03,2.97-10.68,9.59-10.68,16.42,0,8.61,7.84,13.7,15.64,14.7,8.67,1.11,17.01-2.17,24.89-5.34,7.43-2.98,15.46-6.13,23.57-4.31s14.33,6.96,17.68,14.14c.57,1.22,2.33,1.53,3.42.9,1.25-.73,1.47-2.19.9-3.42-2.98-6.37-8.44-11.59-14.85-14.45-7.36-3.28-15.12-3.28-22.79-1.03s-15.31,6.46-23.48,8.11c-3.73.76-7.67.96-11.37-.06-3.23-.88-6.61-2.74-7.99-5.96-1.13-2.61-.69-5.74.61-8.37,1.51-3.06,3.91-5.51,6.97-7.02,2.16-1.06,1.2-4.9-1.26-4.66-9.07.91-18.54,6.91-19.62,16.63-.55,4.97,1.66,9.83,4.95,13.45,3.6,3.96,8.62,6.31,13.75,7.58s11.2,1.99,16.72,1.89,10.22-1.67,14.88-4.27c7.24-4.05,14.87-11.3,23.84-9.78,5.64.96,10.4,4.55,14.5,8.34,4.58,4.24,8.8,8.87,14.05,12.32,2.7,1.77,5.21-2.56,2.52-4.32h0Z"/>
  </g>
  <g>
    <path class="st4" d="M403.02,219.42c5.54-3.58,9.88-8.71,14.82-13.08s10.97-8.16,17.57-8.09c11.24.12,19.53,11.01,30.47,13.58,4.02.94,8.22.71,12.33.31,5.99-.57,12.13-1.53,17.32-4.58s9.29-8.62,8.99-14.64c-.41-8.29-8.93-14.23-17.2-14.99,7.43,3.55,12.29,13.58,7.59,20.34-1.38,1.99-3.41,3.47-5.61,4.48-7.7,3.55-16.77,1.46-24.69-1.55-7.92-3.01-15.8-6.95-24.28-7.01-10.45-.07-20.66,6.43-25.02,15.92"/>
    <path class="st4" d="M404.28,221.58c4.65-3.04,8.5-7.01,12.49-10.84,3.62-3.48,7.58-6.98,12.35-8.78,4.4-1.66,8.79-1.48,13.12.31s7.82,4.42,11.61,6.76,8.17,4.71,12.78,5.49c5.86.99,12.01.29,17.84-.66,5.26-.86,10.53-2.52,14.79-5.83,3.86-2.99,6.9-7.31,7.61-12.22,1.66-11.43-9.25-19.36-19.52-20.38-2.46-.25-3.42,3.6-1.26,4.66,4.86,2.39,8.99,8.08,8.12,13.45-1.23,7.55-10.87,9.07-17.14,8.4-8.18-.88-15.61-4.95-23.28-7.61s-15.36-3.69-22.94-1.05-14.23,8.23-17.67,15.58c-.57,1.22-.34,2.7.9,3.42,1.08.63,2.85.33,3.42-.9,2.94-6.29,8.43-11.21,15.03-13.4,7.85-2.61,15.62-.54,23.09,2.33,8.04,3.09,16.06,6.87,24.87,6.8,7.65-.06,17.03-3.82,18.54-12.24,1.39-7.72-3.55-15.72-10.42-19.1l-1.26,4.66c7.14.71,15.62,6.3,14.65,14.38-.49,4.09-3.4,7.75-6.75,9.98-4.13,2.75-9.15,3.9-14.01,4.52-5.21.66-10.77,1.28-15.88-.22-4.04-1.19-7.63-3.51-11.15-5.75-3.72-2.37-7.44-4.77-11.61-6.27-4.39-1.58-9.18-1.74-13.64-.33-11.37,3.59-17.61,14.25-27.18,20.53-2.68,1.76-.18,6.09,2.52,4.32h0Z"/>
  </g>
  <rect class="st0" x="385.81" y="196.79" width="26.32" height="26.32" transform="translate(-31.6 343.6) rotate(-45)"/>
  <g>
    <path class="st2" d="M178.91,369.02c19.3,0,37.05-19.69,40.72-40.91l-7.72,44.58h-86.46c5.79,0,7.53-5.98,7.53-12.54v-24.32c0-5.79-4.63-7.72-4.63-7.72,0,0,4.63-1.93,4.63-7.72v-42.65c0-8.11.77-13.9-4.63-13.9,12.54-2.51,24.12-9.07,28.76-16.6v26.44l14.67-17.56c5.6-7.33,10.04-8.88,17.18-8.88s13.7,6.95,20.46,6.95c3.28,0,6.75-1.54,10.23-6.18-4.63,12.35-13.51,33.2-24.51,33.2s-14.28-9.46-24.9-9.65c-4.05,0-8.49,1.54-13.12,6.37v29.14c3.67-7.14,11-10.62,18.14-10.62s14.28,3.86,16.4,11.97c2.51,10.42-5.21,22-18.33,22-8.69,0-9.65-10.04,1.16-8.49,7.91,1.16,11.97-3.86,11.97-9.65,0-8.49-6.37-13.12-13.32-13.12-7.72,0-16.02,5.98-16.02,18.72v2.51c0,5.79,4.63,7.72,4.63,7.72,0,0-4.63,1.93-4.63,7.72v33.19h21.81ZM144.75,283.52c0,16.6-.19,44.58-1.54,44.58,1.35,0,1.54,14.67,1.54,23.35,0-8.68.19-23.35,1.54-23.35-1.35,0-1.54-27.98-1.54-44.58Z"/>
    <path class="st2" d="M281.97,332.16c9.84,18.14,16.98,23.74,23.16,23.74,2.9,0,5.6-1.16,8.11-2.9,0,0-8.11,20.46-25.47,20.46-11.19,0-18.33-14.67-26.05-34.16-2.32-5.98-7.72-5.98-7.72-5.98,0,0,2.9-3.09,1.35-7.72-21.04,15.83-9.07,30.69,4.44,30.69,1.74,0,3.28-.19,4.83-.58,0,0-8.11,17.56-20.65,17.56-25.86,0-26.25-30.69,10.61-49.41-2.89-7.14-9.84-21.81-18.33-21.81-1.74,0-3.67.58-5.6,1.74,5.21-10.04,10.42-22.58,20.26-22.58,10.81,0,19.88,26.63,23.35,34.35,2.32,4.63,6.56,4.83,7.33,4.83,0,0-3.09,3.47-1.16,8.49v.19c21.04-15.83,9.26-30.69-4.25-30.69-1.74,0-3.28.19-4.82.58,0,0,7.53-17.75,20.46-17.75,26.05,0,26.44,30.88-10.42,49.6.39.77.58,1.35.58,1.35ZM280.62,354.74c-1.93-4.83-12.74-26.63-11.19-27.41-1.93,0-8.88-16.6-11.39-20.84,1.74,4.63,10.23,21.42,8.68,22,1.74,0,11.39,21.81,13.9,26.25Z"/>
    <path class="st2" d="M392.55,335.63v12.16c0,6.18,1.16,25.67-18.33,25.67-13.9,0-24.32-13.12-29.14-20.65v29.91c0,5.98-.19,12.35,5.21,12.35-7.53,2.7-19.3,12.74-15.83,22.39-12.16-3.86-10.81-16.79-10.81-34.74v-46.9c0-5.79-4.63-7.72-4.63-7.72,0,0,4.63-1.93,4.63-7.72v-7.72c0-8.3.58-14.09-4.63-14.09,12.35-2.51,22-9.07,26.63-16.6l-.19,17.76c6.18-12.54,15.83-18.53,24.7-18.53,11.77,0,22.39,10.61,22.39,29.33v10.23c0,5.6,4.63,7.33,4.63,7.33,0,0-4.63,1.93-4.63,7.53ZM334.27,310.54c0,8.68-.19,23.35-1.54,23.35,1.35,0,1.54,32.04,1.54,50.95,0-18.91.19-50.95,1.54-50.95-1.35,0-1.54-14.67-1.54-23.35ZM362.64,361.49c4.82,0,8.49-4.05,8.49-13.7v-11.96c0-5.79-4.63-7.72-4.63-7.72,0,0,4.63-1.93,4.63-7.72v-9.84c0-14.09-4.44-20.07-10.04-20.07-5.21,0-11.58,5.4-15.83,14.67l-.19,16.98c0,4.44,4.63,5.98,4.63,5.98,0,0-4.63,1.93-4.63,7.72v12.16c4.63,7.91,11.97,13.51,17.56,13.51ZM381.94,310.16c0,4.44-.19,11.58-1.54,11.58,1.35,0,1.54,19.49,1.54,31.26,0-11.77.19-31.26,1.54-31.26-1.35,0-1.54-7.14-1.54-11.58Z"/>
    <path class="st2" d="M439.65,372.69h-36.67c5.79,0,7.53-6.75,7.53-12.54l.19-24.32c0-5.79-4.63-7.72-4.63-7.72,0,0,4.63-1.93,4.63-7.72v-58.48c0-8.11.58-13.9-4.63-13.9,12.35-2.7,21.42-9.26,26.05-16.79v89.16c0,5.79,4.63,7.72,4.63,7.72,0,0-4.63,1.93-4.63,6.95v18.91c0,5.79-.58,18.72,7.53,18.72ZM422.28,351.46c0-8.68.19-23.35,1.54-23.35-1.35,0-1.54-32.04-1.54-50.95,0,18.91-.19,50.95-1.54,50.95,1.35,0,1.54,14.67,1.54,23.35Z"/>
    <path class="st2" d="M522.25,328.1s-4.44,1.74-4.83,6.56c-1.35,22-7.72,38.6-33.58,38.6s-32.04-16.98-33.58-38.41c-.39-5.02-4.83-6.75-4.83-6.75,0,0,4.44-1.74,4.63-7.14.77-22.77,7.14-40.91,33.77-40.91s32.62,18.53,33.77,41.3c.19,5.02,4.63,6.75,4.63,6.75ZM461.45,295.87c-.39,5.02.19,32.23-1.54,32.23,1.74,0,1.16,24.51,1.54,29.53.39-5.02-.19-29.53,1.54-29.53-1.74,0-1.16-27.21-1.54-32.23ZM494.84,320.38c0-20.46-2.32-36.28-11-36.28s-10.62,15.83-11,36.48c0,5.6,4.63,7.53,4.63,7.53,0,0-4.63,1.93-4.63,7.72,0,19.3,2.9,33.58,11,33.58s11-14.28,11-33.58c0-5.79-4.63-7.72-4.63-7.72,0,0,4.63-1.93,4.63-7.72ZM506.23,295.87c-.39,5.02.19,32.23-1.54,32.23,1.74,0,1.16,24.51,1.54,29.53.39-5.02-.19-29.53,1.54-29.53-1.74,0-1.16-27.21-1.54-32.23Z"/>
    <path class="st2" d="M564.71,372.69h-36.67c5.6,0,7.53-6.75,7.53-12.54l.19-24.9c0-5.21-4.63-7.14-4.63-7.14,0,0,4.63-1.93,4.63-7.72v-8.88c0-8.11.77-13.9-4.63-13.9,12.54-2.7,21.42-9.07,26.05-16.79v25.86l1.35-1.93c6.95-10.04,15.63-23.54,20.46-23.54,3.28,0,9.26,2.89,15.05,2.89,2.9,0,5.6-.77,7.91-2.89-11.77,22.97-12.93,24.32-19.88,24.32-5.4,0-8.49-5.02-12.74-5.02-2.32,0-5.02,1.35-8.68,5.79l-3.47,5.21v10.42c0,4.63,4.63,6.18,4.63,6.18,0,0-4.63,1.35-4.63,7.14v24.9c0,5.79,1.93,12.54,7.53,12.54ZM547.92,328.1c-.39,0-.58-.77-.77-2.12-.77-5.4-.39-18.72-.77-22.58-.19,3.86,0,17.18-.58,22.58-.19,1.35-.58,2.12-.96,2.12.58,0,.77,1.54.96,3.86.58,6.95.39,22,.58,25.67.39-3.67.19-18.72.77-25.67.19-2.32.39-3.86.77-3.86Z"/>
    <path class="st2" d="M636.7,352.61c-3.47,0-6.95-.39-10.23-.96,4.05,7.72,10.04,10.61,16.4,10.61,9.46,0,19.3-6.75,23.16-14.86-3.09,16.02-12.93,25.86-33.39,25.86-25.86,0-32.04-16.6-33.58-38.6-.39-4.63-4.83-6.56-4.83-6.56,0,0,4.44-1.74,4.63-7.14.77-22.97,7.14-40.91,33.77-40.91s32.42,18.33,33.77,41.11c.19,5.21,4.63,6.95,4.63,6.95,0,0-4.05,2.32-5.6,6.37-4.44,13.32-16.21,18.14-28.76,18.14ZM609.87,304.37c-.39,5.02.19,23.74-1.54,23.74,1.74,0,1.16,24.51,1.54,29.53.39-5.02-.19-29.53,1.54-29.53-1.74,0-1.16-18.72-1.54-23.74ZM642.68,335.82c1.16-4.83-3.67-7.72-3.67-7.72,0,0,4.63-1.74,4.63-7.14,0-20.84-2.51-36.86-11-36.86s-10.62,15.83-11,36.48c0,5.6,4.63,7.53,4.63,7.53,0,0-4.25,1.93-4.25,7.33,0,4.44,1.16,8.3,2.32,11.58,9.07.39,16.21-1.54,18.33-11.19ZM654.84,304.37c-.39,5.02.19,23.74-1.54,23.74,1.74,0,1.16,9.84,1.54,14.86.39-5.02-.19-14.86,1.54-14.86-1.74,0-1.16-18.72-1.54-23.74Z"/>
  </g>
</svg>