<?xml version="1.0" encoding="UTF-8"?>
<svg id="Layer_1" xmlns="http://www.w3.org/2000/svg" version="1.1" viewBox="0 0 792 612">
  <!-- Generator: Adobe Illustrator 29.6.1, SVG Export Plug-In . SVG Version: 2.1.1 Build 9)  -->
  <defs>
    <style>
      .st0, .st1, .st2 {
        stroke: #ffd194;
      }

      .st0, .st1, .st2, .st3 {
        stroke-miterlimit: 10;
      }

      .st0, .st4 {
        fill: #fbb019;
      }

      .st1 {
        fill: #a8362a;
        stroke-width: 8px;
      }

      .st2 {
        fill: #fab01b;
      }

      .st3 {
        fill: none;
        stroke: #fed194;
      }
    </style>
  </defs>
  <rect class="st1" x="62.02" y="210.36" width="667.97" height="222.66" rx="40.79" ry="40.79"/>
  <rect class="st3" x="80.22" y="223.97" width="628.11" height="196.24" rx="25.5" ry="25.5"/>
  <g>
    <path class="st4" d="M396.28,220.92c-5.54-3.58-9.88-8.71-14.82-13.08s-10.97-8.16-17.57-8.09c-11.24.12-19.53,11.01-30.47,13.58-4.02.94-8.22.71-12.33.31-5.99-.57-12.13-1.53-17.32-4.58s-9.29-8.62-8.99-14.64c.41-8.29,8.93-14.23,17.2-14.99-7.43,3.55-12.29,13.58-7.59,20.34,1.38,1.99,3.41,3.47,5.61,4.48,7.7,3.55,16.77,1.46,24.69-1.55s15.8-6.95,24.28-7.01c10.45-.07,20.66,6.43,25.02,15.92"/>
    <path class="st4" d="M397.54,218.77c-8.5-5.57-14.21-14.63-23.54-19.07-4.51-2.14-9.35-2.99-14.27-1.98-4.27.88-8.17,3.07-11.83,5.35s-7.21,4.8-11.18,6.53c-4.69,2.05-9.67,2.07-14.69,1.62-8.83-.77-20.11-2.69-23.93-11.98s5.6-16.49,13.86-17.31l-1.26-4.66c-6.03,2.97-10.68,9.59-10.68,16.42,0,8.61,7.84,13.7,15.64,14.7,8.67,1.11,17.01-2.17,24.89-5.34,7.43-2.98,15.46-6.13,23.57-4.31s14.33,6.96,17.68,14.14c.57,1.22,2.33,1.53,3.42.9,1.25-.73,1.47-2.19.9-3.42-2.98-6.37-8.44-11.59-14.85-14.45-7.36-3.28-15.12-3.28-22.79-1.03s-15.31,6.46-23.48,8.11c-3.73.76-7.67.96-11.37-.06-3.23-.88-6.61-2.74-7.99-5.96-1.13-2.61-.69-5.74.61-8.37,1.51-3.06,3.91-5.51,6.97-7.02,2.16-1.06,1.2-4.9-1.26-4.66-9.07.91-18.54,6.91-19.62,16.63-.55,4.97,1.66,9.83,4.95,13.45,3.6,3.96,8.62,6.31,13.75,7.58s11.2,1.99,16.72,1.89,10.22-1.67,14.88-4.27c7.24-4.05,14.87-11.3,23.84-9.78,5.64.96,10.4,4.55,14.5,8.34,4.58,4.24,8.8,8.87,14.05,12.32,2.7,1.77,5.21-2.56,2.52-4.32h0Z"/>
  </g>
  <g>
    <path class="st4" d="M403.02,219.42c5.54-3.58,9.88-8.71,14.82-13.08s10.97-8.16,17.57-8.09c11.24.12,19.53,11.01,30.47,13.58,4.02.94,8.22.71,12.33.31,5.99-.57,12.13-1.53,17.32-4.58s9.29-8.62,8.99-14.64c-.41-8.29-8.93-14.23-17.2-14.99,7.43,3.55,12.29,13.58,7.59,20.34-1.38,1.99-3.41,3.47-5.61,4.48-7.7,3.55-16.77,1.46-24.69-1.55-7.92-3.01-15.8-6.95-24.28-7.01-10.45-.07-20.66,6.43-25.02,15.92"/>
    <path class="st4" d="M404.28,221.58c4.65-3.04,8.5-7.01,12.49-10.84,3.62-3.48,7.58-6.98,12.35-8.78,4.4-1.66,8.79-1.48,13.12.31s7.82,4.42,11.61,6.76,8.17,4.71,12.78,5.49c5.86.99,12.01.29,17.84-.66,5.26-.86,10.53-2.52,14.79-5.83,3.86-2.99,6.9-7.31,7.61-12.22,1.66-11.43-9.25-19.36-19.52-20.38-2.46-.25-3.42,3.6-1.26,4.66,4.86,2.39,8.99,8.08,8.12,13.45-1.23,7.55-10.87,9.07-17.14,8.4-8.18-.88-15.61-4.95-23.28-7.61s-15.36-3.69-22.94-1.05-14.23,8.23-17.67,15.58c-.57,1.22-.34,2.7.9,3.42,1.08.63,2.85.33,3.42-.9,2.94-6.29,8.43-11.21,15.03-13.4,7.85-2.61,15.62-.54,23.09,2.33,8.04,3.09,16.06,6.87,24.87,6.8,7.65-.06,17.03-3.82,18.54-12.24,1.39-7.72-3.55-15.72-10.42-19.1l-1.26,4.66c7.14.71,15.62,6.3,14.65,14.38-.49,4.09-3.4,7.75-6.75,9.98-4.13,2.75-9.15,3.9-14.01,4.52-5.21.66-10.77,1.28-15.88-.22-4.04-1.19-7.63-3.51-11.15-5.75-3.72-2.37-7.44-4.77-11.61-6.27-4.39-1.58-9.18-1.74-13.64-.33-11.37,3.59-17.61,14.25-27.18,20.53-2.68,1.76-.18,6.09,2.52,4.32h0Z"/>
  </g>
  <rect class="st0" x="385.81" y="196.79" width="26.32" height="26.32" transform="translate(-31.6 343.6) rotate(-45)"/>
  <g>
    <path class="st2" d="M262.06,386.41h-40.4c6,0,7.8-6.2,7.8-13v-25.2c0-6-4.8-8-4.8-8,0,0,4.8-2,4.8-8,0-40,2.8-58.6-4.8-58.6,12.8-2.6,24.8-9.4,29.6-17.2v75.8c0,6,4.8,8,4.8,8,0,0-4.8,2-4.8,8v25.2c0,6.8,1.8,13,7.8,13ZM241.86,364.41c0-9,.2-24.2,1.6-24.2-1.4,0-1.6-29-1.6-46.2,0,17.2-.2,46.2-1.6,46.2,1.4,0,1.6,15.2,1.6,24.2ZM311.05,332.21c0,6,4.8,8,4.8,8,0,0-4.8,2-4.8,8v9.8c0,6.2-.2,12.8,5.4,12.8-7.8,2.8-22.8,13.2-19,23.2-8.6-3.8-11.2-9.2-11.2-21.4v-24.4c0-6-4.8-8-4.8-8,0,0,4.8-2,4.8-8v-2.6c0-12.2-8-18.4-15-18.4-5.8,0-11.2,4.2-11.2,12.6,0,6,4.4,11.2,12.4,10,11.2-1.6,10.2,8.8,1.2,8.8-13.4,0-21.6-12-18.8-22.8,2-8.2,8.6-12.4,15.2-12.4,6.2,0,12.8,3.6,16.2,10.8v-48c0-7-1.8-13-8-13v-.2h40.6v.2c-6,0-7.8,6-7.8,13v62ZM298.46,364.41c0-9,.2-24.2,1.6-24.2-1.4,0-1.6-29-1.6-46.2,0,17.2-.2,46.2-1.6,46.2,1.4,0,1.6,15.2,1.6,24.2Z"/>
    <path class="st2" d="M365.25,386.41h-40.4c6,0,7.8-6.2,7.8-13v-25.2c0-6-4.8-8-4.8-8,0,0,4.8-2,4.8-8v-44.6c0-10.6-2.4-13-4.8-14,12.8-2.6,24.8-9.4,29.6-17.2v75.8c0,6,4.8,8,4.8,8,0,0-4.8,2-4.8,8v25.2c0,6.8,1.8,13,7.8,13ZM345.05,364.41c0-9,.2-24.2,1.6-24.2-1.4,0-1.6-29-1.6-46.2,0,17.2-.2,46.2-1.6,46.2,1.4,0,1.6,15.2,1.6,24.2Z"/>
    <path class="st2" d="M470.05,340.21s-4.8,2-4.8,7.8v12.6c0,11.4-9.4,26.6-30.8,26.6-16.2,0-26-12.6-30.4-20.4v6.6c0,6.8,1.8,13,7.8,13h-40.6c6,0,7.8-6.2,7.8-13v-25.2c0-6-4.8-8-4.8-8,0,0,4.8-2,4.8-8v-44.2c0-8.4.8-14.4-4.8-14.4,13-2.6,25.6-9.4,30.4-17.2v16.6c5.4-11.4,18-16.6,30-16.6,15.6,0,30.6,11.2,30.6,30.8v45.4c0,5.8,4.8,7.6,4.8,7.6ZM391.45,370.21c0-4.2.2-30,1.6-30-1.6,0-1.2-50.8-1.2-56.8,0,6-.4,56.8-1.8,56.8,1.2,0,1.4,25.8,1.4,30ZM404.65,289.01v43.2c0,6,4.2,8,4.2,8,0,0-4.8,2-4.8,8v12.6c4.8,8.6,14.4,14.2,22.6,14.2,7,0,12.6-4.2,12.6-14.4v-12.4c0-6-4.8-8-4.8-8,0,0,4.8-2,4.8-8v-45c0-15-6.8-21.4-14.4-21.4h-1.4c-19.4,1.8-21.4,21.8-9.4,21.8,4.6,0,4.8-2.8,8.6-2.8,5.2.4,6,10-6.2,10-5.8,0-9.6-2.2-11.8-5.8ZM452.25,364.41c0-9,.2-24.2,1.6-24.2-1.4,0-1.6-29-1.6-46.2,0,17.2-.2,46.2-1.6,46.2,1.4,0,1.6,15.2,1.6,24.2Z"/>
    <path class="st2" d="M531.45,382.61c20,0,38.4-20.4,42.2-42.4l-8,46.2h-89.6c6,0,7.8-6.2,7.8-13v-25.2c0-6-4.8-8-4.8-8,0,0,4.8-2,4.8-8v-44.2c0-8.4.8-14.4-4.8-14.4,13-2.6,25-9.4,29.8-17.2v27.4l15.2-18.2c5.8-7.6,10.4-9.2,17.8-9.2s14.2,7.2,21.2,7.2c3.4,0,7-1.6,10.6-6.4-4.8,12.8-14,34.4-25.4,34.4s-14.8-9.8-25.8-10c-4.2,0-8.8,1.6-13.6,6.6v30.2c3.8-7.4,11.4-11,18.8-11s14.8,4,17,12.4c2.6,10.8-5.4,22.8-19,22.8-9,0-10-10.4,1.2-8.8,8.2,1.2,12.4-4,12.4-10,0-8.8-6.6-13.6-13.8-13.6-8,0-16.6,6.2-16.6,19.4v2.6c0,6,4.8,8,4.8,8,0,0-4.8,2-4.8,8v34.4h22.6ZM496.05,294.01c0,17.2-.2,46.2-1.6,46.2,1.4,0,1.6,15.2,1.6,24.2,0-9,.2-24.2,1.6-24.2-1.4,0-1.6-29-1.6-46.2Z"/>
  </g>
</svg>