<?xml version="1.0" encoding="UTF-8"?>
<svg id="Layer_1" xmlns="http://www.w3.org/2000/svg" version="1.1" viewBox="0 0 1287.27 894.55">
  <!-- Generator: Adobe Illustrator 29.6.1, SVG Export Plug-In . SVG Version: 2.1.1 Build 9)  -->
  <defs>
    <style>
      .st0 {
        fill: #0c0907;
      }

      .st1 {
        fill: #0f100f;
      }

      .st2 {
        fill: #0d0601;
      }

      .st3 {
        fill: #1b1c1b;
      }

      .st4 {
        fill: #2a1211;
      }

      .st5 {
        fill: #1c1d1c;
      }

      .st6 {
        fill: #484948;
      }

      .st7 {
        fill: #0b0706;
      }

      .st8 {
        fill: #060404;
      }

      .st9 {
        fill: #35100f;
      }

      .st10 {
        fill: #232323;
      }

      .st11 {
        fill: #282928;
      }

      .st12 {
        fill: #2d2814;
      }

      .st13 {
        fill: #110503;
      }

      .st14 {
        fill: #140f0c;
      }

      .st15 {
        fill: #191412;
      }

      .st16 {
        fill: #150d02;
      }

      .st17 {
        fill: #331211;
      }

      .st18 {
        fill: #1f201f;
      }

      .st19 {
        fill: #daa300;
      }

      .st20 {
        fill: #151615;
      }

      .st21 {
        fill: #050304;
      }

      .st22 {
        fill: #0b0603;
      }

      .st23 {
        fill: #393a39;
      }

      .st24 {
        fill: #dda500;
      }

      .st25 {
        fill: #160b07;
      }

      .st26 {
        fill: #191411;
      }

      .st27 {
        fill: #dba400;
      }

      .st28 {
        fill: #090402;
      }

      .st29 {
        fill: #191513;
      }

      .st30 {
        fill: #2a0800;
      }

      .st31 {
        fill: #0f0601;
      }

      .st32 {
        fill: #0d0704;
      }

      .st33 {
        fill: #d8a100;
      }

      .st34 {
        fill: #0c0d0c;
      }

      .st35 {
        fill: #3e3e3e;
      }

      .st36 {
        fill: #0f0a08;
      }

      .st37 {
        fill: #292a29;
      }

      .st38 {
        fill: #343534;
      }

      .st39 {
        fill: #212221;
      }

      .st40 {
        fill: #070010;
      }

      .st41 {
        fill: #120d0b;
      }

      .st42 {
        fill: #858685;
      }

      .st43 {
        fill: #090605;
      }

      .st44 {
        fill: #040203;
      }

      .st45 {
        fill: #727372;
      }

      .st46 {
        fill: #090705;
      }

      .st47 {
        fill: #120e0c;
      }

      .st48 {
        fill: #130f0d;
      }

      .st49 {
        fill: #0a0604;
      }

      .st50 {
        fill: #020100;
      }

      .st51 {
        fill: #0b0705;
      }

      .st52 {
        fill: #0c0806;
      }

      .st53 {
        fill: #1b1614;
      }

      .st54 {
        fill: #5e4700;
      }

      .st55 {
        fill: #1a1b1a;
      }

      .st56 {
        fill: #121212;
      }

      .st57 {
        fill: #fe0000;
      }

      .st58 {
        fill: #5e5f5e;
      }

      .st59 {
        fill: #100d0b;
      }

      .st60 {
        fill: #14100d;
      }

      .st61 {
        fill: #565656;
      }

      .st62 {
        fill: #060402;
      }

      .st63 {
        fill: #191a19;
      }

      .st64 {
        fill: #000100;
      }

      .st65 {
        fill: #262726;
      }

      .st66 {
        fill: #171817;
      }

      .st67 {
        fill: #161210;
      }

      .st68 {
        fill: #0a0b0a;
      }

      .st69 {
        fill: #f8f8f8;
      }

      .st70 {
        fill: #050302;
      }

      .st71 {
        fill: #2e2f2e;
      }

      .st72 {
        fill: #222322;
      }

      .st73 {
        fill: #040303;
      }

      .st74 {
        fill: #242524;
      }

      .st75 {
        fill: #15110f;
      }

      .st76 {
        fill: #050402;
      }

      .st77 {
        fill: #1f1f1f;
      }

      .st78 {
        fill: #232423;
      }

      .st79 {
        fill: #312221;
      }

      .st80 {
        fill: #202120;
      }

      .st81 {
        fill: #14110f;
      }

      .st82 {
        fill: #130e0c;
      }

      .st83 {
        fill: #191710;
      }

      .st84 {
        fill: #0f0d0c;
      }

      .st85 {
        fill: #0a0802;
      }

      .st86 {
        fill: #080908;
      }

      .st87 {
        fill: #080604;
      }

      .st88 {
        fill: #fcfcfc;
      }

      .st89 {
        fill: #1d1e1d;
      }

      .st90 {
        fill: #120a07;
      }

      .st91 {
        fill: #303130;
      }

      .st92 {
        fill: #090a09;
      }

      .st93 {
        fill: #0e0f0e;
      }

      .st94 {
        fill: #252625;
      }

      .st95 {
        fill: #141514;
      }

      .st96 {
        fill: #150c08;
      }

      .st97 {
        fill: #0d0300;
      }

      .st98 {
        fill: #c8c8c8;
      }

      .st99 {
        fill: #0f0f0f;
      }

      .st100 {
        fill: #cacaca;
      }

      .st101 {
        fill: #050203;
      }

      .st102 {
        fill: #080605;
      }

      .st103 {
        fill: #0b0806;
      }

      .st104 {
        fill: #101110;
      }

      .st105 {
        fill: #1e1f1e;
      }

      .st106 {
        fill: #0e0400;
      }

      .st107 {
        fill: #120d0a;
      }

      .st108 {
        fill: #0f0907;
      }

      .st109 {
        fill: #272827;
      }
    </style>
  </defs>
  <path class="st30" d="M902.89,153.18c6.05-3.46,11.96-8.16,17.81-11.9,4.91-3.15,13.52-7.2,17.59-10.76,1.78-1.56,3.52-5.59,5.78-5.47.82.05,4.58,2.87,6.05,3.53,7.4,3.31,15.52,3.47,23,5.35,4.24,1.06,10.57,5.81,13.58,6.59,1.37.35,2.8-.07,4.17.19,19.24,3.62,26.09,13.46,34.06,30.27,2.31,4.86,3.49,10.35,5.59,15.13,4.07,9.27,12.03,20.97,13.43,31.27.45,3.35.69,10.9-.55,13.89-2.37,5.69-7.76,9.66-12.93,12.41l-2.35,2.46c-7.54,3.69-14.8,7.93-21.59,12.79-1.28-1.25-2.57-1.98-3.87-2.16-.89,1.04-4.72.37-4.91-1.09-1.24-.71-3.37-1.03-4.36,0l-.46,1.14c-6.96-.16-10.91,8.13-8.3,13.79l-.51,1.42c-.15.48-.34.47-.55,0-1.21-.07-2.58-3.74-2.18-4.91l-3.27-.55-.17.58c-7.46,2.33-15.19,3.77-22.89,4.3l-.38-.53c-1.2.42-2.47.42-3.82,0-2.37.86-6.12.53-8.75-.32l-10.08-1.42c-6.41-.4-12.85-1.45-19.34-3.16-1.02.42-2.11.42-3.27,0-.95-.06-2.38-.24-2.73-1.09l-2.13.11c-.06-2.69.34-5.24,1.19-7.63.92-1.39,8.43-8.55,9.73-8.81.99-.2,3.61-.2,3.76,1.07.39-.14.39-.5,0-1.09-2.68.04-4.16-4.88-2.6-7.52,1.3-1.08,2.04-2.11,2.21-3.11-11.9-5.15-21.18-16.46-28.43-26.62,1.93-3.58,3.72-7.15,5.38-10.71l8.18-19.08c-.22-1.65,1.61-1.3,1.26-.93-.45.47-10.03-4.51-11.54-5.44-3.5-3.37-7.31-6.2-11.25-8.94-2.36-2.18-2.98-4.13.8-4.1,6.65-1.98,15.01-4.74,19.64-8.93v-.02Z"/>
  <path class="st35" d="M894.71,697.76c1.04.43,2.23.45,3.27,0,.23-.33.46-.6.71-.61,3.15-.17,26.15.24,27.16,1.15.36.32-.89,6.32-1.7,7.1l.3,1.61c-3.71,16.57-6.14,33.42-7.76,50.32l-.71,1.49c.32.51.46,1.23,0,1.64-.51,2.69-.47,5.48,0,8.18,1.31,1.61,1.51,4.85,1.64,7.09.54,1.48.54,2.75,0,3.82.84.1.93.45.55,1.09.86,4.25-1.3,8.32-3.84,11.66-9.47,9.96-14.4,21.86-18.65,34.54-5.26,2.13-10.66,3.45-16.22,3.94-3.5,1.55-8.26,1.48-12.21,1.35-3.53-.12-8.32-.44-11.24-1.89-1.02.43-2.11.43-3.27,0l-2.18-.55c-4.76-.54-9.96-4.03-11.25-8.91-3.12-11.81,16.04-19.96,25.39-20.99l1.32-.95c3.83-6.15,7.52-12.37,10.81-18.95l1-.34-.06-1.41c3.77-6.6,7.06-13.42,9.86-20.47,1.25-10.6,2.18-21.23,3.07-31.87l.75-1.31.55-4.36c-.49-.1-.47-.29,0-.55l-.72-1.14c-.4-6.08-.25-12.13.43-18.15-.35.55-.62.26-.8-.88-1.08-.01-2.36-.19-3.82-.55-.19-.03-.39.04-.55,0l.14-1.42c2.57.6,5.14.53,7.71-.23l.33.55h-.01Z"/>
  <path class="st50" d="M975.4,281.28c.81-.51,1.87-.54,2.81-.43,8.55,3.35,17.42,5.64,26.68,6.29l1.59,1.22q-1.54.32,0,0c.86-1.74,8.31-1.95,8.18.55-1.74.35-1.02.35,2.18,0,.88-1.07,1.85-1.07,2.73,0,2.19.33,7.37.56,2.73,0,.02-.43.11-1.08.41-1.12,3.68-.56,9.71-1,13.44-1l.87,1.03c.76.31,1.56.45.55,0l.54-1.3,7.78-1.2c3.34-2.08,12.06-5.21,5.15,0-3.14.89-4.54,2.09-4.2,3.6,6.89,10.86,7.21,24.65,9.2,37.41,3.64,23.27,5.04,46.24,14.34,67.98,1.46,3.42,3.68,7.87,3.14,11.51-.46,3.09-11.01,19.27-13.59,20.47-.79.39-1.34,1.12-1.64,2.18-.16.4-.34.4-.55,0-8.32-3.2-16.35-2.18-24.55.79-.36,3.63-.91,7.31-1.65,11.01l-1.06.74c-.36,2.19-1.87.32-.55-.55-.35-.47-.71-.48-1.09,0,.49.11.47.29,0,.55.34,2.48-.2,3.57-1.64,3.27l-.99,2.7c-12.88,5.44-28,7.57-42.39,7.51-1.68.86-2.83.82-3.44-.12-8.22-.13-16.35-.5-24.38-1.12l-.22-.79c.45-.48,1.09-.31,1.64,0,1.87-1.23,4.31-1.45,7.31-.66,2.8-7.59,4.31-15.99,5.53-24.3,6.12-41.92,8.44-84.61,7.28-126.75-1.79-5.65-2.79-11.25-3.01-16.78-7.31,7.53-18.89,8.64-28.96,9.17-13.46-.09-26.76.85-39.96,3.4-8.03.97-17.04,1.18-23.98-3.43-2.97,11.84-8.54,23.12-14.46,33.87-7.24,12.16-13.88,24.55-19.89,37.17-4.54,10-11.2,16.98-21.13,20.64-.43.85,3.57,12.19,6.31,12.01,9.48,2.72,14.78,9.1,19.26,17.63.21,3.55,13.13,6.99,13.91,6.22.36-.36,1.61-8.84,1.07-10.03-2.42-5.51-3.42-10.95,1.53-15.62,19.17-19.23,32.58-44.85,42.75-70.35.31-8.06,7.01-9.84,5.25-.27-3.77,12.88-6.41,26.08-8.19,39.59-2.03,14.11-6.5,27.59-11.97,40.65-3.13,7.88-4.29,11.95.55,18.78,5.61,7.91,15.86,18.27,25.21,21.26,10.17,3.25,20.79,5.36,31.44,6.1l1.44,1.16c.48.15.47.34,0,.55-4.36.6-9.34-.03-13.63-1.09-.3,2.02-3.83,1.59-3.82-.55l-21.51-5.49c-1-.2-1.79-.53-1.93-1.6l-2,.13c-6.51-4.59-12.27-10.71-17.11-17.08-6.59-8.69-6.31-10.79-3.09-20.81,6.59-17.77,11.65-34.58,15.03-53.23.62-7.98,2.43-15.48,4.77-23.09l1.31-.93c-.25-.43-.61-.62-1.09-.55-4.36,20.7-16.79,38.53-29.34,55.11-4.83,5.95-9.69,12.18-14.05,18.16-.21.28-.87.03-1.32-.23-.71-1.76-.27,4,0,3.27,1.97-.12,3.68,4.18,2.18,5.45q-.29.61,0,0c1.46.34,1.88,1.64,1.27,3.91l-1.27,4.15c.9,3.35.58,8.09-3.84,5.87-3.72.28-7.33-.86-10.74-2.22-.63,1.86-1.77,4.14-3.95,4.1-.64.61-.83.25-.55-1.09-.71-1.2-.29-2.92,1.25-5.17-.08-.52-5.01-7.43-5.89-8.63-2.99-4.1-6.03-6.91-10.71-9.22l-.47-1.51c-1.5.51-2.28.76-2.18-1.09-2.99,2.62-6.69-5-7.79-7.59-3.38-8-2.56-9.73,6.04-12.36,4.21-2.3,7.19-6.24,9.87-10.16,11.41-20.87,22.68-42,33.81-63.37l2.24-2.46c-.72-.65-.52-1.72.6-3.22l.49-2.23c.93-1.81,1.54-5.3,2.73-7.09-.31-1.13.15-.99,1.09-.55l1.55-.23c3.94,2.61,8.7,3.29,13.3,3.9l.97,1.24c1.21.27,4.11.59,1.64,0,0-.43.04-1.08.33-1.15,1.6-.36,13.84-2.2,14.55-2.01.43.12.71.57.93.97q1.16.35,0,0l1.75-1.4c4.92-.67,9.86-1.08,14.82-1.22l1.97.99q2.85.12,0,0c3.57-1.93,9.39-2.26,13.09-.55,1.29.4,7.31.48,4.91,0l1.02-1.33c7.73-.87,14.72-2.38,20.34-8.09l1.54.15c.99-.6,1.53-.6,1.64,0h-.06Z"/>
  <path class="st30" d="M1041.38,257.84c.44-.55,4.44-1.98,4.67-1.88.53.24,4.47,9.78,3.34,10.7-5.56.14-11.13.29-16.73.45-.89,1.39,3.86,1.04,4.73-.02,1.78-.22,11.38-.69,12.17-.3.44.22,5.45,6.71,5.88,7.72,2.64,6.14-1.6,8.32-1.52,7.87.03-.18,2.53-2.43,2.73-1.63-1.9,3.55-5.26,4.62-8.63,6.38-.97.51-1.51-.21-1.18,1.8-.44-.69-.85-1.38-1.09-2.18,2.62-.13,6.07-1.69,7.63-3.82-2.49.87-4.62,2.69-7.19,3.44-2.8.82-5.94.51-8.62,1.46-.14.24-.33.22-.55,0l-14.72,1.09c-.89.25-1.79.25-2.73,0h-4.91c-2.29-1.14-5.55-.36-8.18-.55-5.23-.37-11.53-1.31-16.81-2.55s-9.32-3.57-14.27-4.54l-.22-.57c3.12-1.87,5.91-4.32,8.01-7.31.59-.14,4.74,3.29,5.29,4.06l.65-.36c5.35,1.89,11.37.17,15.43-3.68l.82.22c1.76-2.25,2.56-4.91,3.27-7.63-.54-1.08.28-3.95,1.09-4.91l.92-.81c9.53-.82,19.07-1.86,28.62-3.13l2.09.66v.02Z"/>
  <path class="st13" d="M866.36,313.45l.52,1.43c-21.55,29.54-43.73,59.08-66.56,88.63,4.38-1.49,4.29,1.86,1.36,4.55-12.16,26.7-28.66,52.73-44.96,77.82-2.91,3.78-5.34,7.81-7.29,12.11l-1.4.81c.16-1.49,9.83-1.34,10.4-1.09.41.18.61.66.77,1.09,2.65-1.84,2.32,3.04,1.77,5.03-.76,2.34-1.22,4.64-1.38,6.89,3.22-.06,5.94,1.2,8.23,3.43.93.15,9.61-11.67,10.07-13.85l1.22-.41c-.87-1.12-.85-1.14.55-1.09,5.31,1.14,11.43,5.46,14.72,9.81,1.33.76.91,1.39-.55,1.09l-1.17.5-11.2,23.6,7.12-3.94,1.43.55c.47.15.47.34,0,.55-2.25,2.01-4.98,3.65-8.18,4.91l-2.66.45c-.98,1.41-2.44,2.3-1.7.1-.01-1.4.21-2.76.66-4.08l11.47-24.35-8.23-5.43c-3.8,5.29-7.82,10.42-12.07,15.4l-2.19,1.02c-1.57.59-1.59.15-.55-1.09-.43-1.97-.91-.88-2.18-1.92-.51-.42-.92-1.23-1.09-1.35-.63-1.34-2.5-2.18-5.6-2.53-.24-3.86.26-7.86,1.5-12l-.54-.73c-3.33.43-7.28.61-10.82.51-.12,0-.24-.23-.36-.51-.84-1.28-.55-2.97.89-5.05,3.82-5.88,7.52-11.82,11.11-17.85.29-.58.34-1.18.55-1.64,3.15-3.28,6-6.9,8.18-10.9,1.43-2.07,3.08-4.4,4.36-6.54,3.01-4.58,5.73-9.31,8.18-14.17,1.11-2.73,2.75-5.28,4.91-7.63.1-.28-.11-.83,0-1.09,1.84-3.18,3.66-6.45,5.45-9.81.11-.27-.11-.83,0-1.09,2.41-3.78,4.41-7.96,6-12.54.05-.16-.04-.37,0-.55l2.18-2.73c-.48-.15-.47-.34,0-.55.56-.96.38-.96-.55,0-.18.48-.36.48-.55,0-2.39.39-2.93-1.5-1.09-2.73,0-.18-.03-.38,0-.55.98-1.21,1.88-2.48,2.73-3.82.51-.98,1.15-1.81,1.64-2.73,1.24-1.68,2.51-3.31,3.82-4.91.08-.13-.08-.41,0-.55,2.14-2.23,4.14-4.59,6-7.09.2-.35.35-.73.55-1.09l3.27-3.27c.88-.78,1.4-1.28,2.18-2.18,1.07-.92,1.98-2.01,2.73-3.27.31-.57.75-1.08,1.09-1.64,3.38-4.02,6.65-8.19,9.81-12.54.47-.69.92-1.68,1.64-2.73l5.45-8.18c.55-.71,1.09-1.46,1.64-2.18,5.56-7.82,11.19-15.46,16.9-22.9.18-.19.36-.37.55-.55l2.73-3.27c.31-.29.79-.77,1.09-1.09,1.63-2.53,3.44-4.71,5.45-6.54v.04Z"/>
  <path class="st95" d="M1023.38,771.35c1.15-2,1.6-.82,1.09,1.09l.95,1.09c-1.92,17.13,9.76,21.88,23.34,27.31,7.36,4.71,12.72,11.47,16.1,20.27,5.63,9.41,6.97,9.83,18.32,11.2,11.34,1.36,31.32,2.91,27.53-14.26-2.77-12.54-9.42-17.59-22.29-17.26l-1.25-1.08c.59-.41.23-.41-1.09,0,.6,1.38.06,1.53-1.09.55-1.02.03-1.41-.45-.55-1.09,4.89-2.23,13.7-.43,18.47,1.98,8.43,4.25,15.16,23.6,7.45,30.2-.44.38-7.74,4.31-8.2,4.35-.87.09-2.11-.56-3.24-.58-5.36-.07-9.81.75-15.22-.04-2.81-.41-11.01-2-13.27-3.09-5.3-2.55-10.27-14.83-13.35-19.9-6.03-9.91-16.11-11.34-25.33-16.65-7.5-4.31-10.25-16.03-8.36-24.08h0Z"/>
  <path class="st51" d="M995.58,645.42c-.3.01-.54.04-.55.1-.28,1.88-.32,3.91-.34,5.82.26,3.02.21,5.89.06,8.88,0,.13,0-2.54.83-2.25,1.14.94,1.45,2.49.94,4.63,2.4.97,4.46,3.91.78,4.52.32,1.85-.07,2.98-1.17,3.38v.55l-.55.2c-.05-4.56-.19-4.89-3.82-7.28-2.43-1.16-1.15.12-2.49,1.04-5.03,3.45-18.55-5.7-19.88-11.39-3.98.87-3.24,6.99-6.53,8.72-3.09.29-6.18.11-9.27-.55-.95-.18-1.78-.33-2.73-.55-.97-.68-2.12-.92-3.27-1.09l-1.14-.2c-.54,1.25-.73.94-1.04-.35-.33,1-.8,1.03-1.09,0-.06.49-.25.46-.55,0-1.1-.13-1.05-.67,0-1.09-1.59-1.02-2.98-5.62-1.64-7.09-.12-1.04.06-1.77.55-2.18l1.37.24c.69,2.85,1.55,5.62,2.56,8.31,4.77,1.9,9.99,2.99,15.14,2.79l1.15-1.59c1.86-6.62,4.53-8.85,8.01-6.71,3.64,5.72,9.74,11.85,17.04,10.45,1.38-2.54,4.07-4.33,5.25-.68-.47-11.89-.34-23.72.4-35.49-1.66-9.65-4.12-19.12-7.39-28.43l.64-1.78c-.27-1.47.08-1.61,1.09-.55l1.71,2.03c5.66,15.15,9.23,29.7,7.09,45.81l-1.17,1.77h0Z"/>
  <path class="st0" d="M1061.55,433.37c.33.68.7,1.83,1.09,2.73,1.82,3.06,2.94,6.61,3.42,10.14-1.6,13.72-2.87,27.42-3.81,41.11-.19,5.3-.22,10.74,1.48,15.8,3.55,8,6.15,15.65,3.85,24.59l-3.85,20.66c-.58.99-2.14,2.45-2.23,2.98-.91,5.78,3.33,12.52,1.71,17.51-.31.94-.93,1.41-1.12,1.86-.75,1.51-.63,3-.37,4.61l-.72.3c-.28.07-.55.12-.8.06-2.04-.49.01-5.95.61-7.36-.42-5.65-.96-11.32-1.61-17.01-5.2-2.27-6.76-3.46-8.63-8.89-.66-1.9-2.01-6.5-.47-7.68.14-1.08.5-1.63,1.09-1.64l1.25.11c.79,2.87,1.34,5.79,1.67,8.76.47,3.45,4.53,5.18,7.52,6.06,1.56-8.28,2.94-16.59,4.14-24.93l1.23-2c.43-1.56.43-3.2,0-4.91-1.31-1.01-2.13-2.6-2.44-4.77-4.52-9.67-6.24-18.74-4.16-29.21l1.15-.9.55-3.82-.65-1.91c0-9.91.81-20.23,2.67-29.88-1.86-5.49-4.17-10.81-6.95-15.95l.57-1.31h.55c1.33.72,2.49,3.2,3.27,4.91v-.02Z"/>
  <path class="st1" d="M947.6,660.14c-.91-.02-1.83-.42-1.64.81.21,1.37,1.48,3.51,1.91,5.19,1,3.94,1.87,8.18,1.38,12.28s-6.7,9.38-9.47,12.31c-2.22,2.36-5.5,7.61-9.09,8.44-1.39.32-2.98-.75-3.85-.1-.36.27-1.23,4.27-1.6,5.23-.17,1.48-.74,3.27-1.09,1.09.44-1.89.66-4.55,1.09-6.54-1.14-.09-2.41.19-3.52-.03-6.76-1.36-16.47-1.12-23.74-1.06-1.04.46-2.23.44-3.27,0-2.94.11-2.79,1.03-2.96,1.03-1.31-.06-3.82-1.41-5.21.06-1.95-.56-5.59-9.63-7.09-11.99-.64-1.31-.46-1.86.55-1.64,1.65.24,2.97,1.49,3.94,3.74.87,3.35,2.4,5.8,4.59,7.34,13.88-1.21,27.9-1.15,42.05.19,6.21-5.23,11.99-11.25,16.3-18.15.38-5.19-.55-10.35-2.81-15.49l.81-1.07c-.24-1.27-.06-2,.55-2.18,1.12.15,1.34.32,2.18.55h0Z"/>
  <path class="st36" d="M1068.09,618.71c-.68-.89-1.31-.79-1.47.42.49,11.62-.61,23.3-3.43,34.6-1.1,5.01-1.08,10.18-.17,15.08.18,2.24.06,3.56-2.02,1.68-.42-.39-.7-.68-1.09-1.09-1.24-1.37-2.33-2.82-3.27-4.36-.15-.2-.4-.34-.55-.55-.15-.85-.52-1.58-1.09-2.18-.15-.33-.36-.66-.55-1.09l-.75-.17c-.71,1.85-1.55,2.09-2.52.72-.84-1.27-1.28-1.6-1.64-3.27-.45-.47-.64-.8,0-1.09v-.55c1.06-.66,1.6.03,2.09.95.94-1.1,2.12-1.21,3.2-.24l5.87,9.71c-.15-11.08.99-22.22,3.42-33.4,1.23-7.93,1.25-15.36-2.43-22.54,2.52-4.22,4.52.15,5.43,2.96l2.45,3.02c-.03-4.35-.37-8.68-.77-13-.92-9.82-2.19-19.73-8.45-27.34,0-.53.22-.98.64-1.34-.04-.14.06-2.59.1-2.86.15-1.02.72-1.41.99-2.04-1.25,5.3,3.86,8.7,5.62,13.74,3.56,10.22,3.89,24.28,4.17,35.08.04,1.39.86,3.05.54,4.3-.16.63-.69,1.05-1.32.3-1.16-1.38-2.09-3.85-3.01-5.44h.01Z"/>
  <path class="st20" d="M877.81,779.52c-1.31,2.43-2.34,5.08-3.71,7.47-1.04,1.81-6.81,12.22-7.45,12.72-1.91,1.54-5.35,1.04-7.49,1.77-3.12,1.07-11.99,5.37-14.35,7.47-9.3,8.26-4.58,17.05,5.74,20.73h-.55c-.74.31-1.83.31-3.27,0-4.59-2.1-8.61-6.1-8.72-11.45l.55-2.73c2.13-8.73,13.97-13.34,21.81-15.81l2.73-.55c.49-.1,1.11.06,1.61-.28,3.96-6.24,7.99-12.8,11.47-19.35,1.07-1.18,2.2-2.1,1.64,0h0Z"/>
  <path class="st96" d="M895.8,200.6c1.13.62-.59,3.45-1.01,4.17-.98,1.71-4.17,5.1-3.81,6.87.17.81,9.16,10.96,10.53,12.41,7.8,8.25,13.22,12.46,24.28,16.06,2.68.87,5.71.93,8.16,2.2.35,1.38-3.4.21-3.92.1-3.39-.72-8.03-3.75-10.82-2.86-3.8,1.2-3.23,7.03.03,9.02.93.77.93,1.13,0,1.09-5.98-1.7-5.48.87-8.71,4.1-3.34,3.35-6.31,4.14-5.32,9.68.16.91.3,1.74,1.49,1.48-.9.8-2.36.98-4.36.55-.48-.15-.47-.34,0-.55l1.9-.38.28-5.62c.89-3.15,1.23-1.9,3.01-3.8,2.34-2.5,4.7-6.41,7.89-7.1.95.14,1.31-.04,1.09-.55-1.66-2.34-1.45-5.39.28-7.62.69-.89,1.77-.77,1.89-1.64-7.11-1.67-13.31-8.41-18.27-13.63-1.39-1.46-10.3-11.55-10.51-12.42-.66-2.64,4.49-8.85,5.88-11.58l.02.02Z"/>
  <path class="st90" d="M846.19,635.61l-.74-.96c.59-2.42,3.47-12.1,4.75-13.51,2.52-2.77,4.78-2.41,6.58.82,1.43,4.64,3.48,8.72,6.14,12.24,1.3.4,2.08,1.05,2.35,1.95-1.8-.93-1.71-7.9,0-8.99l-1.2-.31-1.47-4.56c-5.31-3.65-3.51-5.96,1.52-8.62s5.93-1.23,7.75,3.57c1.78,7.24,4.32,14.18,7.59,20.81,4.77,3.99,5.66,7.89,2.66,11.7.03.06.97.4.99.34,1.47-3.99,2.84-8.17,4.07-12.3l1.53-1.64c.4-.57.58-.39.55.55.8,3.93-1.19,10.08-3.82,13.08-.53.95-1.08,1.5-1.64,1.64-.06.4-.13.72-.24.73-4.28.43-5.37-.7-3.03-4.54.23-.25.32-.85.55-1.09.73-1.09.59-1.89-.55-3.27-.32-.28-.68-.72-1.09-1.09-.46-1.14-1.21-1.99-2.18-2.73-.22-.56-.35-1.09-.55-1.64-.71-1.97-1.62-3.79-2.73-5.45-.22-.76-.35-1.45-.55-2.18-1.3-3.04-2.27-6.21-2.9-9.49-.88-4.87-2.63-6.61-5.28-5.22-.62.41-1.2,1.04-2.18,1.64-.84.57-1.42,1.37-.55,2.18,2.5,1.3,2.23,2.22,2.73,4.91.86,2.13,2.11,12.14.45,13.08-1.11-.26-2.17-.26-3.17,0-2.44-1.47-3.56-2.7-4.36-5.45l-.86-1.58c-2.14-8.24-4.22-10.26-6.23-6.06-.18.35-.4.72-.55,1.09-.47,2.63-1.2,5.17-2.18,7.63-.41,1.38-.76,1.83-1.09,2.73-.15.48-.34.47-.55,0-.15.48-.34.47-.55,0h.03Z"/>
  <path class="st3" d="M1002.12,698.3c3.87.82,8.61,2.67,12.38,4.49.17.08.19.48.16.96,7.03,17.9,11.71,36.3,14.02,55.19.08,4.45-.38,11.13-4.21,13.5.13-1.16.07-1.22-1.09-1.09.47-2.02,1.42-2.91,1.9-4.37,4.47-13.52-8.64-47.53-12.56-62.14-.17-.62.29-1.52.25-1.58-.83-1.15-9.75-2.61-10.85-4.96h0Z"/>
  <path class="st31" d="M1030.47,243.67l-1.38,2.74c2.48,2.73,6.9,4.92,9.38,7.25,1.24,1.16,1.14,3.78,4,3.09-.09.36-.45.73-1.09,1.09-9.51,2.22-21.6,2.39-31.62,3.27l-.47.92c-.44,2.25-1.41,4.81-1.47.34l-.79-1.8c-1.37.77-4.68-2.39-4.36-3.82-.11-2.78,3.14,2.02,3.98,1.03,7.37-6.01,15.58-9.74,23.83-14.12h-.01Z"/>
  <path class="st32" d="M846.19,635.61h.55c.35,4.33-4.97,5.31-4.65-.03.13-2.92.05-5.81-.26-8.69-.32,1.4-.53,1.3-1.09,0l-3.27,2.73c-1.2.79-1.17.91-2.73,1.64-1.86.86-4.34,1.54-6,0-.05-.15.03-.36,0-.55-.97-2.86-1.2-7.09-1.21-10.25-.04-11.81.2-23.4.54-35.11.79-15.53-.78-30.15-3.14-45.41-.38-2.44-1.09-6.07-3.28-6.26-.26-.26-1.01-.46-1.64-1.09-7.57-3.12-18.31-3.54-26.57-2.41-1.27.66-2.41.92-3.42.78v-.55c.87-1.7,2.85-2.52,5.96-2.48,5.95-.77,27.09-.75,29.58,5.9,4.64,12.41,4.66,29.46,4.65,42.78-.56,14.99-.83,29.93-.57,44.92.03,1.51.17,7.94,2.01,8.5,3.21-1.24,6.26-3.08,9.16-5.54,2.02-.61,2.95,1.16,3.12,3l.11,6.76c-.31,1.99.41,2.45,2.15,1.37h0Z"/>
  <path class="st3" d="M891.99,719.56v.55l-.55,4.36c-.15,11.12-2.48,22.25-2.87,33.38-2.91,7.65-6.93,14.58-10.76,21.67l-.26-.43-1.37.43c3.44-6.46,8.9-16.62,10.9-23.44l.55-3.82c.04-.6,0-1.49,0-2.18l.55-6.54c.02-.9-.05-1.82,0-2.73l.55-2.73c.2-1.63.35-3.32.55-4.91,0-2.2.18-4.39.55-6.54.02-.54,0-1.09,0-1.64.16-.79.34-1.52.55-2.18.22-4.37.76-5.46,1.64-3.27l-.03.02Z"/>
  <path class="st15" d="M828.74,630.71c-1.62-1.09-1.01-2.18-1.09-3.27l-.55-3.82c-.09-5.44,0-10.91,0-16.35.43-.86.43-1.86,0-2.73v-1.09c.46-1.22.46-2.59,0-3.82v-.55c.46-1.22.46-2.59,0-3.82v-2.18c.45-1.04.45-2.23,0-3.27,0-1.09-.02-2.18,0-3.27l.55-3.27c-.14-3.16.03-6.2,0-9.27-.46-1.05-.45-2.22,0-3.27-.06-3.59-.38-7.28-.55-10.9l-.55-3.27c-.05-.72.06-1.46,0-2.18l-.55-2.73c-.02-.18,0-.36,0-.55l-.55-3.27c0-.18.01-.37,0-.55-.36-1.05-.54-2.14-.55-3.27-.13-.62-.37-1.32-.55-2.18.03-.99-.15-1.89-.55-2.73-.56-2.64-.01-3.27-2.18-5.45,1.9-1.88,2.86,1.99,3.13,3.14,6.93,29.09,1.9,58.76,3.38,88.2.08,1.67.33,4.05.57,5.7l.04.02Z"/>
  <path class="st66" d="M918.7,784.98c-.64,6.37-9.53,13.32-12.82,19.07-4.06,7.1-6.74,15.71-9.65,23.33-4.73,1.84-9.64,2.9-14.6,3.94-1.2.2-1.93.01-2.18-.55,2.06-.36,14.83-3.71,15.68-4.5,1.07-1,2.35-7.16,3.14-9.12,4.28-10.53,7.19-14.48,13.88-23.19,3.14-4.09,5.81-7.98,6.01-13.34,1.08-2.5.87,2.7.55,4.36h-.01Z"/>
  <path class="st5" d="M1059.37,764.26c-.49.09-1.03-.27-1.64-1.09-1.1.16-1.33-.3-.55-1.09-.36-1.95-.9-3.77-1.64-5.45-.36-.25-.7-.51-.99-.83s-.54-.6-.64-.94c-4.53-15.71-8.84-33.19-10.67-49.41-.04-.35.09-.72.24-1.11s.37-.77.61-1.13c.61-1.76.5-2.43-.45-3.82-.29-.42.88-.92,1.54-.54.12,7.06,2.33,13.76,3.67,20.59,2.96,15.08,5.73,30.21,10.51,44.83h.01Z"/>
  <path class="st80" d="M917.61,755.54c.03,1.32-.15,2.59-.55,3.82-.01.18,0,.36,0,.55-.15.48-.34.47-.55,0-.23-.14-.42-.5-.55-1.09.88-17.3,4.34-36.93,8.18-53.42l.51.53c-.11-.72.4-1.14.58-1.63.11,1.12,0,2.19-.25,3.29-3.46,15.89-5.45,31.8-7.38,47.95h0Z"/>
  <path class="st22" d="M1048.46,260.57c.51,1.13,1.25,1.51,1.64,3.27,1.37,1.42,1.55,2.7.55,3.82,2.76,2.69,3.69,3.44,5.45,7.09l1.09,3.27c.09,1.19.15,1.43-.55,2.73l-2.73,1.63c5.69-4.94-1.59-11.45-5.3-15.18-6.23.84-14.42-.11-20.16,2.53-2.15.99-4,3.42-7.25,2.83-.29-1.55.41-.88,1.19-1.23,3.79-1.71,5.97-3.4,10.26-4.21q1.16.35,0,0c.17-.03.6-.46,1.31-.57,2.39-.37,14.71-.2,15.33-1.05.53-.72-3.48-6.94-3.03-8.72-.25-.18-4.02.88-4.88,1.08l-.55-.54c.67.12,1.1-.29,1.64-.55,1.31-.65,2.52-1.05,3.82-1.64,1.07,1.44,1.8,3.26,2.18,5.45h0Z"/>
  <path class="st25" d="M902.89,153.18c1.15.31-.65,1.36-.91,1.54-4.52,3.13-11.76,5.95-17.05,7.48-1.03.3-4.2-.03-3.84,1.6s6.39,5.09,7.89,6.29c2.07,1.65,3.31,3.61,5.77,5.13,3.04,1.88,7.14,3.18,10.58,4.14,1.06-3.07,2.09-6.52,4.65-8.74l-4.43,10.82c-.56-.35-1.29.11-1.56.08-3.08-.31-1.32-1.28-2.16-1.89-1.77-1.3-6.08-2.49-8.49-4.09-2.14-1.43-3.34-3.11-5.21-4.6-2.97-2.36-8.01-4.12-8.17-8.72.11-.65.86-.21,1.13-.32l2.73-.55c6.51-1.56,13.3-4.87,19.08-8.18h-.01Z"/>
  <path class="st95" d="M1059.37,764.26c6.98,6.37,10.48,18.12,16.46,25.79,2.59,3.32,5.63,6.1,8.62,9.09.22.22.33.79.55,1.09-.16,1.25-.55,1.29-1.61,1.21-1.84-.14-6.98-6.64-8.39-8.5l-16.97-26.94c-.7-.93-.96-1.78-.3-2.83l.53-.55c-.05.98.57,1.15,1.1,1.64h.01Z"/>
  <path class="st99" d="M1045.19,698.85c-1.29,1.16.21,3.28-1.09,4.36-1.01-.17-1.34-1.03-.99-2.58-4.35,1.33-8.74,2.56-13.17,3.65-.4.1-.86.02-1.34-.07s-.95-.26-1.41-.45c-1.05.2-1.85.07-2.73-.55-.1.48-.29.46-.55,0,.27-.92.76-1.63,1.71-1.78l14.76-3.63c5.3-1.51,9.27-2.8,10.07-8.66.52-.27.93-.09,1.26.44.29-.52.66-.88,1.09-1.09-.15.43.12,1.5-.13,2.3-.36,1.17-1.65,4.53-2.35,5.3-1.19,1.3-4.27,1.96-5.15,2.75h.02Z"/>
  <path class="st20" d="M879.99,685.22l-.55,1.64c-1.02-1.61-3.29-3.52-4.37-5.71-2.33-4.7,1.73-6.26,3.76-10.44.82-1.69,1.69-4.36,2.25-6.2.75-.84,1.22-1.9,1.41-3.17l.77-.1c.15-.48.34-.47.55,0l1.01.7c-.87,6.4-3.96,11.5-7.58,16.64.8,1.93,1.87,3.72,3.21,5.37l-.45,1.28h-.01Z"/>
  <path class="st104" d="M1019.02,703.21c-.1.52-.46.88-1.09,1.09-.41,1.6-3.19,1.11-3.27-.55-3.72-2.46-8.04-3.54-12.54-5.45-1.92-.82-8.07-3.21-9.26-4.64-1.32-1.58-.22-2.02,0-3,2.41-5.88,3.34-12.21,2.78-18.97l.49-.65v-.55l1.25.63c1.73,7.5-.02,14.14-2.23,21.15,7.25,4.16,15.09,7.67,23.19,9.69l.69,1.24h-.01Z"/>
  <path class="st66" d="M1063.73,503.15c-3.69-7.49-1.21-21.32-.55-29.72.58-7.43,1.12-14.84,1.71-22.28.14-1.74,1.14-3.79,1.06-5.51-.05-1.15-2.66-8.03-3.31-9.54,1.2.71,1.57,2.44,2.04,3.68,3.44,9.09.4,15.73-.4,24.94-.96,11.15-3.01,27.96-.55,38.42h0Z"/>
  <path class="st72" d="M850,829.68c.94.01,1.86.16,2.73.55,1.16.41,2.25.41,3.27,0,7.75.8,15.69,1.91,23.44.55l2.18.55c-5.45,1.14-9.01,1.58-14.72,1.64l-4.36-.55c-1.03,0-1.56.08-2.73,0l-2.73-.55c-.53-.06-1.12.08-1.64,0-.85-.38-1.76-.56-2.73-.55-2.68-.54-3.26-.38-6-1.64.41-.88,2.35-.21,3.27,0h.02Z"/>
  <path class="st81" d="M1068.09,618.71c-1.45-.97-1.1-.53-1.07.83.18,7.5-.13,16.95-1.18,24.45-.69,4.98-2.88,9.88-3.2,14.77s.67,9.24,1.08,13.91c-1.46.23-1.98-1.5-2.72-2.18,3.14.69,1.11-4.15,1.07-5.7-.28-10.43,3.05-19.93,3.83-30.55.43-5.87.93-11.87,0-17.71,1.74-.22,1.72,1.38,2.18,2.18h.01Z"/>
  <path class="st36" d="M759.5,476.44c-1.24,2.45-2.29,5.09-3.71,7.47-2.89,4.8-7.66,9.52-8.28,15.43h11.18c2.2,0-.64,8.24-.76,9.61-.43,5.26,1.64,2.54,4.71,3.88.62.27,2.03,1.23.68,1.77-.39-.26-1.4-.98-1.64-1.09-1.66-.03-3.11-.39-4.36-1.09-1.47-2.43.32-7.23,1.09-9.81.28-.79.35-1.57.21-2.34-4.07.18-8.14.24-12.2.16-.48-.48-.62-.51-.59-1.33.14-3.52,6.93-12.29,9.01-15.6,1.28-2.04,2.24-6.1,4.67-7.05h0Z"/>
  <path class="st95" d="M1049.01,663.96c.67.7,1.34.92,2.09,2,2.26,3.25,3.41,7.72,6.1,10.84.21,1.49-2.1,6.64-2.79,8.53-.19.53-.98.82-1.04.99-.43.92-.79,1.1-1.09.55l-.8-1.11,2.97-8.14-5.47-9.76.57-1.16c-.38-1.04-.56-1.95-.55-2.73h.01Z"/>
  <path class="st97" d="M902.34,264.93v.55h-.55l-1.3,1.02c-9.39-2.42-29.31,13.18-19.45,22.09l.03,1.43c-.26.21-.97.36-1.09.55-1.71-.71-1.99-2.03-2.73-3.27-2.15-3.07-1.51-6.87.55-9.81.16-.19.36-.37.55-.55l1.64-2.18c.19-.17.36-.37.55-.55l1.64-2.18c1.26-1.38,2.15-2.77,3.82-3.82,4.62-3.66,10.79-4.41,16.36-3.27h-.02Z"/>
  <path class="st11" d="M891.99,719.56l-1.09-.54c-.39.59.65,3.25-.55,3.82-.57-.99-.28-2.19,0-3.27v-.55c-.46-2.89-.46-5.83,0-8.72.01-2.47-.45-4.27,0-7.09l.55-3.82c.49.19,1.29-.04,1.45.8-.63,6.41-.32,12.92-.36,19.37Z"/>
  <path class="st56" d="M1063.73,548.39c.43-9.22,4.13-19.57,4.39-28.59.17-6.02-3.05-10.97-4.39-16.65,3.24,6.57,5.42,11.14,4.9,18.8-.29,4.28-3.3,23.71-4.9,26.45h0Z"/>
  <path class="st17" d="M767.13,518.96l.48,1.17-7.96,10.64c.13,2.28.29,4.56.48,6.86l-1.18.41c-1.72-2.04-2.21-7.19-.55-9.81,2.38-3.62,4.86-7.57,8.18-10.36.09.43-.02.96.55,1.09h0Z"/>
  <path class="st4" d="M781.85,535.86c-.96.61-3.73,1.82-3.86,1.99-.18.23-2.03,5.21-2.06,5.51-.19,1.48,1.71,1.9.23,2.89-1.06.72-5.68,1.17-7.51,1.75-1.16.37-2.11,1.14-3.15,1.49-1.44.21-1.62-.07-.55-1.09-.55-1.05.09-1.44.99-1.88l7.47-2.32,2.11-6.89c.45-.94.91-1.25,1.97-.89l.27,1.09c1.34-3.33.99-1.43,4.09-1.63v-.02Z"/>
  <path class="st75" d="M790.03,530.95c1.22-.53,3.44-1.42,4.68-1.59,3.14-.43,23.74.5,25.2,2.26.24.28.03.89.1.96-.72-.19-1.47-.32-2.18-.55l-5.45-1.09c-1.05-.11-2.2.08-3.27,0l-2.73-.55h-.55c-3.79-.56-7.65-.37-11.45,0-3.94.97-9.71,5.27-12.54,5.45,2.37-1.52,5.67-3.83,8.18-4.91v.02Z"/>
  <path class="st79" d="M758.95,538.04c.4-.08.98-.19,1.15.07.67.97,1.01,9.44.9,11.09l-.96.83c1.1.19,2.19.19,3.27,0-.52,1.33-3.76,2.87-4.36,2.18l-.55-4.36c-.43-2.23-.47-3.35-.55-5.45l-.55-6.54c-.02-.36.02-.73,0-1.09l-.55-2.73c.06-3.45.55-2.17,1.64-3.82-.39,1.94-.67,3.72-.56,5.74.1,1.86.9,2.9,1.11,4.07h0Z"/>
  <path class="st10" d="M880.54,647.61l-.55,3.81h3.82c1.06.77.56,3.99,0,5.45-.2,1.51-.38,2.97-.55,4.36-.18,1.08-1.3,2.46-1.1,3.82l-1.08-.54c.53-1.77.71-3.65,1.09-5.45l.55-3.27c.18-1.02-.21-2.19.54-3.27-5.66.48-6.29-.99-2.73-4.91h0Z"/>
  <path class="st10" d="M991.76,663.96c.77.37,3.63,1.54,3.75,1.71.63.96-.74,4.27.62,5.38-.13,6.15.35,11.61-1.75,17.6-.29.84-.62,1.66-1.52,2.02,1.51-6.95,2.38-7.33,2.19-15-.05-2.01.41-7.26-.08-8.65-.4-1.15-3.4-.92-3.2-3.07h0Z"/>
  <path class="st14" d="M873.45,630.16c-2.42-2.34-2.43-6.36-3.43-9.38-.83-2.52-1.54-6.36-4.75-5.33.6-.39,1.75-1.55,2.46-1.49,2.43.19,5.08,13.84,5.71,16.21h0Z"/>
  <path class="st89" d="M917.07,767.53c.85,5.6,3.17,11.85,1.64,17.44.16-1.57-.1-3.32-.01-4.91-.27.05-.45.54-.53.55-.26.03-.44-.02-.54-.28-.05-.27.03-.55,0-.81.29-.86.44-2.31.46-4.33l-.46.51c-.26.03-.43-.01-.54-.28-.54-2.46-.92-4.3-1.1-6.81-.34-1.05-.34-1.95,0-2.73.15-.48.34-.47.55,0,.34.42.52.96.55,1.64h-.02Z"/>
  <path class="st60" d="M780.76,443.18c-1.49,2.76-3.03,7.04-4.8,10.19-.75,1.33-1.76,3.77-3.37,3.99,2.82-4.71,4.9-9.96,7.63-14.72.77-.72,1.05-.42.55.55h-.01Z"/>
  <path class="st14" d="M866.36,637.79c-1.18.48-2.78.25-3.82-.55.33-1.16,2.97-.23,3.27-.54.44-.45-.24-10.86-.55-12.54,1.83,2.6,2.35,11,1.09,13.63h0Z"/>
  <path class="st29" d="M858.18,631.8c-1.98-.91-3.44-8.56-4.38-9.25s-2.24.93-2.7,1.62c.47-.92.21-3.56,2.91-2.67,1.71.56,3.63,8.44,4.18,10.3h0Z"/>
  <path class="st107" d="M791.12,423.56c1.73-4.19,3.4-8.81,6-12.54-.88,3.01-1.83,6.15-3.17,9.09-.57,1.25-1.17,3.41-2.82,3.45h-.01Z"/>
  <path class="st50" d="M875.08,302.54c-.98,3.57-4.91,8.08-8.18,9.81-.2-.62-.02-1.35.55-2.18,1.89-4.22,4.06-4.67,6.54-7.63.69-.64,1.05-.64,1.09,0Z"/>
  <path class="st60" d="M760.04,474.8c1.35-2.96,6.15-7.97,8.18-10.9-1.37,3.79-4.52,9-8.18,10.9Z"/>
  <path class="st67" d="M830.92,360.87c-2.37,3.46-4.86,8.12-7.64,11.17-.64.71-1.09,1.35-2.17,1.37,1.88-3.03,3.96-5.91,6-8.84l3.81-3.7Z"/>
  <path class="st48" d="M846.73,635.61h.55c-.45,1.21-.31,2.66-1.64,3.82-.91.45-1.8.36-2.73,0-1.43-.92-.98-1.28-1.09-2.73-.5-3.18-.46-6.88,0-9.81,1.48.65-.47,9.2,1.37,11.44,1.53,1.86,3.57-1.29,3.54-2.72h0Z"/>
  <path class="st107" d="M791.12,424.65c-1.13,2.76-2.25,5.44-3.65,8.07-.46.86-.31,1.85-1.8,1.74,1.08-2.65,2.24-5.64,3.54-8.18.47-.92.61-1.67,1.91-1.63h0Z"/>
  <path class="st47" d="M811.29,384.86c-1.44,2.48-2.87,6.06-6,7.09,1.42-2.31,3.61-5.81,6-7.09Z"/>
  <path class="st41" d="M902.34,264.38c.48.15.47.34,0,.55-6.45.14-10.36-.52-16.36,3.27,2.07-2.04,6.31-3.89,9.14-4.22,2.54-.3,4.62.49,7.22.41h0Z"/>
  <path class="st107" d="M785.67,435.55c-1.21,3.25-3.53,5.08-4.91,7.63l-.55-.55c.88-1.54,2.06-3.37,3.06-4.85.53-.79,1.26-2.42,2.39-2.23h0Z"/>
  <path class="st71" d="M876.17,303.09c-.77.8-1.13.62-1.09-.55-.34-.05-.74.04-1.09,0,.71-.85,2.78-3.95,3.27-4.91,1.01,2.49-.28,3.48-1.09,5.45h0Z"/>
  <path class="st53" d="M1049.56,657.42c.05.35-.07.77,0,1.09-.58-.1-1.12-1.39-1.63-.78-2.1,2.52-.06,3.91,1.09,6.23-2.21-.2-3.76-4.11-3.27-6,.15-.48.34-.47.55,0,1.42-2.04,2.51-2.22,3.27-.55h-.01Z"/>
  <path class="st41" d="M877.26,287.28c-.25-.42-.9-.51-1.27-1.71-1.05-3.35-.28-5.63,1.82-8.1-1.65,3.6-2.03,6.03-.55,9.81Z"/>
  <path class="st108" d="M832.56,358.15c1.03-3.06,3.5-5.66,5.45-8.18-.69,3.25-3.73,5.67-5.45,8.18Z"/>
  <path class="st47" d="M797.12,404.48c-.05,1.31-.28,2.11,1.09,2.73.05.34-.31.52-1.09.55-1.37-.11-2.22.58-2.2-.83s.74-2.32,2.2-2.44h0Z"/>
  <path class="st108" d="M839.64,347.79c1.93-3.62,4.43-7.02,6.86-10.31,3-4.05,6.62-8.98,10.04-12.58-.11.93-.65,1.64-1.18,2.36-5.11,6.92-10.56,13.77-15.72,20.54h0Z"/>
  <path class="st88" d="M805.84,530.4c-3.8-.16-7.65.12-11.45,0,3.35-.83,8.06-.98,11.45,0Z"/>
  <path class="st47" d="M805.3,392.49c-.95,1.6-1.71,4.6-3.82,4.91.95-1.77,1.59-4.64,3.82-4.91Z"/>
  <path class="st108" d="M866.91,312.35c1.04,1.04.92,1.29-.55,1.09-2.07,2.26-3.32,4.28-5.45,6.54l6.54-9.81c-.28.62-.26,1.56-.55,2.18h.01Z"/>
  <path class="st53" d="M1051.19,661.78c2.89.6.41-2.27,3.27-1.63.09.33-.1.86,0,1.09-1.24.8-.62,2.89-2.45,2.18-.78-.3-.62-1.33-.82-1.63h0Z"/>
  <path class="st82" d="M873.99,632.34c2.21-.03,2.26,4.13,2.73,5.45-1.53-1.02-2.21-3.68-2.73-5.45Z"/>
  <path class="st88" d="M841.83,626.89c.18,3.21-.25,6.64,0,9.81-1.55-2.7.45-6.65-1.09-9.27-.48-.15-.47-.34,0-.55.24-.04.96-.06,1.09,0h0Z"/>
  <path class="st88" d="M746.41,500.42l12.54-.54c.41,1.22-.31,1.93-.55,2.72-.23-.83.75-2.08-.8-2.19-2.5-.17-10.02,1.17-11.19,0h0Z"/>
  <path class="st9" d="M764.95,548.39l.55,1.09c-.86.29-1.45.34-2.18.55-1.45.4-2.91,1.69-3.27,0,.3-1.5,3.85-2.86,4.91-1.64h0Z"/>
  <path class="st26" d="M834.74,631.25c-1.54.72-5.07,3.13-6,0,1.91-.19,3.53,1.08,6,0Z"/>
  <path class="st29" d="M848.37,632.89c.81-2.74,1.07-4.79,2.18-7.63-.32,2.45-.63,5.71-2.18,7.63Z"/>
  <path class="st88" d="M890.35,719.02c-.91-2.21-.92-6.4,0-8.72-.01,2.9.01,5.82,0,8.72Z"/>
  <path class="st47" d="M797.12,403.94c.32-1.74,1.17-2.96,2.73-3.82-.56,1.07-.46,3.78-2.73,3.82Z"/>
  <path class="st6" d="M1046.28,255.12c.14-.06.08-.84,1.09-.54l1.09,5.99c-.81-1.78-1.48-3.53-2.18-5.45h0Z"/>
  <path class="st56" d="M1059.91,426.29c-2.2,2.11,1.56,4.64,1.64,7.09-.63-1.29-2.47-3.5-3.27-4.91-.41-3.32.62-1.71,1.64-2.18h-.01Z"/>
  <path class="st47" d="M811.84,383.77c1.47-2.75,1.55-1.76,3.27-3.27-.23,1.52-1.74,3.04-3.27,3.27Z"/>
  <path class="st30" d="M904.53,258.93v6c-.72.02-1.45-.02-2.18,0v-.55c.55-.02,1.09.03,1.64,0-.21-2.14,0-3.51.54-5.45Z"/>
  <path class="st67" d="M817.29,378.31c.55-.63,1.05-2.85,2.73-3.27-.57,1.05-.18,3.08-2.73,3.27Z"/>
  <path class="st91" d="M917.07,767.53c-.02-.16-.43-.69-.55-1.64-.59-1.73-.4-4.2,0-6h.55c-.13,2.53.09,5.1,0,7.63h0Z"/>
  <path class="st88" d="M890.9,699.39c.5,1.47-.4,2.91-.55,3.82-.12-.74.18-3.65,0-3.82-.25-.25-2.91.53-3.28-.54,1.54.24,1.98-.15,3.82.55h.01Z"/>
  <path class="st81" d="M1059.91,669.41c-1.22-1.29-3.21-2.08-3.27-4.36,1,1.33,3.01,2.63,3.27,4.36Z"/>
  <path class="st88" d="M757.86,542.4c-1.1-1.67-.4-4.44-.55-6.54,1.06,1.65.47,4.45.55,6.54Z"/>
  <path class="st88" d="M887.62,750.09c.02-2.07-.47-4.91.55-6.54-.05,2.08.49,4.9-.55,6.54Z"/>
  <path class="st82" d="M880.54,643.24c.33.29,1.27-.31,1.64,1.37.56,2.52-1,1.79-1.1,1.9l-.55-3.27h0Z"/>
  <path class="st88" d="M889.26,733.19c.27-2.07-.65-4.88.55-6.54-.08,2.44-.26,4.26-.55,6.54Z"/>
  <path class="st107" d="M797.12,410.48c.25-1.1.23-1.35,1.09-2.18-.49-.75.35-.87,1.09-.55-.19,1.31-.65,2.74-2.18,2.73h0Z"/>
  <path class="st108" d="M857.09,324.35c.07-1.66,1.7-2.32,2.73-3.27-.05,1.67-1.74,2.3-2.73,3.27Z"/>
  <path class="st82" d="M879.45,642.15c-1.11-1.02-1.54-1.12-2.18-2.73,1.54.09,2.33,1.22,2.18,2.73Z"/>
  <path class="st88" d="M890.35,722.83c-.02.72.27,1.8-.55,2.18,0-1.71-.45-4.2.55-5.45,0,1.09.03,2.18,0,3.27Z"/>
  <path class="st26" d="M840.73,626.89v.55c-.93,1.06-2.28,1.53-3.27,2.18.83-1.25,1.72-2.48,3.27-2.73Z"/>
  <path class="st88" d="M761.68,513.51c-1.8-.1-3.32.65-4.36-1.09,1.56.47,2.8.38,4.36,1.09Z"/>
  <path class="st52" d="M962.86,662.32c-2.55,1.33-6.45-.01-9.27-.55l9.27.55Z"/>
  <path class="st92" d="M1052.83,688.49l-.58,1.63c-.23-.08-.42-.54-.51-.54-1.63-.47-1.1-2.88.55-2.73l1.09-.55c-.26.68-.3,1.49-.55,2.18h0Z"/>
  <path class="st88" d="M866.91,832.95c-1.35.01-3.47.41-4.36-.55,1.36,0,3.47-.41,4.36.55Z"/>
  <path class="st88" d="M758.95,552.21c-1.05-1.19-.41-2.89-.55-4.36.25,1.31.97,2.66.55,4.36Z"/>
  <path class="st88" d="M866.36,637.79c-.4.83-1.61.68-2.46.54-1.15-.19-1.12-.95-1.35-1.09l3.82.55h-.01Z"/>
  <path class="st14" d="M863.09,617.08c-.55.76-1.3,1.34-.55,2.18-2.64-1.38-1.51-.92.55-2.18Z"/>
  <path class="st88" d="M827.65,627.44c-.89-1.07-.52-2.54-.55-3.82,1.01.77.46,2.61.55,3.82Z"/>
  <path class="st52" d="M950.87,661.23c-1.44-.32-2.3-.83-3.27-1.09,1.23.03,2.52-.06,3.27,1.09Z"/>
  <path class="st88" d="M827.1,599.09v-3.82c.9.69.9,3.13,0,3.82Z"/>
  <path class="st88" d="M827.1,603.45v-3.82c.9.69.9,3.13,0,3.82Z"/>
  <path class="st88" d="M887.08,756.08c.13-1.19-.49-3.04.55-3.82-.12,1.77-.04,2.1-.55,3.82Z"/>
  <path class="st30" d="M1057.19,278.01l-1.09-3.27c.73,1.51.92,1.09,1.09,3.27Z"/>
  <path class="st91" d="M917.07,759.36c.1-1.59.41-2.66.55-3.82-.13,1.19.49,3.04-.55,3.82Z"/>
  <path class="st88" d="M827.1,593.09v-3.27c.88.52.89,2.72,0,3.27Z"/>
  <path class="st88" d="M827.1,586.55c.01-1.03-.37-2.68.55-3.27.04,1,.33,2.71-.55,3.27Z"/>
  <path class="st41" d="M878.36,276.92c-.06-1.36.94-1.55,1.64-2.18.09,1.37-1.01,1.56-1.64,2.18Z"/>
  <path class="st88" d="M882.17,659.05c-.49-1.29.4-2.43.55-3.27.46,1.32-.35,2.36-.55,3.27Z"/>
  <path class="st88" d="M827.65,574.01c-.89-.55-.88-2.75,0-3.27.02,1.09-.01,2.18,0,3.27Z"/>
  <path class="st88" d="M827.1,559.84c-.96-.61-.47-2.24-.55-3.27.94.6.5,2.24.55,3.27Z"/>
  <path class="st41" d="M880.54,274.2c-.13-1.38,1.09-1.58,1.64-2.18.07,1.36-.95,1.55-1.64,2.18Z"/>
  <path class="st88" d="M826.01,551.12c-.92-.6-.52-2.24-.55-3.27.94.6.5,2.24.55,3.27Z"/>
  <path class="st88" d="M825.47,547.3c-.96-.61-.47-2.24-.55-3.27.27,1.27.42,1.72.55,3.27Z"/>
  <path class="st38" d="M1050.1,263.84c1.43.88,2.59,2.98.55,3.82-1.5-1.47.38-.96.51-1.11.68-.81-.19-1.38-1.05-.52-.1-.68.13-1.56,0-2.18h-.01Z"/>
  <path class="st88" d="M824.38,541.85c-.18-.89-.36-1.84-.55-2.73.88.47.51,1.85.55,2.73Z"/>
  <path class="st53" d="M1056.1,664.5c-.77-1.07-.65-1.19-1.09-2.18,1,.28,1.18,1.23,1.09,2.18Z"/>
  <path class="st88" d="M757.32,534.76c0-.16-.57-1.4-.55-2.73.88.47.51,1.85.55,2.73Z"/>
  <path class="st88" d="M827.1,607.27v-2.73c.86.36.86,2.37,0,2.73Z"/>
  <path class="st88" d="M888.17,740.82c.08-1.3.48-2.18.55-2.73-.03.87.34,2.26-.55,2.73Z"/>
  <path class="st88" d="M817.84,532.04l-5.45-1.09c2.3.24,3.23.37,5.45,1.09Z"/>
  <path class="st88" d="M826.56,554.39c-.02-.3-.45-1.61-.55-2.73.88.47.51,1.85.55,2.73Z"/>
  <path class="st88" d="M845.64,639.43c-1.15,1-1.6.72-2.73,0h2.73Z"/>
  <path class="st98" d="M798.21,407.21c.18-.02.38.04.55,0,.16-.48.34-.47.55,0v.55c-.3.22-.86.33-1.09.55-.15-.53-.63-.51-1.09-.55.17-.54.63-.49,1.09-.55h0Z"/>
  <path class="st88" d="M809.11,530.95c-1.06-.08-2.58-.54-2.73-.55.87.03,2.26-.34,2.73.55Z"/>
  <path class="st88" d="M863.09,799.15l-2.73.55c1.29-.41,1.67-.33,2.73-.55Z"/>
  <path class="st45" d="M916.52,247.49c.19.27,1.16.43,1.09,1.08l-2.18-.54c.43-.09.95.02,1.09-.55h0Z"/>
  <path class="st88" d="M838.01,818.23c-.03-1.55.29-1.66.55-2.73-.03.87.34,2.26-.55,2.73Z"/>
  <path class="st88" d="M855.46,831.86c-1.14-.17-1.75-.35-2.73-.55.87.03,2.26-.34,2.73.55Z"/>
  <path class="st88" d="M859.82,832.4c-1.25-.08-2.25-.49-2.73-.55.87.03,2.26-.34,2.73.55Z"/>
  <path class="st30" d="M883.81,161.36c-.47.88-1.85.51-2.73.55,1.42-.58,1.76-.31,2.73-.55Z"/>
  <path class="st64" d="M1023.38,209.87c-.05.61-.93,3.51-1.26,4.61-4.44,15.25-16.61,29.32-31.19,36.83-3.84,1.98-8.67,1.75-13.24,1.25-2.05-1.49-3.83-3.55-5.93-4.99-4.61-3.15-7.76-4.04-11.01-8.06-1.32-1.63-2.63-4.19-4.14-5.69-3.28-3.25-6.14-3.46-8.57-8.33-2.59-5.22-.76-9.98,1.46-15.08,5.27-12.12,15.12-24.29,22.64-35.15l17.22-27.04c2.79-.59,5.45,6.59,6.81,9.04,2.3,4.16,5.23,9.22,8.16,13.62,5.28,7.9,18.8,24.71,19.05,34.07-.45,1.6-.41,3.31,0,4.91h0Z"/>
  <path class="st24" d="M993.4,255.66c.64-.91,3.72-.91,4.36,0,2.01.15,3.02.15,4.91,1.09,1.56.77,3.16,2.54,4.36,3.82,4.84,11.09-9.88,21.99-19.63,15.26-1.08-.08-2.52-1.11-2.73-2.18-.54-.52-.72-1.06-.55-1.64-.72-1.61-1.72-2.69-1.67-4.61.03-1.05,1.95-6.97,2.52-7.89,1.59-2.56,5.67-3.62,8.41-3.85h.02Z"/>
  <path class="st106" d="M909.43,266.02c1.16.41,2.25.41,3.27,0,3.14.18,6.77,1.93,9.51,2.13,1.75.13,5.21-1.11,7.39-.49l-1.08,1.08c.83.12,1.74-.53,2.49-.48,4.04.31,7.11,1.51,10.89,1.53,1.21,0,1.81,1.03,2.67,1.08,2.06.12,3.47-.39,6.3.05,1.34.41,2.61.41,3.82,0,3.1.17,4.52-.27,6.85-.07.19.02.11-.8,1.03-1.08,2.01-.61,5.39-.4,7.12-.76,2.47-.51,6.27-2.21,8.45-2.46l3.27.55c.34.6.55,2.18.99,3.12.36.79.94,1.3,1.19,1.79.4.48.77,1.02,1.09,1.64.93.66,1.87,1.43,2.73,2.18,2.33,1.21,2.7,1.76,1.09,1.64-1.24-.59-4.36-3.17-4.64-3.16-1.12.04-4.17,4.5-5.43,5.36-1,.68-2.54.3-3.02,1.62-.48-.09-1.11.06-1.64,0l-.1-1.32c2.82-2.13,5.46-4.46,7.91-6.98l-1.71-4.36c-13.5,3.5-28.15,6.11-42.43,3.3-11.11-1.94-22.25-3.67-33.41-5.17l-2.23-1.28h.55c1.3.59,3.82-.56,4.36-.55.72.01,2.09.91,2.73,1.09h-.01Z"/>
  <path class="st28" d="M919.25,248.58c1.83,1.12,5.02,1.8,7.09,2.46.31,1.33-1.79.9-2.42.78-1.76-.34-3.56-1.83-4.67-2.14v-1.09h0Z"/>
  <path class="st80" d="M993.4,255.66l-.55-1.08h5.18l-.27,1.08c-1.29-.1-3.08-.11-4.36,0Z"/>
  <path class="st80" d="M1023.38,209.87c-.92-1.02-.92-3.89,0-4.91.04,1.56.12,3.38,0,4.91Z"/>
  <path class="st105" d="M954.69,270.93c-1.09,1.49-2.96.13-3.82,0,1.27.05,2.55-.07,3.82,0Z"/>
  <path class="st37" d="M981.4,267.11c-1.03-.08-2.66.42-3.27-.55.94-.11,2.79-.29,3.27.55Z"/>
  <path class="st72" d="M912.7,266.02c-1.01,1.4-2.43.24-3.27,0,1.09.04,2.19-.06,3.27,0Z"/>
  <path class="st2" d="M984.67,273.65c-1.8-1.28-.42-.32-1.09-1.64h.55c.24.53.5,1.03.55,1.64h0Z"/>
  <path class="st91" d="M915.98,765.9c.03.9-.06,1.83,0,2.73-.91-2.02-.92-6.05,0-8.18.45,1.75.32,3.68,0,5.45Z"/>
  <path class="st34" d="M916.52,759.9c.15,1.93-.22,4.12,0,6h-.55c-.07-1.79-.05-3.66,0-5.45.02-.54-.03-1.09,0-1.64.53.15.51.63.55,1.09Z"/>
  <path class="st66" d="M917.61,775.71c.08,0,.28-.49.53-.55-.65,1.79,1.48,4.93-.53,4.37-.14-1.21.1-2.58,0-3.82Z"/>
  <path class="st11" d="M891.44,724.47c.02-1.37-.43-3.45.55-4.36-.01,1.37.43,3.45-.55,4.36Z"/>
  <path class="st20" d="M856,830.22c-.97,1.48-2.64.11-3.27,0,1.05.12,2.22-.11,3.27,0Z"/>
  <path class="st42" d="M897.98,697.76c-.52.88-2.72.89-3.27,0,1.09-.04,2.18,0,3.27,0Z"/>
  <path class="st93" d="M852.73,830.22c-1.01-.18-1.73-.32-2.73-.55h.55c.88-.48,1.95.52,2.18.55Z"/>
  <path class="st40" d="M954.69,451.91c-10.48-.35-26.29-3.53-36.1-7.24-7.1-2.68-19.74-15.48-23.78-22.01-2.77-4.47-3.3-7.03-1.88-12.06,2.39-8.45,6.73-17.1,9.27-25.62,4.45-14.97,5.72-28.82,8.48-43.86,1.08-5.88,4.17-13.08,4.71-18.74.08-.85.32-3.25-.77-3.48-1.91-.4-2.18,4.97-2.62,6.09-8.45,21.67-19.67,42.93-34.17,61.23-2.44,3.07-10.61,10.56-11.58,13.5-2.08,6.35,2.56,8.9,1.73,14.27-.37,2.42-1.83,4.92-1.06,7.93-5.38-.79-12.11-1.29-15.5-6.03-3.84-5.36-5.4-10.63-11.57-14.6-2.75-1.77-8.26-3.12-10.23-5.04-1.29-1.26-5.17-10.42-4.42-11.95.63-1.28,7.12-3.27,9.28-4.92,9.31-7.16,13.52-20.18,18.91-30.15,9.36-17.31,20.73-34.29,26.35-53.24.42-1.42.84-2.86.82-4.36,1.51.01,2.48,1.34,3.81,1.91,12.65,5.41,26.49.39,39.54-.81,14.96-1.38,34.61,1.5,47.33-7.19,2.47-1.68,2.64-4.09,6.39-2.93.87.27,1.7,1.25,2.71,1.65,4.46,1.77,8.76,3.1,13.51,3.94,16.87,2.96,34.61,2.02,51.55.14,1.57,3.42,4.21,7.14,5.13,10.79,2.86,11.3,3.33,26.04,5.2,37.86,3.23,20.39,5.59,39.42,13.57,58.39.69,1.64,3.23,8.04,3.08,9.22-.59,4.52-3.06,6.06-5.05,9.18-2.61,4.09-4.88,8.36-8.3,11.9-9.38-2.48-18.52-2.05-27.44,1.7-1.59-7.68-4.47-15.04-5.84-22.78-4.87-27.43.1-54.08-1.86-81.55l-1.29-4.69c-1.17.73-.62,1.27-.59,2.16,1.16,28.61-2.97,59.01,2.66,86.79,1.25,6.18,6.55,20.09,5.79,25.22-.31,2.09-4.26,11.75-5.58,13.22-2.33,2.61-13.32,4.77-17.15,5.47-4.77.87-12.04,2.07-16.77,2.32-7.47.39-15.56-1.26-23.17-.54.37-4.24,1.81-8.25,2.56-12.44,8.36-47.01,12.25-94.83,9.37-142.59-1.37-1.54-2.73-14.51-3.48-14.5s-.86,1.73-.83,2.42c.23,5.4,2.84,10.08,3.28,15.29.92,11.03.25,22.24-.01,33.22-.87,36.78-2.77,73.43-10.39,109.54-.28,1.32-2.44,8.95-3.04,9.08-2.63-.54-5.15-.52-7.81-.58-.94-.18-1.85-.37-2.73-.55l-.02.02Z"/>
  <path class="st30" d="M912.7,328.71c-.19.71.14,1.9,0,2.72l-1.08-1.63c-.72,6.11-3.58,11.8-2.19,17.98l-1.08-2.72c-.24,6.07-1.13,12.15-2.35,18.1-3.41,16.65-9.55,30.1-14.17,45.79-.83,2.82-2,5.67-1.22,8.62,1.78,6.76,16.82,23.17,23.19,26.15.56.81,0,1.24-1.66,1.3-2.13,7.03-4.39,13.85-6.78,20.44.2-.35,1.54.83,1.74,1.08.31.39-1.72,8.34-2.09,9.59-5.64,15.13-9.93,31.22-13.93,47.2-3.8,15.15-7,30.29-8.12,45.82l-.79,2.13c.89,1.82,1.52,4.14-.55,5.45l-.16,2.83c1.42.55.98,2.59-.39,3.17-.1,4.18-.33,8.34-.76,12.54-.02.18-.26.33-.58.48-.44,9.3-1.58,18.51-3.43,27.63l1,.79c4.48-4.36,8.94-8.73,13.37-13.11l.75.02c.15-.48.34-.47.55,0,1.09.7,1.16,3.91.3,5.04-.46,3.74-1.1,7.33-1.93,10.77.43.3.33,1.18,0,1.64.22,2.53-.49,5.42-1.64,7.63-1.2,5.19-2.98,9.76-4.97,14.66l-3.21.06c-.62-.55,3.07-4.47,2.5-6.56-.32-1.18-3.8-4.42-4.79-6.14-1.32-2.29-3.18-6.93-4.11-9.52-.99-2.75-3.46-14.69-5.97-15.32-1.48-.37-7.44,3.5-7.75,4.64-.45,1.65,2.26,2.23,3.15,3.8.27.47,1.71,5.1,1.71,5.38v8.99c-6.61-.5-6.88-10.15-9.9-14.36-1.21-1.68-1.96-1.93-3.71-.62-2.37,1.77-3.54,10.87-5.47,14.43-.54,1-.92,2.02-1.91,2.71-2.89-1.95.25-12.53-2.8-13.02-5.8,3.71-11.94,11.47-12.76-.84-1.96-29.29,4.01-59.28-3.4-88.18-.89-3.48-2.83-4.74-6.27-5.72-7.2-2.06-22.24-2.92-29.02-.15-2.89,1.18-5.67,3.37-8.33,4.48-.52.22-1.69.86-2.02.16l12.55-26.44c.2-.13,1.19.85,1.63,1.09.72-.39,1.27-.23,1.89.17,3.28,2.11,6.52,4.28,9.44,6.87.28.07.56.14.84.21.68.15,7.73-9.36,7.88-10.26.01-.07-.19-1.19-.24-1.28-4.09-2.06-7.93-4.48-11.53-7.26.05-.31.12-.59.28-.81.49-.66,13.62-4.78,15.58-5.15-.02-.47.26-.93.49-.78.51.34-1.37-9.28-2.5-10.93-1.99-1.82-3.98-4.06-1.19-6.13,14.75-13.31,27.78-29.99,35.2-48.49l.57-.1c.88-1.8,1.36-1.42,2.12-2.51.58-.83.41-2.25,1.42-2.92,3.86,1.57,8.64,3.26,12.81,2.17l-1.08,1.08c4.4-.09,1.97-3.45,2.18-5.67.28-3.04,2.22-3.73,1.09-7.95-.48-1.79-1.28-3.83-2.18-5.45-.4-.9-.46-2.34,0-3.27.52.04.8-1.57,1.33-2.22,18.86-22.94,33.9-41.88,43.38-70.83.76-1.33,1.39-.9,1.09.55l-.02-.02Z"/>
  <path class="st30" d="M876.17,303.09c-5.41,13.13-13.1,24.96-19.72,37.25-5.81,10.79-14.94,34.24-25.7,39.71-1.9.96-6.69,1.74-7.37,4.11s3.94,12.09,6.18,13.78c1.04.78,1.69.69,2.45,1.09.6.91.17,2.02-1.29,3.35-3.79,8.97-7.96,17.78-12.51,26.43-4.53,12.66-8.92,25.37-13.14,38.13-3.46.97-6.97,1.84-10.51,2.62l-7.93,8.84c1.35,4.05,3.02,7.99,5.01,11.82l-.66.37c-4.67-2.39-9.25-5.06-13.74-8.01l-.95.06c-2.66,3.45-5.15,6.91-7.45,10.38l.36.73c3.36,1.31,6.93,3.35,9.92,5.41.11.08.09.37.02.71-.33,2.78-7.15,11.74-9.53,14.18-2.82,2.89-1.72,1.19-3.18.18-.4-.27-3-1.87-3.23-1.96-2.43-.97-5.01.79-4.74-2.79.08-1.07,3.54-10.7.79-10.7h-11.18c1.48-5.34,5.3-9.53,8.08-14,13.5-21.7,26.9-40.84,38.36-64.13,2.68-5.44,3.94-11.42,8.61-15.91-1.57-2.1-3.58,1.68-5.44.55,5.48-7.45,10.66-15,16.62-22.09,15.77-18.74,29.01-39,43.91-58.58,3.21-4.22,5.76-5.95,8.16-11.19.17-.38.38-.73.55-1.09,2.47-3.63,5.3-6.51,8.18-9.81.45.07.93-.01,1.09.55h-.02Z"/>
  <path class="st30" d="M1051.74,512.96c.75,1.47-.47,2.23-1.64,1.09-.87,1.03-1.16,2.58-.85,4.66l1.17,9.69c-.46.64-.57,1.49-.32,2.55.27.14.25.32,0,.55,1.1.49.45,2.26,0,3.27.24,2.18,1.77,9.37,2.81,11.09,1.55,2.56,7.21,4.28,7.48,5.06-1.02,5.89,2.48,11.63,1.58,17.24-.39,2.41-2.6,4.88-.96,7.49.53,2.03,4.05,5.7,5.02,8.34.89,2.41,2,7.42,2.47,10.07,1.55,8.59,2.13,17.6,2.32,26.3-1.29-1.5-3.6-3.93-4.61-5.47-.95-1.45-1.42-5.94-3.57-3.51,2.67,4.81,3.45,8.69,3.3,14.18-.38,13.37-4.95,27.12-4.41,39.79.07,1.55.76,3.03.56,4.61-3.08-1.13-6.88-10.89-8.16-11.74-2.08-1.38-1.16,2.75-2.19,3.01-.11-1.52-1.14-3.27-2.19-4.36-1.19-1.02-2.28-.66-3.27,1.09h-.55c-.31-.06-.56-.14-.61-.28-3.42-10.7-5.39-22.22-5.93-33.52-1.15-.96-1.17-3.8-1.09-5.45-.61-5.17-1.41-10.38-2.4-15.62.49-.84.56-1.99.22-3.46-.21-.2-.21-.57,0-1.09-.66-.28-.51-1.4.02-1.78,1.7-1.22,5.37,5.14,5.86,6.74,1.18,3.53,2.67,6.67,4.46,9.42,1.28-1.98,1.64-4.1,1.07-6.37l.59-.39c.51-2.01.5-4.63,0-6.54-.27-1.41-.45-2.87-.55-4.36l-.69-.55c-2.32-15.36-4.09-30.99-5.3-46.88-.43-.5-.31-1.08,0-1.64-.92-.26-1.07-1.39-.31-1.87l-.23-3.58c-.86-.23-.73-1.67,0-2.18-.71-1.51-1.07-3.14-1.09-4.91-.48-.45-.27-1.08,0-1.64-.66-.73-.84-1.82-.55-3.27-.38-.4-.38-.95,0-1.64-1.02-3.24-1.67-6.65-1.96-10.22-.92-1.5-.99-3.36-.22-5.59-.38.09-.56-.27-.55-1.09-.38-.23-.38-.78,0-1.64-.41-.14-.59-.69-.55-1.64-.7-.35-.61-1.2,0-1.64-.64-.06-.82-.61-.55-1.64-.68-.95-1.34-3.49-.55-4.36-.5-.19-.68-.74-.55-1.64-.88-.51-1.42-3.1-.55-3.82-.52.02-.7-.53-.55-1.64-1.35-1.55-2.59-5.9-2.18-8.18-.4.02-.72,0-.82-.17-1.38-2.36-6.48-11.86-4.08-13.81,5.58-.1,7.54-1.93,5.88-5.48-2.48-5.94-4.51-11.91-6.11-17.92l1.31-2.42c.61-.8,1.35-2.26,1.64-3.27l1.01,1.04c5.34,20.83,11.9,41.39,19.67,61.7,1.2,3.04,1.95,6.11,2.22,9.21l.03.08Z"/>
  <path class="st56" d="M1057.73,428.47c1.55,3.14,7.31,14.59,7.46,17.25.07,1.2-.76,2.55-.87,3.8-.81,9.35-1.92,18.63-2.24,28.02l-.55,3.82c-.2,4.14-1.28,9.88-.93,13.74.68,7.45,5.04,13.96,6.38,21.14.44,1.71.44,3.35,0,4.91-.47,9.04-3.23,18.73-4.4,27.76-1.52,1.29-7.64-2.6-8.62-4.1-1.64-2.51-1.23-8.77-2.79-11.66-.46-1-.56-2.36-.29-4.09-1.16-4.37-2.59-10.82-.8-14.99.16,0,1.39-.86,1.64-1.09-.24-1.06-.14-1.26.32-.62l-3.16-10.49c-7.73-19.9-14.08-39.87-19.07-59.9l.65-.94c-.25-3.16.96-4.73,1.06-6.85.08-1.7-1.06-4.22-.51-6.23l.81,4.36c.72,0-.09-3.29.33-3.77s10.96-3.12,12.27-3.26c1.96-.22,12.08.98,13.05,2.11.29.34.14.87.25,1.1v-.02Z"/>
  <path class="st56" d="M834.19,400.12c9.87,5.41,10.5,7.52,16.23,16.75.54.87,1.85,1.87,2.06,2.32.13.27-2.11,4.66-2.48,5.46-6.71,20.28-21.78,37.09-36.65,51.41l.47,1.87c2.44,1.01,5.76,12.82,4.42,14.16-5.88,1.46-11.39,3.41-16.51,5.86-1.75-2.15-3.35-3.04-4.8-2.68-3.38-.83-10.73-14.57-10.29-16.98.11-.58,7.23-8.28,7.94-8.74,3.79-.68,7.37-1.67,10.74-2.99,3.98-12.39,8.22-24.82,12.72-37.28,4.66-8.16,8.23-16.84,11.73-25.36,1.16-2.73,2.64-4,4.43-3.81h0Z"/>
  <path class="st30" d="M901.8,265.47c15.79,1.11,34.32,6.47,50.41,6.55,7.25.04,14.45-1.58,21.58-2.99,2.17-.43,4.46-1.97,6.71-1.41.29.07,2.41,5.21,2.28,5.49-.72,1.59-7.27,6.77-9.01,8.17-3.31,2.66-5.8,5.11-9.98,6.65s-8.64,1.63-12.92,2.62c-1.57.56-3.3.32-4.91,0-4.32,0-8.83.31-13.09.55-6.46.35-12.06.45-18.54,1.64l-15.81,2.18c-.24.31-.78.31-1.64,0-5.6-.79-11.15-1.34-15.81-4.91-7.82-5.98-2.91-12.14,2.2-17.7s10.67-7.38,18.52-6.83h0Z"/>
  <path class="st35" d="M937.24,450.82c3.01,1.29,1.75.45,3.82.55,4.61.98,9.39,1.55,14.33,1.69-1.64,6.58-2.36,13.23-2.18,19.93-7.01-.08-13.94-.39-20.88-1.45-5.6-.99-11.22-2.05-16.85-3.18l-.59-.63c-2.73-.13-8.1-.52-9.56-2.47,2.57-6.67,4.8-13.48,6.97-20.3l1.27-.3c7.88,2.1,15.77,4.16,23.67,6.18v-.02Z"/>
  <path class="st8" d="M1027.2,444.27c-.89,2.41.53,6.29,1.25,8.84.94,3.3,4.67,11.31,4.79,13.8.24,4.98-7.01,1.54-7.09,5.48-.04,2.04,3.88,8.83,4.87,11.68.18,1.38-.18,1.75-1.09,1.09l-1.21-.13c-2.06-3.13-4.98-8.88-4.79-12.57-11.07,1.7-22.83,3.05-34.17,2.53l-1.27-.73c-.92-.63-.46-.92.55-1.09.95-1.67,5.34-1.22,6,.55.8-.43,1.52-.79,2.18-1.09l1.74-1.2c6.78-.43,13.58-.92,20.32-1.81l1.93.83c1.82.33,3.09-.03,3.82-1.09l.59-1.16c.9,0,5.18-.31,5.32-.94l-6.41-17.98c-12.81,4.77-27.24,7.15-40.91,6.64.21,1.39-.16,2.24-1.11,2.54-.91.85-1.27.13-1.09-2.18-8.01-.91-16.17-1.37-24.48-1.38-.78.33-2.67,15.89-1.95,16.33,3.8-.77,7.2-.46,10.96.31h9.14c2.46-.05,3.84.68,4.15,2.19-.29.62-.94.86-1.97.73l-11.2.11c.4,1.99-.67,3.69-1.49-.02-.93-.16-1.89-.07-2.79.27-.52,1.53-1.85,1.07-1.64-.55l.55-.55c.5-.61-.17-.7-.84-.77.93-.04,1.21.22.84.77h-16.36c-.41,1.64-2.72,1.09-2.73-.55-3.21-.29-6.3-.83-9.27-1.64l20.18,1.09c-.51-6.5,1-12.75,2.18-19.08-3.72-.53-7.49-.45-11.19-1.08-.95-.16-2.06.25-2.44-1.1,4.53.21,8.99.87,13.63,1.09.29-.45.68-.33,1.09,0,2.26.51,5.66,1,7.94,1.11,10.31.49,23.06,1.05,33.22-.02,5.52-.58,24.7-3.58,28.24-7.05.37-.36,1.93-2.08,2.03-2.21h-.02Z"/>
  <path class="st76" d="M834.19,400.12c-4.7,2.52-5.25,8.83-7.25,13.2-2.47,5.4-6.01,10.95-8.28,16.25-3.91,9.14-7.14,20.62-10.65,30.23-.72,1.96-1.23,5.36-1.92,6.8-1.41,2.93-8.05,1.86-11.11,3.61-.66.38-7.46,7.7-7.59,8.25-.36,1.5,5.21,11.43,6.46,12.97.83,1.03,7.05,5.48,7.91,5.53,1.34.08,9.14-3.77,11.18-4.44,1.48-.49,3.34-.69,4.91-.82.4-.41-1.54-8.85-2.16-10.11-1.01-2.09-3.49-3.15-3.24-5.88l12.22-11.8c10.86-12.18,18.6-24.44,25.35-39.26l.55,1.09c-.68,1.37-.91,3.38-1.53,4.74-7.33,16.01-18.92,29.46-30.91,42.14-1.83,1.93-5.35,2.43-3.16,5.84.53.82,1.34.96,1.73,1.57.88,1.38,3.22,11.37,2.57,12.25l-16.13,5.43c-.94,1.27,11.57,6.67,11.96,7.98.27.92-8.17,12.55-9.04,12.69-3.93-3.41-7.61-6.17-12.19-8.68l.55-1.09c.29-1.25,1.08-.92,2.02-.5l9.32,6.67c2.26-2.59,4.35-5.37,5.97-8.43l-9.75-5.82-.47-1.74c-1.3-.21-2.37-.92-3.2-2.14l-1.16.51-1.98-.38c-5.81-4.56-11.91-8.71-18.3-12.45-1.78,2.66-3.49,5.37-5.13,8.15l-1.3-.22c-.28.51-.1.88.55,1.09l1.07-.7c1.01.15,8.23,4.63,7.65,6.15.05.41-.53.93-.55,1.09l-10.88-6.02.07-1.24,7.85-11.31,14.96,8.75c-.93-2.93-6.1-9.2-5.24-12l8.31-9.18,10.45-2.37,12.93-38.03c5.07-7.45,7.4-16.37,11.23-24.2.91-1.85,2.35-3.41,3.21-5.24.76.39,1.3.61,2.18,1.09l-.04-.02Z"/>
  <path class="st101" d="M937.24,450.82l-24.49-5.41-6.62,19.82c2.86.91,5.83,1.81,8.75,2.49-.02.57-.74.76-2.18.55l-1.02.92c-2.77-1.12-3.98-.2-3.61,2.78-7.73,22.56-14.1,46.35-19.63,70.05-.2.85-.47,1.58-1.07,1.94.21,4.85-.37,9.67-1.73,14.45l-1.29.89q-.23-.41,0,0c.41.15,1.04.38,1.04.71,0,1.41-.54,12.23-1.02,12.65-1.67,1.49-2.03.3-2.2-1.37,2.4-27.82,8.91-52.38,16.63-79.04,2.36-8.14,6.01-14.65,6.56-22.98.05-.73.89-1.75.84-2.33-.04-.46-1.33-.4-1.61-1.2-.62-1.74,1.8-4.71,2.54-6.61,1.83-4.7,3.15-9.66,4.43-14.54l2.25-.87c7.17,3.35,15.73,3.79,23.44,7.09h-.01Z"/>
  <path class="st62" d="M1029.93,440.46c.05.35-.04.73,0,1.09l.54-.54c.38,4.76,3.2,13.07,4.61,18.02,5.13,18.03,12.86,35.33,17.51,53.4-.17.32-.67.36-.85.53-4.43-15.77-11.11-30.84-15.97-46.45-2.52-8.1-4.92-17.44-6.93-25.5-.04-.16.02-.36,0-.55,0-1.14.87-1.12,1.09,0h0Z"/>
  <rect class="st3" x="1022.29" y="365.23" width=".55" height="20.71"/>
  <path class="st89" d="M911.61,328.16c.21-.63,2.02-8.44,3.27-7.08.49.53-1.91,6.61-2.18,7.63l-1.09-.55h0Z"/>
  <rect class="st72" x="979.77" y="317.81" width=".55" height="13.63"/>
  <path class="st18" d="M1022.29,288.91c2.9.02,5.82-.02,8.72,0,.13.95-1.24.51-1.9.54-2.94.12-6.81.37-9.55-.55h2.73Z"/>
  <rect class="st63" x="1022.84" y="349.42" width=".55" height="8.72"/>
  <path class="st89" d="M1014.66,288.91h2.18l-2.99.55-5.18-.55c1.99-.02,4,.01,5.99,0Z"/>
  <path class="st74" d="M950.87,290.55c.69.02,2.75-.45,2.72.54-2.39-.29-5.48.69-7.63-.54,1.63,0,3.28-.05,4.91,0h0Z"/>
  <path class="st3" d="M1023.92,345.06c-.95.13-.51-1.24-.54-1.9-.07-1.72.04-3.46,0-5.18.95-.13.51,1.24.54,1.9.07,1.72-.04,3.46,0,5.18Z"/>
  <path class="st94" d="M978.67,372.86c-.95.13-.51-1.24-.54-1.9-.06-1.36.03-2.74,0-4.09.95-.13.51,1.24.54,1.9.06,1.36-.03,2.74,0,4.09Z"/>
  <path class="st66" d="M932.88,291.1c1.36.04,2.73-.06,4.09,0,.66.03,2.03-.41,1.9.54l-5.99-.54h0Z"/>
  <path class="st55" d="M866.91,401.21c-.06,1.08.08,2.19,0,3.27-.03.36.03.73,0,1.09l-.54-.27v-4.64c.28.06.47.55.55.55h-.01Z"/>
  <path class="st80" d="M979.76,337.97c-1.26-.76-.21-3.64-.53-4.9,1.25.71.22,3.64.53,4.9Z"/>
  <path class="st78" d="M898.53,294.91h3.27c.02.92-2.5.64-3.06.58-.98-.1-1.58-.55-1.84-.58h1.64-.01Z"/>
  <path class="st18" d="M979.22,356.51c-1.26-.76-.21-3.64-.53-4.9,1.25.71.22,3.64.53,4.9Z"/>
  <path class="st105" d="M914.34,292.73c1.08.32,3.88-.7,4.36.54-1.25-.23-3.5.61-4.36-.54Z"/>
  <path class="st80" d="M977.58,387.03c-1.24-.48-.23-3.28-.53-4.36,1.24.48.23,3.28.53,4.36Z"/>
  <path class="st66" d="M1023.92,397.39c-1.24-.48-.23-3.28-.53-4.36,1.24.48.23,3.28.53,4.36Z"/>
  <rect class="st105" x="979.23" y="308" width=".53" height="3.81"/>
  <path class="st89" d="M1006.48,288.37c.71.56-3.12.69-3.81.54v-.53h3.81Z"/>
  <rect class="st3" x="890.9" y="413.75" width=".53" height="3.27"/>
  <path class="st23" d="M1028.84,440.46c-.06-.47-.2-1.55.28-1.64h.81c.06.54-.07,1.12,0,1.64h-1.09Z"/>
  <rect class="st39" x="977.59" y="376.14" width=".53" height="3.27"/>
  <path class="st55" d="M1037.56,287.82c.91.03,1.82-.02,2.72,0v.53c-1-.09-2.62.45-3.27-.54h.55Z"/>
  <path class="st73" d="M957.41,452.45c-.54-.01-1.09.02-1.64,0-.36-.01-.73.02-1.09,0v-.55c.88.03,2.26-.34,2.73.55h0Z"/>
  <rect class="st3" x="1022.84" y="388.67" width=".53" height="2.72"/>
  <path class="st105" d="M869.09,409.93v2.72h-.54c.11-.95-.44-2.56.54-2.72Z"/>
  <path class="st16" d="M1007.03,260.57c1.3,1.38,1.3,1.63,1.1,3.81,1.23-.11.19-2.81.54-3.27.06-.08.77.03,1.09,0-.49,1.57-.78,3.3-1.09,4.91-.71,2.69-1.5,5.4-3.27,7.63-4.35,4.25-11.2,6.53-16.9,3.82l.55-.53c-.99.1-1.18-.7-1.64-1.1,10.11,4.55,23.22-3.43,19.63-15.26h0Z"/>
  <path class="st31" d="M1008.66,266.02c-.76,3.92-.17,4.6-3.27,7.63l3.27-7.63Z"/>
  <path class="st57" d="M777.49,536.4c-.2.44-.87.99-1.2,1.78-.57,1.34-1.48,6.21-2.2,6.82-.46.39-5.94,1.79-7.26,2.3-.74.29-1.3.85-1.88,1.1-1.55.65-3.2,1.45-4.91,1.64-.56-2.66-.18-7.28-.53-10.12-.11-.84-.47-1.38-.56-1.87.59-2.38-.99-5.54-.32-7.66.32-1,7.19-9.74,8.49-11.42,4.62-5.98,9.84-11.52,13.89-17.96l9.85,6.49c-4.12,9.78-9.05,19.23-13.39,28.91h.02Z"/>
  <path class="st35" d="M797.12,497.15c1.31-.09,2.76.45,4.36,1.64,3.65,2.97,8.03,4.85,11.98,7.35-1.35,1.56-2.39,3.55-3.56,5.15-.68.93-3.72,5.05-4.28,4.92-2.92-2.64-6.17-4.79-9.42-6.98-.62-.42-1.52-.44-1.8-.62-4.9-3.29-9.54-6.71-14.72-9.81-2.48-1.48-6.3-4.4-8.72-5.45-.83.21-1.34-.55-.55-1.09,1.83-1.45,4.82-9.49,6.71-9.19,6.73,4.93,14.09,8.18,20,14.1v-.02Z"/>
  <path class="st47" d="M798.75,407.21c-.45-1.3,1.84-2,2.72-1.37-.64.96-1.22,1.04-2.18,1.37-.15.05-.36-.04-.55,0h.01Z"/>
  <path class="st35" d="M1027.2,703.75c5.43-1.1,10.8-2.73,16.1-4.35,1.46-.26.7,2.76.8,3.81,1.6,15.91,7.04,37.86,11.45,53.42.73,1.67,1.28,3.49,1.64,5.45.17.4.36.71.55,1.09,2.32,4.62,6.53,10.24,9.36,14.9,4.98,8.18,7.79,14.5,15.15,21.38,1.34,1.25,1.34,1.02,2.75.79.5-.08.88-.5,1.09-.55.45-.2.81-.2,1.09,0,10.99-.19,19.24,2.06,23.16,13.1,3.09,8.7,3.48,16.75-6.5,20.18-6.9,2.37-26.4.66-33.02-2.47-4.32-2.05-9.87-15.1-12.63-19.53-6.25-10.05-15.83-11.06-25.16-16.27-7.11-3.97-9.74-14.66-8.55-22.25.21-1.36,1.78-3.68,2.21-5.15,4.28-14.71-7.57-45.79-12.2-60.91-.24-.79-.84-2.11.18-2.63.22.15,2.64.43,3.27.55,1.97-.6,5.43-.56,7.63,0,.21-.51.76-.69,1.64-.55h0Z"/>
  <path class="st95" d="M1086.09,799.69l2.44-1.12,1.1.57c-1.07-.38-1.75.33-2.45.55-.29.09-.76-.07-1.09,0Z"/>
  <path class="st10" d="M984.13,581.65c-3.11-8.89-4.11-18.66-4.85-28.08-.82.72-1.06-3.88-1-4.12.38-1.46,12.37-9.73,13.54-9.92,2.12-.33,5.32,1.38,6.52,3.18,12.51,18.08,24.96,35.68,37.32,52.8.35,1.23-.23,4.06-.57,5.5-.04.15-.2-2.63.82-2.47v1.09c.52,6.33,1.13,12.68,1.85,19.06l-.21,1.11c.55,1.74,1.09,3.37,1.64,4.91.73,12.85,3.08,25.88,7.66,37.71,1.52,1.21,2.42,2.63,2.7,4.26.84,1.36,5.93,9.98,5.99,10.65.13,1.32-2.69,7.33-3.27,9.52-.24.9-.52,1.78-.55,2.73-.26-.02-.43,0-.54.28-.29,3.51-1.86,5.56-4.98,7.02-6.72,3.14-15.38,3.55-22.29,6.33-.59,1.16-4.38,1.2-4.91,0-1.57-.23-4.96-1.27-6.66-1.79-2.51-.76-17.24-7.09-18.16-8.57-.78-1.25,1.83-6.72,2.21-8.69.23-1.22.41-2.54.47-3.77.14-2.83-.1-7.1-.76-9.88.05-1.99.3-4.14-.54-5.99l1.91,1.63c2.71-.38-1.83-2.7-1.92-3.11-.33-1.36.24-3.55,0-5.07-.79-.32-.79-.76,0-1.09-.37-3.62-.36-7.28,0-10.9-.49-.1-.47-.29,0-.55.37-9.45,1.44-17.95-.82-27.25-1.79-7.39-4.8-14.97-6.81-22.35-2.17-4.1-3.64-9.52-3.82-14.17h.03Z"/>
  <path class="st10" d="M891.99,608.36c1.55-2.16,3.13-4.49,4.71-7.01,8.36-5.59,15.39-12.95,21.08-22.09l23.03-31.76c.56-.39,8.03,1.98,8.43,2.99.32.82-4.13,14.77-4.81,16.87-.03.1-.31.12-.66.12.21.46.35.91.25,1.3-2,8.14-4.33,16.81-6.61,24.88-.11.4-.4.74-.73,1.07-.54,7.5-.97,15.02-1.3,22.54.77,1.76.84,3.34.21,4.72,1.49,5.34,3.14,11.41,3.27,16.9,2.32,3.45,3.3,8.29,3.27,12.54.58,2.47,1.46,4.49,1.64,7.09-.4.36-.39.72,0,1.09.18.02.36-.01.55,0,.59.23.78.96.55,2.18,1.43,4.63,4.45,12.13,3.02,16.92-.31,1.04-4.47,6.41-5.47,7.61-1.67,2-9.87,10.67-11.71,11.22-12.23-.65-24.55-1.3-36.84-.89-2.8.09-5.54,2.15-7.89-.79-1.36-1.7-2.05-4.78-3.16-6.65-.85-1.42-1.99-2.67-2.83-3.99-1-1.58-3.98-5.18-3.82-6.78.1-1.02,4.12-6.04,5.02-8.11s2.37-6.79,2.62-9.1c-.33-.87-.57-2.44,0-3.27.09-3.14.64-5.87,1.64-8.18,1.18-4.41,2.63-8.36,3.82-13.08.48-3.47,1.2-6.92,2.18-10.36-.55-.92-.63-2.17-.25-3.75,1.07-4.26,1.57-8.51,1.51-12.75-1.77.32-2.01-.18-.71-1.49h-.01Z"/>
  <path class="st30" d="M944.87,568.02c1.12-6.05,2.56-12.05,4.31-17.99,6.01.1,12.12.33,18.32.68,3.77-.22,7.29-1.15,10.76-2.09.71.27.78,1.5.23,3.68.35.44.64.89.69,1.37,1.13,9.38,2.5,18.75,3.86,27.97,1.86,4.52,3.54,9.87,3.82,14.72,2.63,9.75,7.71,22.64,7.97,32.34.11,4.28-.85,9.49-.91,13.7-.09,7.37-.17,14.79.56,22.1-1.87.54-2.56-3.13-2.75-3.25-1.5-1.02-2.37,1.95-3.26,2.43-3.74,1.99-11.35-2.25-14.11-4.95-1.5-1.47-3.93-6.56-5.78-6.57-3.21,0-3.86,8.68-6.66,9.51-1.03.31-6.58-.32-7.92-.57-1.41-.26-6.55-1.65-7.65-2.16-2.04-.95-2.23-7.73-3.66-9.69-1.15-3.33-2.21-6.81-3.16-10.45l.43-1c-.41-.19-.75-.39-.83-.67-1.41-4.78-2.83-10.97-2.44-15.68-.88-.53-.94-1.7,0-2.18-.15-1.79-.33-3.61-.55-5.45-.3-.33-.54-.67-.56-1.02-.31-4.96.58-11.12,1.65-15.88,1.14-9.81,3.89-19.79,7.63-28.89h0Z"/>
  <path class="st49" d="M984.13,581.65c1.05,4.69,2.55,9.52,3.82,14.17l-1.09.55c-1.34-4.98-2.68-9.61-3.82-14.72.19-1.46.61-1.36,1.09,0Z"/>
  <path class="st52" d="M942.69,649.24c-.02.78-.1,1.51-.55,2.18-.98-4.2-2.31-8.41-3.27-12.54-.05-1.35.32-1.72,1.09-1.09.93,4.07,2.83,6.67,2.73,11.45Z"/>
  <path class="st18" d="M995.58,645.42c0,.18-.01.36,0,.55-.35,3.62-.37,7.28,0,10.9-.02.36.04.73,0,1.09-.01.13-.66,3.21-1.09,2.45v-19.35l1.09,4.36h0Z"/>
  <rect class="st10" x="995.04" y="623.62" width=".53" height="3.81"/>
  <path class="st52" d="M943.78,658.51c.02.36-.02.73,0,1.09-.54-.05-1.1.04-1.63,0-.29-1.5.46-1.09,1.63-1.09Z"/>
  <path class="st52" d="M945.42,659.6l-.55,2.18c-.22-.71-.34-1.46-.55-2.18.36.03.74-.05,1.09,0h0Z"/>
  <path class="st46" d="M1050.1,514.05c.08,2.26-.13,4.55,0,6.81.21,3.7,1.56,8.69,1.08,12.27-.08.57-.62,1.27-1.09,1.64-.11-.99,0-2.23,0-3.27.32-.74.44-1.37,0-.55l-1.66-12.24c.21-.92-.22-4.93.03-5.2.39-.44,1.55.54,1.63.54h.01Z"/>
  <path class="st1" d="M1067,521.14c.08-1.62-.06-3.28,0-4.91.25,1.33,1.44,3.49,0,4.91Z"/>
  <path class="st1" d="M1061.55,481.34c.06-1.21-.44-3.06.55-3.82-.04,1.2.42,3.06-.55,3.82Z"/>
  <path class="st103" d="M1049.56,656.87v.55c-2.34-2.25-1.25.6-3.27.55,1.03-2.33,1.43-3,3.27-1.09h0Z"/>
  <path class="st43" d="M889.26,636.7l-.55-.55c.56-2.43,1.28-5.2,1.64-7.63.12,1.52.3.97.55-1.64-.38-.79-.19-1.06.55-.55-.59,4.89-1.07,5.94-2.18,10.36h-.01Z"/>
  <path class="st59" d="M885.44,649.79c-.62,2.32-.42,5.89-1.64,8.18-.34-.16-.34-.52,0-1.09.13-1.75-.1-4.18,0-5.45.03-.42.88-2.18,1.64-1.64h0Z"/>
  <path class="st30" d="M1038.65,257.29c-8.38,1.11-16.92.68-25.3,1.69-1.2.14-5.39,2-5.78.21-.17-.77,1.15-1.73,1.67-2.13,2.3-1.77,6.99-4.66,9.61-6.2,2.03-1.2,7.35-4.61,9.42-3.66,2.12,2.95,7.54,5.41,9.59,7.88.61.74.96,1.16.78,2.21h.01Z"/>
  <path class="st5" d="M1034.83,258.39c.13.95-1.24.51-1.9.54-1.72.07-3.47-.04-5.18,0-.13-.95,1.24-.51,1.9-.54,1.72-.07,3.47.04,5.18,0Z"/>
  <path class="st95" d="M1057.19,762.08c-.79-1.86-1.1-3.56-1.64-5.45l.61-.35,1.02,5.8h.01Z"/>
  <path class="st80" d="M1032.65,267.11c1.08.32,3.88-.7,4.36.54-1.25-.23-3.5.61-4.36-.54Z"/>
  <path class="st68" d="M1019.02,703.21c1.45.21,3.35-.07,4.91,0,.18,0,.36-.01.55,0,.97.23,1.33.6,1.09,1.09-3.06.57-4.6.55-7.63,0-.13-1.16-.07-1.22,1.09-1.09h0Z"/>
  <path class="st10" d="M1027.2,703.75c-.27.05-.8.39-1.64.55l-1.09-1.09c.94.06,1.83.28,2.73.55h0Z"/>
  <path class="st86" d="M883.81,657.96c-.09,1.07.11,2.22,0,3.27h-.55c.22-1.34-.58-3.43.55-4.36-.03.36.03.73,0,1.09h0Z"/>
  <path class="st103" d="M1045.74,657.96c-.01,1.17.38.24.54.91.21.86-.19,1.8.28,2.9.37.87,1.85,1.56,2.45,2.19.41.83,1.28,2.17.55,2.73-2.68-4.36-3.41-4.17-5.13-9.26-3.81-11.27-5.17-21.02-5.23-32.71-.48-.1-.46-.29,0-.55.92,2.96.59,6.37,1.14,9.49.72,4.06,1.56,8.29,2.28,12.44.65,3.72,3.15,8.73,3.12,11.87h0Z"/>
  <path class="st19" d="M982.34,200.22c.36.3,2.12,3.36,1.79,3.66-4.76-.62-9.03.97-13.63,1.64.3-4.44,8.77-7.82,11.84-5.29h0Z"/>
  <path class="st33" d="M1010.3,200.06c-2.15.42-4.24-.51-6.24-.56-2.32-.06-4.56.28-6.84.3,4.11-3.77,10.49-6.67,13.08.27h0Z"/>
  <path class="st27" d="M986.45,404.61c1.08-1.09,4.97-.38,5.61,1.48,1.95,5.67-5.6,8.53-6.75,5.12-.51-1.5,0-5.45,1.14-6.6Z"/>
  <path class="st19" d="M991.22,348.88l1.64.55c2.77,2.44,2.19,9.58-2.76,7.94-3.25-1.08-2.24-7.47-.54-8.81.91-.72,1.38.25,1.66.32Z"/>
  <path class="st19" d="M981.75,437.79c.58-.08,1.09.72,1.66.84s1.27-.42,1.81-.11c2.75,1.58-.2,7.41-3.54,7.44-4.4.05-2.12-7.88.08-8.17h-.01Z"/>
  <path class="st85" d="M986.66,312.42c6.36-2.24,6.94,11.53.98,11.92-6.85.44-2.69-11.32-.98-11.92Z"/>
  <path class="st54" d="M992.85,349.42l-.44.36-.11,2.36h-.53l-.55-3.27c.68.17.86-.14,1.64.55h-.01Z"/>
  <path class="st40" d="M912.7,468.26c9.62,1.51,19.25,3.14,28.9,4.91.15.01,1.49.45,2.73.55,5.26-.41,10.6.01,15.81.55.09,0,.89.43,1.64.55.41-.16,1-.37,1.42-.33,2.79.32,3.48,3.35,1.9,5.36l-.55,7.27-.58.23v.55c-.45,3.29-.58,6.57-.38,9.87-3.45,9.81-7.81,19.28-13.07,28.39-2.53,7.01-5.51,13.78-8.96,20.33-11.84,17.66-24.64,34.45-38.37,50.38-5.21,3.03-8.53,5.81-10.53,11.52h-.66c.38,1.7.18,2.19-.6,1.47-1.18,1.47-13.36,14.5-14.38,14.39-.26-.03-.51-.17-.76-.33,1.48-7.93,2.61-15.89,3.38-23.9-.19-2.35.1-4.38.87-6.08l.58-11.18c-.03-2.31.44-4.19.55-6q.27.61,0,0c.11-1.87.4-3.76.55-5.45l1.08,1.63,1.1-13.63c1.03-5.52,2.94-11.28,1.64-16.9l1.08,1.08c2.33-13.42,6.66-26.46,10.33-39.55,1.57-5.61,2.46-11.45,4.24-17.02,2.06-6.47,6.15-12.67,5.61-19.74,1.76.62,3.66.71,5.45,1.09h-.02Z"/>
  <path class="st70" d="M881.08,582.74c.05,4.36.85,8.6,0,13.09l-1.08-.55c1.5,9.38-1.65,19.15-3.27,28.35.35.45,7.21-6.97,7.89-7.65,2.63-2.65,5.1-4.2,7.37-7.62-.88,1.07,1.01,1.05,1.1,1.44.79,3.43-1.15,12.45-1.64,16.54-.26.06-.51.29-.55.55-.15.48-.34.47-.55,0,.2-1.39-.11-3.04.07-4.57.29-2.49,1.63-4.94,1.03-7.43l1.08.55c.14-1.5-.68-2.87-.54-4.37-.1-.67-.33-.6-.55,0-2.27,3.43-4.2,3.91-6.56,6.25-1.2,1.19-7.41,9.4-9.25,7.92l5.45-42.52v.02Z"/>
  <path class="st7" d="M852.21,514.02c.23.24,2.07-.1,2.7.03.61,1.66-2.71,4.88-2.71,5.17-.02.93,3.1,1.81,3.21,1.97,1.32,2.05-1.54,1.35-2.66,1.85-1.48.67-3.22,5.86-5.67,4.03-.56-.42-.78-1.33-1.01-1.45-.68-.38-1.81.11-2.63-.4-.48-.3-.44-1.29-.54-1.37-.16-.13-3.23,2.31-3.8.26-.4-1.43,3.14-4.4,3.82-5.71-1.54-.6-6.51,1.58-7.08-.28-.28-1.15.33-1.25.89-1.82,1.22-1.25,6.19-5.67,7.56-6.07,1.27,3.96,1.12,1.17,2.83.65,5.54-1.68,4.53,2.55,5.1,3.13h-.01Z"/>
  <path class="st82" d="M854.37,498.79l-.55.55c-.87.32-1.24.68-1.09,1.09l.72-.13c.96,4.81,4.67.86,1.23.58l-.86-.99c-.48-.15-.47-.34,0-.55,2.07-1.03,5.09-1.75,4.33,1.53,1.86.21,3.86.08,5.99-.38-.57,3.46-1.45,6.26-5.42,6.48-1.06-.16-2.27-1.71-3.2-1.9-2.61-.54-3.24,1.55-3.89-3.55l-2.17.55c-.93-1.16,3.12-6.8,4.9-3.27h.01Z"/>
  <path class="st84" d="M854.37,498.79c1.09-.48,2.75-.99,3.84-.29,1.64,1.06-2,3.15,2.3,2.34.98-.18,3.93-2.11,4.22-.67.07.36-1.67,5.4-1.92,5.7-.64.78-3.09,1.26-4.08,1.1,3.59-1.21,4.25-2.24,4.9-5.99l-5.99.54c-.04-1.11.99-2.04-.33-2.7-1.19-.02-2.33.33-3.49.52.12-.24.3-.44.55-.55Z"/>
  <path class="st10" d="M891.44,611.08c.05-.08-1-1.03.81-1.1.95-.03-.26,1.03-.27,1.1h-.55.01Z"/>
  <path class="st10" d="M890.9,626.89c-.2,1.43.06,4.41-.55,1.64.08-.52-.07-1.11,0-1.64h.55Z"/>
  <path class="st73" d="M981.95,469.9c1.5.55,1.51,2.72,0,3.27.84.15,1.06.35.36.55,2.22-.25,4.28-.07,6.18.54.59,1.33-.36,1.58-1.62,1.68l-18.62-.05,1.3,2.59c4.4,20.34,14.3,38.85,25.87,56.52,12.57,19.2,26.41,38.71,39.67,56.56,1.85-.17,2.73.91,2.65,3.26,3.85,3.54,6.15,7.76,7.71,12.81.42.35.88.4,1.39.18q.27.61,0,0c-2.33-3.06-1.1-9.29.55-12.54l.54.27c.04,1.36-.02,2.73,0,4.09-.45,2.05-.44,4.58,0,6.54-.04,1.09.3,8.69-1.9,8.18-1.35-.32-6.45-16.81-9.28-16.89-.28,0-.64.77-.82,1.08-.72,1.25-.16,2.49-1.08,2.72-.17-1.49.22-3.22.02-4.66-.35-2.55-7.77-11.36-9.74-14.25-8.96-13.19-17.49-26.59-27.36-39.15-1.06-1.24-5.11-3.29-6.52-2.73-4.37,4.13-12.96,5.63-12.56,12.81l1.08-2.72c.64,10.38,2.11,20.93,4.37,31.07h-1.09c-2.36-10.61-4.51-21.27-4.91-32.16-2.78-.53-4.72,1.35-7.36,1.64-6.66.74-14.21-.59-20.92-.47-1.68,5.77-3.33,11.59-4.98,17.37-.76,1.33-1.39.91-1.09-.55.71-2.5,4.75-15.83,4.4-17.12-.11-.39-6.64-2.8-7.67-1.68-3.95,5.04-7.29,10.51-11.01,15.7-6.37,8.89-18.99,27.74-26.87,34.19-1.79,1.46-3.82,1.54-5.5,3.23-1.59,1.6-3.36,4.94-4.1,7.09-.08.06-.94-.67-1.06-.53,1.96-2.95,2.43-6.74,6.35-9.19,7.29-4.57,9.4-8.65,14.71-15.28,3.29-4.1,5.37-7.09,8.4-11.22,6.7-9.13,16.08-20.11,21.35-29.9,2.78-5.17,4.54-11.46,7.06-16.92,4.32-9.34,11.02-18.13,12.46-28.42l1.09.27c-1.54-3.44-.81-6.42.55-9.82,1.68.57,1.67,2.83,1.59,4.49-.35,6.81-2.62,13.36-5.6,19.43-6.11,11.26-11.4,22.81-15.88,34.64,2.64.44,4.36,1.46,5.17,3.04,1,.29,1.36.29,1.09,0l.64-1.26c8.76.84,17.43.73,26.02-.31,4.57-3.99,9.52-7.44,14.86-10.34-8.33-14.14-16.33-28.5-22.07-43.85.11-.21-3.02-13.64-3.2-12.27l-.46,6.56c-1.09,1.38-1.76.8-2.16-.68.08-2.03,1.32-11.76.49-12.48-.85-.25-1.83.07-2.67-.06.44-.77,2.28-.71,2.98-.58.75.14-.28,1.86.83,1.67.11-.76-.62-1.55.79-1.65,4.23-.32,8.68.61,12.84-.52-.2-1.55.66-1.56,1.64-.55.4-4.23.76-5.32,1.09-3.27v.03Z"/>
  <path class="st44" d="M1040.83,538.58c.09.69-.07,1.47,0,2.18h0c.16,1.77.59,3.22.55,5.45-.42.84-.43,3.08,0,1.64,2.06,7.64,1.84,15.83,2.73,23.71.78,6.85,3.11,14.24,2.18,20.99l1.08-1.08c-.03,1.26.07,2.55,0,3.81-.7,3.07-1.95,2.71-2.65-1.5-2.27-16.73-4.25-33.55-6.1-50.3-.16-1.42-.32-4.39,1.11-4.9-.15-2.53.6-2.46,1.09,0h.01Z"/>
  <path class="st21" d="M1033.2,492.25c-.25,1.55-.07,2.1.55,1.64.23.94.32,2.6.55,3.82-.25,1.56-.06,2.1.55,1.64.25,1.43.64,2.88.55,4.36-.33,1.42-.15,1.97.55,1.64.04.53.03,1.11,0,1.64-.21,2.21-.02,2.75.55,1.64.02.53.04,1.1,0,1.64-.02,1.11.16,1.48.55,1.09.15,1.76-.32,3.21-.54,4.9l1.08-1.08c.23,4.05,1.15,7.96,1.64,11.99-.26.98-.73,3.13,0,1.64.08.87.49,1.8.55,3.27-.28.63-.57,2.42,0,1.64.95,1.33.88,3.35,1.09,4.91-.62-1.15-1.21-1.83-1.09,0l-1.31-1.67c-1.73-16.83-4.73-33.41-9-49.73l.5-2.02,1.09-1.09c.73,2.1,1.59,5.86,2.18,8.18l-.04-.05Z"/>
  <path class="st73" d="M1038.11,618.71c.07.78-.11,1.15-.55,1.09-.2-1.73-.37-3.8-.61-5.66-.5-3.82-1.59-7.67-2.12-11.51l1.09.27v-3.28l2.2,12.83c-.2,2.23-.37,4.01-.01,6.25h0Z"/>
  <path class="st87" d="M1039.2,624.16v.55l-1.08,4.9c.19-3.3-.18-6.55-.55-9.81l.55-1.09c.29,1.84.97,2.87,1.09,5.45h-.01Z"/>
  <path class="st40" d="M1047.92,606.18c-.38-2.12-.46-4.41,0-6.54l.54.27c-.19,1.11.52,6.28-.54,6.27h0Z"/>
  <path class="st8" d="M1035.92,505.33l-1.08.55c-.5-.99.53-2.07.54-2.18.52.46.5,1.01.55,1.64h-.01Z"/>
  <path class="st8" d="M1036.47,508.6l-.55,1.09h-.53c-.41-.92.51-2.16.54-2.72.71.26.52,1.04.55,1.64h-.01Z"/>
  <path class="st8" d="M1037.02,511.32c-.75.6-.18,1.84-1.08,1.63-.38-.98.5-2.12.54-2.72.53.15.51.63.55,1.09h-.01Z"/>
  <path class="st109" d="M1039.74,533.67c-.03.54.03,1.09,0,1.63h-.53c.09-1-.45-2.62.54-3.27.02.54.03,1.1,0,1.64h-.01Z"/>
  <path class="st8" d="M1034.83,499.33l-1.09.55.54-2.18c.04.24.4.81.55,1.64h0Z"/>
  <path class="st8" d="M1033.74,493.88l-1.09.55.54-2.18c.1.4.37.9.55,1.64h0Z"/>
  <path class="st105" d="M1041.38,547.85c-.03.36.02.73,0,1.09h-.53c.05-.84-.37-2.24.54-2.72-.01.54.04,1.1,0,1.64h-.01Z"/>
  <path class="st56" d="M1050.1,531.49v-.55c.03-.72-.03-1.46,0-2.18h.53c-.05.84.37,2.24-.54,2.72h.01Z"/>
  <path class="st72" d="M1039.2,528.77c-.03,2.67-1.42-.22,0-1.64.06.53-.05,1.1,0,1.64Z"/>
  <path class="st73" d="M932.33,471.53l9.27,1.64c-10.81-.92-18.48-2.71-28.9-4.91l2.18-.55c5.76,1.34,12.04,1.58,17.45,3.82h0Z"/>
  <path class="st40" d="M988.49,474.26c8.8.09,18.65-.96,27.53-1.64,1.47-.11,8.32-1.77,9.01-1.08.15.15-.17,2.99.11,3.98.49,1.69,3.81,6.72,4.79,9.65,4.8,14.37,7.88,38.06,9.81,53.42.2,1.62-.2,3.51,0,5.17,2.16,17.73,3.9,35.5,6.54,53.15l1.08-1.63c-.2,4.17-.93,8.32-.55,12.54l-1.08,3.81c-1.35-3.5-2.79-8.22-4.7-11.38-.94-1.56-3.91-4.12-4.29-4.97-.42-.94-.18-2.59-.28-2.72-.12-.16-1.12.46-1.65.26-.78-.3-8.8-11.63-10.02-13.38-6.13-8.8-12.1-17.71-18.3-26.41-13.72-19.25-24.82-36.08-33.67-58.46-2.52-6.37-2.28-14.36-6.69-19.74,3.36.02,6.74-.03,10.11-.03,2.07,0,3.86.06,5.96,0,1.94-.05,5.07.55,6.29-.52-2.18-.02-4.37.02-6.55,0-.03-.36.02-.73,0-1.09,1.88-1.6,5.25-1.68,7.09,0-.22.28-.34.91-.55,1.09v-.02Z"/>
  <path class="st35" d="M982.49,458.45c.05-1-.38-3.46.79-3.68,7.62.85,16.28-.58,23.85-1.93,6.29-1.12,12.75-2.36,18.42-5.29-.29,3.17,6.79,18.51,6.48,19.84-.47,2.01-5.71,1.72-7.02,1.96-.53,1.15-1.8,1.52-3.82,1.09-7.26,1.09-16.6,1.74-23.99,2.18-.8.44-1.53.81-2.18,1.09-2.13-.22-3.72-.48-6-.55s-4.73.05-7.09,0c-.05-1.03-.08-2.25,0-3.27-.69-3.63-.97-8.09.55-11.45h.01Z"/>
  <path class="st24" d="M979.22,473.71c-3.97-1.92-8.97-.9-13.35-1.1-1.91-.09-3.9-.83-6.06-.86-1.15-.02-5.71,1.05-6.17.27-.12-2.51,1.18-17.35,2.67-18.25l25.08.86c.1.5-.12,1.21,0,1.63.4,5.6.24,11.32-.55,16.9-.34.32-1.15.41-1.64.55h.02Z"/>
  <path class="st12" d="M982.49,458.45c-.2,3.87-.27,7.7-.55,11.45-.84-3.28.04,2.2-1.09,3.27.34-5.53-.71-11.52.55-16.9.23.83.19,1.66,1.09,2.18Z"/>
  <path class="st73" d="M960.68,473.71c.11.32-.17.62-.55.55-5.07-.4-10.71-.17-15.81-.55,5.29-1.6,10.92.69,16.36,0Z"/>
  <path class="st20" d="M1025.02,469.35c.65,2.51-1.97,1.85-3.82,1.09.91-.14,2.59-.86,3.82-1.09Z"/>
  <path class="st58" d="M960.68,473.71c-.26-.76-1.28-.19-1.09-1.08l6.54.54-5.45.54h0Z"/>
  <path class="st40" d="M997.21,472.62c.38,1.45-.85,1.23-2.18,1.09-.34-1.65.81-1.01,2.18-1.09Z"/>
  <path class="st63" d="M797.12,497.15l.27-2.18c2.19.49,3.1,3,4.09,3.81-2.74.39-2.82-.09-4.36-1.64h0Z"/>
  <path class="st5" d="M770.4,492.25l.55,1.09c-.13-.05-1.76,1.14-1.63-1.09.31-.09.96.1,1.09,0h-.01Z"/>
  <path class="st51" d="M995.58,656.87c-.91-3.12-.92-7.73,0-10.9.21,3.28.19,7.61,0,10.9Z"/>
  <path class="st49" d="M944.87,568.02c-2.74,9.56-5.53,19.13-7.63,28.89-.43-.35-.62-1.08-.55-2.18,1.72-9.85,4.4-17.75,7.09-27.26l1.09.55h0Z"/>
  <path class="st102" d="M937.24,596.91c-.17,5.65-1.1,11.17-1.09,16.9v.55c-.53,1.42-.37,2.93,0,4.36.22-.34.4-.16.55.55.05.72-.07,1.47,0,2.18-.1,1.22-.15,1.53-1.09.55-1.07-10.16-.65-17.32,1.09-27.26.41.66.57,1.4.55,2.18h0Z"/>
  <path class="st49" d="M939.97,637.79l-1.09,1.09c-1.3-5.59-2.67-11.17-3.27-16.9l1.09-.55c.53,5.25,2.09,11.18,3.27,16.35h0Z"/>
  <path class="st49" d="M936.69,619.26c-.18-.17-.42-.33-.55-.55-.4-1.46-.5-2.93,0-4.36v-.55c1.07,1.29.43,3.71.55,5.45h0Z"/>
  <rect class="st10" x="1041.38" y="641.61" width=".53" height="3.27"/>
  <path class="st19" d="M988.49,313.45c3.39.92,2.68,11.82-2.32,9.14-2.09-1.11-1.13-5.79.1-7.16.77-.85,1.05.47,1.67-1.44-.36-.27-.18-.46.55-.55h0Z"/>
  <path class="st61" d="M988.49,313.45c-.12.21-.5.4-.55.55l-1.63.54v-1.09c.66.1,1.61-.16,2.18,0Z"/>
  <path class="st30" d="M963.96,487.34l1.09.81.55-8.44c1.04-.18,1.62.68,2.1,1.44,1.8,2.86,1.97,9.03,3.24,12.57,2.59,7.24,8.41,19.06,12.01,26.15,3.33,6.56,7.89,12.56,11,19.25-2.95-1.45-3.28.66-4.77,1.62-2.31,1.47-4.91,2.62-7.18,4.15-.7.47-4.41,4.05-4.72,4.05-4.02,0-5.54.8-9.2,1.11-4.46.38-15.09-1.54-17.74-.56-.04.26-.41.26-1.09,0-2.32-.75-3.73-1.62-6.26-2.2-1.96-.45.03-1.32.67-2.57,2.67-5.18,4.18-11,6.58-16.32,5.82-12.88,13.61-22.18,14.27-36.97.05-1.05-.6-2.21-.55-3.54v-.55h0Z"/>
  <path class="st80" d="M881.63,576.74c1.03.29.39,2.19.54,3.27h-.53v-3.27h0Z"/>
  <path class="st80" d="M881.08,590.91c-1.24-.48-.23-3.28-.53-4.36,1.24.48.23,3.28.53,4.36Z"/>
  <path class="st88" d="M851.09,523.32c-4.3,4-2.29,2.07-4.38.78-.75-.46-1.48.2-1.93.13s-1.18-2.51-3.51-1.46c1.06-1.94,3.83-2.8,3.27-5.44l-6.54-.27c1.45-.66,4.64-5.28,6.01-4.38.41.26.92,1.9,1.35,1.92.51.02,1.74-2.98,4.37-2.76,1.39.12.71,1.41,1.41,2.46s1.89.37,1.58,2.49c-2.08,2.19-2.18,2.59-.28,4.9l-1.36,1.64h.01Z"/>
  <path class="st77" d="M851.09,523.32c1.63-2.76.35-1.89-.29-3.28-.73-1.59.7-2.47,1.93-3.26-.36,2.52-3.11,1.72.53,4.63-.54.84-1.52,1.3-2.17,1.91h0Z"/>
  <path class="st69" d="M853.82,499.88c1.11-.15,2.19-.21,3.27-.54v3.27l5.45-1.09c-.9,6.48-2.99,3.27-6.38,2.29-.83-.24-2.51.1-2.83-.16-.28-.23-.47-3.07-.6-3.21-.35-.88.44-1.03,1.09-.55h0Z"/>
  <path class="st100" d="M853.82,499.33v.55c-.45.06-.96,0-1.09.55-.11-.12-.97.13-1.09,0-1.17-1.39,1.53-.98,2.18-1.09h0Z"/>
  <path class="st65" d="M884.35,559.3c-.98-.17-.43-1.78-.54-2.72h.53v2.72h0Z"/>
  <path class="st3" d="M1047.92,606.18l-.54-.27c.19-1.11-.52-6.28.54-6.27.04,2.16.08,4.38,0,6.54h0Z"/>
  <path class="st72" d="M1046.83,607.81c1.03.29.39,2.19.54,3.27h-.53v-3.27h-.01Z"/>
  <path class="st105" d="M950.32,549.48c.84.07,1.83-.35,1.63.54-1.24.42-1.93-.28-2.72-.54.34-.06.83.09,1.09,0h0Z"/>
  <path class="st89" d="M1040.83,540.76v3.81h-.54c-.15-.69-.02-4.52.54-3.81Z"/>
  <path class="st83" d="M972.14,457.35c-.05,2.94-.13,5.85.54,8.72-2.25-.95-3.71.42-5.72.55-2.61.17-5.29-.13-7.91,0-.5-1.73.62-3.78.58-5.21s-1.11-2.03-1.11-2.15c0-1.09,12.03-2.32,13.62-1.91h0Z"/>
  <path class="st5" d="M936.15,618.71c-.73-1.25-1.08-3.2,0-4.36v4.36Z"/>
  <path class="st35" d="M971.04,458.99c-.18.97.27,5.12-.03,5.42-.38.39-9.97.94-10.33.58-.06-2.11-.68-6,2.46-6h7.91,0Z"/>
</svg>