<?xml version="1.0" encoding="UTF-8"?>
<svg id="Layer_1" xmlns="http://www.w3.org/2000/svg" version="1.1" viewBox="0 0 1287.27 894.55">
  <!-- Generator: Adobe Illustrator 29.6.1, SVG Export Plug-In . SVG Version: 2.1.1 Build 9)  -->
  <defs>
    <style>
      .st0 {
        fill: #404040;
      }

      .st1 {
        fill: #024056;
      }

      .st2 {
        fill: #0594c6;
      }

      .st3 {
        fill: #02445c;
      }

      .st4 {
        fill: #323232;
      }

      .st5 {
        fill: #e0e0e0;
      }

      .st6 {
        fill: #111;
      }

      .st7 {
        fill: #2b2b2b;
      }

      .st8 {
        fill: #444;
      }

      .st9 {
        fill: #023041;
      }

      .st10 {
        fill: #010101;
      }

      .st11 {
        fill: #035471;
      }

      .st12 {
        fill: #a7a7a7;
      }

      .st13 {
        fill: #037299;
      }

      .st14 {
        fill: #03536f;
      }

      .st15 {
        fill: #2f2f2f;
      }

      .st16 {
        fill: #232323;
      }

      .st17 {
        fill: #292929;
      }

      .st18 {
        fill: #414141;
      }

      .st19 {
        fill: #393939;
      }

      .st20 {
        fill: #012937;
      }

      .st21 {
        fill: #059ed4;
      }

      .st22 {
        fill: #939393;
      }

      .st23 {
        fill: #3c3c3c;
      }

      .st24 {
        fill: gray;
      }

      .st25 {
        fill: #035370;
      }

      .st26 {
        fill: #545454;
      }

      .st27 {
        fill: #5f5f5f;
      }

      .st28 {
        fill: #363636;
      }

      .st29 {
        fill: #035572;
      }

      .st30 {
        fill: #777;
      }

      .st31 {
        fill: #b5b5b5;
      }

      .st32 {
        fill: #037096;
      }

      .st33 {
        fill: #04749b;
      }

      .st34 {
        fill: #030303;
      }

      .st35 {
        fill: #035775;
      }

      .st36 {
        fill: #454545;
      }

      .st37 {
        fill: #a1a1a1;
      }

      .st38 {
        fill: #035978;
      }

      .st39 {
        fill: #2c2c2c;
      }

      .st40 {
        fill: #171717;
      }

      .st41 {
        fill: #a5a5a5;
      }

      .st42 {
        fill: #969696;
      }

      .st43 {
        fill: #036081;
      }

      .st44 {
        fill: #02455d;
      }

      .st45 {
        fill: #5a5a5a;
      }

      .st46 {
        fill: #0495c8;
      }

      .st47 {
        fill: #3b3b3b;
      }

      .st48 {
        fill: #aaa;
      }

      .st49 {
        fill: #3e3e3e;
      }

      .st50 {
        fill: #b4b4b4;
      }

      .st51 {
        fill: #212121;
      }

      .st52 {
        fill: #4d4d4d;
      }

      .st53 {
        fill: #5c5c5c;
      }

      .st54 {
        fill: #525252;
      }

      .st55 {
        fill: #3a3a3a;
      }

      .st56 {
        fill: #b1b1b1;
      }

      .st57 {
        fill: #a0a0a0;
      }

      .st58 {
        fill: #06bdfd;
      }

      .st59 {
        fill: #272727;
      }

      .st60 {
        fill: #575757;
      }

      .st61 {
        fill: #5d5d5d;
      }

      .st62 {
        fill: #4f4f4f;
      }

      .st63 {
        fill: #035f80;
      }

      .st64 {
        fill: #929292;
      }

      .st65 {
        fill: #505050;
      }

      .st66 {
        fill: #059bd0;
      }

      .st67 {
        fill: #464646;
      }

      .st68 {
        fill: #b0b0b0;
      }

      .st69 {
        fill: #04759e;
      }

      .st70 {
        fill: #012e3e;
      }

      .st71 {
        fill: #013040;
      }

      .st72 {
        fill: #7d7d7d;
      }

      .st73 {
        fill: #023a4d;
      }

      .st74 {
        fill: #515151;
      }

      .st75 {
        fill: #646464;
      }

      .st76 {
        fill: #023f55;
      }

      .st77 {
        fill: #024259;
      }

      .st78 {
        fill: #06bcfd;
      }

      .st79 {
        fill: #05a2da;
      }

      .st80 {
        fill: #bababa;
      }

      .st81 {
        fill: #565656;
      }

      .st82 {
        fill: #023d52;
      }

      .st83 {
        fill: #0479a2;
      }

      .st84 {
        fill: #023749;
      }

      .st85 {
        fill: #101010;
      }

      .st86 {
        fill: #2e2e2e;
      }

      .st87 {
        fill: #b8b8b8;
      }

      .st88 {
        fill: #676767;
      }

      .st89 {
        fill: #01171f;
      }

      .st90 {
        fill: #024e69;
      }

      .st91 {
        fill: #a3a3a3;
      }

      .st92 {
        fill: #8b8b8b;
      }

      .st93 {
        fill: #fefefe;
      }

      .st94 {
        fill: #4a4a4a;
      }

      .st95 {
        fill: #5e5e5e;
      }

      .st96 {
        fill: #035b7b;
      }

      .st97 {
        fill: #023a4e;
      }

      .st98 {
        fill: #06bcfc;
      }

      .st99 {
        fill: #6b6b6b;
      }

      .st100 {
        fill: #b3b3b3;
      }

      .st101 {
        fill: #ababab;
      }

      .st102 {
        fill: #2a2a2a;
      }

      .st103 {
        fill: #424242;
      }

      .st104 {
        fill: #585858;
      }

      .st105 {
        fill: #024861;
      }

      .st106 {
        fill: #023c50;
      }

      .st107 {
        fill: #fcfcfc;
      }

      .st108 {
        fill: #b9b9b9;
      }

      .st109 {
        fill: #2d2d2d;
      }

      .st110 {
        fill: #aeaeae;
      }

      .st111 {
        fill: #737373;
      }

      .st112 {
        fill: #9e9e9e;
      }

      .st113 {
        fill: #036f95;
      }

      .st114 {
        fill: #024760;
      }

      .st115 {
        fill: #036080;
      }

      .st116 {
        fill: #6e6e6e;
      }

      .st117 {
        fill: #a8a8a8;
      }

      .st118 {
        fill: #03739a;
      }

      .st119 {
        fill: #616161;
      }

      .st120 {
        fill: #313131;
      }

      .st121 {
        fill: #353535;
      }

      .st122 {
        fill: #787878;
      }

      .st123 {
        fill: #333;
      }

      .st124 {
        fill: #adadad;
      }

      .st125 {
        fill: #4b4b4b;
      }

      .st126 {
        fill: #535353;
      }

      .st127 {
        fill: #06bdfe;
      }

      .st128 {
        fill: #484848;
      }

      .st129 {
        fill: #555;
      }

      .st130 {
        fill: #b6b6b6;
      }

      .st131 {
        fill: #181818;
      }

      .st132 {
        fill: #4c4c4c;
      }

      .st133 {
        fill: #06b9f9;
      }

      .st134 {
        fill: #898989;
      }

      .st135 {
        fill: #434343;
      }

      .st136 {
        fill: #023548;
      }

      .st137 {
        fill: #b2b2b2;
      }

      .st138 {
        fill: #686868;
      }

      .st139 {
        fill: #7b7b7b;
      }

      .st140 {
        fill: #059fd5;
      }
    </style>
  </defs>
  <polygon class="st107" points="1276.37 0 1287.27 0 1287.27 10.9 1276.37 0"/>
  <path d="M537.26,157.22c1.91-2.69,3.37-4.7,6.3-6.36,4.48-2.54,7.23-3.05,2.62,2.01-1.27.95-2.42,2.04-3.47,3.26-.27.63-.29,1.51-.55,2.18-.88,1.38-1.79,2.29-2.73,2.73-.14.13-.96.02-1.4.53-.47.43.31.5.31.56,2.68,4.22,5.76,7.89,10.09,10.6l1.36,1.94c.49.5,1.29,1.23,1.64,1.64,2.39,1.86,4.25,4.33,5.45,7.09.4.52.91.85,1.09,1.09,2.5,3.37,4.14,7,4.91,10.9,0,.18-.01.36,0,.55,1.14,8.11-.13,16.55-2.36,24.28.2.47.53,1.35.45,1.82-.93,5.55-2.57,9.95-4.67,15.19-1.35,6.59-3.03,13.01-5.03,19.27,4.91,5.4-3.79,6.21-7.72,5.93-3.58-.37-6.09-.34-7.54.09l-.37,17.68c7.95,1.07,16.23.88,24.2.64l2.46.55c2.02,1.56,3.31.88,3.86-2.05.18-.39.34-.71.55-1.09,5.69-8.24,13.84-13.57,23.44-16.35.18-.02.36.01.55,0,14.39-3.01,30.86.17,40.13,12.42,9.38,12.4,10,43.79-5.24,52.68.54,5.08-.02,9.73-1.68,13.94-4.78.89-9.58,1.98-14.41,3.25-.31,12.58.44,25.02,2.24,37.35-1.72,6.85-2.57,12.13-2.81,19.38-.27,7.93-.2,16.07.07,23.92,1.42,1.77,1.91,3.73,1.75,5.99,4.58-.99,10.5-1.98,7.06,4.91l-5.78,12.49c-.83,1.57-1.03,3.06-.61,4.46.67,3.11,1.2,3.17,2.73,5.45,3.86,6.51,7.87,13.19,11.99,19.62.26.54.69,1.82,1.09,2.73,1.67,1.98,4.21,5.24.55,6.54-.18.02-.37,0-.55,0-4.22-.53-6.58.56-7.09,3.27-.15.17-1.02,1.05-1.09,1.09-1.53.14-2.98.5-4.36,1.09-.33.07-.77-.07-1.09,0-.5.47-.84.68-1.09,0-1.99.82-3.91,0-1.93-1.44l-.25-2.92c-.55.23-1.09-.13-1.64-1.09-1.08-.28-1.12-1.37,0-1.64l-1.1-.58c.64-1.46.65-2.9,0-4.33-1.08-.23-1.45-1.5-1.09-3.82-.76,0-.94-.73-.55-2.18-.39-.04-.71-.12-.8-.31-1.39-2.9-.2-3.88.13.45.02.3-.17.62-.42.94,1.07.04,1.37,1.57.55,2.18,1.01.71,1.68,1.81.55,2.73l.88,3.26c-3.86,2.31-4.71-2.3-4.7-5.44-.81.69-1.11.38-.55-.55-1.36-2.55-2.13-5.37-2.73-8.18-.27,1.43-.58,1.36-1.09,0-.4.33-.58.87-.55,1.64,1.05.53,1.73,2.05.55,2.73,1.22,2.12,2.12,4.37,2.71,6.75,3.23.95,3.47,2.56.7,4.82l-.14,1.51c2.01-.3,3.99,3.17,3.27,4.91,2.39.04,2.85,1.78,2.73,3.82,1.36.18,1.91,1.99,2.18,3.27.17.34.43.81.55,1.09.96,1.14,1.97,3.06.45,4.16-6.87.93-13.47,2.26-20,4.62-3.98,3.71-6.35,2.25-7.11-4.39-1.17-1.84-1.74-3.67-1.69-5.48-.68-.08-.86-.63-.55-1.64-.44-.33-.62.04-.55,1.09.29.42.48,1.15.55,2.18.95.69,1.2,1.47.25,2.18.92,10.19,1.56,20.36,1.93,30.52.02.18-.02.37,0,.55.84,3.73,1.43,7.52,1.77,11.37,2.62,4.37,5.05,8.83,7.3,13.4-1.48,4.3-3.3,8.48-5.48,12.52l.4,1.09c3.02-.29,6.27.51,7.26,3.72-2.97,6.51-5.16,13.12-6.57,19.82,1.65,5.7.36,7.26-5.49,7.14-.9,4.22-2.3,8.31-4.19,12.27-.77,2.91-1.44,6.02,2.27,6.44.15.1.31.38.55.55.76.17,1,.93.72,2.29l-1.91,8.91c-.67,3.59-.45,6.9,3.37,8.42.18.18.37.36.55.55,7.63,6.36,15.04,12.77,22.22,19.2.98,1.74.39,12.04.06,14.47-.63,4.65-1.26,5.35-6.04,5.82-8.34,7.27-14.01,2.54-20.12-4.44-3.65-6.99-8.83-11.06-15.55-12.22-11.65-3.09-5.16-21.08-.9-28.15l-3.14-7.62c-.89-2.79-2-7.1.5-9.22-7.87-14.62-15.12-29.51-21.75-44.68-1.04-3.48,8.06-5.26,10.68-4.61l.66-.44c-2.62-12.1-5.08-24.64-5.27-37.42l-.68-4.53c-1.16-4.16-1.98-8.28-2.46-12.35-1.3,1.8-2.63,3.52-4,5.17-.19.17-.36.37-.55.55-.83,1.31-1.74,2.04-2.73,2.18-1.9,1.93-3.86,2.95-5.86,3.08l-14.4-16.92-1.07.43c-.27,9.04.2,18.12,1.1,27.16-1.45,5.55-1.32,9.87-.17,15.61-.78,6.08-2.36,12.14-4.73,18.17.22,1.97-.23,3.32-1.35,4.04-.13,3.15-.46,6.28-1,9.39-2.65.37-5.3.77-7.97,1.19.07.52-.1.93-.53,1.2l-5.93,1.41c-4.75,4.07-7.13.1-8.81-4.47-.65-1.04-3.39-5.42-4.01-5.55-.18-.04-3.36,1.36-3.46,1.55-.49.96,7.88,17.27,10.33,18.76l-.13,1.28,6.01.05c4.1-.02,3.8,2.65-.09,2.57-2.92-.66-5.21-.02-7.11,1.77-3.53-2.38-16.2-25.47-15.16-27.94.09-.22.18-.45.25-.68l6.31-.81c1.07-.71.89-1.86-.52-3.46-1.92-4.85-4.67-9.19-7.63-13.5,1.59-7.06,3.06-14.17,4.4-21.33-.26-13.13-.26-26.16-.01-39.09.35-1.7,1.26-8.07-1.17-6.05.36.36.62.84.36,1.16-2.82,3.38-3.73,6.7-4.39,11.06l-.6.59c-5.08-.7-10.57-.83-15.89-.69-1.4-.13-2.19-.54-2.35-2.02-.21-1.9,6.49-16.74,7.82-19.44,2.96-3.5,3.06-5.57.31-6.22-1.48-1.27-1.11-3,1.11-5.17,2.89-3.19,3.55-5.1,5.76-8.14,2.89-3.97,6.19-7.68,8.96-11.76.15-.42-2.05-.03-1.54-2.59l10.8-24.68c-.41-17.7-1.04-36.16-.52-53.93.14-4.76.16-5.92-3.28-9.3-4.12-4.04-10.88-4.09-9.28-11.16l-9.27.55c.87,3.13-.31,6.39-.54,9.54-1.62,22.48-1.86,44.92-3.97,67.44-.11,1.16-.74,2.27-.95,3.41,11.92-.59,1.78,7.38-.45,11.54-2.57,4.79-.94,3.78.32,7.14,1.51,4.02,2.74,8.19,4.5,12.12l-2.94,8.52c-1.27,3.17-3.17,7.87-7.42,6.2-.5.07-1.29-.13-1.64,0l-.55,6.54v1.09c.18,1.78-1.97,1.62-3.27,1.09-.18.02-.37-.02-.55,0l-1.33-.19c-2.35.69-4.09.57-5.21-.35-.53-1.32-.53-2.41,0-3.27.35-1.43.17-2.16-.55-2.18.28.71.19,1.88-.55,2.18.11.96-.98,1.33-3.27,1.09-.6-.14-1.19-.46-1.64-.55-1.71.61-4.6.72-5.45-1.09-.14-.2-.48-.38-.55-.55-.3-1.66.34-2.94,1.09-4.36.11-.2.44-.35.55-.55l1.09-2.18c.18-.3.32-.7.55-1.09-.18-1.43.18-1.98,1.09-1.64-.15-.78.21-1.5,1.09-2.18q1.09-1.46,0,0c-.57.99-1.11,1.36-1.64,1.09-.26,1.06-1.35,1.97-3.27,2.73-.47.45-.13-.29-1.09,1.09-3.78,2.36-4.6-.4-4.88-3.77-2.45-2.45-3-4.46-1.66-6.04,1.69-2.16,2.4-2.34,4.36-3.82,1.79-1.32,3.43-2.77,4.91-4.36,1.34-1.11,2.61-1.77,3.82-3.27l1.09-2.18c.48-.53,1.1-1.04,1.64-1.64,1.47-2.2,3.11-4.28,4.94-6.23l-1.11-7.46c-1.4-3.63-3.2-10.46,3.12-7.63,1.53,1.05,4.45-3.87,4.66-4.68.34-8.73.44-17.49.3-26.29-1.3-4.59-2.06-8.02,1.37-11.89.32-9.86.38-19.74.18-29.66,2.31-5.43-1.64-5.38-5.79-4.95-4.69,1.58-7.34,2.11-7.34-3.7l.42-9.53c-19.29-4.79-16.72-33.34-8.92-46.64.19-.37.34-.72.55-1.09,11.11-18.61,32.2-24.95,52.34-16.9.43.12,1.08.37,1.64.55,5.28,1.99,10.53,4.29,14.72,8.18.18.18.38.37.55.55.57.56,1.17,1.08,1.8,1.56,7.59-.75,15.19-1.4,22.79-1.97.69-1.81,2.23-16.72,1.83-17.52-.14-.29-.38-.5-.67-.54-4.04-.61-10.21-1.56-14-2.94-3.18-1.16-3.66-1.74-1.5-4.5-2.17-8.16-7.03-15.94-11.49-23.06-.82-3.36-1.05-7.13,1.7-9.54-2.29-17.86,3.71-37.39,18.27-48.4,7.87-3.84,14.64-10.02,18.39-17.98l1.59-1.58c.27-.05.78-.03,1.09,0,1.4.91,2.67,1.93,3.27,3.27v.03Z"/>
  <path d="M638.12,92.35c.16.16.48.41.55.55.36,1.09.43,2.18,0,3.27-.1.17-.38.36-.55.55-3.34,2.33-3.28,4.17.19,5.53,6.29,3.31,11.68,8.01,16.17,14.1.08.12-.08.42,0,.55,1.71,1.62,3.34,3.44,4.91,5.45.54.75,1.06,1.45,1.64,2.18,1.65,1.07,2.92,2.34,3.82,3.82.19.18.36.37.55.55,5.49,3.27,5.53,7.65-1.78,7.24l-.62.86c3.63,8.57.74,16.82-8.51,19.84-.9,6.88-1.72,13.79-2.46,20.72-.04,6.87-4.76,10.43-8.44,3.67-.48-.59-.78-1.27-1.09-1.64-2.49-3.94-7.58-3.05-11.42-1.66l-11.89,4.9c-5.1,1.88-11.26,3.95-16.49,2.22-1.45-.1-2.36-.64-2.73-1.64-2.23-.9.12-3.88,1.64-4.91.18-.19.36-.36.55-.55,3.47-3.32,7.15-6.38,11.05-9.18-1.66-3.43-2.98-6.91-3.96-10.45,1.04-2.6,1.46-1.98,3.82-1.64.76.36.94.72.55,1.09,2.21,1.53,2.76,1.02,2.55-1.63.73-2.31,1.84-2.3,3.99-1.64.76-.55,2.03-.55,3.82,0h.55c2.4-.1,4.77-.49,7.09-1.09.56-.18,1.08-.34,1.64-.55l-.14-.82c-4.25-.21-5.84-1.75-4.77-4.64.11-.19.38-.36.55-.55,2.52-2.03,3.07-3.48,1.64-4.36-.21-.14-.36-.38-.55-.55-.59-.74-.9-1.64-.89-2.59,1.27-5.16,2.03-9.73-2.93-13.22-.17-.19-.37-.36-.55-.55-3.09-2.42-6.3-4.52-9.63-6.31-3.07-2.68-20.15,3.69-20.7,5.04-.12.31-.06.68.05,1.08,3.83,2.64.79,6.36-2.95,6.85-7.02.88-15.29,2.79-19.03,9.37-.94.97-2.68,2.39-3.9,1.96-1.93,1.58-3.93,2.48-6,2.73-1.91,1.85-7.75,4.46-10.78,4.33-3.32-.14-6.12-1.21-2.6-4.17,1.79-4.61,2.99-9.4,3.61-14.37l.5-.51c.48-5.4,4.13-11.09,7.63-15.26.08-.13-.08-.42,0-.55l1.64-1.09c.41-1.06.96-1.96,1.64-2.73.3-1.13,1.59-1.87,2.73-2.18.3-.25.6-.68,1.09-1.09.7-1.14,1.6-1.87,2.73-2.18.19-.17.35-.37.55-.55,1.82-2.27,5.54-6.25,8.42-6.84.81-.17,1.71.07,2.49.3.11.07.48.43.55.55,1.02.24,1.41.37.55,1.09.78.55,2.06.37,3.82-.55-.24-.27-.05-.45.55-.55,1.28-.7,2.51-1.09,3.82-1.64,1.67-1.06,3.52-1.75,5.45-2.18.37-.13.71-.42,1.09-.55,5.97-2.61,12.6-3.58,19.08-3.27h.55c3.35-.01,6.7.23,10.05.74,3.62-1.58,6.81-1.83,9.58-.74l-.08.04Z"/>
  <path class="st10" d="M471.83,491.92c.6-1.35-.09-2.63,2.18-2.18l-.94,20.57c-.03,9.63,1.8,23.43-.31,32.97-.92,4.15-4.32,11.19-3.67,15.39.09.55,3.7,5.09,4.48,6.47,1.14,2.04,2.01,5.4,3.24,7.12.58.81,2.33,1.31,2.11,2.25-2.12,1.93-5.42,1.99-8.18,1.92-.01.62-.06,1.25.04,1.87.38,2.5,7.81,16.21,9.58,19.32.43.76,3.41,5.35,3.7,5.57,2.37,1.79,3.33-1.39,5.08-1.61,1.12-.14,3.6,1.93,5.59.21-2.07-1.92-6.46-.38-8.18-1.37-.02-.42.04-1.08.31-1.11,2.54-.3,17.8-1.41,19.17-1.04l.7,1.05c1.7,1.76,2.95-5.06,1.29-.23l-1.29.23-.81-1.67c1.8-6.2,3.63-12.35,5.48-18.46l1.34-.58c.5.18.79.52.83,1.03-2.25,8.08-1.75,8.42,1.01-1.72-.43.77-.91,1.03-1.84.68-.61-1.74-1.76-2.36-3.45-1.86l-.49,7.21c-.03,3.79-7.44,3.83-9.69,2.28,1.22-1.45,7.17-.67,7.69-1.41.58-.82.75-8.02,1.18-10.16,1.11-5.49,5.4-14.26,5.83-19.29.33-3.82-1.85-9.36-.95-12.89,1.6-6.28.25-6.71-.02-12.67-.04-.92.51-2.05.46-3.24-.13-3.2-1.42-15.22-.31-17.2.56-1,1.2.09,1.65.55,3.56,3.65,8.18,9.33,11.7,13.37.7.8,1.65,2.94,2.2,3.28,1.76,1.11,4.28-2.22,5.99-2.48-.45,1.94-3.89,4.8-6.15,3.84l-13.37-15.31-1.09.31c.15,9.36.53,18.73,1.14,28.11l-1.1,2.06c1.44,9.14,1.04,15.7-2.35,24.36-1.04,1.94-1.25,3.33-.6,4.17,7.28-1.5,8.95,2.15,4.99,8.05-.04.17.04.37,0,.55l-5.02,18.73c-.5,2.2-1.37,3.23-2.61,3.08v1.09c1,1.07,1.26,2.53.8,4.35-1.92,4.69-2.98,9.36-3.17,14.03,1.42,4.57,1.7,9.51.85,14.82,7.4,8.12,15.26,32.89.24,36.8-8.06-.04-14.58,4.52-20.79,9.16-2.62,4.64-6.78,4.7-12.49.16-6.39.29-7.72-3.01-3.99-9.9,1.15-9.98,6.33-14.26,14.02-19.51,2.84-4.25,6.33-7.16,10.47-8.74-.86-5.67-3.16-11.91-6.54-16.91l2.09-4.22c-2.56-6.27-4.42-12.24-5.6-17.91l-.43-1.04c-.2-.11-.35-.42-.55-.55-5.01-6.97-9.29-14.43-12.84-22.38-3.15-5.06-1.26-7.26,5.67-6.62.27-.1.48-.46.44-.55-2.28-5.47-5.26-10.67-8.74-15.37,1.05-6.72,2.57-13.37,4.56-19.95.01-.18-.01-.36,0-.55-.54-4.92-.54-9.83,0-14.72v-.55c-.44-4.53-.53-9.12,0-13.63v-.55c-.76-3.27-.43-6.96,0-10.36v-.55l.28-1.35c.06-1.75-.22-3.3-.83-4.65v.03Z"/>
  <path class="st107" d="M515.99,580.23c-1.3,5.83-3.03,16.27-5.56,21.44-.47.96-1.44.83-1.52.94-.13.17.85,1.33.97,1.99.82,4.83-4.21,10.79-3.71,16.26.15,1.62,1.38,2.65,1.62,4.42.35,2.63-.84,9.82-.43,11.25.23.81,2.16,2.61,2.75,3.83,1.23,2.53,1.6,3.26,3.01,5.71.87,1.51,2.59,7.42,2.83,9.21.17,1.24-.36,10.38-.62,11.26-.21.69-4.55,5.58-5.36,6.09-2.96,1.82-6.31.73-9.38,1.53-1.2.31-12.7,7.12-13.66,8-1.03.95-1.83,3.78-4.05,4.29-3.55.81-6.77-2.91-9.28-3.58-1.39-.37-5.48.18-6.07-1.57-1.15-3.4,1.27-6.64,2.2-9.65,1.07-3.5,1.23-6.71,3.48-10.15s7.29-5.92,10.33-8.75,4.41-6.08,8.63-8.29c.62-.32,1.32-.44,2.01-.43-1.65-4.56-2.64-9.49-4.99-13.82-.74-1.38-3.01-2.06-1.85-4.18.59-1.07,2.33-.61,2.19-2.77-2.15-6.3-5.25-12.27-5.71-19.02.3.16,1.1.02,1.39.5.24.4-.32,1.26-.23,1.87.19,1.33.43,2.88.73,4.18.7,3.05,5.31,11.54,4.38,13.59-.3.66-1.43,1.24-1.69,2.19-.34,1.2,2.48,5.06,3.16,6.73,1.4,3.42,1.92,7.55,4.25,10.46-1.69,1.34-4.05,1.59-5.72,2.99-1.83,1.53-4.23,5.05-6.23,6.84-2.64,2.37-8.38,5.76-10.1,8.46-2.87,4.5-3.18,11.76-5.71,16.6.6,3.79,3.04,2.52,5.44,3.24s4.92,3.84,8.43,3.62c2.48-.16,3.05-2.67,4.5-3.88,1.99-1.67,7.46-5.15,9.82-6.39,6.81-3.58,14.6-.05,17.85-8.86s-1.06-19.04-5.31-26.86c-.57-1.05-2.28-2.16-2.38-2.82-.42-2.9.75-8.5.34-12.04-.16-1.35-.91-2.18-1.08-3.28-.98-6.72,4.27-11.42,2.69-18.23-1.43-.44-1.43-.81,0-1.09,2.23-.52,3.46-9.18,4.11-11.42,1.02-3.48,2.49-6.9,3.52-10.38v-.03Z"/>
  <path class="st107" d="M590.69,261.88c10.82-2.62,21.14-2.06,30.7,3.92,5.97,3.74,10.65,7.81,13.3,14.51,2.1,5.33,3.86,17.04,3.29,22.58-.62,5.98-3.14,15.7-6.94,20.32-.79.96-4.7,3.62-4.82,3.91-.67,1.64.06,3.36-.09,4.77-.31,2.96-.85,5.97-1.2,8.93-2.04,1.62-4.5.82-6.58,1.33-2.82.69-5.42,2.68-8.58,2.05.25,8.15.51,16.07.79,24.26.17,5.15.45,5.82,1.27,10.49,1.06,6.06-1.99,8.73-2.27,13.7-.41,7.18.16,14.48.16,21.63,0,3.2-.93,6.95-.52,10.36.13,1.07,1.14.71,1.44,1.82.4,1.45.22,2.95.24,4.42,2.94-1.12,7.36-2.55,8.69,1.34-2.11,5.98-5.43,11.51-7.64,17.44-.39,1.06-.76,1.82-.51,3.03-.03-.14-.5-.43-.54-.88-.36-4.17,6.45-14.51,7.68-19.02-.92-4.35-5.46-1.88-8.23-.82,1.3-3.6-1.88-6.19-2.04-8.78-.49-8.09-.08-21.92.63-30.09.42-4.8,3.33-9.1,2.26-13.51-1.73-7.14-1.86-13.39-1.98-20.93-.08-4.89.4-9.79,0-14.69,2.89-.67,5.73-1.67,8.62-2.35,1.65-.39,5.45.14,6.41-1.77,1.52-3.05.75-9.84.79-13.27,6.34-2.72,8.72-8.57,10.34-14.85,3.12-12.06,1.98-31.75-7.88-40.56-11.76-10.51-21.72-10.53-36.79-9.28h0Z"/>
  <path class="st107" d="M537.8,521.36c.45-.58,4-7.03,4.9-5.99-.86,4.98,1.35,9.43,2.04,14.04,1.59,10.53,1.38,20.99,3.54,31.34.59,2.84,2.6,6.63,2.56,9.46-.03,2.07-3.65,1.12-5.14,1.32-2.65.35-5.94.79-6.2,3.94,1.78,4.29,3.22,8.7,5.11,12.94,2.46,5.53,5.87,10.36,8.55,15.44s5.33,11.03,7.94,16.37c-3.04,3.46-.8,8.02.43,11.78.42,1.28,2.28,4.63,2.35,5.31.03.33-2.79,4.57-3.29,5.79-.53,1.28-1.75,4.96-1.95,6.23-.24,1.5-.55,9.18-.26,10.34,1.44,5.76,9.48,5.01,13.49,7.79,3.31,2.29,6.06,7.38,8.71,10.37,2.43,2.73,8.03,7.88,11.87,7.51,2.64-.25,4.83-2.72,6.82-3.56,3.54-1.5,5.27.44,6.08-4.82.4-2.55.54-7.57.61-10.29.19-7.08-2.42-6.19-6.83-10.11-5.2-4.62-10.61-9.16-15.54-14.17l12.48,9.63c2.06,3.06,5.48,4.82,7.86,6.72,5.02,4.01,2.55,6.5,2.32,11.37-.15,3.16.88,9.03-1.96,11.28-1.17.93-3.21.25-4.45.82-.6.28-.69,1.15-1.36,1.48-4.82,2.34-7.27,3.38-12.31.56-5.97-3.35-9.9-12.33-15.3-16.59-1.31-1.03-5.9-1.42-7.83-2.26-3.43-1.48-5.38-3.02-5.65-6.93-.3-4.27.64-11.3,2.2-15.28.5-1.27,3.22-5.35,3.19-5.88-.14-2.17-3.19-6.95-3.68-9.39-.14-.71-.52-5.2-.46-5.87.13-1.43,1.48-1.44,1.54-1.82.3-1.7-4.46-8.63-5.58-10.71-5.6-10.43-10.26-20-14.76-31.03-.65-1.59-2.17-1.74-1.38-4.39.6-1.99,6.55-3.56,8.54-3.91.98-.17,3.07,1.04,2.81-.57-1.6-7.65-3.58-15.27-4.71-22.99.46-4.99-.05-11.2-.81-16.2-.7-4.62-3.15-8.84-2.13-13.96-1.69.76-2.3,3.63-3.28,4.63-.31.32-.97.18-1.08.28v-.02Z"/>
  <path class="st107" d="M532.9,153.95c-1.82,2.18-2.4,4.74-4.14,7.04s-7.79,8.46-10.28,9.89c-6.51,3.73-9.18,5.41-13.83,11.79-8.43,11.59-11.9,26.02-9.33,40.21-2.6-.34-2.43,6.24-1.96,7.95s3.01,4.98,3.96,6.94c1.74,3.57,3.75,6.93,5.47,10.34.36.71,2.31,6.02,2.28,6.45-.07,1.15-1.36,1.53-1.46,2.14-.37,2.35,5.63,2.22,7.07,2.6,3.47.91,6.24,2.87,10.23,2.04l-1.09,19.08-24.29,2.02-1.34-2.02s.49-.04.91.19c.18.1.17.88.53.92,2,.26,7.93-1.32,10.36-1.46,2.13-.12,4.92.5,6.98.36,1-.07,4.81-.44,5.41-.63,1.59-.5.74-7.01.9-8.91.11-1.33,1.55-8.02,1.09-8.46-3.1-.07-15.44-2.54-17.15-4.38-2-2.15.66-2.55.68-3.95.02-1.5-1.76-5.27-2.61-6.69-2.39-3.99-3.19-6.52-5.22-10.57-.73-1.46-3.1-3.74-3.79-5.47-.52-1.32-.53-5.96-.18-7.24.3-1.1,2.38-2.03,2.46-2.85.05-.5-.58-1.4-.61-2.19-.59-16.79,3.08-30.77,14.95-42.92,3.92-4.01,5.19-3.86,9.67-6.29,1.95-1.06,7.64-6.99,9.12-8.86,1.7-2.13,2.63-6.55,5.21-7.07h0Z"/>
  <path class="st107" d="M424.4,289.14c-6.36,12.24-9.66,38.52,5.62,45.35.79.35,3.4.8,3.57,1.06.73,1.12-1.66,11.41.58,13.87,2.18.72,3.97-.72,6.29-.88s4.49.52,6.84.57c-2.75,10.99.25,23.13-1.07,34.09-.22,1.86-1.48,2.45-2.04,3.95-1.4,3.73.26,4.55.79,7.6.95,5.43-.18,11.29-.43,16.75-.14,3.05.53,7.65.01,10.37-.26,1.36-1.3,1.55-1.88,2.5-.69,1.13.2,3.08-3.27,2.69-1.07-.12-2.74-2.35-3.86.02-.63,1.33,2.46,13.51,3.03,15.78-2.45.19-4.33,3.08-6,4.91-.19-1.96,4.02-5.12,4.23-5.79.12-.38-.38-7.41-.52-8-.22-.99-1.2-1.6-1.36-2.38-.09-.41-.24-5.33-.09-5.56,2.08-1.45,4.38.48,6.34-.43.73-.34,1.53-3.03,2.64-3.73-.58-9.03,1.86-19.25-.28-27.86-.32-2.74-1.25-5.34.07-8,.56-1.13,1.79-1.51,2.05-2.86,1.51-7.83-.87-20.82,0-29.44.18-1.81,1.99-3.16.17-3.96-7.13-3.11-12.69,6.77-13.26-5.27-.13-2.81-.15-5.76.57-8.46-18.71-4.01-16.65-31.57-10.54-45.15.42-.94.42-1.82,1.81-1.73h-.01Z"/>
  <path class="st107" d="M583.06,533.9c2.28,3.22,1.01,8.24,2.33,11.57,1.04,2.64,4.11,6.45,5.49,9.23.9,1.82,2.07,3.3,1.3,5.49l-5.3,11.86c3.57-.46,6.99.32,7.94,4.09-.97,3.71-3.1,7.09-4.4,10.65-.96,2.62-2.62,7.36-2.35,9.91.17,1.59,1.86,2.34.33,4.95-1.43,2.44-5.41,1.05-5.87,1.49-.16.15-.51,3.3-.85,4.33-1.45,4.28-4.44,7.87-3.57,12.76,1.11.24,1.61,1.03,2.22,1.43-2.68.44-3.25-.26-3.22-2.94.06-4.33,2.4-7.58,3.78-11.49.32-.92.94-4.45,1.12-4.6.45-.38,5.03.66,5.85-2.07.62-2.05-1.26-5.55-.32-7.94l6.31-16.59c-1.46-3.74-5.09-3.67-8.62-3.44l3.91-7.26,2.67-6.65-7.44-13.31c-.45-3.83-.96-7.64-1.33-11.48h.02Z"/>
  <path class="st85" d="M563.43,146.31c1.41-.61,1.66.1.55,1.09-.15.07-.39-.07-.55,0-4.38,2.62-9,4.74-14.19,3.74l-2.16,1.16c-.36.43-.41.92-.55,1.09l-2.18,2.18c-.53.24-1.04.48-1.64.55,1.16-2.72,4.26-4.23,4.9-5.73.29-.67-.12-1.02-.8-.8-1.23.39-4.73,2.85-5.85,3.81-1.29,1.1-1.83,2.72-3.7,3.82-1.35-.49-.8-1.4,1.64-2.73.27-.38.29-.99.71-1.46,2.77-3.04,8.08-3.79,10.2-7.27,1.44-4.09,2.35-8.27,2.73-12.54.13-.49.47-.84.55-1.09.41-.84.77-1.02,1.09-.55-1.21,4.72-1.41,10.22-3.4,14.87-.36.85-1.68,1.53-1.51,2.3,4.09,3.48,9.98-.54,14.18-2.44h-.02Z"/>
  <path class="st107" d="M581.42,499.01c1.09,2.83,2.21,5.72,3.14,8.61.44,1.36-.44,2.92,2.05,2.78,1.64-.09,2.18-1.48,3.41-1.97,6.16-2.46,13.16-3.5,19.75-4.24,1.73-.8.57-2.66,0-4.09,1.51.93,2.45,3.75.41,4.5-6.72,1.08-13.92,2.17-20.17,4.91-1.17.51-1.94,1.99-3.41,2-3,.01-2.92-4.17-3.58-6.19-.24-.74-.88-2.74-1.59-3.03-.06,4.56,1.36,9.51,1.65,13.88.24,3.55-.2,7.36-.04,10.94.09,1.96,1.42,4.49.02,6.25-.88-9.43-2.56-23.63-2.18-32.71-.45-.8-.48-2.07.55-1.64h-.01Z"/>
  <path class="st107" d="M534.53,524.08c.85-.68,1.96-1.45,2.73-2.18-.87,1.63-3.26,4.4-4.73,5.36-1.39.91-2.32,1.66-4.16,1.09l-14-15.71c.38,5.12-.1,10.38.07,15.47.12,3.69,1.4,8.42,1.06,12.09-.16,1.71-1.12,2.54-1.19,3.78-.25,4.1,2.34,10.11.72,14.3-.29.76-1.2,1.41-1.51,2.31-1.1,3.19-.42,7.45-2.98,10.37,1.85.74,4.12-.23,5.69,0,3.67.52,2.25,7.43-.24,8.74.47-2.22,2.62-4.31,1.12-6.84-1.33-2.25-4.79-.18-7.12-.79-.05-.6,0-1.18.13-1.78.86-3.9,3.77-9.84,4.25-13.74.58-4.64-1.03-9.06-.98-13.23.01-1.06,1.41-1.37,1.56-3.13.4-4.56-1.54-13.81-1.64-19.14-.02-1.1.55-2.1.54-3.21-.01-2.32-.89-4.69-.05-7.36l14.72,17.2c2.12,1.13,4.79-2.62,5.99-3.57l.02-.03Z"/>
  <path class="st107" d="M665.38,128.87c6.99,3.02,5.28,8.36-2.18,7.64-.23.9.94.22,1.09.89.4,1.73-.05,4.12,0,5.86.03.87.87,1.62.88,2.24.02,1.87-3.09,7.5-4.68,8.75s-4.89,1.52-5.63,3.09c-.98,2.09-.19,4.23-.45,6.05-.29,2.06-1.12,4.32-1.37,6.19-.6,4.53-.08,8.45-1.72,13.12-1.52,4.31-7.24,2.53-7.76-1.49,2.28,2.78,4.85,5.35,7.13.86,1.88-8.37,2.1-17.03,3.24-25.53,3.98-2.42,6.12-1.66,8.62-6.22,2.16-3.95,1.99-10.58-.45-14.34,2.32-.96,5.84,1.1,6.74-2.3.65-2.43-2.11-2.76-3.32-3.87-.26-.24-.08-.87-.15-.93h.01Z"/>
  <path class="st107" d="M642.49,179.57c-5.76-5.35-12.59-.1-18.43,2.02-3.59,1.3-8.1,3.19-11.96,3.85-3.55.61-8.39,1.19-11.59-.42.35-.58,1.07-.58,2.18,0,12.54,2.01,22.25-7.35,32.48-8.67,2.53-.33,5.02-.15,6.76,1.9.5.59.48,1.24.56,1.32h0Z"/>
  <path class="st107" d="M562.88,195.92c1.96,7.22.08,14.28-1.14,21.48-.45,2.63-.25,3.05-.45,5.51-.41,4.99-3.35,9.8-4.68,14.43-.89,3.11-1.21,7.08-2.15,10.39-.55,1.92-3.27,7.56-2.76,8.68.58,1.26,2.09,1.36,1.27,4.01-1.08,3.51-13.52,2.16-16.8,2.02v17.99l23.68-.02,5.21,1.65c-.63-1.64.92-2.36,1.09-2.72-.06.81-.6,4.36-1.36,4.35-2.56-3.75-5.91-2.05-9.27-2.11-6.87-.14-13.58-.33-20.45-.6l.8-19.11c.79-.88,2.03.03,3.27.05,2.7.06,9.88.49,11.73-.86,3.49-2.53.04-4.17,0-4.45-.3-1.79,2.41-7.22,2.99-9.47.77-2.94,1.06-6.35,1.96-9.48,1.04-3.61,4.81-11.77,4.86-14.83.02-1.29-1.06-1.86-1.07-2.65,0-.7,1.14-1.9,1.39-2.97,1.66-6.99,2.26-14.44,1.87-21.29h.01Z"/>
  <path class="st107" d="M625.58,125.6c-1.48-1.26-5.03-2.38-6.21-3.22-.54-.39-.05-1.27-.7-1.69-2.74-1.79-8.19-1.66-11.32-1.05-4.2.83-8,4.05-12.3,4.88.53,1.18,2.68,1.29,2.71,2.98,0,.51-1.58,3.89-1.99,4.14-2.81,1.79-9.78,1.54-13.1,3.12-.73.35-6.82,3.78-7.12,4.06-.65.61-1.04,2.82-2.17,3.7s-4.23,2.24-5.6,2.71c.01-.58.56-1.12,1.64-1.64,4.31-2.03,3.1-2.85,5.48-5.15.33-.32,7.12-4.46,7.76-4.78,2.53-1.24,14.57-1.16,13.95-5.48-.24-1.68-1.78-2.43-3.2-2.85,5.93-3.93,14.56-8.07,21.84-6.58,3.05.62,8.21,4.53,10.33,6.85h0Z"/>
  <path class="st107" d="M590.14,261.88c-4.05,2.33-8.73,3.62-12.71,6.1-3.83,2.38-7.65,6.99-10.73,10.26,3.81-7.13,15.09-15.53,23.44-16.35h0Z"/>
  <path class="st107" d="M472.38,538.8c-.41,6.73-3.88,12.95-4.21,19.84,3.97,4.91,6.46,10.46,9.11,16.14-2.89,1.22-8.54-1.05-7.6,3.5.71,3.4,7.9,16.17,10.04,19.95,1.16,2.05,2.72,3.26,3.55,5.45-3.36-2.07-6.72-10.01-8.3-13.8-.31-.75-1.18-.76-1.49-1.36-1.93-3.73-3.51-7.67-5.38-11.42-.08-3.67,5.7-2.46,8.07-2.86-2.39-3.56-3.26-8.12-5.99-11.73-.48-.63-1.62-.88-2.14-1.68-2.57-4.05,3.29-17.29,4.31-22.02h.03Z"/>
  <path class="st107" d="M477.28,271.15c-16.8-4.72-33.66-4.64-46.08,9.26-2.12,2.37-3.42,5.89-6.26,7.64,10.35-18.37,28.47-23.96,48.66-18.94,1.42.35,2.7.93,3.68,2.05h0Z"/>
  <path class="st107" d="M448.39,476.11c1.02-.15,2.11-.03,2.74-.21,3.6-1.03,5.45-11.54,7.62-14.5.19,2.3-2.99,10.74-4.45,12.72-1.55,2.11-3.35,3.95-5.91,2h0Z"/>
  <path class="st107" d="M458.2,471.21c-2.11,3.24-2.69,5.68,2.18,5.45.66.62-2.64,4.75-3.18,5.82-1.93,3.8-6.44,13.8-7.48,17.6-1.39,5.11,2.83,3.07,5.48,3.25,1.88.12,10.84,1.32,11.7.89,1.31-.65,1.2-4.11,1.77-5.9.69-2.19,2.2-4.27,3.15-6.39l1.08-.54c-.08,1.73.13,3.5.03,5.23-.04.72-.57,1.24-.57,1.32v-4.36c-.52-.71-3.37,5.68-3.58,6.51-.53,2.07.57,4.98-2.19,5.5-1.59.3-1.28-.91-1.58-.98-4.1-.85-10.15.61-14.17-.14-4.69-.88-1.26-4.97-.46-6.97,2.63-6.58,4.56-13.77,8.89-19.45-5.36-2.9-4.39-3.16-1.08-6.81v-.03Z"/>
  <path class="st107" d="M638.12,92.35c-3.35-1.72-6.42,1.05-9.57,1.11-2.91.06-7.37-1.04-10.06-1.11,1.32-.59,3.85-.32,5.37-.24s3.42.69,4.65.61c3.63-.23,6.2-3.77,9.61-.37Z"/>
  <path class="st107" d="M617.95,92.35c-5.35.02-13.85,1.52-19.08,3.27,5.72-3.31,12.55-4.07,19.08-3.27Z"/>
  <path class="st107" d="M493.64,279.87c-4.46-3.46-9.69-5.67-14.72-8.18,6.67,2.07,9.77,3.16,14.72,8.18Z"/>
  <path class="st107" d="M602.14,177.93c1.89-1.82,4.23-4.77,6.41-6.55.75-.61,4.45-2.2,4.44-2.98-1.77-1.83-2.09-4.49-2.99-6.77-.62-1.57-1.86-.6-.77-3.32l4.3,10.51c-.19.77-5.22,4.07-6.43,5.08-1.45,1.21-2.56,3.47-4.96,4.03h0Z"/>
  <path class="st107" d="M563.43,147.4c-1.58,1.75-6.84,3.79-9.13,4.24-2.6.51-4.61-1.02-7.23.67,2.59-3.11,3.92-.68,6.67-1.19,2.12-.39,7.49-2.71,9.68-3.72h.01Z"/>
  <path class="st107" d="M628.31,147.4c-.52,5.32,4.63,3.55,8.18,3.82-.48,1.6-2.3,1.27-3.27,1.63-2.66-1.59-7.89-.53-4.91-5.45h0Z"/>
  <path class="st107" d="M583.06,99.43c-1.09-.09-2.13.03-3.17.37-2.27.74-5.83,4.54-7.74,6.17.83-.69,1.23-2.6,1.78-3.13.42-.4,1.31-.4,1.7-.76,2.16-2.01,3.92-4.78,7.43-2.65h0Z"/>
  <path class="st107" d="M472.38,538.26c-.64-2.79-.88-6.77-.88-9.63,0-1.36.22-3.9.88-5.09-.04,4.89.28,9.83,0,14.72h0Z"/>
  <path class="st107" d="M580.88,622.21c.13.09.86-.18,1.03.04.75.97-2.31,11.17-2.07,14.32.33,4.37.94,2.93,3.22,5.27-5.86-1.39-3.92-7.74-3.1-12.09.47-2.52,2.21-5.16.92-7.53h0Z"/>
  <path class="st107" d="M561.79,116.33c-3.49,5.38-5.99,8.85-7.63,15.26l-1.09.55c1.84-6.26,3.48-9.14,7.05-14.51.46-.69.58-1.55,1.67-1.3h0Z"/>
  <path class="st107" d="M638.12,96.71c.41,1.07-3.08,2.95-2.72,3.26,1.69,1.47,4.4,2.06,5.94,3.06,4.8,3.11,9.95,8.64,13.14,13.3-5.43-4.49-9.55-11.52-16.51-13.63-.82-1.31-2.06-2.16-3.66-2.18-.73-.8,3.23-3.15,3.82-3.81h-.01Z"/>
  <path class="st107" d="M472.38,522.99c-.97-3.17-.59-7.26-.55-10.64,0-.92-.35-2.42.55-2.99-.04,4.54.03,9.09,0,13.63Z"/>
  <path class="st107" d="M601.59,178.48c-1.01,2.57-2.63,1.97-1.64,4.91.86.74.86,1.1,0,1.09-.16-.13-1.05.02-1.39-.5-.75-1.16.51-3.8,1.38-4.71.63-.66,1.56-.69,1.65-.78h0Z"/>
  <path class="st107" d="M533.99,153.95c3.01.33,1.31,2.72,4.91.55-.61.87-1.54,1.57-1.64,2.73-.25.15-.96.66-1.08.55-.06-1.62-1.38-2.57-2.19-3.82h0Z"/>
  <path class="st107" d="M627.22,487.02c-1.29,1.25-3.59.12-5.09.63-.78.26-1.26,1.83-1.99,2.64-.47-4.72,4.48-3.18,7.09-3.27h-.01Z"/>
  <path class="st107" d="M626.13,126.14c1.21,0,1.48.7,2.1,1.46,1.18,1.45,2.28,3.46,2.25,5.35-.05,2.89-2.09,5.9-.54,8.99-2.61-2.22-.17-5.67-.06-8.5.09-2.43-2.16-5.47-3.76-7.31h.01Z"/>
  <path class="st107" d="M472.38,508.82c-1.55-.49-.72-1.24-.72-2.07,0-2.61-.23-5.86.72-8.29-.14,3.43.04,6.92,0,10.36Z"/>
  <path class="st107" d="M538.35,162.12c1.94,1.72,4.49,5.98,6.18,7.45,1.57,1.35,4.98,1.92,5.26,5.09-2.05-2.09-4.39-3.53-6.28-5.44-1.49-1.5-4.93-5.29-5.17-7.1h.01Z"/>
  <path class="st107" d="M611.41,494.1c-1.34.49-2.16.82-3.82.55.96,1.38,1.91,2.51,1.64,4.36-.69-1.4-1.56-2.29-2.18-3.27-1.77-2.51,1.07-3.98,2.73-2.18,1.24-.32,1.79-.14,1.64.55h-.01Z"/>
  <path class="st107" d="M423.31,472.84c-.6.86-.54,1.13-1.9,1.13-3.84,0-2.6-2.43-3.03-4.56-.05-.25-3.1-3.63-3.17-4.01-.24-1.22,1.1-1.79,1.55-2.38-1.51,2.71,1.01,3.43,1.76,5.59,1.04,3-.22,5.97,4.78,4.22h.01Z"/>
  <path class="st41" d="M569.43,143.59l-1.64,1.64c-2.97,1.02-2.26,1.42-3.82,2.18l-.55-1.09c1.92-.87,4.04-1.8,6-2.73h.01Z"/>
  <path class="st107" d="M664.84,128.32c-1.85-1.75-1.96-1.44-3.82-3.82,1.44,1.31,4.16,1.4,3.82,3.82Z"/>
  <path class="st107" d="M551.43,176.3c2.64,1.21,5.03,4.23,5.45,7.09-1.74-2.29-3.62-4.97-5.45-7.09Z"/>
  <path class="st107" d="M616.86,153.95c0,.6-.25,1.41-.74,2.44.48,3.02-.01,2.86-2.53,1.38-.22-.33-.34-.75-.55-1.09.5.07,1.56.6,1.62.55.12-.1.63-2.38,1.07-2.93.49-.6.98-.25,1.13-.35h0Z"/>
  <path class="st107" d="M631.58,153.4c-3.54,1.1-3.64,1.1-7.09,1.09l7.09-1.09Z"/>
  <path class="st107" d="M428.21,470.12c-.36.72-.79,1.12-1.09,1.64-.22-2.92-1.1.66-2.73,0,1.26-1.2,1.83-1.7,3.27-2.73.72-.6.9-.24.55,1.09Z"/>
  <path class="st107" d="M623.95,154.49c-1.01-.02-2.57-.02-3.82,0-1.58-.03-2.31-.4-2.18-1.09.16-.04.24-.66,1.2-.47,1.19.23,3.37,1.28,4.8,1.56Z"/>
  <path class="st107" d="M421.12,459.21c1.14-1.99,3.23-2.97,4.91-4.36-.28,2.19-3.42,3.24-4.91,4.36Z"/>
  <path class="st107" d="M626.13,477.75c-.88-.32-1.25-1.08-1.76-1.78-2.33-3.24-3.95-7.07-5.96-10.4-1.36-2.24-3.73-4.5-4.27-7.44,4.15,6.22,8.65,12.8,11.99,19.62h0Z"/>
  <path class="st107" d="M549.8,145.77c-.39-2.77,1.45-5.41,1.95-7.59.4-1.75.27-3.06.77-4.95.17,3.46-.89,9.52-2.73,12.54h0Z"/>
  <path class="st107" d="M435.85,484.29c1.92,1.58,4.82-1.11,6.54.55-1.42.14-5.2.75-6.16.45-1.59-.49-1.27-2.33-1.54-2.56-.13-.1-2.54-.47-3.2-.62l3.27-1.09c.65.52,1.01,1.61,1.09,3.27h0Z"/>
  <path class="st107" d="M597.78,96.16c-1.2.41-4.14,1.63-5.45,2.18,1.45-1.35,3.5-2.02,5.45-2.18Z"/>
  <path class="st107" d="M429.85,481.56c-.11,1.28-3.67.73-4.57.46-1.02-.31-.68-1.28-.88-1.55,1.68,1.53,3.77.75,5.45,1.09Z"/>
  <path class="st107" d="M654.48,116.88c1.49-.3,1.33.11,1.99,1,.99,1.33,1.87,3,2.92,4.45-1.74-.76-3.82-3.82-4.91-5.45Z"/>
  <path class="st107" d="M542.16,158.31c-.49,1.29-.87,3.1-2.44,3.27l-.28-.55c1.1-.99,1-2.77,2.73-2.73h0Z"/>
  <path class="st107" d="M446.21,482.65c.03-1.39-.43-6.18.55-6.54,0,2.09.73,4.65-.55,6.54Z"/>
  <path class="st107" d="M627.76,487.02c3.24-1.83.53-4.15-.55-6.54,2.33,1.74,4.72,5.97.55,6.54Z"/>
  <path class="st51" d="M613.59,492.47c-.41.91-1.31,1.32-2.18,1.64l-1.64-.55c-.27-1.08.64-1.45,2.73-1.09.33-.07.77.07,1.09,0h0Z"/>
  <path class="st49" d="M620.13,154.49c-4.13.07-4.54,1.19-2.73,4.9-1.56-.04-2.92-.31-3.82-1.63l2.18.54c-.18-1.63.22-3.01,1.09-4.36.28-.17.81-.46,1.09-.55l2.18,1.09h0Z"/>
  <path class="st110" d="M565.06,111.97c-.27.32.15,1.15-1.64,2.73v-.55c.29-.45.05-.87,1.09-2.18h.55Z"/>
  <path class="st107" d="M423.85,479.93c-1.11-2.93.2-2.68,1.09-4.36l-1.09,4.36Z"/>
  <path class="st107" d="M562.88,195.37c-.84-4.34-3.41-7.04-4.91-10.9,2.74,3.67,4.77,6.07,4.91,10.9Z"/>
  <path class="st107" d="M446.21,483.74c0,.21.54.94-.05,1.59-.99.06-2.64.42-3.22-.5,1.38-.12,2.59.55,3.27-1.09h0Z"/>
  <path class="st107" d="M571.61,106.52c-1.07.95-1.91,1.49-2.73,2.18.88-1.19.9-2.65,2.73-2.18Z"/>
  <path class="st107" d="M567.79,109.79c-.74.63-2.26,1.63-2.73,2.18h-.55c.93-1.17,1.45-2.41,3.27-2.18h0Z"/>
  <path class="st107" d="M619.04,491.38c-1.49.85-2.79.77-4.36,1.09.99-1.4,2.87-1.11,4.36-1.09Z"/>
  <path class="st107" d="M628.85,146.86c.21-1.8,3.13-2.01,1.64-4.36.25.16,1.07.04,1.38.52.93,1.26-2.23,2.95-3.01,3.84h-.01Z"/>
  <path class="st45" d="M602.68,185.02c-.67-.11-1.48.07-2.18,0-.18-.09-.35-.39-.55-.55-.06-.34.09-.82,0-1.09l2.73,1.64Z"/>
  <path class="st107" d="M546.53,153.4c-1.14,1.43-.4,1.39-2.18,2.18.06-1.27.89-2.11,2.18-2.18Z"/>
  <path class="st107" d="M638.67,96.16v-3.27c.74,1.53.96,1.69,0,3.27Z"/>
  <path class="st107" d="M588.51,99.98c-.16.09-.32.41-.55.55l-1.55.44c-1.59,1.27-2.34,1.31-2.26.11-.13-.35-.35-.77-.55-1.09h4.91Z"/>
  <path class="st107" d="M429.85,451.58c.1-.13-.07-.89,1.09-2.18l-1.09,2.18Z"/>
  <path class="st107" d="M563.43,114.7c-.44.39-.55,1.24-1.64,1.09.57-.88,1.46-1.37,1.64-1.64v.55Z"/>
  <path class="st107" d="M425.49,475.02c.31-.54.54-1.24,1.09-2.18l-1.09,2.18Z"/>
  <path class="st80" d="M561.68,284.89c.52.99,1.01,2.01,1.76,2.87,1.54,1.76,4.39,5.14,5.96,6.57,3.6,3.3,10.64,5.46,13.92,8.98,2.57,2.76.42,10.19.33,13.96-.18,7.87.55,16.01.51,23.9-.01,2.48.37,3.88-1.11,6.02-2.99,4.32-10.22,9.44-13.1,14.16-2.21,3.61-1.04,13.91-1.22,18.53-.15,3.63-.88,7.91-.96,11.44-.23,10,.9,19.8.31,29.76-.44.66-.81.38-1.39.3-2.12-.27-3.99-.77-6.23-.88-20.57-.97-42.1.32-62.76,1.07-4.42.16-8.76,1.51-13.34.57-.17-12.99.23-26.02.02-39.01-.04-2.53-.55-5.17-.61-7.59-.1-3.75,1.35-10.35-.73-13.4-.77-1.12-5.58-5.24-6.89-6.2-1.14-.83-4.41-1.76-4.78-2.84-.41-1.2.07-6-.11-8.07-1-11.22-2.46-22.77-3.81-33.8-.71-5.83,1.58-4.16,4.89-6.6,1.55-1.14,2.13-2.7,3.77-3.86,3.66-2.61,10.13-4.02,13.69-7.02,1.52-1.29,7.12-8.39,8.15-8.73,21.17-2.64,42.43.22,63.73-.13h0Z"/>
  <path class="st127" d="M528.53,522.99c-2.48-3.69-6.43-7.09-9.27-10.63-1.58-1.97-12.14-15.85-12.28-16.88-.26-1.85,1.14-4.34,1.34-6.06,1.76-15.52.3-30.94,1.11-46.31.16-2.94,1.27-18.28,2.83-19.25.54-.34,11.16-1.05,12.74-1.16,4.75-.33,9.56.12,14.31-.73.87.3,2.3,4.05,2.86,5.09.79,1.54.98,2.82.56,3.82l-.02,10.35c.37,3.32.79,7.17,0,10.36.44.89.44,1.82,0,2.73.96,1.09.77,3.85.55,5.45.38,7.25.38,14.52,0,21.8l.57.68-.02-4.5c-.59-6.15-.36-12.37,0-18.53-.68-6.29-.99-12.72-.55-19.08-.74-1.24-.89-9.94-.5-10.29.59-.22,1.12.12,1.59,1.02,3.46,8.57,2.66,24.39,3.2,34.11.52,9.48.94,19.26,1.72,28.85.16,1.98,1.38,4.69,1.09,6.52s-3.21,3.14-4.37,4.4c-1.82,1.98-2.82,4.98-4.35,6.95-3.09,3.95-6.82,7.65-10.37,11.31-.73,1.66-2,1.66-2.73,0v-.02Z"/>
  <path class="st80" d="M586.88,329.47c.13-8.98-.37-18.05.58-26.9l-15.26-9.95c-4.75-4.37-6.9-5.31-3.72-11.8,3.37-6.88,18.23-14.95,25.76-15.68,12.35-1.2,21.83.99,31.09,9.25,10.03,8.96,11.56,39.96-.1,47.89-3.83,2.61-19.2,6.94-24.02,7.51-3.95.47-10.05-2.39-14.32-.34v.02Z"/>
  <path class="st80" d="M492.36,287.31c-5.51,6.51-11.33,7.01-17.44,11.18-1.4.96-2.34,2.4-3.68,3.41-3.82,2.87-6.77,2.38-6.53,8.23.1,2.46,1.36,4.12,1.64,6.03.6,4.06-.17,9.51.52,13.81-3.36.39-6.57,2.32-9.74,3.07-4.91,1.16-17.26.24-22.64-.29-8.17-.81-12.03-9.3-12.71-16.62-1.23-13.17,2.65-23.51,11.06-33.53,13.16-15.68,42.52-13.58,57.48-1.85,2.62,2.05,4.59,3.56,2.04,6.58v-.02Z"/>
  <path class="st27" d="M491.14,461.07c1.28-1.54,5.3-4.81,5.74-5.44,2.02-2.92,3.74-9.77,6.78-12.84l3.61-7.02c.46,3.19-.38,6.6-.49,9.59-.52,14.32.11,28.55-1.15,43-.24,2.74-1.48,5.26-1.11,8.21.42,3.33,6.13,6.99,6.4,9.86.08.84-.43,2.06-.41,3.18.09,6.59-.36,14.34.09,20.68.17,2.41,1.6,6.19,1.54,8.31s-4.11.28-5.74.2c-9.84-.49-20.31,1.38-30.19,1.95l-1.03-.67c.14-12.68-.45-25.43-.1-38.1.09-3.4.61-19.62,1.97-21.47.49-.67,1.51-.84,2.12-1.7,4.12-5.86,7.11-11.88,11.97-17.74h0Z"/>
  <path class="st27" d="M581.42,544.25c-10.11-3.57-20.7-2.81-31.24-2.81-2.28-1-1.21-3.58-1.53-5.57-1.01-6.24-5.22-23.16-2.36-28.11,2.03-3.53,5.84-4.13,6.04-8.56.27-5.95-1.67-14.87-2-21.15-.64-12.08-.21-24.33-1.06-36.27l1.64.81c2.86,5.15,5.18,10.62,7.35,16.1,1.2,1.31,3.12-1.05,4.04.85,2.11,5.64,5.21,10.93,7.53,16.46.68,1.63.59,4.94,2.36,5.83.57.29,1.31-.31,1.88.24.6.58,2.02,4.46,2.21,5.46,3.05,15.34,2.68,33.17,4.07,48.81.23,2.61,1.31,5.22,1.08,7.91h-.01Z"/>
  <path class="st93" d="M591.78,465.21c-1.42-2.24-5.45-7.39-5.99-9.55-.08-.33,2.56-.23,1.34-3.51-1.02-2.74-6.01-8.76-7.79-11.84-1.17-2.03-9.25-15.84-9.17-16.79.04-.44.9-1.03.93-2.16.36-13.71-.13-26.85.53-40.89.2-4.18-.76-13.88.86-17.14,2.56-5.16,9.44-10.72,13.55-14.81.58-.58.55-1.79,1.2-2.19.79-.5,6.89-1.43,7.28-1.04l2.18,87.22c-11.5-.15-5.91,4.47-3.8,10.06s1.06,16.13-.02,22.1c-.25,1.2-.61,1.38-1.09.55h-.01Z"/>
  <path class="st80" d="M528.53,167.03l3.45-2.92c1.13,1.44,2.16,2.41,3.09,2.92.02-.18-.02-.37,0-.55.25-.43.61-.06,1.09,1.09,2.6,5.41,11.38,10.69,15.27,15.53,5.24,6.54,7.16,14.07,6.53,22.35-.17,2.24-2.06,12.18-3.23,13.54-.29.33-3.12,1.42-3.58,1.42-2.85.03-8.51-5.92-10.63-7.87-1.05-.97-2.73-1.72-3.63-2.63-1.44-1.46-4.25-7.17-6.45-6.94-1.29.13-1.57,1.76-2.44,2.52-4.84,4.2-9.5,6.55-14.7,9.84-3.76,2.37-6.75,5.63-11.48,7.06-.91.28-1.8.33-2.74.26-.79-10.18-.18-20.42,4.27-29.81,2.1-4.44,8.95-13.67,13-16.44,1.89-1.3,4.52-1.93,6.45-3.36,2.05-1.52,3.89-4.42,5.73-6h0Z"/>
  <path class="st80" d="M549.8,223.18c.87.21,1.76.41,2.64.6,1.39.29,4.74,1.4,1.95,1.77-.24.03-.5-.06-.77-.18-4.83.97-6.64,4.43-.45,4.91l-.09,2.17c-2.36,8.03-5.55,16.27-6.54,24.53-2.45.1-4.94-.14-7.38-.03-6.93.31-15.39.6-22.32.02-1.51-.13-5.98-.86-7.05-1.67-1.18-.9-2.15-7.67-2.92-9.62-1.05-2.66-4.67-8.5-6.12-11.05-.64-1.31-1.09-3.11.58-2.18,4.04.27,4.13-5.69-.04-4.36.09.83-.38,1.74-1.09,2.18-.13,4.21-3.74-2.8-2.39-4.07,2.29-.24,4.55-.7,6.75-1.38,5.38-1.82,13.23-6.63,17.96-10.12,1.43-1.05,7.48-7.19,8.01-7.28,1.35-.24,3.3,3.85,4.29,4.86,3.74,3.78,10.1,9.12,14.99,10.91h-.01Z"/>
  <path class="st80" d="M509.45,542.07c-.28,4.69,1.76,9.18,1.05,13.87-.79,5.28-4.48,12.31-5.29,17.06-.47,2.77-.02,6.06-.91,8.9l-14.67,3.19c-2.58-3.35-4.38-7.32-6.66-10.83-2.81-4.31-4.11-5.97-6.68-10.77-.78-1.45-4.24-5.59-4.36-6.01-.33-1.11,1.78-12.53,2.34-13.25,1.06-1.36,11.44-.93,13.63-1.09,1.52-.11,3.1-.85,4.53-.92,5.63-.29,11.36-.1,17.02-.16h0Z"/>
  <path class="st80" d="M582.96,548.17c.27.31.09,1.45.36,2.07.88,1.99,4.11,7.12,3.88,8.75-1.4,9.9-11.94,18-13.96,27.79-4.62-1.46-9.05.28-13.66.32-.76-.57-.93-5.02-1.31-6.33-1.82-6.31-4.16-12.48-5.59-18.94-.46-2.08-3.51-16.93-2.88-17.57,4.49-.32,9.03.31,13.43.47,3.55.13,6.4-.56,10.15.21,1.07.22,9.25,2.85,9.58,3.24h0Z"/>
  <path class="st80" d="M585.42,650.37c3.86,3.32,7.88,6.73,11.69,10,.95.82,4.16,2.38,4.4,3.08.12.36.68,6.7.68,7.55,0,1.77-.94,3.73-.64,5.67-7.31.95-7.22,7.57-14.41,1.7-6.61-5.4-7.88-12.36-16.96-16.3-2.55-1.11-7.01-1.05-7.72-4.28-.5-2.25-.19-8.46.48-10.73.16-.56,2.45-5.58,2.71-5.76s1.23.48,1.78.38c1.05-.18,1.83-1.12,3.08-1.28.65-.08,5.01.39,5.46.6.4.19,2.57,3.25,3.52,4.11,1.92,1.73,4.03,3.63,5.92,5.25h0Z"/>
  <path class="st80" d="M572.7,434.14c.91.88,1.36,2.05,1.64,3.27,1.44,2.79,2.17,5.1,3.27,7.63l.11.73c-2.74,1.45-2.52,3.53-1.2,5.81-2.95,1.87-9.45,4.4-12.54,2.18l-.73-.34c.59-2.17.21-7.82-2.54-4.57.56.76-.49,2.93-1.09,3.82-.27.55-.63.36-1.09-.55-2.75-6.69-6.06-11.35-9-17.44-.54-1.12-.62-3.19-1.09-3.81-.43-.57-1.55-.52-2.17-1.11-.74-.7-3.76-6.74-2.39-7.55l23.4.7c1.53,3.87,3.56,7.52,5.42,11.22h0Z"/>
  <path class="st80" d="M508.91,423.78c.78.79-3.22,9.07-3.89,10.55-2.61,5.74-5.59,10.43-8.75,15.78-1.42,2.4-.3,3.91-3.92,3.6-5.68-.48-10.89-4.64-16.47-5.93-.86-1.09,8.37-19.56,7.41-22.92l25.62-1.09h0Z"/>
  <path class="st80" d="M499.09,586.23c2.58-.42,5.5-.15,8.04-.67,1.02-.91.78-8.3,1.22-10.24l4.91.55c-.28.82-.3,1.99-.55,2.72-.78,2.35-1.22,4.12-1.9,6.55-1.32,4.7-3.37,9.29-4.09,14.17l-20.17,1.09c-.95-.55-3.3-3.49-3.92-4.53-1.69-2.82-4.26-8.07-5.73-11.17-.38-.8-2.22-5.09-1.8-5.56,1.45.41,4.51-2,5.45-1.4.3.19,3.5,4.98,4.04,5.81.91,1.4,1.92,5.29,3.55,5.73,2.56.69,2.36-.82,4.09-1.46,1.56-.57,5.14-1.31,6.86-1.59h0Z"/>
  <path class="st80" d="M552.49,575.37c.23,2.7,1.8,5.07,2.53,7.56.78,2.68-.12,7.84,3.77,8.25,2.87.3,5.67-1.45,9.31-1.15,2.48.2,5,2.31,6.8,1.39,1.09-.56,3.08-7.71,4.06-9.57.43-.82,3.1-4.87,3.57-5.17.55-.35,5.46.26,6.01.55.87.45.26.7.08,1.19-1.85,4.99-4.97,10.75-5.8,15.92-.16.99.69,2.46.02,3.39-1.36,1.92-7.86-.01-9.86-.09-3.3-.12-8.08-.12-11.47.03-3.68.16-6.39,2.67-8.55-1.77-.6-1.23-.62-2.86-1.25-4.2-2.33-4.98-4.89-9.8-6.82-14.99-.05-.67,6.58-1.4,7.61-1.33h-.01Z"/>
  <path class="st80" d="M585.24,500.64c-.74-2.27-1.28-4.58-2.17-6.82s-6.43-12.17-5.97-13.55c.52-1.57,12.94-2.99,14.85-2.42,1.15.34,3.54,5.87,4.54,7.45,3.39,5.3,7.66,9.6,10.56,15.34,1.7,1.71-4.2,1.6-4.41,1.4,2.37-6.65-4.72-6.32-2,.22l-1.23.56c-1.08.14-1.88.41-2.73.55l-6.89,1.59-.44-1.46c.83-3.23.46-4.38-1.13-3.45-.86,2.29-1.52,2.95-2.99.59h0Z"/>
  <path class="st80" d="M589.05,466.3l.46,1.59c-2.37,1.14-3.07,7.75-.16,3.74l1.34-.43c.16-1.41.7-1.35,1.09,0,.24.43,3.57,3.3,2.19,4.1-3.29-.15-5.49-.17-8.73.26-3.47-.05-6.7.64-9.67,2.07l-.38-.76c1.78-3.14-.44-6-3.71-4.15l-1.5-2.06c-1.68-3.96-3.5-8.03-4.91-11.99,4.19.85,15-5.2,18.05-3.56.41.22.24,1.8.61,2.57,1.43,3,3.58,5.81,5.34,8.62h-.02Z"/>
  <path class="st80" d="M464.74,467.94c2.55-3.74,7.05-9.38,8.94-13.14.63-1.26.74-3.63.87-3.77,1.18-1.19,14.13,6.08,16.9,5.46.23.84-.23.91-.54,1.36-4.17,6.09-10.68,10.98-13.63,18.26-1.6,1.68-4.04.33-1.7-2.13,1.27-1.75-1.43-4.16-1.84-1.76.24,3.62.23,4.01-3.54,3.34-.91-.18-1.8-.37-2.73-.55-2.14-.16-2.31-1.26-.51-3.3l-.04-.97c-2.39-.03-3.64-.29-2.18-2.82v.02Z"/>
  <path class="st80" d="M435.84,335.47c2.26.07,4.55-.11,6.81,0,3.04.16,7.43,1.23,10.34,1.11,4.49-.19,10.06-3.23,14.47-4.38l1.5,13.92c-.3,1.67-4.36.26-5.56.23-6.6-.18-12.6-.66-19.09-1.09-1.58-.1-6.7.62-7.04.52-1.4-.4-.91-8.46-1.43-10.32h0Z"/>
  <path class="st80" d="M607.04,375.26c-3.61-1.14-6.05-1.27-9.26,1.09l-.55-31.62c1.16-.07,2.38.14,3.54,0,1.44-.18,6.42-1.79,6.77-.22l-.49,30.76h-.01Z"/>
  <path class="st108" d="M586.87,330.57c11.85,5.36,23.77.04,35.4-2.69.93.66-.7,8.65-.51,10.32-3.28-.73-5.76.94-8.61,1.48-8.71,1.66-17.47,2.03-26.28,2.89v-11.99h0Z"/>
  <path class="st80" d="M573.24,618.94l-8.65-.09c-2.03-5.76-7.16-10.01-8.24-16.25.65-.96,19.84-.85,20.72-.31.74.46.45.75.29,1.39-1.22,4.94-4.75,10-4.12,15.25h0Z"/>
  <path class="st108" d="M457.66,349.64c-1.89,11.54-2.82,23.18-2.73,34.89-1.63-.13-6.04.71-6.42-1.43-.11-.6.44-1.75.44-2.64.05-7.07-.52-14.91-.05-21.85.11-1.65.75-6.71,1.2-8.06.58-1.75,5.91-.58,7.54-.91h.02Z"/>
  <path class="st80" d="M467.47,493.01l-1.75,4.49-.99-.05c-1.55-3.17-4.39.33-2.71,2.64-.31,1.24-4.67.86-5.38-.23l1.08-3.58c-1.79-.22-2.36-1.31-1.7-3.27,1.66-3.99,4.67-9.72,5.65-13.77.46-1.9-1.13-2.11,1.18-2.06,1.69.03,11.3,1.43,11.55,2.99.35,2.21-5.49,10.44-6.92,12.84h-.01Z"/>
  <path class="st108" d="M605.96,390.53c1.16,1.15-1.01,28.85,0,32.71-.98-.15-5.77.23-5.99,0-1.19-1.24-.45-30.18-1.64-34.33,1.39-.05,2.35,1.23,3.66,1.51.99.21,3.83-.02,3.97.12h0Z"/>
  <path class="st98" d="M532.35,280.96h-9.81c1.01-6.49,1.24-13.05,1.09-19.63,1.47-.01,8.38.21,8.66,1.41l.06,18.22Z"/>
  <path class="st108" d="M453.79,399.29c1.48.97-.36,7.26-.49,8.96-.16,2.19-.14,15.36-1.17,16-1.93,1.21-2.79-2.68-5.38-1.56l1.1-24.53c1.12,1.74,5.64.93,5.94,1.13Z"/>
  <path class="st87" d="M598.32,449.4c8.32-1.29,8.33,3.08,11.05,8.85.52,1.11,3.86,4.37,2.05,5.61-.44.3-10.11.52-10.66-.27-.41-.59-2.94-13.68-2.43-14.2h-.01Z"/>
  <path class="st87" d="M611.95,436.32c.41.43-4.03,10.81-4.62,10.85-.26.02-1.97-1.28-2.86-1.46-1.67-.34-5.31.2-6.55-.81-.33-.27-3.17-7-3.4-7.77-.31-1.02.17-.72.8-.81,5.5-.73,11.28.91,16.64,0h-.01Z"/>
  <path class="st87" d="M439.12,442.87c2.72.18,9.52,1.76,10.29,4.74.14.56-3.36,9.32-4.08,10.49-1.08.33-8.15-5.04-10.02-5.7-.14-.61,6.26-7.31,3.82-9.52h0Z"/>
  <path class="st87" d="M572.97,624.39c.72.08,3.84.72,4.05,1.43.42,1.4-2.77,8.66-2.15,11.11-1.77-1.09-3.93-.21-5.72-.54-2.15-.39-5.13-9.62-5.72-12,3.06.24,6.54-.33,9.54,0Z"/>
  <path class="st50" d="M447.3,471.75c-.09-4.06,1.51-7.58,2.59-11.3.47-1.62-.31-3.76,1.49-5.04,4.65,4.91.69,10.49-1.09,15.8l-3,.54h.01Z"/>
  <path class="st68" d="M438.57,462.48c-.89,2.2-1.81,5.03-2.73,7.09-1.2,2.82-2.29,5.68-3.25,8.58-5.48,1.69-5.42-1.51.18-9.6.55-1.85,3.02-8.71,4.43-9.2.97-.34,2.13,2.36,1.36,3.13h.01Z"/>
  <path class="st50" d="M452.2,435.23c.18.17-2.46,3.92-2.73,4.09-.49.31-6.29-.87-6.58-1.06-.24-.16-1.57-5.22-1.54-5.5.11-.78,1.06-.73,1.7-.69,3.16.19,6.05,2.77,9.14,3.16h0Z"/>
  <path class="st68" d="M610.3,469.04c.74.61,4.19,16.33,5.95,18.36.39.64-1.67,1.8-1.84,1.79-1.08-.07-6.84-19.08-5.72-20.16.45.07,1.45-.12,1.61.01Z"/>
  <path class="st124" d="M434.75,458.12c-.96.05-1.73.51-2.46,1.09-1.61,1.28-8.6,9.86-10.5,7.51-2.03-2.53,3.06-4.67,4.49-5.88,2.61-2.21,4.96-6.96,8.46-2.72h.01Z"/>
  <path class="st124" d="M623.95,483.2c-.94-.18-3.81.33-4.28-.08-.32-.28-3.03-6.82-3.38-7.79-.58-1.61-3.02-10.17.24-5.7,1.46,2,2.85,5.85,4.34,8.19,1.23,1.94,3.48,2.9,3.08,5.37h0Z"/>
  <path class="st130" d="M605.79,426.14c1.54,1.09,2.21,4.15,1.15,5.72-.3.45-6.61.21-6.9.03-1.86-1.18,1.02-9.1,5.75-5.75Z"/>
  <path class="st6" d="M435.85,469.57c-.81,1.64-2.16,8.31-2.86,9.13-.88,1.04-4.42.58-5.1-.39-.39-.56,2.15-6.68,2.63-7.79.4-.92,1.51-1.57,1.81-2.54.97-3.12-.28-1.79,1.79-4.73.73-1.03,3.72-7.02,5.19-3.34.7,1.77-.43,1.81-.74,2.58l-1.63-2.72c-1.68,3.27-2.55,7.02-4.16,10.29-.63,1.29-4.85,6.75-4.03,7.69,4.63,1.78,3.92-2,5.36-5.27.48-1.1,1.39-2.13,1.73-2.9h.01Z"/>
  <path class="st131" d="M600.5,478.29c.56.47,1.11.47,1.64,0,1.52,2.63.59,4.97,3.81,5.45v-3.27c.96.19,1.45,1.21,1.49,3.06-.64-1.51-.58-2.53.16-3.06,1.07.29,1.07,3.65,1.09,4.91-.54.65-1.08.83-1.64.55-.23,1.75-.78,3.02-1.64,3.82-1.41.26-2-.84-1.77-3.29-.33-1.69-.76-.88-1.37.27l-1.22.29c-2.38-2.92.06-1.83,1.63-4.35-3.17-.22-3.88-5.86-4.91-8.73,1.25-.9,2.82,2.96,2.73,4.36h0Z"/>
  <path class="st100" d="M605.82,385.49c-4.33,4.33-7-9.07-.95-7.28,2.38.7,2.08,6.15.95,7.28Z"/>
  <path class="st6" d="M607.05,485.92c.88.01,1.12.59.72,1.73l.37,2.09c.9-.39,1.11.38.55,1.09,1.5-.17,1.34-1.22,1.02-2.39l.62-.34c1.37,2.29-.76,4.93,2.18,4.36-.74.16-1.95.82-2.73,1.09-1.84.65-3.2.03-2.73,2.18-.75-1.2-1.87-2.58-2.73-3.82,0-1.29.36-2.01,1.09-2.18.04-.84-.19-3.5.05-3.78.21-.25,1.29.1,1.58-.03h0Z"/>
  <path class="st121" d="M585.24,500.64l1.63.81c-.53-2.17,1.79-3.43,3.46-2.48.84.48.39,4.5-.19,5.47,2.16-.53,4.36-.74,6.54-1.08l-9.51,2.76c-.31-.05-1.67-4.67-1.94-5.49h.01Z"/>
  <path class="st19" d="M504.54,224.81c-2.07.7-4.17,1.77-6.53,1.65-.2,1.21.13,3.89,1.42,4.25.34.09.67-.45.75-.45.9-.63.89-.43.55.55.74.76,3.27-.53,1.09-2.18-.78.71-1.05.38-.55-.55,2.68-3.02,4.71,1.7,2.78,4.14-1.25,1.59-3.95-.47-3.32,2.4-1.58-2.78-4.14-4.85-3.24-8.7l7.06-1.12h-.01Z"/>
  <path class="st102" d="M599.41,502.82c.6-1.47-.77-2.03-.53-4.03.58-4.97,8.24-2.16,4.35,2.94.96-.34,4.17.99,3.82-1.08.18.36.92.63.54,1.63-2.76-.22-5.46.19-8.18.55h0Z"/>
  <path class="st41" d="M446.02,424.95c2.26-.72,7.63,1.9,5.94,4.31-1.45,2.06-9.73-3.1-5.94-4.31Z"/>
  <path class="st47" d="M456.02,493.01l.59,1.94c4.22-.15,1.04,4.33,1.06,4.87.07,1.76,3.9.32,4.35.27.22-1.47.51-1.33,1.09,0,1.26.69.73,1.03-.55,1.09-2.34,0-4.58-.54-6.54-.55q-1.57-.69,0,0c-.31,0-2.84,1.71-2.74-.28.13-2.55,1.79-5.08,2.74-7.36v.02Z"/>
  <path class="st56" d="M583.06,451.04c.04.35-.01.73,0,1.09-3.2-.25-6.33.46-9.4,1.23-2.19.55-1.96,1.32-5.32,1.5-1.48.38-4.48.92-4.91-.55-.75-.89-.44-1.23.55-.55.07,0,.59.57,1.32.56,5.44-.05,6.44-1.09,11.22-2.74.05-.47.67-.75,1.88-.86,2.51-3.13,2.86-3.51,4.66.32h0Z"/>
  <path class="st59" d="M569.97,470.66c1.57,2.7,1.75.68,3.54.59,2.74-.13,3.53,3.94,2.46,5.95,2.57-1.73,6.21-1.63,9.26-1.63-2.15.29-4.96.73-7.22,1.23-1.69.37-3.17,2.1-5.32,1.5-.12-.66.15-1.61,0-2.18,2.36-.38,1.84-3-.55-1.64-.74-1.44-1.32-1.78-2.18-3.82h0Z"/>
  <path class="st47" d="M464.74,467.94c-.74,2.98,2.57.64,3.21,2.53.96,2.82-2.95,3.42-.49,4.56-1.53-.29-2.43,0-4.36-.55-.93-1.19-1.11-2.28-.55-3.27.84-1.43,1.35-2.05,2.18-3.27h0Z"/>
  <path class="st117" d="M449.76,388.35c2.47-.72,5.13,5.26,2.69,5.99-2.2.66-4.84-5.36-2.69-5.99Z"/>
  <path class="st5" d="M605.41,489.74c-.06,1.37.54,2.52-1.09,2.18-1.14-1.64-1.98-3.32-3.27-4.91.49-2.24,2.69-4.02,3.57-1.12.39,1.3-.17,2.92.79,3.84h0Z"/>
  <path class="st7" d="M465.29,500.1c-.49.74-1.7.83-2.18,0-.33.06-.74-.04-1.09,0-3.39-.9-1.12-5.38,1.9-4.95,1.55.22.87,1.59,1.91,1.67-.16-1.72.93-2.62,1.64-3.81-.47,2.5-1.55,4.56-2.18,7.09Z"/>
  <path class="st19" d="M470.19,475.57l2.72-.26c-2.24-9.02,8.13-4.67,2.19,1.08l2.18-.28c-.11.27.13.99,0,1.09-.72.55-5.9-1.4-7.09-1.63h0Z"/>
  <path class="st123" d="M591.23,469.03c.08,1.03-.1,1.76-.55,2.18-1.2,3.87-5.34,4.12-4.09-1.11.49-2.04,2.06-2.06,2.46-3.8.42.67,1.53,1.7,2.18,2.73h0Z"/>
  <path class="st112" d="M605.96,474.48c.45,1.75-.1,3.1-1.09,1.09-.75-2.39-1.8-4.75-2.73-7.08,4.41-1.73,3.09,2.64,3.82,5.99Z"/>
  <path class="st114" d="M544.35,430.87c-1.47-.97-1.04-.53-1.09.81-.11,2.74-.09,5.72,0,8.46l-.55,1.09c-1.25-4.44-.21-9.57-.55-14.17.74,1.37,1.5,2.13,2.18,3.82h.01Z"/>
  <path class="st120" d="M578.69,446.13c-.8,1.47-2.9,5.51-.12,1.68l1.21-.04c.16.11,1.08-.15,1.88.55.53.46,1.31,1.98,1.39,2.72l-1.91-2.72c-.84.71-1.25,2.18-2.16,2.76-1.11.72-1.86.29-2.48.51-2.78-1.65-1.62-5.59,1.09-6.54.03.07.74.63,1.09,1.09h0Z"/>
  <path class="st16" d="M553.61,225.36c1.45-.2,1.58.03.55,1.09-.29.93-1.26,1.39-2.9,1.38,1.38-.08,2.16.37,2.35,1.34-.15,1.78.07,1.19-.55,3.27.63-2.8-2.37-1-3.83-2.44-2.11-2.08,1.6-5.85,4.38-4.65h0Z"/>
  <path class="st57" d="M441.84,473.39c-.12,2.33.91,5.08,0,7.63-3.39.69-1.24-4.98-1.09-7.09.28-1.19.64-1.37,1.09-.55h0Z"/>
  <path class="st22" d="M441.84,473.39l-1.09.55c.23-3.1-.87-7.03,1.91-9.81.11,2.97-.67,6.39-.82,9.26h0Z"/>
  <path class="st48" d="M578.69,446.13c.43.56,1.01,1.58,1.09,1.64-2.59,6.18-6.22.19-1.09-1.64Z"/>
  <path class="st100" d="M554.16,226.45c-.04,1.02-.47,1.86-.55,2.73l-3.84-.3c.57-3.33,2.46-1.99,4.38-2.42h.01Z"/>
  <path class="st24" d="M598.87,469.57l2.18,7.63c.61.86.56,1.39-.55,1.09-.52-1.25-1.69-3.63-2.73-4.36-.25-.71-.17-1.86-.55-2.73-.03-.84.15-1.38.55-1.64.23.12.88-.12,1.09,0h0Z"/>
  <path class="st117" d="M572.15,474.48c-.41-1.13,1.27-1.71,1.84-1.57,1.9.49,1.78,5.49-1.29,3.2-.1-.38-.41-1.36-.55-1.64h0Z"/>
  <path class="st119" d="M535.08,167.03c-.05.37.24,1.11-.27,1.09l-2.73-3.8c-.67,1.43-2.87,2.13-3.54,2.72l3.55-3.3,2.99,3.3h0Z"/>
  <path class="st55" d="M607.59,480.47c.07.59.17,3.26-.27,3.28-.42-1.02-1.05-2.23-1.36-3.28-.24-.79-.26-1.81-.55-2.73.15-.6.5-.97,1.09-1.09.19.99.97,2.76,1.09,3.82h0Z"/>
  <path class="st129" d="M549.8,223.18l6.54.55c.57.49-1.5,2.57-2.18,2.72,0-.23-.54-.79-.55-1.09,0-.09.74-.59.54-1.09-1.7.2-2.93-.57-4.36-1.09h.01Z"/>
  <path class="st16" d="M601.59,477.75c-.63.78-.86.43-.55-.55-1.26-2.36-2.6-4.87-2.18-7.63.76.43,2.29,6.79,2.73,8.18Z"/>
  <path class="st64" d="M462.56,471.21l1.63,3-1.09.27c-.72-.2-1.44-.43-2.18-.55-.13-1.14,1.02-1.67,1.63-2.72h.01Z"/>
  <path class="st51" d="M608.68,485.38c0,.54.04,1.1,0,1.64.93-.07,1.22.39,1.64,1.09v3.27c-1.18.23-1.15-.09-1.64-.54-.03-1.2-.03-2.47,0-3.82.04.79-.14,1.69-.55,2.73-.74-1.46-.71-2.36-1.09-3.82.3-.14.48-1.59,1.64-.55Z"/>
  <path class="st134" d="M601.59,477.75c.11.2.43.35.55.55-.12.6.31,2.74-.28,2.73-1.85-.03-1.08-2.04-1.36-2.73l.55-1.09c.12.22.45.37.55.55h0Z"/>
  <path class="st100" d="M597.78,469.57l.54,2.18-1.09-.55c-.36-.82-1.95-1.55-1.63-2.72.97-.21,1.36.67,2.18,1.09h0Z"/>
  <path class="st92" d="M435.85,481.02c.03,1.09-.02,2.18,0,3.27-.3-.25-1.07-2.94-1.09-3.27-.1-1.41.3-1.39.55-2.18.75-.4.94.32.55,2.18h0Z"/>
  <path class="st30" d="M606.5,476.66v1.63l-1.09-.54c-.22-.71-.32-1.47-.55-2.18,1.16.13,1.22.07,1.09-1.09.14.66.37,1.27.55,2.18Z"/>
  <path class="st16" d="M435.85,481.02c-.02-.72.27-1.8-.55-2.18.26-.84.8-2.96,1.63-3.27l-1.09,5.45h.01Z"/>
  <path class="st65" d="M568.34,454.85c-1.28,1.04-3.72.48-5.45.55-.48-.15-.47-.34,0-.55-.49-.62-.21-.91.55-.55,1.02.92,3.45.62,4.91.55h0Z"/>
  <path class="st64" d="M465.29,500.1c-.07.27.16.7-.05,1.02-.94.58-1.96.07-2.68.07l.55-1.09c.75-.14,1.44-.57,2.18,0Z"/>
  <path class="st121" d="M596.69,481.56l-1.09-3.27c1.01.46,3.14,2.64,1.09,3.27Z"/>
  <path class="st14" d="M531.26,522.99c-.27.28.1,1.65-1.36,1.65s-1.03-1.15-1.36-1.65c1.23,1.11,1.49,1.11,2.73,0h-.01Z"/>
  <path class="st6" d="M429.3,467.94c.06-.17.43-3.42,1.63-2.18,1.09,1.13-1.44,2.06-1.63,2.18Z"/>
  <path class="st104" d="M574.33,437.41c-.57-1.1-1.08-2.17-1.64-3.27,1.27.58,1.65,1.97,1.64,3.27Z"/>
  <path class="st91" d="M581.42,499.01c-.71.26-.52,1.04-.55,1.64-.88-.4-.42-1.52-.55-2.18-.2-.96-.02-1.33.55-1.09.26.58.35,1.12.55,1.64h0Z"/>
  <path class="st52" d="M580.88,497.37l-.55,1.09c-.12-.64-.99-1.61-.54-2.73.99.1.83,1.06,1.08,1.64h0Z"/>
  <path class="st124" d="M429.3,467.94c-.42,1.12-.67,1.35-1.09,2.18l-.55-1.09c.69-.49.8-.6,1.64-1.09Z"/>
  <path class="st55" d="M562.88,449.4c-.65,1.36-1.38,2.45-2.18,3.27.05,1.1-.48.78-1.09,0,.68.16.98.45.55,1.09.66,1.08.48,1.44-.55,1.09-.84-1.15-.67-1.71-1.09-2.73.37.12.76.47,1.09.55-.11-1.66,1.01-2.82,1.09-3.82-.43-2.08,3.12-1.13,2.18.55h0Z"/>
  <path class="st65" d="M561.79,454.85c.27.84-.88.86-1.64.55-.18-.11-.41-.36-.55-.55l.55-1.09c.57.27,1.12.63,1.64,1.09Z"/>
  <path class="st139" d="M591.78,471.21h-1.09c.17-.55-.39-1.81.55-2.18.51.79.36,1.84.55,2.18h0Z"/>
  <path class="st87" d="M592.87,464.67c-.12.65.09,1.48,0,2.18-1.03-.05-.83-1.23-1.09-1.64l1.09-.55h0Z"/>
  <path class="st55" d="M562.88,454.85v.55c-.98.04-.89,1.09-2.73,0,.72.25,1.26-.43,1.64-.55.74-.94,1.1-.94,1.09,0h0Z"/>
  <path class="st122" d="M536.17,167.57l-1.09-1.09c.4-2.9.76.41,1.09,1.09Z"/>
  <path class="st127" d="M610.32,105.97c9.23-.77,23.63,3.33,29.44,10.85,1.42,1.83,3.57,5.71,3.27,7.68,1.67.32,3.51,4.19,2.18,5.45.64,4.51-3.97,14.02-7.29,16.92-.39,1.82-5.05,1.34-2.52-1.11,1.39-1.67,9.57-11.57,3.02-10.9-1.1.11-3.73,2.87-4.4,1.65-.71-1.29,0-4.56-.51-6.57-.43-1.66-4.08-8.78-5.2-10.34-1.08-1.24-2.16-1.65-3.26-1.21-3.96-5.02-9.69-8.76-15.59-11.52l-.23-.9c.34-.78.78-.8,1.09,0Z"/>
  <path class="st58" d="M627.76,97.8c3.73-.71-2.23,6.04-4.36,3.82-3.41,1.62-7.11,2.93-10.9,2.73-2.01,1.11-4.37,1.65-7.09,1.64-.36,1.32-2.47,1.64-3.82,1.64-6.09,3.89-12.64,6.98-19.63,9.27-3.83,2.32-7.1,5.04-9.81,8.18.79,1.16-4.95,4.03-4.39,1.97.44-1.63,4.64-6,6.03-7.42.48-1.96,1.83-4.62,3.82-5.45,3.7-1.82,3.43-3.41,6.26-6.01,4.24-3.91,19.83-9.84,25.64-10.34s12.45.66,18.26-.01v-.02Z"/>
  <path class="st127" d="M626.67,102.16c.5.09,1.37,1.1,2.18,1.36,6.93,2.27,7.53,3.17,13.09,7.36,1,.85,1.91,1.76,2.73,2.73,3.29,2.33,4.59,4.01,7.09,7.09.44,1.11,1.29,1.96,2.18,2.73.94,1.22,1.79,2.58,2.73,3.82,3.56,2.6,3.92,3.87,1.09,3.82l-1.76,2.72c-.59.2-9.71-4.95-9.69-6.54-1.08.68-2.53-2.05-1.64-2.73l-1.27-.85c-2.6-6.58-5.72-10.18-12.3-13.27-5.39-2.53-10.75-3.76-16.43-4.96,0-.43.05-.78.24-.91,1.63-1.05,7.24-2.23,9.03-1.81-.12-.95,2.26-1.36,2.73-.55h0Z"/>
  <path class="st58" d="M656.12,134.32c1.29,1.01,3.82,6.68,3.82,8.44,0,.72-.62,5.24-.83,5.72-.5,1.16-2.48,2.1-3.54,2.73-3.03.67-5.59,1.73-6.54,4.91.17,1.07-.54.76-1.09,0-1.54.14-3.99-2.36-3.27-3.82-.18-1.9.74-4.26,1.64-6,.05-3.63.23-7.27.55-10.9l-.56-.31c.42-1.06.42-2.05.02-2.96-.4-.47-.41-1.17,0-1.64-.75-.38-.91-1.44,0-1.64,2.83,1.06,5.57,2.51,8.21,4.37,1.17.2,1.71.56,1.61,1.08l-.02.02Z"/>
  <path class="st58" d="M607.59,107.06c.64.18,1.08.04,1.31-.43,2.04.16,14.61,8.6,14.8,10.16.02.19-.12.41-.3.63.69,1.49-.61,1.04-1.64,0-1.11-.31-1.8-.76-2.73-1.09-3.22-1.94-12.36-4.41-16.04-3.5-.81.2-1.14.51-1.41,1.32l-.38,1.28c-2.76,1.89-5.73,3.46-8.89,4.71-1.55.99-4.12,2.3-5.45,3.27-2.33.73-4.88.73-7.63,0-2.06.75-4.06,1.11-6,1.09-.23-.31-.39-.56-.34-.6,2.48-2.56,6.26-5.61,9.61-6.48,6.58-3.42,13.13-6.51,19.63-9.27,1.07-1.14,3.97-1.96,5.45-1.09h.01Z"/>
  <path class="st58" d="M646.3,136.5c.49,2.81.48,6.61-.55,9.27-.24,3.24-1.57,8.34-4.27,10.11-.31,1.17-.89,2.16-1.72,2.97.71.65-.12,1.99-1.09,2.18-.42,1.35-2.44,4.16-3.82,4.36.48,3.23-11.29-.48-11.75-1.3.14-1.09-.14-2.2-.79-3.06-2.2-4.39.42-1.96,2.52-1.81,1.79.13,12.92-3.41,14.36-4.48.77-.57.97-1.55,1.15-2.42l1.03.51c1.31-2.55-.19-1.85-.51-2.54-.19-.4.09-.99,0-1.25-.97-.68-2.19-1.05-3.66-1.11,3.26-3.89,5.81-8.32,7.65-13.27l.92-.34c.48.25.66.98.55,2.18h-.02Z"/>
  <path class="st78" d="M562.88,122.33c3.94-5.87,8.65-10.05,13.91-14.71,1.77-.77-.18,2.95-.28,3.27-.4.99-.4,1.9,0,2.73v.55c-.8,1.95-1.89,3.59-3.27,4.91-2.65,5.31-6.1,9.85-10.36,13.63-.02,1.43-1.96,3.63-3.27,3.82.24,1.17-2.05,4-3.27,3.82-.4-.06-.72-.14-.73-.25-.23-1.84,1.81-5.33,2.92-6.84.44-1.4,1-2.74-.55-2.99.58-.8,1.12-1.63,1.64-2.46.65-2.14,1.75-3.96,3.27-5.45v-.03Z"/>
  <path class="st78" d="M619.04,163.21c1.54.69,2.87.82,3.99.38,2.58,1.87,5.66,2.89,9.24,3.06.31.27.54.52.49.71-.31,1.34-12.32,9.25-14.82,9.47-2.68,1.4-7.12,3.84-10.07,3.84-.82,0-1.6.35-1.37-.83.81-1.61,7.37-4.86,9-6.27,1.82-1.56,2.18-4.33,4.07-4.93.21-.22-2.57-2.04-3.26-2.99-2.98-4.1-.02-2.86,2.72-2.45h.01Z"/>
  <path class="st133" d="M635.4,166.48c-.49-1.11,4.06-5.89,4.63-5.43,1.01,4.35,3.34,8.07,7,11.16.72,3.93.28,6.09-2.9,2.45-2.12-3.02-8.01-3.11-11.45-2.73-1.08.54-5.47,2.26-6.26,1.85-.18-.09-.25-.4-.29-.76-.04-.29-.04-.53.07-.62,1.22-.98,7.93-6.08,8.45-6.19.22-.05.48.09.75.27h0Z"/>
  <path class="st105" d="M634.85,165.39c1.15-.59,1.03.12.55,1.09-2.28,2.16-6.55,4.72-9.27,6.54.03.94-.69,1.31-2.18,1.09-.27.96-1.17,1.87-2.73,2.73-.94.42-1.85.6-2.73.55.04-.22-.22-.65-.55-.55,4.82-2.51,10.07-6.06,14.17-9.54l-5.34-1.2-7.74-2.89c1.27.19,2.51.58,3.81.54l-.54-2.72c.04.07.54.19.78.58.54.87-.02,1.82,1.21,2.61,1.79,1.15,8.67,2.43,10.55,1.17h0Z"/>
  <path class="st25" d="M649.03,156.13c.15-.48.34-.47.55,0l-2.27,20.35-1.26.91-1.91-2.73,2.72,1.63c2.3-2.93-8.16-10.84-7.09-14.72-2.1.78-3.16,3.78-4.36,4.91l-.55-1.09c.24-.16,3.59-4.01,3.82-4.36.37-.21.92-.39,1.64-.55,1,.71,1.75,1.97,2.26,3.76,1.85,2.1,3.1,4.3,3.74,6.59,1.39-4.08,1.83-9.22,2.18-13.63-.83.62-1.1.33-.55-.55-.48-.15-.47-.34,0-.55.23.1.76-.07,1.09,0v.03Z"/>
  <path class="st21" d="M584.69,125.05c-1.29,1.31-.82,2.84-1.64,3.54-1.62,1.38-8.82,4.03-11.42,6.03-1.63,1.26-1.59,2.91-2.76,3.79-1.24.93-2.63.56-3.8,1.11-3.27,1.54-5.27,4.28-10.38,6.25-1.75.18-.43-3.38,1.09-2.18,3.11-1.41,5.97-3.36,8.59-5.83,2.28.1,3.62-.85,4.03-2.87,3.6-3.54,8.61-6.11,13.33-7.83-.15-2,.47-2.85,1.85-2.56.35-1,1.65-.59,1.09.55h.02Z"/>
  <path class="st114" d="M609.23,105.97c3.17,2.13,6.65,3.48,9.77,5.77,1.96,1.44,3.89,3.6,5.77,5.13,1.69,1.38,1.92.46,3.54,2.73-.93-.41-2.16-1.48-3.15-.94-.4.22.4,1.67-1.75.39.2-.35.2-.89,0-1.64-2.77-3.42-11.51-9.93-15.81-10.36.95.05,1.13-.13.55-.55-1.23-.77.45-1.44,1.09-.55v.02Z"/>
  <path class="st43" d="M645.76,130.51c.42,1.2.46,2.62,0,3.82.23-.71.41-1.44.55-2.18.95.61.48,2.24.55,3.27-.1.49-.28.85-.55,1.09-.82-.38-.53-1.46-.55-2.18-2.29,3.81-3.86,8.15-6.36,11.87-.35.52-2.43,1.2-.93,1.74.86.31,1.86-.39,2.38,1.1-1.01-.7-6.31-.86-6.54-1.09-.88-.89.8-1.83,1.09-2.18-.99,1.75-.15,2.38,1.63,1.36,2.98-1.7,8.42-13.64,8.19-17.16.68-.69.83-.39.55.55h-.01Z"/>
  <path class="st1" d="M646.3,127.23c.95,1.03,9.23,6.43,9.81,6,.11-.08.15-1.58.69-2.07.28-.26.8-.03.96-.11.74-.3,1.28-.3,1.64,0-1.55.76-2.76,1.51-3.27,3.27-.21-.17-1.53-.37-2.19-.79-2.51-1.59-5.1-3.1-7.62-4.66-1.01-.23-1-1.24,0-1.64h-.02Z"/>
  <path class="st115" d="M560.7,137.05c.25,2.3-2.62,6.11-4.91,6.54-.31.43-2.72,1.4-1.09,2.18-.12.04-.09.84-1.09.54-.26-1.95.56-3.66,1.09-5.45.38,0,.68.03.68.08.31,2.7-1.2,1.73.18-.59.07-.12.39-.1.77-.04.86-1.31,2.37-2.62,3.27-3.82,1.05-1.01,1.33-.92,1.09.55h0Z"/>
  <path class="st13" d="M601.59,114.15c.17-.19-.13-1.24.88-1.56,2.95-.94,11.89,1.16,15.06,2.27.88.31,1.78.08,1.51,1.46-2.52-.91-16.25-5.27-17.45-2.18h0Z"/>
  <path class="st140" d="M556.34,140.32c-.2.3-1.25,3.52-1.63,2.72v-2.18c.72-2.44,1.68-6.25,3.81-7.63-.74,2.35-2.69,4.27-2.18,7.09Z"/>
  <path class="st32" d="M601.59,114.15c-.17.44.29,1.62-.08,2.09-.31.39-7.91,3.71-9.19,3.91,2.87-1.83,7.19-3.58,9.27-6Z"/>
  <path class="st66" d="M632.67,171.93c-1.85,1.79-4.68,1.72-7.09,2.73-1.33.39-1.87.21-1.64-.55.66-.42,1.54-.66,2.18-1.09,1.87.91,4.35-.84,6.54-1.09h.01Z"/>
  <path class="st113" d="M655.57,151.22c-2.61,1.57-5.25,1.5-6,4.91h-.55c-.2-3.17,3.81-5.11,6.54-4.91h.01Z"/>
  <path class="st44" d="M577.6,114.15c-1.48,1.65-2.54,3.68-3.82,5.45-.77.72-1.05.42-.55-.55.7-.94,1.63-4.08,3.27-4.91.24-.12.85.12,1.09,0h0Z"/>
  <path class="st77" d="M586.87,123.42c-.43.31-2.08,1.53-2.18,1.64-.26-.46-.74-.4-1.09-.55-.9,1.24-3.84.92-4.36-.55-.48-.15-.47-.34,0-.55,2.56-.18,5.06.06,7.63,0h0Z"/>
  <path class="st46" d="M656.66,127.23c1.18-.1,4.33,3.13,3.81,3.81-.33.08-.88-.1-1.09,0h-1.64c.42-.21,1.7-.65,1.63-.81-1.59-.86-1.89-1.9-2.72-3h.01Z"/>
  <path class="st118" d="M625.58,174.66c-1.42.59-2.68,1.49-4.36,2.18.18-.09,1.3-1.82,2.73-2.73l1.64.55h-.01Z"/>
  <path class="st83" d="M562.88,122.33c-1.07,1.6-2.19,3.71-3.27,5.45.14-1.63,1.73-5.39,3.27-5.45Z"/>
  <path class="st60" d="M587.96,100.52c-.8.48-3.46,2.49-3.81,2.18-.1-.49.13-1.26,0-1.63,1.24,1.04,1.34-1.41,3.82-.55h-.01Z"/>
  <path class="st71" d="M627.76,97.8c.09,0,1.2-1.03,1.63-.54,1.24,1.41-2.4,3.52-2.72,4.9-.76-.14-1.92.39-2.73.55-1.45.04-1.63,0-.55-1.09.82-.21,3.35-.35,3.7-.67.24-.22.13-1.07.43-1.47s3.16-1.4.24-1.67h0Z"/>
  <path class="st32" d="M644.67,113.61c-1.07-.76-2.73-1.22-2.73-2.73.84.64,2.75.69,2.73,2.73Z"/>
  <path class="st79" d="M623.4,117.42c.56.69,2.49,1.54,0,1.64-.72-.43-1.31-.82-1.64-1.64.46.13.9.31,1.37.38l.26-.38h.01Z"/>
  <path class="st90" d="M653.94,123.42c-1.05-.59-2.1-1.43-2.18-2.73.74.91,1.48,1.81,2.18,2.73Z"/>
  <path class="st13" d="M621.22,176.84c-.99.41-1.91,1.4-3.27,1.08-.13-.42.53-.44.55-.54.67-.69,2.32-.34,2.73-.55h0Z"/>
  <path class="st44" d="M576.51,113.61c-1.37-.84-.23-2.02,0-2.73v2.73Z"/>
  <path class="st80" d="M482.93,679.1c-.66.51-.28,1.6-1.97,1.36-.51-.07-6.78-3.18-6.9-3.54l.05-1.43c2.66-5.6,2.46-10.13,7.58-14.26,1.7-1.37,4.09-2.3,5.68-3.59,2.27-1.83,4.01-4.7,6.26-6.82,1.3-1.23,3.15-1.86,4.39-3.24,1.65-1.83,2.1-7.27,5.62-6.25.44.13,4.6,6.67,5.03,7.55,2.45,5.07,4.37,15.64-.83,19.41-2.97,2.15-3.86.58-6.83.78-3.93.26-14.68,7.4-18.08,10.03Z"/>
  <path class="st80" d="M508.36,602.04c.05.35-.07.78,0,1.09-.85-.59-1.61-.76-2.49-.05-.42.34-3.07,8.93-3.38,10.26-.23,1.02-.44,6.44-.67,6.69-3.24-1.01-5.99-.25-9.22-.05-1.94-5.21-3.51-11.22-6.59-15.75l22.35-2.19h0Z"/>
  <path class="st108" d="M494.86,622.88c2.06-1.77,8.24.07,8.61,2.9.16,1.21-.64,2.5-.61,3.78.05,2.06,1.1,6.79.51,8.64-.51,1.58-3.93,1.25-5.1,2.52-1.85-4.21-4.12-8.83-5.08-13.19.86-.95,1.04-4.11,1.67-4.65h0Z"/>
  <path d="M512.72,578.6c.11-.36,1.65-2.04,1.62-2.46-.08-1.37-5.61-.4-4.35-2.99,2.7.52,5.5-1.71,6.9,1.35-2.05,5.8-3.79,11.71-5.75,17.54-.28.85.48,1.56-1.15,1.28-.06-1.14-.04-2.26.14-3.4.4-2.6,1.8-8.87,2.58-11.32h0Z"/>
  <path d="M506.72,599.31c.5-.98,2.26-6.25,3.27-5.45.6,2.36-.56,7.93-3.81,7.08-.18-.76.26-1.07.54-1.63Z"/>
  <path class="st40" d="M523.62,307.13v30.81l-1.08.81c-.13-4.1-.81-8.26-.89-12.36-.09-4.63-.19-13.02.31-17.38.13-1.11.24-2.02,1.66-1.88h0Z"/>
  <path class="st36" d="M527.99,357.82c.26,4.95-.02,10.26,0,15.26,1.04.31,1.04.78,0,1.09.01,4.17-.1,8.37,0,12.54-.17,1.45-.68,1.39-1.09,0,.09-4.35-.03-8.73,0-13.08-.44-.11-.42-.29,0-.55.02-5.06-.22-10.22,0-15.26.17-1.45.68-1.39,1.09,0h0Z"/>
  <path class="st28" d="M527.99,391.07c1.94.36,3.95.48,6.01.35v.74c-1.88.23-4.09-.17-6.01,0v11.99c0,.47,5.14.61,6,.55.41.04.64.07.55.55-1.26.1-2.58.45-3.6.5-1.48.07-3.3-1.51-2.94.59-.53.45-.89.09-1.09-1.09-1.04-.31-1.04-.78,0-1.09.05-3.99-.04-8.01,0-12-.69-.09-1.54.12-2.18,0-.64-.64.09-1,2.18-1.09.31-1.04.78-1.05,1.09,0h-.01Z"/>
  <path class="st61" d="M527.99,374.17v-1.09c2.15-.02,5.31,1.67,7.29,1.47.3-.03,5.18-1.68,5.64-1.9,1.14-.55,1.74-1.97,2.89-2.02-2.92,5.3-10.7,5.11-15.82,3.54h0Z"/>
  <path class="st126" d="M526.9,404.16v1.09c-1.58-.44-4.77-.27-6.67-.69-2.16-.49-4.4-1.17-6.42-2.03-.48-.15-.47-.34,0-.55,4.31,1.05,8.61,2.1,13.09,2.18h0Z"/>
  <path class="st81" d="M526.9,373.08v.55c-1.72-.63-14.18-2.28-14.18-3,0-1.48.45-.46,1.38-.29,4.34.8,8.72,1.12,12.8,2.74h0Z"/>
  <path class="st129" d="M533.99,404.7c1.4-.1,4.66-.81,6.12-1.24,1.7-.51,3.04-1.82,4.79-2.02-2.47,3.4-6.56,3.5-10.36,3.81l-.55-.55h0Z"/>
  <path class="st62" d="M526.9,391.07c-.28.78-1.72.37-2.18,1.09-2.33-.43-4.81-.75-7.09-1.36-.7-.19-2.62-.52-2.72-1.36,3.97.72,7.98,1.15,11.99,1.63h0Z"/>
  <path class="st8" d="M527.99,406.34c.19.72-.39,7.73-.54,9.01-.12.99.17.88-1.09.8.14-3.64.49-7.24.54-10.9.15.04,1.07.99,1.09,1.09Z"/>
  <path class="st94" d="M527.99,391.07c4.79.49,8.25-.27,12.54-2.18-1.25,1.77-4.48,3.01-6.54,3.27-1.05-1.1-3.18-.38-4.68-.52-.71-.07-1.21-.56-1.32-.57Z"/>
  <path class="st129" d="M527.99,386.71c.03,1.45-.02,2.91,0,4.36-.36-.04-.74.04-1.09,0,.24-.66-.02-3.3,0-4.36h1.09Z"/>
  <path class="st99" d="M526.9,357.82c.14-3.28.91-3.4,1.09,0h-1.09Z"/>
  <path class="st24" d="M513.81,401.98v.55c-.6-.25-1.57-.12-1.64-1.08.87-.34,1.27.45,1.64.54h0Z"/>
  <path class="st43" d="M513.81,443.95v.55c-.47,1.04-.43,2.23,0,3.27-.19,4.02-.34,8.19-.55,12.26-.28,5.22-1.36,10.58-1.62,15.82-.25,4.88.2,9.83,0,14.72-.03.66.41,2.03-.54,1.9-1.03-16.78,1.98-33.38,1.63-50.15.51-.63.88-.08,1.09,1.64h-.01Z"/>
  <path class="st76" d="M535.08,513.73c-.7.71-.81.41-.55-.55.24-.74.32-1.53.79-2.19l7.93-13.07c-1.5,5.72-5.42,10.65-8.17,15.81Z"/>
  <path class="st106" d="M543.8,459.21c-.07.35-.13.59-.55.55-.02-1.19-.52-3.54-.55-5.45.43-.86.44-1.86,0-2.73-.03-3.36-.19-7.03,0-10.36.03-.46.02-.94.55-1.09.21,6.36.51,12.67.55,19.08h0Z"/>
  <path class="st38" d="M518.72,502.82c2.61,2.91,4.59,6.42,7.1,9.37.77.9,2.12,1.63,2.71,2.61-1.5.27-2.12-.72-3-1.62-2.81-2.86-4.87-6.78-7.35-9.82-.72-.77-.42-1.05.55-.55h-.01Z"/>
  <path class="st73" d="M543.8,477.75c.37,1.78.19,3.05-.55,3.82-.46-7.25.12-14.6,0-21.8l.55-.55c.04,6.17.05,12.37,0,18.53h0Z"/>
  <path class="st113" d="M513.81,443.95l-1.09-1.64c.3-2.83.23-6.18.6-8.93.15-1.08.39-3.13,1.57-3.6-1.38,4.83-.85,9.32-1.08,14.17h0Z"/>
  <path class="st96" d="M543.8,477.75c1.25,4.81.21,10.29.54,15.26l-1.08-7.36c-.01-1.36-.06-2.73,0-4.08.03-.77.53-2.25.55-3.82h0Z"/>
  <path class="st33" d="M518.72,502.82l-.55.55c-.64-.78-1.81-1.62-2.73-2.73-.72-.77-.42-1.05.55-.55.9.87,1.89,1.8,2.73,2.73Z"/>
  <path class="st2" d="M515.99,500.1l-.55.55c-.5-.61-1.49-1.12-1.64-2.18,1.29-.32,1.53,1,2.18,1.63h.01Z"/>
  <path class="st113" d="M513.81,447.77c-.88-.52-.89-2.72,0-3.27-.05,1.09.05,2.19,0,3.27Z"/>
  <path class="st63" d="M535.08,513.73c-.1.19.09.76,0,1.09-2.02.2-.85-.7-.54-1.63l.55.55h-.01Z"/>
  <path class="st97" d="M542.71,454.31c-.01-.91,0-1.82,0-2.73.86.36.86,2.37,0,2.73Z"/>
  <path class="st121" d="M605.18,276.28c2.17,1.85,3.74,4.53,5.67,6.6.63.68,4.56,3.33,3.83,4.07-.36.36-3.94-2.57-4.37-2.98-2.38-2.29-4.53-5.26-7.06-7.68-.57-.55-1.58-.73-1.64-.79-.35-.4-.18-1.29.82-1.1.84.16,2.05,1.29,2.75,1.88Z"/>
  <path class="st23" d="M614.12,312.57c-1.28.14-1.27.04-.85-1.13l9.04-14.13c-1.07,5.57-6.13,9.94-8.18,15.26h-.01Z"/>
  <path class="st39" d="M444.57,288.05c-2.41,3.47-5.13,8.71-9.81,9.26,3.68-2.98,6.29-6.24,9.27-9.81.77-.72,1.05-.42.55.55h-.01Z"/>
  <path class="st54" d="M435.85,308.76c2.37,4.53,4.89,9,7.09,13.62-1.17.2-1.74-1.06-2.2-1.88-1.73-3.06-3.89-7.44-5.43-10.65-.42-1.16-.24-1.52.55-1.09h-.01Z"/>
  <path class="st67" d="M444.57,288.05l-.55-.55c.98-1.18,1.86-2.52,3.27-3.27-.15,1.58-1.85,2.56-2.72,3.82h0Z"/>
  <path class="st111" d="M435.85,308.76l-.55,1.09c-.22-.46-1.1-1.59-1.07-1.92.22-2.21,1.25.13,1.61.83h.01Z"/>
  <path class="st34" d="M516.43,201.52c1.55-.08,3.74-.5,3.95,1.78.34,3.89-10.71,4.41-13.41,4.09-2.89-.34-3.25-4.14-.94-4.82s7.83-.92,10.41-1.05h-.01Z"/>
  <path class="st34" d="M543.11,201.5c2.17-.34,9.35.39,10.75,2.08,4.22,5.12-12.59,4.79-14.16,1.61-1.16-2.36,1.43-3.38,3.41-3.69Z"/>
  <path class="st18" d="M530.71,183.93c-.22.97-.39,1.47-1.09.55-.1-4.93-.04-9.83.55-14.72.95-.13.51,1.24.54,1.9.16,3.91.16,8.37,0,12.27h0Z"/>
  <path class="st95" d="M530.71,183.93c-.05,1.31.38,2.89-.82,3.81-.53-.82-.25-2.26-.27-3.27l1.09-.55h0Z"/>
  <path class="st10" d="M529.62,228.63l.6-.23c.71.73,1.79,1.27,3.24,1.64.44,2.92,1.01,18.14-.78,19.39l-2.51.46c-8.81-.1-5.76-.42-5.95-6.81-.09-3.15-2.33-12.73,1.56-13.67.99-.24,1.9.47,2.92.24.72-.16.86-.99.92-1.02h0Z"/>
  <path class="st10" d="M538.35,250.43v-13.36c0-.27,1.57-4.86,1.76-5.05,1.13-1.16,2.98-.14,3.72-.43.46-.18.86-1.17,1.41-1.3.73-.18,3.95,3.19,4.04,4.08-1.56,3.06-2.27,14.29-5.32,15.39-1.35.49-4.07.47-5.6.67h0Z"/>
  <path class="st10" d="M510.1,248.69c-.91-3.54-1.61-7.31-2.53-10.83-.33-1.26-3.2-6.11-1.01-7.06.64-.28,5.43-.37,6.24-.25,3.86.57,1.87,3.23,2.07,6,.34,4.9,4.54,17.02-4.77,12.14h0Z"/>
  <path class="st138" d="M529.62,228.63c.27-6-.2-12.9.54-18.82.1-.8.42-1.68,1.09-.8.81,3.77-2.25,17.1-.44,19.51.33.43,1.66.39,2.25.74,2,1.18.52,3.91,1.39,5.7-1.15,2.32.43,14.52-1.4,14.96-.69.16-2.05,0-2.9-.02,1.54-.94,2.67-.42,3.15-2.57.32-1.45.41-16.33-.11-17.09-.55-.8-1.9-.28-2.62-.53-.59-.2-.58-1.25-.96-1.07h.01Z"/>
  <path class="st125" d="M501.82,228.63c1.4.78.42,2.53-1.09,2.18-.11-.23.07-.58-.55-.55.12-.83.55-1.57,1.09-2.18.21.1.43.52.55.55Z"/>
  <path class="st23" d="M480.55,562.24c2.05,4.65,5.16,8.41,7.08,13.08-2.14-1.88-4.5-5.44-5.88-8.01-.96-1.79-1.11-2.93-1.74-4.53-.18-.72-.16-.88.55-.55h-.01Z"/>
  <path class="st0" d="M500.18,564.97c.19,2.23-.41,5.22-1.07,7.38-.22.73-.04,1.69-1.11,1.88.09-3.49.94-6.96,1.63-10.36.89-1.04.83,0,.55,1.09h0Z"/>
  <path class="st128" d="M502.36,555.7c-.6,3.02-.83,6.45-2.18,9.27-.04-.46-.01-.94-.55-1.09.6-2.94,1.3-5.85,2.18-8.72.7-.71.82-.41.55.55h0Z"/>
  <path class="st132" d="M496.36,550.25c.27,1.65-.41.87-1.32,1.1-2.48.62-4.86.61-7.4.53,1.82-2.07,6.07-.68,8.72-1.63h0Z"/>
  <path class="st132" d="M480.01,562.79c-.71-1.79-1.96-3.82-2.18-5.99,1.55-.29.88.4,1.24,1.19.63,1.41.89,2.91,1.49,4.26l-.55.55h0Z"/>
  <path class="st116" d="M501.82,555.16c.09-.28-.07-.74,0-1.09,2.14-.24.68.93.54,1.63l-.55-.55h.01Z"/>
  <path class="st75" d="M577.6,565.51c-.55,2.14-3.89,14.72-5.72,14.71-2.09-.02.26-1.44.44-1.75,1.68-2.86,3.7-9.56,4.74-12.96.15-.48.34-.47.55,0h-.01Z"/>
  <path class="st135" d="M560.16,561.7c1.37,3.84,2.84,7.96,3.27,11.99-.78.13-.71-.92-.94-1.5-1.22-3.07-1.89-6.28-2.87-9.4-.17-.93.01-1.29.55-1.09h-.01Z"/>
  <path class="st74" d="M560.16,561.7l-.55,1.09c-.68-2.16-1.98-4.21-2.18-6.54,1.62,1.04,2.09,3.7,2.72,5.45h.01Z"/>
  <path class="st45" d="M572.15,554.61l4.9.54c-1.98.57-4.52.83-6.54.55-.77-.71-.22-1.07,1.64-1.09h0Z"/>
  <path class="st88" d="M572.15,554.61l-1.64,1.09c-1.24-.17-3.23-.98-3.82-2.18l5.45,1.08h.01Z"/>
  <path class="st72" d="M577.6,565.51h-.55c.45-1.48.33-3.56,1.36-4.91,1.02.03-.69,4.43-.82,4.91h.01Z"/>
  <path class="st47" d="M581.42,656.55c1.36,1.42,3.62,2.77,4.9,4.09,1,1.03,2.78,3.24,3.27,4.63-.42.43-7.9-7.32-8.72-8.18-.72-.77-.42-1.05.55-.55h0Z"/>
  <path class="st94" d="M581.42,656.55l-.55.55c-2.49-2.61-6.19-5.6-7.08-9.27,2.69,2.76,4.96,5.94,7.63,8.72h0Z"/>
  <path class="st16" d="M597.78,663.64c-1,1.69-3.63,2.16-5.45,2.17-.29-1.63.44-.86,1.28-1.14,1.32-.45,2.76-.94,4.17-1.03h0Z"/>
  <path class="st109" d="M563.97,453.76c-.4-.02-.48.49-.55.55-.21.16-.42.3-.55.55-.34.06-.8-.08-1.09,0-1.02.04-1.19-.39-1.64-1.09-.15-.24-.53-.92-.55-1.09.31.07.74-.05,1.09,0l.91.19c-.07-1.51.35-2.67,1.27-3.46-.29-1.21-1.3-1.28-2.18-.55.03-.37-1.86-2.81,1.82-1.54,1.95.67,1.42,4.73,1.46,6.45h0Z"/>
  <path class="st4" d="M482.06,446c-2.6,2.6-6.89-1.16-2.24-3.6,3.56-1.88,3.6,2.25,2.24,3.6Z"/>
  <path class="st0" d="M491.46,446.68c.64,1.57,1.18,1.94,1.64,1.09.64-.06,1.01.67,1.09,2.18-.47,4.85-7.52,1.04-3.8-2.98.27-.29.9-.17,1.08-.29h-.01Z"/>
  <path class="st17" d="M494.18,449.95c-.57-.63-.58-1.47-1.09-2.18-.89.64-1.43.28-1.64-1.09.24-.16.44-1.26,1.33-1.09,1.6.98,1.56,2.65,1.4,4.36Z"/>
  <path class="st15" d="M460.74,338.25c2.59-.84,5.16,3.71,2.22,5-3.09,1.36-5.01-4.1-2.22-5Z"/>
  <path class="st103" d="M442.24,342.42c-1.28,1.09-4.35.59-4.08-1.68.52-4.37,7.09-.9,4.08,1.68Z"/>
  <path class="st47" d="M452.13,339.9c1.69,2.7-2.78,4.45-4.06,2.69-2.05-2.83,2.92-4.51,4.06-2.69Z"/>
  <path class="st39" d="M601.42,333.92c2.78-.25,2.6,7.27-1.64,5.84-2.32-.78-.93-5.6,1.64-5.84Z"/>
  <path class="st120" d="M592.25,339.21c-.55.34-3.05.21-3.5-.43-.71-.99-.01-3.95,1.22-4.34,3.21-1.02,3.49,4.01,2.28,4.77Z"/>
  <path class="st86" d="M614.27,332.33c3.52-3.53,5.81,4.25,1.23,4.28-2.52.01-2.4-3.11-1.23-4.28Z"/>
  <path class="st42" d="M608.68,490.83c-.16-.15-.39-.79-.55-1.09.08-.88-.14-1.89,0-2.73,0-.03.54.03.54,0,.04,1.47,1.9,3.22,0,3.82h.01Z"/>
  <path class="st117" d="M589.05,500.1c.68.65,1.05,4.29-1.08,3.81-.46-.53-.27-5.1,1.08-3.81Z"/>
  <path class="st130" d="M501.82,228.63c.42.08,1.2-.23,1.52.08,1.18,1.11.28,3.12-1.78,3.21-1.44.06-.58-.6-.83-1.12l1.09-2.18h0Z"/>
  <path class="st137" d="M602.68,497.92c.2.2.07,4.06-1.9,3.26-2.49-1.02.47-4.68,1.9-3.26Z"/>
  <path class="st31" d="M457.65,496.28c.47,2.26-1.36,4.08-2.18,1.37.69-.67,1.15-1.58,2.18-1.37Z"/>
  <path class="st41" d="M456.02,500.64h-2.18c0-1.08-.37-1.9.81-1.63l1.37,1.63Z"/>
  <path class="st56" d="M466.92,470.66l-1.9,2.72c-1.96-1.75-.32-3.11,1.9-2.72Z"/>
  <path class="st68" d="M464.19,496.28c.09.8.09,2.44-.82,2.72-2.48.76-2.78-3.62.82-2.72Z"/>
  <path class="st50" d="M475.64,475.02c-2.5.54-2.93-2.53-1.35-3.81,1.64-.34,1.45,2.83,1.35,3.81Z"/>
  <path class="st56" d="M588.78,468.49c1.39-.05.88,4.3-.55,4.34-1.51.04-.52-4.3.55-4.34Z"/>
  <path class="st106" d="M613.04,105.43c1.23-.75,1.78-.75,1.64,0,7.27.37,16.17,3.35,22.1,7.62,4.6,3.31,5.34,6.94,7.89,11.46-.17.66-.72.66-1.64,0-2.51-5.04-3.44-8.52-8.36-11.54-6.7-4.11-16.48-7.18-24.35-6.99-.5-1.09,2.28-1.53,2.73-.55h-.01Z"/>
  <path class="st9" d="M644.67,124.51c.53.93.9,1.92,1.64,2.73-.03.54.05,1.1,0,1.64-.07.79,0,1.01,0,1.64-.15.48-.34.47-.55,0l-.55-.55c-.16-2.47-1.18-3.44-2.18-5.45l.32-.49,1.31.49h0Z"/>
  <path class="st70" d="M612.5,104.34c2.84-.66,3.6.54.55,1.09-.87.02-2.27-.33-2.73.55-.36,0-.75-.05-1.09,0-.47.07-1.17-.2-1.09.55-.62.35-2.78.6-2.73-.55,2.8-.97,4.6-1.01,7.09-1.64Z"/>
  <path class="st11" d="M573.79,119.6c-1.8,2.48-3.82,4.76-5.45,7.36,1.39.9,3.22-1.61,3.81-1.91-.01-.97.4-1.24,1.09-.55,2.06-.9,3.85-.94,6-1.09v.55l-.89,1.24c-5.34,1.08-9.79,4.56-13.4,8.5l-1.52.07c-1.15.62-1.33.26-.55-1.09,3.44-4.45,6.96-9.11,10.36-13.63l.55.55h0Z"/>
  <path class="st35" d="M601.59,107.61c.76-.23.92-.2.55.55-.53.22-2.44,2-3.7,2.57-5.13,2.31-10.95,4.36-15.93,6.7-.81.27-.96.25-.55-.55,6.42-3.18,13.2-6.23,19.63-9.27Z"/>
  <path class="st3" d="M623.4,101.61l.55,1.09c-3.01.57-6.51,1.4-9.27,2.73-.54-.03-1.1-.01-1.64,0l1.09-.55c.2-.89-.8-.47-1.63-.54,3.63-.91,7.28-1.8,10.9-2.73Z"/>
  <path class="st69" d="M582.51,117.42c-1.49.7-2.98,1.53-4.31,2.5l-4.96,4.58c-.33.14-.75.37-1.09.55-1.76.13-1.06-.31-.28-1.1,2.64-2.68,6.74-5.42,10.09-7.08l.55.55h0Z"/>
  <path class="st89" d="M608.14,106.52l.55.53h-1.1c-.28-.02-5.2.99-5.45,1.1l-.55-.55c1.25-.59,2.51-1.18,3.82-1.64l2.73.55h0Z"/>
  <path class="st29" d="M646.3,146.31c-.37,2.08-.87,4.05-1.64,6,.48,1.59.12,2.13-1.09,1.64,1.16,1.43-.92,5.14-2.73,4.91-.37.34-.74.35-1.09,0,.26-.62.93-4.21,1.09-4.37.45-.12,1.51.64,1.63.56.4-.28,3.1-8.35,3.28-9.27.34-.46.52-.28.55.55v-.02Z"/>
  <path class="st84" d="M646.3,146.31l-.55-.55c.52-2.74.34-6.45.55-9.27.03-.46.02-.94.55-1.09.25,3.89.16,6.96-.55,10.9h0Z"/>
  <path class="st113" d="M647.94,156.13v.55c-1.19,2.36-4.15-.89-4.36-2.73.31-.69.98-1.34,1.09-1.64.16,1.32,2.11,3.29,3.27,3.82h0Z"/>
  <path class="st20" d="M646.3,132.14c-.02.59.12,1.29.02,1.83s-.54.32-.56.35c-.03-1.27.02-2.55,0-3.82h.55c0,.54.02,1.09,0,1.64h-.01Z"/>
  <path class="st136" d="M640.85,158.85c1.23.86.85,1.42-.55,1.64l-1.37,1.08-.27-.53c.38-.58.82-1.52,1.09-2.18l.82-.53.27.53h0Z"/>
  <path class="st82" d="M563.43,133.78c.09,2.01-.74,3.01-2.73,3.27l-1.09-.55c1.15-1.53,2.37-2.65,3.27-3.82l.55,1.09h0Z"/>
  <path class="st78" d="M647.94,156.67c.11.07.44.41.55.55-.44,4.42-.98,8.87-1.6,13.35l-.58.27c-2.18-2.46-6.22-6.9-6-10.36.04-.63.28-1.09.55-1.64.67-1.37,1.87-3.01,2.73-4.91,1.43-.11,1.56,1.44,2.52,2.13.6.44,1.51.38,1.84.59v.02Z"/>
  <path class="st133" d="M648.48,157.22c.1.13.6.17.43.66-.66,4.66-1.56,9.35-1.52,14.05-.65.02-.79-.75-1.09-1.09l2.18-13.63h0Z"/>
  <path class="st98" d="M583.6,124.51c-1.2.76-.43,3.13-.54,3.25-.14.15-2.79.82-3.83,1.37-2.27,1.21-7.74,4.14-9.39,5.72-1.08,1.04-1.32,2.93-1.88,3.34-.7.51-2.07,0-3.08.53-2.46,1.31-6.13,6.69-9.09,4.86,1.51-2.14,3.26-4.6,4.91-6.54.91-1.08,1.81-2.2,2.73-3.27,3.92-4.58,9.59-9.1,15.81-9.81,1.03-.12,3.34.11,4.36.55h0Z"/>
  <path class="st55" d="M498.55,656.55c-5.1,3.14-8.48,8.36-13.63,10.9l6.53-6.82c2.17-1.59,4.2-3.3,6.55-4.63.87-.41,1.06-.32.55.55Z"/>
  <path class="st53" d="M498,656c.85-.48,2.15-1.74,3.27-1.37,1.89.62-2.24,1.62-2.73,1.92l-.55-.55h0Z"/>
  <path class="st26" d="M483.82,668c-.3,1.43-3.65-.18-3.81-1.09l3.81,1.09Z"/>
  <path class="st12" d="M562.88,449.4c.36,1.53-.46,3.37-.55,4.9-1.17.19-1.55-.62-1.63-1.63-.11-1.44.35-4.01,2.18-3.27Z"/>
  <path class="st110" d="M481.64,442.86c.98,3.83-4.28,2.83-2.03.68.33-.32,1.8-.94,2.03-.68Z"/>
  <path class="st50" d="M493.09,447.77v3.27l-2.69-.6c.11-.63.89-3.65,1.05-3.76.77-.55,1.29.61,1.64,1.09h0Z"/>
  <path class="st31" d="M463.1,342.01h-2.18v-2.72c2.06-.32,2.38.94,2.18,2.72Z"/>
  <path class="st91" d="M441.84,339.83c.21,1.02-.69,1.49-1.37,2.18-2.72-.81-.89-2.65,1.37-2.18Z"/>
  <path class="st101" d="M451.11,340.38v1.63h-2.18v-.81c.58-.86,1.17-.95,2.18-.82Z"/>
  <path class="st68" d="M602.14,335.47c.89.91-.88,4.59-2.18,3.27-.89-.91.88-4.59,2.18-3.27Z"/>
  <path class="st50" d="M591.78,336.02c.13,1,.03,1.6-.82,2.17h-.81v-2.17h1.63Z"/>
  <path class="st37" d="M616.86,332.75c.47,2.26-1.36,4.08-2.18,1.37.69-.67,1.15-1.58,2.18-1.37Z"/>
</svg>