<?xml version="1.0" encoding="UTF-8"?>
<svg id="Layer_1" xmlns="http://www.w3.org/2000/svg" version="1.1" viewBox="0 0 792 612">
  <!-- Generator: Adobe Illustrator 29.6.1, SVG Export Plug-In . SVG Version: 2.1.1 Build 9)  -->
  <defs>
    <style>
      .st0, .st1, .st2, .st3, .st4, .st5 {
        stroke-miterlimit: 10;
      }

      .st0, .st1, .st3, .st5 {
        stroke-width: 3px;
      }

      .st0, .st3 {
        fill: #a8362a;
      }

      .st0, .st4 {
        stroke: #fed194;
      }

      .st1 {
        fill: #bababa;
      }

      .st1, .st3, .st5 {
        stroke: #000;
      }

      .st2 {
        stroke: #ffd194;
      }

      .st2, .st6 {
        fill: #fbb019;
      }

      .st7 {
        font-family: ScorchedEarth, 'Scorched Earth';
        font-size: 30px;
        letter-spacing: .07em;
      }

      .st4 {
        font-family: VastrexDemo-Regular, Vastrex-Demo;
        font-size: 80px;
        letter-spacing: .13em;
      }

      .st8 {
        fill: #ffd194;
      }
    </style>
  </defs>
  <g>
    <polygon class="st5" points="318.45 174.3 292.05 141.99 304.56 131.76 331.54 164.77 319.02 175 318.45 174.3"/>
    <circle class="st3" cx="294.5" cy="132.6" r="10.73"/>
    <polygon class="st1" points="341.58 174.38 513.55 384.83 520.16 409.68 498.04 397.51 326.07 187.06 341.58 174.38"/>
    <rect class="st5" x="320.3" y="134.75" width="17.25" height="86.59" transform="translate(258.66 -189.32) rotate(50.75)"/>
  </g>
  <g>
    <polygon class="st5" points="481.82 174.3 508.22 141.99 495.71 131.76 468.73 164.77 481.25 175 481.82 174.3"/>
    <circle class="st3" cx="505.77" cy="132.6" r="10.73"/>
    <polygon class="st1" points="458.69 174.38 289.96 380.86 283.63 405.37 305.48 393.54 474.2 187.06 458.69 174.38"/>
    <rect class="st5" x="462.72" y="134.75" width="17.25" height="86.59" transform="translate(907.46 -74.28) rotate(129.25)"/>
  </g>
  <rect class="st0" x="169.32" y="215.28" width="470.11" height="140.01" rx="39.82" ry="39.82"/>
  <text class="st6" transform="translate(255 288.3)"><tspan class="st4"><tspan x="0" y="0">QUEST</tspan></tspan><tspan class="st7"><tspan x="80" y="50">Don&apos;t Die</tspan></tspan></text>
  <g>
    <path class="st6" d="M403.27,225.49c-3.67-2.37-6.54-5.76-9.81-8.66s-7.27-5.41-11.63-5.36c-7.44.08-12.93,7.29-20.18,8.99-2.66.62-5.44.47-8.17.21-3.97-.38-8.03-1.02-11.47-3.04s-6.15-5.71-5.95-9.69c.27-5.49,5.91-9.42,11.39-9.92-4.92,2.35-8.14,8.99-5.03,13.47.91,1.32,2.26,2.3,3.71,2.97,5.1,2.35,11.1.97,16.35-1.02s10.46-4.6,16.08-4.64c6.92-.05,13.68,4.25,16.56,10.54"/>
    <path class="st8" d="M403.58,224.95c-5.61-3.7-9.42-9.7-15.59-12.63-2.65-1.26-5.52-1.79-8.42-1.25-2.58.48-4.94,1.73-7.16,3.08-2.46,1.5-4.82,3.19-7.43,4.44-3.08,1.48-6.31,1.82-9.68,1.6-6.42-.42-14.39-1.57-17.65-7.95-3.54-6.93,3.28-12.92,9.79-13.6l-.32-1.16c-3.61,1.8-6.42,5.62-6.56,9.72-.16,4.92,4.16,8.07,8.63,8.85,11.53,2.02,21.16-8.6,32.62-6.34,5.54,1.09,10.35,4.82,12.76,9.93.34.73,1.42.09,1.08-.63-1.86-3.94-5.12-7.15-9.06-9.01-4.26-2.02-8.87-2.24-13.42-1.11-5.31,1.32-10.14,4.07-15.45,5.4-4.87,1.22-12.26,1.47-15.12-3.67-2.5-4.5,1.05-10.02,5.15-12.06.54-.27.3-1.23-.32-1.16-5.3.55-11.11,4.01-11.93,9.7-.93,6.53,4.99,11.31,10.63,12.95,3.37.98,7.03,1.37,10.53,1.47s6.44-.57,9.42-2.07c5.31-2.68,10.36-7.84,16.74-7.3,8.57.72,13.5,9.53,20.12,13.9.67.44,1.3-.64.63-1.08h0Z"/>
  </g>
  <g>
    <path class="st6" d="M407.73,224.5c3.67-2.37,6.54-5.76,9.81-8.66,3.27-2.9,7.27-5.41,11.63-5.36,7.44.08,12.93,7.29,20.18,8.99,2.66.62,5.44.47,8.17.21,3.97-.38,8.03-1.02,11.47-3.04s6.15-5.71,5.95-9.69c-.27-5.49-5.91-9.42-11.39-9.92,4.92,2.35,8.14,8.99,5.03,13.47-.91,1.32-2.26,2.3-3.71,2.97-5.1,2.35-11.1.97-16.35-1.02-5.25-1.99-10.46-4.6-16.08-4.64-6.92-.05-13.68,4.25-16.56,10.54"/>
    <path class="st8" d="M408.04,225.04c6.05-3.99,10.21-11,17.32-13.32,6.69-2.18,12.09,2.39,17.49,5.59,2.57,1.53,5.28,2.75,8.28,3.09,3.61.41,7.45-.06,11.01-.72,6-1.12,12.67-4.68,13.38-11.44s-6.02-11.22-11.97-11.84c-.62-.06-.85.9-.32,1.16,3.67,1.83,6.78,6.22,5.76,10.47-1.37,5.72-8.81,6.54-13.59,5.72-5.42-.93-10.27-3.61-15.47-5.26-4.62-1.47-9.45-1.89-14.05-.13s-8.44,5.19-10.55,9.65c-.34.72.74,1.36,1.08.63,2.15-4.55,6.19-8.02,11-9.48,5.6-1.71,11.13,0,16.37,2.06s10.48,4.42,16.16,4.05c4.5-.29,9.65-2.68,10.39-7.6.68-4.59-2.47-9.2-6.47-11.19l-.32,1.16c5.54.58,11.92,5.04,10.6,11.33-1.5,7.15-9.54,9.32-15.78,9.98-3.53.38-7.14.61-10.55-.6-2.66-.95-5.04-2.54-7.41-4.05-4.69-2.99-9.71-5.65-15.38-3.8-7.3,2.38-11.44,9.37-17.62,13.44-.67.44-.04,1.52.63,1.08h0Z"/>
  </g>
  <rect class="st2" x="396.33" y="209.51" width="17.42" height="17.42" transform="translate(-35.67 350.33) rotate(-45)"/>
  <g>
    <path class="st6" d="M405.5,345.06c3.67,2.37,6.54,5.76,9.81,8.66s7.27,5.41,11.63,5.36c7.44-.08,12.93-7.29,20.18-8.99,2.66-.62,5.44-.47,8.17-.21,3.97.38,8.03,1.02,11.47,3.04s6.15,5.71,5.95,9.69c-.27,5.49-5.91,9.42-11.39,9.92,4.92-2.35,8.14-8.99,5.03-13.47-.91-1.32-2.26-2.3-3.71-2.97-5.1-2.35-11.1-.97-16.35,1.02-5.25,1.99-10.46,4.6-16.08,4.64-6.92.05-13.68-4.25-16.56-10.54"/>
    <path class="st8" d="M405.18,345.6c5.61,3.7,9.42,9.7,15.59,12.63,2.65,1.26,5.52,1.79,8.42,1.25,2.58-.48,4.94-1.73,7.16-3.08,2.46-1.5,4.82-3.19,7.43-4.44,3.08-1.48,6.31-1.82,9.68-1.6,6.42.42,14.39,1.57,17.65,7.95,3.54,6.93-3.28,12.92-9.79,13.6l.32,1.16c3.61-1.8,6.42-5.62,6.56-9.72.16-4.92-4.16-8.07-8.63-8.85-11.53-2.02-21.16,8.6-32.62,6.34-5.54-1.09-10.35-4.82-12.76-9.93-.34-.73-1.42-.09-1.08.63,1.86,3.94,5.12,7.15,9.06,9.01,4.26,2.02,8.87,2.24,13.42,1.11,5.31-1.32,10.14-4.07,15.45-5.4,4.87-1.22,12.26-1.47,15.12,3.67,2.5,4.5-1.05,10.02-5.15,12.06-.54.27-.3,1.23.32,1.16,5.3-.55,11.11-4.01,11.93-9.7.93-6.53-4.99-11.31-10.63-12.95-3.37-.98-7.03-1.37-10.53-1.47s-6.44.57-9.42,2.07c-5.31,2.68-10.36,7.84-16.74,7.3-8.57-.72-13.5-9.53-20.12-13.9-.67-.44-1.3.64-.63,1.08h0Z"/>
  </g>
  <g>
    <path class="st6" d="M401.03,346.06c-3.67,2.37-6.54,5.76-9.81,8.66-3.27,2.9-7.27,5.41-11.63,5.36-7.44-.08-12.93-7.29-20.18-8.99-2.66-.62-5.44-.47-8.17-.21-3.97.38-8.03,1.02-11.47,3.04s-6.15,5.71-5.95,9.69c.27,5.49,5.91,9.42,11.39,9.92-4.92-2.35-8.14-8.99-5.03-13.47.91-1.32,2.26-2.3,3.71-2.97,5.1-2.35,11.1-.97,16.35,1.02,5.25,1.99,10.46,4.6,16.08,4.64,6.92.05,13.68-4.25,16.56-10.54"/>
    <path class="st8" d="M400.72,345.52c-6.05,3.99-10.21,11-17.32,13.32-6.69,2.18-12.09-2.39-17.49-5.59-2.57-1.53-5.28-2.75-8.28-3.09-3.61-.41-7.45.06-11.01.72-6,1.12-12.67,4.68-13.38,11.44s6.02,11.22,11.97,11.84c.62.06.85-.9.32-1.16-3.67-1.83-6.78-6.22-5.76-10.47,1.37-5.72,8.81-6.54,13.59-5.72,5.42.93,10.27,3.61,15.47,5.26,4.62,1.47,9.45,1.89,14.05.13s8.44-5.19,10.55-9.65c.34-.72-.74-1.36-1.08-.63-2.15,4.55-6.19,8.02-11,9.48-5.6,1.71-11.13,0-16.37-2.06s-10.48-4.42-16.16-4.05c-4.5.29-9.65,2.68-10.39,7.6-.68,4.59,2.47,9.2,6.47,11.19l.32-1.16c-5.54-.58-11.92-5.04-10.6-11.33,1.5-7.15,9.54-9.32,15.78-9.98,3.53-.38,7.14-.61,10.55.6,2.66.95,5.04,2.54,7.41,4.05,4.69,2.99,9.71,5.65,15.38,3.8,7.3-2.38,11.44-9.37,17.62-13.44.67-.44.04-1.52-.63-1.08h0Z"/>
  </g>
  <rect class="st2" x="395.01" y="343.62" width="17.42" height="17.42" transform="translate(938.33 315.99) rotate(135)"/>
  <rect class="st8" x="254.32" y="303.93" width="300.12" height="2.07"/>
</svg>