<?xml version="1.0" encoding="UTF-8"?>
<svg id="Layer_1" xmlns="http://www.w3.org/2000/svg" version="1.1" viewBox="0 0 1287.27 894.55">
  <!-- Generator: Adobe Illustrator 29.6.1, SVG Export Plug-In . SVG Version: 2.1.1 Build 9)  -->
  <defs>
    <style>
      .st0 {
        fill: #6A6767;
      }

      .st1 {
        fill: #fefefe;
      }
    </style>
  </defs>
  <path class="st0" d="M0,.55l.17-.27h1286.76c.24,298.14.17,596.23-.2,894.27H0V.55Z"/>
  <polygon class="st1" points="0 .55 0 0 1287.27 0 1287.27 894.55 1286.73 894.55 1286.73 .54 0 .55"/>
  <path d="M1016.48,578.73c6.03,7.07,27.24,6.5,36.55,8.43,7.56,1.57,10.94,3.76,10.15,12.19-.63,6.69-14.39,28.18-18.84,34.58-14.17,20.38-27.67,41.81-41.57,62.56-10.34,15.43-22.86,33.69-36.63,46.24-10.96,9.99-19.52,15.66-35.02,10.48-10.18-3.41-13.58-13.11-19.52-20.28-7.47-9.01-16.35-15.35-25.07-22.9-13.15-11.4-24.24-22.06-40.13-30.19-17.1-8.74-48.2-7.04-67.05-4.48-18.2,2.47-34.78,8.25-52.41,13.01-11.15,3.01-22.89,5.04-34.05,8.48-14.3,4.4-28.79,11.81-42.35,18.17-16.13,7.56-33.4,18.74-52.02,15.87-4.31-.66-6.84-4.19-8.97-4.66-3.19-.71-12.12-1.13-15.72-1.23-9.03-.25-15.9-.36-25.06-1.06-29.91-2.28-61.25-2.73-90.99.05-21.03,1.97-45.16,3.25-65.32,9.37-6.26,1.9-11.66,5.86-18.69,5.28-3.5-.29-5.27-1.41-7.17-4.27-6.1-9.19-11.93-21.35-17.41-31.11-13.5-24.03-21-46.02-27.34-72.97-4.51-19.19-8.61-50.73-20.34-66.34-14.4-19.17-31.27-25.21-47.98-39.8-20.21-17.65-7.83-42.72.02-63.23,8.35-21.81,17.14-43.57,25.9-65.14,4.97-12.23,19.92-38.22,11.71-50.44-3.51-5.23-11.57-5.07-9.36-13.71,2.45-9.59,16.55-23.06,22.97-31,18.53-22.89,36.68-45.52,56.45-67.3,15.04-16.57,31.11-32.14,47.43-47.43,2.98-2.79,4.31-2.18,7.6-3.31,16.36-5.62,32.97-10.75,49.37-16.05,7.63-2.46,15.59-5.1,23.7-5.74,12.79-1.01,34.24,2.03,45.6,7.32,1.16.54,4.16,1.2,4.85,1.69,1.32.94-.24,2.54.24,3.54,1.81,3.76,10.44-.06,13.61.05,1.62.06,3.89,1.18,5.64,1.45,14.56,2.23,26.24,5.65,41.17,1.64,2.74-.74,8.22-5.03,11.16-5.74,10.97-2.66,23.37-4.07,34.71-6.18,17.02-3.16,23.82-2.98,41.01,0,21.87,3.8,42.19,8.56,63.46,15.04,23.91,7.29,38.87,7.1,63.52,5.73,37.82-2.09,75.34-6.37,112.92-10.3,19.65-2.05,67.96-7.86,83.65,4,9.58,7.24,15.7,23.47,19.34,34.63,3.93,12.06-2.36,29-2.87,41.31-.7,17.05,6.41,31.74,9.53,47.98,2.92,15.21,2.43,30.31,4.59,45.56,2.3,16.33,7.34,31.45,8.05,48.05,1.24,28.92-6.48,66.05-16.03,93.49-6.33,18.19-15.4,35.64-19.77,54.37-2.45,10.48-4.91,25.28,2.79,34.3Z"/>
</svg>